<?xml version="1.0" encoding="UTF-8"?>
<!DOCTYPE svg PUBLIC "-//W3C//DTD SVG 1.1//EN" "http://www.w3.org/Graphics/SVG/1.1/DTD/svg11.dtd">
<!-- Creator: CorelDRAW 2017 -->
<svg xmlns="http://www.w3.org/2000/svg" xml:space="preserve" width="8mm" height="4mm" version="1.1" style="shape-rendering:geometricPrecision; text-rendering:geometricPrecision; image-rendering:optimizeQuality; fill-rule:evenodd; clip-rule:evenodd"
viewBox="0 0 800 400"
 xmlns:xlink="http://www.w3.org/1999/xlink">
 <defs>
  <style type="text/css">
   <![CDATA[
    .fil1 {fill:#2B2A29}
    .fil0 {fill:#B42322}
   ]]>
  </style>
 </defs>
 <g id="Vrstva_x0020_1">
  <metadata id="CorelCorpID_0Corel-Layer"/>
  <g id="_2901340523344">
   <path class="fil0" d="M173.14 199.99c0,-25.07 20.34,-45.4 45.4,-45.4 25.09,0 45.42,20.33 45.42,45.4 0,25.08 -20.33,45.41 -45.42,45.41 -25.06,0 -45.4,-20.33 -45.4,-45.41z"/>
   <path class="fil0" d="M324.37 199.99c0,-25.07 20.33,-45.4 45.41,-45.4 25.06,0 45.39,20.33 45.39,45.4 0,25.08 -20.33,45.41 -45.39,45.41 -25.08,0 -45.41,-20.33 -45.41,-45.41z"/>
   <path class="fil1" d="M475.63 200c0,-41.76 33.86,-75.62 75.61,-75.62 41.77,0 75.62,33.86 75.62,75.62 0,41.75 -33.85,75.61 -75.62,75.61 -41.75,0 -75.61,-33.86 -75.61,-75.61z"/>
  </g>
 </g>
</svg>
