<?xml version="1.0" encoding="UTF-8"?>
<!DOCTYPE svg PUBLIC "-//W3C//DTD SVG 1.1//EN" "http://www.w3.org/Graphics/SVG/1.1/DTD/svg11.dtd">
<!-- Creator: CorelDRAW 2017 -->
<svg xmlns="http://www.w3.org/2000/svg" xml:space="preserve" width="4mm" height="9mm" version="1.1" style="shape-rendering:geometricPrecision; text-rendering:geometricPrecision; image-rendering:optimizeQuality; fill-rule:evenodd; clip-rule:evenodd"
viewBox="0 0 400 900"
 xmlns:xlink="http://www.w3.org/1999/xlink">
 <defs>
  <style type="text/css">
   <![CDATA[
    .fil1 {fill:#2B2A29}
    .fil0 {fill:#B42322}
   ]]>
  </style>
 </defs>
 <g id="Vrstva_x0020_1">
  <metadata id="CorelCorpID_0Corel-Layer"/>
  <g id="_2902189672736">
   <path class="fil0" d="M154.59 344.16c0,-25.07 20.35,-45.4 45.41,-45.4 25.08,0 45.41,20.33 45.41,45.4 0,25.08 -20.33,45.41 -45.41,45.41 -25.06,0 -45.41,-20.33 -45.41,-45.41z"/>
   <path class="fil0" d="M154.59 192.94c0,-25.08 20.35,-45.41 45.41,-45.41 25.08,0 45.41,20.33 45.41,45.41 0,25.07 -20.33,45.4 -45.41,45.4 -25.06,0 -45.41,-20.33 -45.41,-45.4z"/>
   <path class="fil0" d="M200 540.8c25.08,0 45.41,-20.33 45.41,-45.41 0,-25.07 -20.33,-45.4 -45.41,-45.4 -25.06,0 -45.39,20.33 -45.39,45.4 0,25.08 20.33,45.41 45.39,45.41z"/>
   <path class="fil1" d="M200 752.48c41.76,0 75.61,-33.86 75.61,-75.61 0,-41.76 -33.85,-75.62 -75.61,-75.62 -41.75,0 -75.61,33.86 -75.61,75.62 0,41.75 33.86,75.61 75.61,75.61z"/>
  </g>
 </g>
</svg>
