<?xml version="1.0" encoding="UTF-8"?>
<!DOCTYPE svg PUBLIC "-//W3C//DTD SVG 1.1//EN" "http://www.w3.org/Graphics/SVG/1.1/DTD/svg11.dtd">
<!-- Creator: CorelDRAW 2017 -->
<svg xmlns="http://www.w3.org/2000/svg" xml:space="preserve" width="166mm" height="4mm" version="1.1" style="shape-rendering:geometricPrecision; text-rendering:geometricPrecision; image-rendering:optimizeQuality; fill-rule:evenodd; clip-rule:evenodd"
viewBox="0 0 16600 400"
 xmlns:xlink="http://www.w3.org/1999/xlink">
 <defs>
  <style type="text/css">
   <![CDATA[
    .fil1 {fill:#2B2A29}
    .fil0 {fill:#B42322}
   ]]>
  </style>
 </defs>
 <g id="Vrstva_x0020_1">
  <metadata id="CorelCorpID_0Corel-Layer"/>
  <g id="_2901817364976">
   <path class="fil0" d="M8708.26 199.99c0,-25.07 20.34,-45.4 45.41,-45.4 25.08,0 45.42,20.33 45.42,45.4 0,25.08 -20.34,45.41 -45.42,45.41 -25.07,0 -45.41,-20.33 -45.41,-45.41z"/>
   <path class="fil0" d="M8557.05 199.99c0,-25.07 20.33,-45.4 45.39,-45.4 25.08,0 45.41,20.33 45.41,45.4 0,25.08 -20.33,45.41 -45.41,45.41 -25.06,0 -45.39,-20.33 -45.39,-45.41z"/>
   <path class="fil0" d="M8405.82 199.99c0,-25.07 20.32,-45.4 45.41,-45.4 25.06,0 45.4,20.33 45.4,45.4 0,25.08 -20.34,45.41 -45.4,45.41 -25.09,0 -45.41,-20.33 -45.41,-45.41z"/>
   <path class="fil0" d="M8254.58 199.99c0,-25.07 20.35,-45.4 45.41,-45.4 25.08,0 45.41,20.33 45.41,45.4 0,25.08 -20.33,45.41 -45.41,45.41 -25.06,0 -45.41,-20.33 -45.41,-45.41z"/>
   <path class="fil0" d="M8103.37 199.99c0,-25.07 20.32,-45.4 45.4,-45.4 25.07,0 45.4,20.33 45.4,45.4 0,25.08 -20.33,45.41 -45.4,45.41 -25.08,0 -45.4,-20.33 -45.4,-45.41z"/>
   <path class="fil0" d="M7952.13 199.99c0,-25.07 20.33,-45.4 45.41,-45.4 25.08,0 45.41,20.33 45.41,45.4 0,25.08 -20.33,45.41 -45.41,45.41 -25.08,0 -45.41,-20.33 -45.41,-45.41z"/>
   <path class="fil0" d="M7800.91 199.99c0,-25.07 20.33,-45.4 45.4,-45.4 25.08,0 45.4,20.33 45.4,45.4 0,25.08 -20.32,45.41 -45.4,45.41 -25.07,0 -45.4,-20.33 -45.4,-45.41z"/>
   <path class="fil0" d="M7649.69 199.99c0,-25.07 20.33,-45.4 45.41,-45.4 25.06,0 45.41,20.33 45.41,45.4 0,25.08 -20.35,45.41 -45.41,45.41 -25.08,0 -45.41,-20.33 -45.41,-45.41z"/>
   <path class="fil0" d="M7498.46 199.99c0,-25.07 20.34,-45.4 45.4,-45.4 25.09,0 45.42,20.33 45.42,45.4 0,25.08 -20.33,45.41 -45.42,45.41 -25.06,0 -45.4,-20.33 -45.4,-45.41z"/>
   <path class="fil0" d="M7347.24 199.99c0,-25.07 20.33,-45.4 45.41,-45.4 25.06,0 45.39,20.33 45.39,45.4 0,25.08 -20.33,45.41 -45.39,45.41 -25.08,0 -45.41,-20.33 -45.41,-45.41z"/>
   <path class="fil0" d="M7196 199.99c0,-25.07 20.34,-45.4 45.42,-45.4 25.07,0 45.41,20.33 45.41,45.4 0,25.08 -20.34,45.41 -45.41,45.41 -25.08,0 -45.42,-20.33 -45.42,-45.41z"/>
   <path class="fil0" d="M7044.79 199.99c0,-25.07 20.33,-45.4 45.39,-45.4 25.08,0 45.41,20.33 45.41,45.4 0,25.08 -20.33,45.41 -45.41,45.41 -25.06,0 -45.39,-20.33 -45.39,-45.41z"/>
   <path class="fil0" d="M6893.56 199.99c0,-25.07 20.32,-45.4 45.4,-45.4 25.07,0 45.41,20.33 45.41,45.4 0,25.08 -20.34,45.41 -45.41,45.41 -25.08,0 -45.4,-20.33 -45.4,-45.41z"/>
   <path class="fil0" d="M6742.32 199.99c0,-25.07 20.33,-45.4 45.41,-45.4 25.08,0 45.41,20.33 45.41,45.4 0,25.08 -20.33,45.41 -45.41,45.41 -25.08,0 -45.41,-20.33 -45.41,-45.41z"/>
   <path class="fil0" d="M6591.1 199.99c0,-25.07 20.34,-45.4 45.41,-45.4 25.06,0 45.4,20.33 45.4,45.4 0,25.08 -20.34,45.41 -45.4,45.41 -25.07,0 -45.41,-20.33 -45.41,-45.41z"/>
   <path class="fil0" d="M6439.87 199.99c0,-25.07 20.33,-45.4 45.41,-45.4 25.08,0 45.41,20.33 45.41,45.4 0,25.08 -20.33,45.41 -45.41,45.41 -25.08,0 -45.41,-20.33 -45.41,-45.41z"/>
   <path class="fil0" d="M6288.65 199.99c0,-25.07 20.33,-45.4 45.4,-45.4 25.08,0 45.4,20.33 45.4,45.4 0,25.08 -20.32,45.41 -45.4,45.41 -25.07,0 -45.4,-20.33 -45.4,-45.41z"/>
   <path class="fil0" d="M6137.42 199.99c0,-25.07 20.33,-45.4 45.41,-45.4 25.06,0 45.41,20.33 45.41,45.4 0,25.08 -20.35,45.41 -45.41,45.41 -25.08,0 -45.41,-20.33 -45.41,-45.41z"/>
   <path class="fil0" d="M5986.19 199.99c0,-25.07 20.34,-45.4 45.4,-45.4 25.09,0 45.42,20.33 45.42,45.4 0,25.08 -20.33,45.41 -45.42,45.41 -25.06,0 -45.4,-20.33 -45.4,-45.41z"/>
   <path class="fil0" d="M5834.97 199.99c0,-25.07 20.33,-45.4 45.41,-45.4 25.06,0 45.39,20.33 45.39,45.4 0,25.08 -20.33,45.41 -45.39,45.41 -25.08,0 -45.41,-20.33 -45.41,-45.41z"/>
   <path class="fil0" d="M5683.73 199.99c0,-25.07 20.33,-45.4 45.42,-45.4 25.06,0 45.4,20.33 45.4,45.4 0,25.08 -20.34,45.41 -45.4,45.41 -25.09,0 -45.42,-20.33 -45.42,-45.41z"/>
   <path class="fil0" d="M5532.5 199.99c0,-25.07 20.35,-45.4 45.41,-45.4 25.08,0 45.41,20.33 45.41,45.4 0,25.08 -20.33,45.41 -45.41,45.41 -25.06,0 -45.41,-20.33 -45.41,-45.41z"/>
   <path class="fil0" d="M5381.29 199.99c0,-25.07 20.32,-45.4 45.4,-45.4 25.07,0 45.4,20.33 45.4,45.4 0,25.08 -20.33,45.41 -45.4,45.41 -25.08,0 -45.4,-20.33 -45.4,-45.41z"/>
   <path class="fil0" d="M5230.05 199.99c0,-25.07 20.33,-45.4 45.41,-45.4 25.08,0 45.41,20.33 45.41,45.4 0,25.08 -20.33,45.41 -45.41,45.41 -25.08,0 -45.41,-20.33 -45.41,-45.41z"/>
   <path class="fil0" d="M5078.83 199.99c0,-25.07 20.34,-45.4 45.4,-45.4 25.07,0 45.41,20.33 45.41,45.4 0,25.08 -20.34,45.41 -45.41,45.41 -25.06,0 -45.4,-20.33 -45.4,-45.41z"/>
   <path class="fil0" d="M4927.6 199.99c0,-25.07 20.33,-45.4 45.41,-45.4 25.08,0 45.41,20.33 45.41,45.4 0,25.08 -20.33,45.41 -45.41,45.41 -25.08,0 -45.41,-20.33 -45.41,-45.41z"/>
   <path class="fil0" d="M4776.37 199.99c0,-25.07 20.34,-45.4 45.41,-45.4 25.08,0 45.4,20.33 45.4,45.4 0,25.08 -20.32,45.41 -45.4,45.41 -25.07,0 -45.41,-20.33 -45.41,-45.41z"/>
   <path class="fil0" d="M4625.15 199.99c0,-25.07 20.33,-45.4 45.41,-45.4 25.06,0 45.39,20.33 45.39,45.4 0,25.08 -20.33,45.41 -45.39,45.41 -25.08,0 -45.41,-20.33 -45.41,-45.41z"/>
   <path class="fil0" d="M4473.92 199.99c0,-25.07 20.33,-45.4 45.4,-45.4 25.08,0 45.42,20.33 45.42,45.4 0,25.08 -20.34,45.41 -45.42,45.41 -25.07,0 -45.4,-20.33 -45.4,-45.41z"/>
   <path class="fil0" d="M4322.7 199.99c0,-25.07 20.33,-45.4 45.39,-45.4 25.08,0 45.41,20.33 45.41,45.4 0,25.08 -20.33,45.41 -45.41,45.41 -25.06,0 -45.39,-20.33 -45.39,-45.41z"/>
   <path class="fil0" d="M4171.46 199.99c0,-25.07 20.33,-45.4 45.42,-45.4 25.06,0 45.4,20.33 45.4,45.4 0,25.08 -20.34,45.41 -45.4,45.41 -25.09,0 -45.42,-20.33 -45.42,-45.41z"/>
   <path class="fil0" d="M4020.23 199.99c0,-25.07 20.35,-45.4 45.41,-45.4 25.08,0 45.41,20.33 45.41,45.4 0,25.08 -20.33,45.41 -45.41,45.41 -25.06,0 -45.41,-20.33 -45.41,-45.41z"/>
   <path class="fil0" d="M3869.02 199.99c0,-25.07 20.32,-45.4 45.4,-45.4 25.07,0 45.4,20.33 45.4,45.4 0,25.08 -20.33,45.41 -45.4,45.41 -25.08,0 -45.4,-20.33 -45.4,-45.41z"/>
   <path class="fil0" d="M3717.78 199.99c0,-25.07 20.33,-45.4 45.41,-45.4 25.08,0 45.41,20.33 45.41,45.4 0,25.08 -20.33,45.41 -45.41,45.41 -25.08,0 -45.41,-20.33 -45.41,-45.41z"/>
   <path class="fil0" d="M3566.56 199.99c0,-25.07 20.33,-45.4 45.4,-45.4 25.08,0 45.4,20.33 45.4,45.4 0,25.08 -20.32,45.41 -45.4,45.41 -25.07,0 -45.4,-20.33 -45.4,-45.41z"/>
   <path class="fil0" d="M3415.33 199.99c0,-25.07 20.33,-45.4 45.41,-45.4 25.06,0 45.41,20.33 45.41,45.4 0,25.08 -20.35,45.41 -45.41,45.41 -25.08,0 -45.41,-20.33 -45.41,-45.41z"/>
   <path class="fil0" d="M3264.1 199.99c0,-25.07 20.34,-45.4 45.4,-45.4 25.09,0 45.41,20.33 45.41,45.4 0,25.08 -20.32,45.41 -45.41,45.41 -25.06,0 -45.4,-20.33 -45.4,-45.41z"/>
   <path class="fil0" d="M3112.88 199.99c0,-25.07 20.33,-45.4 45.41,-45.4 25.06,0 45.39,20.33 45.39,45.4 0,25.08 -20.33,45.41 -45.39,45.41 -25.08,0 -45.41,-20.33 -45.41,-45.41z"/>
   <path class="fil0" d="M2961.64 199.99c0,-25.07 20.34,-45.4 45.42,-45.4 25.07,0 45.41,20.33 45.41,45.4 0,25.08 -20.34,45.41 -45.41,45.41 -25.08,0 -45.42,-20.33 -45.42,-45.41z"/>
   <path class="fil0" d="M2810.43 199.99c0,-25.07 20.33,-45.4 45.39,-45.4 25.08,0 45.41,20.33 45.41,45.4 0,25.08 -20.33,45.41 -45.41,45.41 -25.06,0 -45.39,-20.33 -45.39,-45.41z"/>
   <path class="fil0" d="M2659.2 199.99c0,-25.07 20.32,-45.4 45.41,-45.4 25.06,0 45.4,20.33 45.4,45.4 0,25.08 -20.34,45.41 -45.4,45.41 -25.09,0 -45.41,-20.33 -45.41,-45.41z"/>
   <path class="fil0" d="M2507.96 199.99c0,-25.07 20.35,-45.4 45.41,-45.4 25.08,0 45.41,20.33 45.41,45.4 0,25.08 -20.33,45.41 -45.41,45.41 -25.06,0 -45.41,-20.33 -45.41,-45.41z"/>
   <path class="fil0" d="M1449.37 199.99c0,-25.07 20.34,-45.4 45.42,-45.4 25.06,0 45.4,20.33 45.4,45.4 0,25.08 -20.34,45.41 -45.4,45.41 -25.08,0 -45.42,-20.33 -45.42,-45.41z"/>
   <path class="fil0" d="M1600.61 199.99c0,-25.07 20.33,-45.4 45.41,-45.4 25.06,0 45.39,20.33 45.39,45.4 0,25.08 -20.33,45.41 -45.39,45.41 -25.08,0 -45.41,-20.33 -45.41,-45.41z"/>
   <path class="fil0" d="M1751.83 199.99c0,-25.07 20.34,-45.4 45.4,-45.4 25.09,0 45.42,20.33 45.42,45.4 0,25.08 -20.33,45.41 -45.42,45.41 -25.06,0 -45.4,-20.33 -45.4,-45.41z"/>
   <path class="fil0" d="M1903.06 199.99c0,-25.07 20.33,-45.4 45.41,-45.4 25.06,0 45.41,20.33 45.41,45.4 0,25.08 -20.35,45.41 -45.41,45.41 -25.08,0 -45.41,-20.33 -45.41,-45.41z"/>
   <path class="fil0" d="M2054.29 199.99c0,-25.07 20.33,-45.4 45.4,-45.4 25.08,0 45.4,20.33 45.4,45.4 0,25.08 -20.32,45.41 -45.4,45.41 -25.07,0 -45.4,-20.33 -45.4,-45.41z"/>
   <path class="fil0" d="M2205.51 199.99c0,-25.07 20.33,-45.4 45.41,-45.4 25.08,0 45.41,20.33 45.41,45.4 0,25.08 -20.33,45.41 -45.41,45.41 -25.08,0 -45.41,-20.33 -45.41,-45.41z"/>
   <path class="fil0" d="M2356.75 199.99c0,-25.07 20.32,-45.4 45.4,-45.4 25.06,0 45.4,20.33 45.4,45.4 0,25.08 -20.34,45.41 -45.4,45.41 -25.08,0 -45.4,-20.33 -45.4,-45.41z"/>
   <path class="fil0" d="M1298.16 199.99c0,-25.07 20.33,-45.4 45.39,-45.4 25.08,0 45.41,20.33 45.41,45.4 0,25.08 -20.33,45.41 -45.41,45.41 -25.06,0 -45.39,-20.33 -45.39,-45.41z"/>
   <path class="fil0" d="M1146.93 199.99c0,-25.07 20.32,-45.4 45.4,-45.4 25.07,0 45.41,20.33 45.41,45.4 0,25.08 -20.34,45.41 -45.41,45.41 -25.08,0 -45.4,-20.33 -45.4,-45.41z"/>
   <path class="fil0" d="M995.69 199.99c0,-25.07 20.33,-45.4 45.41,-45.4 25.08,0 45.41,20.33 45.41,45.4 0,25.08 -20.33,45.41 -45.41,45.41 -25.08,0 -45.41,-20.33 -45.41,-45.41z"/>
   <path class="fil0" d="M844.47 199.99c0,-25.07 20.34,-45.4 45.41,-45.4 25.06,0 45.4,20.33 45.4,45.4 0,25.08 -20.34,45.41 -45.4,45.41 -25.07,0 -45.41,-20.33 -45.41,-45.41z"/>
   <path class="fil0" d="M693.24 199.99c0,-25.07 20.33,-45.4 45.41,-45.4 25.08,0 45.41,20.33 45.41,45.4 0,25.08 -20.33,45.41 -45.41,45.41 -25.08,0 -45.41,-20.33 -45.41,-45.41z"/>
   <path class="fil0" d="M542.01 199.99c0,-25.07 20.34,-45.4 45.41,-45.4 25.08,0 45.4,20.33 45.4,45.4 0,25.08 -20.32,45.41 -45.4,45.41 -25.07,0 -45.41,-20.33 -45.41,-45.41z"/>
   <path class="fil0" d="M390.79 199.99c0,-25.07 20.33,-45.4 45.41,-45.4 25.06,0 45.39,20.33 45.39,45.4 0,25.08 -20.33,45.41 -45.39,45.41 -25.08,0 -45.41,-20.33 -45.41,-45.41z"/>
   <path class="fil0" d="M8859.5 199.99c0,-25.07 20.33,-45.4 45.41,-45.4 25.06,0 45.39,20.33 45.39,45.4 0,25.08 -20.33,45.41 -45.39,45.41 -25.08,0 -45.41,-20.33 -45.41,-45.41z"/>
   <path class="fil0" d="M9010.72 199.99c0,-25.07 20.34,-45.4 45.4,-45.4 25.09,0 45.41,20.33 45.41,45.4 0,25.08 -20.32,45.41 -45.41,45.41 -25.06,0 -45.4,-20.33 -45.4,-45.41z"/>
   <path class="fil0" d="M9161.95 199.99c0,-25.07 20.33,-45.4 45.41,-45.4 25.08,0 45.41,20.33 45.41,45.4 0,25.08 -20.33,45.41 -45.41,45.41 -25.08,0 -45.41,-20.33 -45.41,-45.41z"/>
   <path class="fil0" d="M9313.18 199.99c0,-25.07 20.34,-45.4 45.4,-45.4 25.07,0 45.4,20.33 45.4,45.4 0,25.08 -20.33,45.41 -45.4,45.41 -25.06,0 -45.4,-20.33 -45.4,-45.41z"/>
   <path class="fil0" d="M9464.4 199.99c0,-25.07 20.33,-45.4 45.41,-45.4 25.08,0 45.41,20.33 45.41,45.4 0,25.08 -20.33,45.41 -45.41,45.41 -25.08,0 -45.41,-20.33 -45.41,-45.41z"/>
   <path class="fil0" d="M9615.64 199.99c0,-25.07 20.32,-45.4 45.4,-45.4 25.07,0 45.4,20.33 45.4,45.4 0,25.08 -20.33,45.41 -45.4,45.41 -25.08,0 -45.4,-20.33 -45.4,-45.41z"/>
   <path class="fil0" d="M9766.85 199.99c0,-25.07 20.35,-45.4 45.41,-45.4 25.08,0 45.41,20.33 45.41,45.4 0,25.08 -20.33,45.41 -45.41,45.41 -25.06,0 -45.41,-20.33 -45.41,-45.41z"/>
   <path class="fil0" d="M9918.08 199.99c0,-25.07 20.33,-45.4 45.42,-45.4 25.06,0 45.4,20.33 45.4,45.4 0,25.08 -20.34,45.41 -45.4,45.41 -25.09,0 -45.42,-20.33 -45.42,-45.41z"/>
   <path class="fil0" d="M10069.32 199.99c0,-25.07 20.33,-45.4 45.39,-45.4 25.08,0 45.41,20.33 45.41,45.4 0,25.08 -20.33,45.41 -45.41,45.41 -25.06,0 -45.39,-20.33 -45.39,-45.41z"/>
   <path class="fil0" d="M10220.54 199.99c0,-25.07 20.34,-45.4 45.4,-45.4 25.08,0 45.42,20.33 45.42,45.4 0,25.08 -20.34,45.41 -45.42,45.41 -25.06,0 -45.4,-20.33 -45.4,-45.41z"/>
   <path class="fil0" d="M10371.77 199.99c0,-25.07 20.33,-45.4 45.41,-45.4 25.06,0 45.39,20.33 45.39,45.4 0,25.08 -20.33,45.41 -45.39,45.41 -25.08,0 -45.41,-20.33 -45.41,-45.41z"/>
   <path class="fil0" d="M10522.99 199.99c0,-25.07 20.34,-45.4 45.41,-45.4 25.08,0 45.4,20.33 45.4,45.4 0,25.08 -20.32,45.41 -45.4,45.41 -25.07,0 -45.41,-20.33 -45.41,-45.41z"/>
   <path class="fil0" d="M10674.22 199.99c0,-25.07 20.33,-45.4 45.41,-45.4 25.08,0 45.41,20.33 45.41,45.4 0,25.08 -20.33,45.41 -45.41,45.41 -25.08,0 -45.41,-20.33 -45.41,-45.41z"/>
   <path class="fil0" d="M10825.45 199.99c0,-25.07 20.34,-45.4 45.41,-45.4 25.06,0 45.4,20.33 45.4,45.4 0,25.08 -20.34,45.41 -45.4,45.41 -25.07,0 -45.41,-20.33 -45.41,-45.41z"/>
   <path class="fil0" d="M10976.67 199.99c0,-25.07 20.33,-45.4 45.41,-45.4 25.08,0 45.41,20.33 45.41,45.4 0,25.08 -20.33,45.41 -45.41,45.41 -25.08,0 -45.41,-20.33 -45.41,-45.41z"/>
   <path class="fil0" d="M11127.91 199.99c0,-25.07 20.32,-45.4 45.4,-45.4 25.07,0 45.41,20.33 45.41,45.4 0,25.08 -20.34,45.41 -45.41,45.41 -25.08,0 -45.4,-20.33 -45.4,-45.41z"/>
   <path class="fil0" d="M11279.14 199.99c0,-25.07 20.33,-45.4 45.39,-45.4 25.08,0 45.41,20.33 45.41,45.4 0,25.08 -20.33,45.41 -45.41,45.41 -25.06,0 -45.39,-20.33 -45.39,-45.41z"/>
   <path class="fil0" d="M11430.35 199.99c0,-25.07 20.33,-45.4 45.42,-45.4 25.06,0 45.4,20.33 45.4,45.4 0,25.08 -20.34,45.41 -45.4,45.41 -25.09,0 -45.42,-20.33 -45.42,-45.41z"/>
   <path class="fil0" d="M11581.59 199.99c0,-25.07 20.33,-45.4 45.41,-45.4 25.06,0 45.39,20.33 45.39,45.4 0,25.08 -20.33,45.41 -45.39,45.41 -25.08,0 -45.41,-20.33 -45.41,-45.41z"/>
   <path class="fil0" d="M11732.81 199.99c0,-25.07 20.34,-45.4 45.4,-45.4 25.09,0 45.42,20.33 45.42,45.4 0,25.08 -20.33,45.41 -45.42,45.41 -25.06,0 -45.4,-20.33 -45.4,-45.41z"/>
   <path class="fil0" d="M11884.04 199.99c0,-25.07 20.33,-45.4 45.41,-45.4 25.06,0 45.41,20.33 45.41,45.4 0,25.08 -20.35,45.41 -45.41,45.41 -25.08,0 -45.41,-20.33 -45.41,-45.41z"/>
   <path class="fil0" d="M12035.27 199.99c0,-25.07 20.33,-45.4 45.4,-45.4 25.08,0 45.4,20.33 45.4,45.4 0,25.08 -20.32,45.41 -45.4,45.41 -25.07,0 -45.4,-20.33 -45.4,-45.41z"/>
   <path class="fil0" d="M12186.49 199.99c0,-25.07 20.33,-45.4 45.41,-45.4 25.08,0 45.41,20.33 45.41,45.4 0,25.08 -20.33,45.41 -45.41,45.41 -25.08,0 -45.41,-20.33 -45.41,-45.41z"/>
   <path class="fil0" d="M12337.73 199.99c0,-25.07 20.33,-45.4 45.4,-45.4 25.06,0 45.4,20.33 45.4,45.4 0,25.08 -20.34,45.41 -45.4,45.41 -25.07,0 -45.4,-20.33 -45.4,-45.41z"/>
   <path class="fil0" d="M12488.94 199.99c0,-25.07 20.33,-45.4 45.41,-45.4 25.08,0 45.41,20.33 45.41,45.4 0,25.08 -20.33,45.41 -45.41,45.41 -25.08,0 -45.41,-20.33 -45.41,-45.41z"/>
   <path class="fil0" d="M12640.18 199.99c0,-25.07 20.32,-45.4 45.41,-45.4 25.06,0 45.4,20.33 45.4,45.4 0,25.08 -20.34,45.41 -45.4,45.41 -25.09,0 -45.41,-20.33 -45.41,-45.41z"/>
   <path class="fil0" d="M12791.41 199.99c0,-25.07 20.33,-45.4 45.39,-45.4 25.08,0 45.41,20.33 45.41,45.4 0,25.08 -20.33,45.41 -45.41,45.41 -25.06,0 -45.39,-20.33 -45.39,-45.41z"/>
   <path class="fil0" d="M12942.62 199.99c0,-25.07 20.34,-45.4 45.42,-45.4 25.07,0 45.41,20.33 45.41,45.4 0,25.08 -20.34,45.41 -45.41,45.41 -25.08,0 -45.42,-20.33 -45.42,-45.41z"/>
   <path class="fil0" d="M13093.86 199.99c0,-25.07 20.33,-45.4 45.41,-45.4 25.06,0 45.39,20.33 45.39,45.4 0,25.08 -20.33,45.41 -45.39,45.41 -25.08,0 -45.41,-20.33 -45.41,-45.41z"/>
   <path class="fil0" d="M13245.08 199.99c0,-25.07 20.34,-45.4 45.4,-45.4 25.09,0 45.41,20.33 45.41,45.4 0,25.08 -20.32,45.41 -45.41,45.41 -25.06,0 -45.4,-20.33 -45.4,-45.41z"/>
   <path class="fil0" d="M13396.31 199.99c0,-25.07 20.33,-45.4 45.41,-45.4 25.06,0 45.41,20.33 45.41,45.4 0,25.08 -20.35,45.41 -45.41,45.41 -25.08,0 -45.41,-20.33 -45.41,-45.41z"/>
   <path class="fil0" d="M13547.54 199.99c0,-25.07 20.33,-45.4 45.4,-45.4 25.08,0 45.4,20.33 45.4,45.4 0,25.08 -20.32,45.41 -45.4,45.41 -25.07,0 -45.4,-20.33 -45.4,-45.41z"/>
   <path class="fil0" d="M13698.76 199.99c0,-25.07 20.33,-45.4 45.41,-45.4 25.08,0 45.41,20.33 45.41,45.4 0,25.08 -20.33,45.41 -45.41,45.41 -25.08,0 -45.41,-20.33 -45.41,-45.41z"/>
   <path class="fil0" d="M13850 199.99c0,-25.07 20.32,-45.4 45.4,-45.4 25.07,0 45.4,20.33 45.4,45.4 0,25.08 -20.33,45.41 -45.4,45.41 -25.08,0 -45.4,-20.33 -45.4,-45.41z"/>
   <path class="fil0" d="M14001.21 199.99c0,-25.07 20.35,-45.4 45.41,-45.4 25.08,0 45.41,20.33 45.41,45.4 0,25.08 -20.33,45.41 -45.41,45.41 -25.06,0 -45.41,-20.33 -45.41,-45.41z"/>
   <path class="fil0" d="M14152.44 199.99c0,-25.07 20.33,-45.4 45.42,-45.4 25.06,0 45.4,20.33 45.4,45.4 0,25.08 -20.34,45.41 -45.4,45.41 -25.09,0 -45.42,-20.33 -45.42,-45.41z"/>
   <path class="fil0" d="M14303.68 199.99c0,-25.07 20.33,-45.4 45.39,-45.4 25.08,0 45.41,20.33 45.41,45.4 0,25.08 -20.33,45.41 -45.41,45.41 -25.06,0 -45.39,-20.33 -45.39,-45.41z"/>
   <path class="fil0" d="M14454.89 199.99c0,-25.07 20.34,-45.4 45.41,-45.4 25.08,0 45.42,20.33 45.42,45.4 0,25.08 -20.34,45.41 -45.42,45.41 -25.07,0 -45.41,-20.33 -45.41,-45.41z"/>
   <path class="fil0" d="M14606.13 199.99c0,-25.07 20.33,-45.4 45.41,-45.4 25.06,0 45.39,20.33 45.39,45.4 0,25.08 -20.33,45.41 -45.39,45.41 -25.08,0 -45.41,-20.33 -45.41,-45.41z"/>
   <path class="fil0" d="M14757.35 199.99c0,-25.07 20.34,-45.4 45.4,-45.4 25.09,0 45.41,20.33 45.41,45.4 0,25.08 -20.32,45.41 -45.41,45.41 -25.06,0 -45.4,-20.33 -45.4,-45.41z"/>
   <path class="fil0" d="M14908.58 199.99c0,-25.07 20.33,-45.4 45.41,-45.4 25.08,0 45.41,20.33 45.41,45.4 0,25.08 -20.33,45.41 -45.41,45.41 -25.08,0 -45.41,-20.33 -45.41,-45.41z"/>
   <path class="fil0" d="M15059.81 199.99c0,-25.07 20.34,-45.4 45.4,-45.4 25.07,0 45.41,20.33 45.41,45.4 0,25.08 -20.34,45.41 -45.41,45.41 -25.06,0 -45.4,-20.33 -45.4,-45.41z"/>
   <path class="fil0" d="M15211.03 199.99c0,-25.07 20.33,-45.4 45.41,-45.4 25.08,0 45.41,20.33 45.41,45.4 0,25.08 -20.33,45.41 -45.41,45.41 -25.08,0 -45.41,-20.33 -45.41,-45.41z"/>
   <path class="fil0" d="M15362.27 199.99c0,-25.07 20.32,-45.4 45.4,-45.4 25.07,0 45.4,20.33 45.4,45.4 0,25.08 -20.33,45.41 -45.4,45.41 -25.08,0 -45.4,-20.33 -45.4,-45.41z"/>
   <path class="fil0" d="M15513.48 199.99c0,-25.07 20.35,-45.4 45.41,-45.4 25.08,0 45.41,20.33 45.41,45.4 0,25.08 -20.33,45.41 -45.41,45.41 -25.06,0 -45.41,-20.33 -45.41,-45.41z"/>
   <path class="fil0" d="M15664.71 199.99c0,-25.07 20.33,-45.4 45.42,-45.4 25.06,0 45.4,20.33 45.4,45.4 0,25.08 -20.34,45.41 -45.4,45.41 -25.09,0 -45.42,-20.33 -45.42,-45.41z"/>
   <path class="fil0" d="M15815.95 199.99c0,-25.07 20.33,-45.4 45.39,-45.4 25.08,0 45.41,20.33 45.41,45.4 0,25.08 -20.33,45.41 -45.41,45.41 -25.06,0 -45.39,-20.33 -45.39,-45.41z"/>
   <path class="fil0" d="M15967.17 199.99c0,-25.07 20.34,-45.4 45.4,-45.4 25.09,0 45.42,20.33 45.42,45.4 0,25.08 -20.33,45.41 -45.42,45.41 -25.06,0 -45.4,-20.33 -45.4,-45.41z"/>
   <path class="fil0" d="M16118.4 199.99c0,-25.07 20.33,-45.4 45.41,-45.4 25.06,0 45.39,20.33 45.39,45.4 0,25.08 -20.33,45.41 -45.39,45.41 -25.08,0 -45.41,-20.33 -45.41,-45.41z"/>
   <path class="fil1" d="M16269.66 200c0,-41.76 33.86,-75.62 75.61,-75.62 41.77,0 75.62,33.86 75.62,75.62 0,41.75 -33.85,75.61 -75.62,75.61 -41.75,0 -75.61,-33.86 -75.61,-75.61z"/>
   <path class="fil1" d="M179.11 200c0,-41.76 33.86,-75.62 75.61,-75.62 41.75,0 75.61,33.86 75.61,75.62 0,41.75 -33.86,75.61 -75.61,75.61 -41.75,0 -75.61,-33.86 -75.61,-75.61z"/>
  </g>
 </g>
</svg>
