<?xml version="1.0" encoding="UTF-8"?>
<!DOCTYPE svg PUBLIC "-//W3C//DTD SVG 1.1//EN" "http://www.w3.org/Graphics/SVG/1.1/DTD/svg11.dtd">
<!-- Creator: CorelDRAW 2017 -->
<svg xmlns="http://www.w3.org/2000/svg" xml:space="preserve" width="4mm" height="80mm" version="1.1" style="shape-rendering:geometricPrecision; text-rendering:geometricPrecision; image-rendering:optimizeQuality; fill-rule:evenodd; clip-rule:evenodd"
viewBox="0 0 400 8000"
 xmlns:xlink="http://www.w3.org/1999/xlink">
 <defs>
  <style type="text/css">
   <![CDATA[
    .fil0 {fill:#B42322}
   ]]>
  </style>
 </defs>
 <g id="Vrstva_x0020_1">
  <metadata id="CorelCorpID_0Corel-Layer"/>
  <g id="_2902253511296">
   <path class="fil0" d="M154.59 2790.18c0,-25.07 20.35,-45.41 45.41,-45.41 25.08,0 45.41,20.34 45.41,45.41 0,25.07 -20.33,45.41 -45.41,45.41 -25.06,0 -45.41,-20.34 -45.41,-45.41z"/>
   <path class="fil0" d="M154.59 2941.41c0,-25.08 20.35,-45.41 45.41,-45.41 25.08,0 45.41,20.33 45.41,45.41 0,25.07 -20.33,45.4 -45.41,45.4 -25.06,0 -45.41,-20.33 -45.41,-45.4z"/>
   <path class="fil0" d="M154.59 3092.63c0,-25.07 20.35,-45.4 45.41,-45.4 25.08,0 45.41,20.33 45.41,45.4 0,25.08 -20.33,45.41 -45.41,45.41 -25.06,0 -45.41,-20.33 -45.41,-45.41z"/>
   <path class="fil0" d="M154.59 3243.86c0,-25.07 20.35,-45.41 45.41,-45.41 25.08,0 45.41,20.34 45.41,45.41 0,25.07 -20.33,45.41 -45.41,45.41 -25.06,0 -45.41,-20.34 -45.41,-45.41z"/>
   <path class="fil0" d="M154.59 3395.09c0,-25.08 20.35,-45.41 45.41,-45.41 25.08,0 45.41,20.33 45.41,45.41 0,25.07 -20.33,45.4 -45.41,45.4 -25.06,0 -45.41,-20.33 -45.41,-45.4z"/>
   <path class="fil0" d="M154.59 3546.31c0,-25.07 20.35,-45.4 45.41,-45.4 25.08,0 45.41,20.33 45.41,45.4 0,25.08 -20.33,45.41 -45.41,45.41 -25.06,0 -45.41,-20.33 -45.41,-45.41z"/>
   <path class="fil0" d="M154.59 5965.95c0,-25.08 20.35,-45.41 45.41,-45.41 25.08,0 45.41,20.33 45.41,45.41 0,25.07 -20.33,45.4 -45.41,45.4 -25.06,0 -45.41,-20.33 -45.41,-45.4z"/>
   <path class="fil0" d="M154.59 6117.18c0,-25.08 20.35,-45.41 45.41,-45.41 25.08,0 45.41,20.33 45.41,45.41 0,25.07 -20.33,45.4 -45.41,45.4 -25.06,0 -45.41,-20.33 -45.41,-45.4z"/>
   <path class="fil0" d="M154.59 6268.4c0,-25.07 20.35,-45.4 45.41,-45.4 25.08,0 45.41,20.33 45.41,45.4 0,25.08 -20.33,45.41 -45.41,45.41 -25.06,0 -45.41,-20.33 -45.41,-45.41z"/>
   <path class="fil0" d="M154.59 6419.63c0,-25.07 20.35,-45.41 45.41,-45.41 25.08,0 45.41,20.34 45.41,45.41 0,25.07 -20.33,45.41 -45.41,45.41 -25.06,0 -45.41,-20.34 -45.41,-45.41z"/>
   <path class="fil0" d="M154.59 6570.86c0,-25.08 20.35,-45.41 45.41,-45.41 25.08,0 45.41,20.33 45.41,45.41 0,25.07 -20.33,45.4 -45.41,45.4 -25.06,0 -45.41,-20.33 -45.41,-45.4z"/>
   <path class="fil0" d="M154.59 6722.08c0,-25.07 20.35,-45.4 45.41,-45.4 25.08,0 45.41,20.33 45.41,45.4 0,25.08 -20.33,45.41 -45.41,45.41 -25.06,0 -45.41,-20.33 -45.41,-45.41z"/>
   <path class="fil0" d="M154.59 6873.31c0,-25.07 20.35,-45.41 45.41,-45.41 25.08,0 45.41,20.34 45.41,45.41 0,25.07 -20.33,45.41 -45.41,45.41 -25.06,0 -45.41,-20.34 -45.41,-45.41z"/>
   <path class="fil0" d="M154.59 7024.54c0,-25.08 20.35,-45.41 45.41,-45.41 25.08,0 45.41,20.33 45.41,45.41 0,25.07 -20.33,45.4 -45.41,45.4 -25.06,0 -45.41,-20.33 -45.41,-45.4z"/>
   <path class="fil0" d="M154.59 7175.76c0,-25.07 20.35,-45.4 45.41,-45.4 25.08,0 45.41,20.33 45.41,45.4 0,25.08 -20.33,45.41 -45.41,45.41 -25.06,0 -45.41,-20.33 -45.41,-45.41z"/>
   <path class="fil0" d="M154.59 7326.99c0,-25.07 20.35,-45.4 45.41,-45.4 25.08,0 45.41,20.33 45.41,45.4 0,25.08 -20.33,45.41 -45.41,45.41 -25.06,0 -45.41,-20.33 -45.41,-45.41z"/>
   <path class="fil0" d="M154.59 7478.22c0,-25.07 20.35,-45.41 45.41,-45.41 25.08,0 45.41,20.34 45.41,45.41 0,25.07 -20.33,45.4 -45.41,45.4 -25.06,0 -45.41,-20.33 -45.41,-45.4z"/>
   <path class="fil0" d="M154.59 7629.45c0,-25.08 20.35,-45.41 45.41,-45.41 25.08,0 45.41,20.33 45.41,45.41 0,25.07 -20.33,45.4 -45.41,45.4 -25.06,0 -45.41,-20.33 -45.41,-45.4z"/>
   <path class="fil0" d="M154.59 7780.67c0,-25.07 20.35,-45.4 45.41,-45.4 25.08,0 45.41,20.33 45.41,45.4 0,25.08 -20.33,45.41 -45.41,45.41 -25.06,0 -45.41,-20.33 -45.41,-45.41z"/>
   <path class="fil0" d="M154.59 3697.54c0,-25.07 20.35,-45.4 45.41,-45.4 25.08,0 45.41,20.33 45.41,45.4 0,25.08 -20.33,45.41 -45.41,45.41 -25.06,0 -45.41,-20.33 -45.41,-45.41z"/>
   <path class="fil0" d="M154.59 3848.77c0,-25.07 20.35,-45.41 45.41,-45.41 25.08,0 45.41,20.34 45.41,45.41 0,25.07 -20.33,45.4 -45.41,45.4 -25.06,0 -45.41,-20.33 -45.41,-45.4z"/>
   <path class="fil0" d="M154.59 4000c0,-25.08 20.35,-45.41 45.41,-45.41 25.08,0 45.41,20.33 45.41,45.41 0,25.07 -20.33,45.4 -45.41,45.4 -25.06,0 -45.41,-20.33 -45.41,-45.4z"/>
   <path class="fil0" d="M154.59 4151.22c0,-25.07 20.35,-45.4 45.41,-45.4 25.08,0 45.41,20.33 45.41,45.4 0,25.08 -20.33,45.41 -45.41,45.41 -25.06,0 -45.41,-20.33 -45.41,-45.41z"/>
   <path class="fil0" d="M154.59 4302.45c0,-25.07 20.35,-45.41 45.41,-45.41 25.08,0 45.41,20.34 45.41,45.41 0,25.07 -20.33,45.41 -45.41,45.41 -25.06,0 -45.41,-20.34 -45.41,-45.41z"/>
   <path class="fil0" d="M154.59 4453.68c0,-25.08 20.35,-45.41 45.41,-45.41 25.08,0 45.41,20.33 45.41,45.41 0,25.07 -20.33,45.4 -45.41,45.4 -25.06,0 -45.41,-20.33 -45.41,-45.4z"/>
   <path class="fil0" d="M154.59 4604.9c0,-25.07 20.35,-45.4 45.41,-45.4 25.08,0 45.41,20.33 45.41,45.4 0,25.08 -20.33,45.41 -45.41,45.41 -25.06,0 -45.41,-20.33 -45.41,-45.41z"/>
   <path class="fil0" d="M154.59 4756.13c0,-25.07 20.35,-45.4 45.41,-45.4 25.08,0 45.41,20.33 45.41,45.4 0,25.08 -20.33,45.41 -45.41,45.41 -25.06,0 -45.41,-20.33 -45.41,-45.41z"/>
   <path class="fil0" d="M154.59 4907.36c0,-25.07 20.35,-45.41 45.41,-45.41 25.08,0 45.41,20.34 45.41,45.41 0,25.07 -20.33,45.4 -45.41,45.4 -25.06,0 -45.41,-20.33 -45.41,-45.4z"/>
   <path class="fil0" d="M154.59 5058.59c0,-25.08 20.35,-45.41 45.41,-45.41 25.08,0 45.41,20.33 45.41,45.41 0,25.07 -20.33,45.4 -45.41,45.4 -25.06,0 -45.41,-20.33 -45.41,-45.4z"/>
   <path class="fil0" d="M154.59 5209.81c0,-25.07 20.35,-45.4 45.41,-45.4 25.08,0 45.41,20.33 45.41,45.4 0,25.08 -20.33,45.41 -45.41,45.41 -25.06,0 -45.41,-20.33 -45.41,-45.41z"/>
   <path class="fil0" d="M154.59 5361.04c0,-25.07 20.35,-45.41 45.41,-45.41 25.08,0 45.41,20.34 45.41,45.41 0,25.07 -20.33,45.41 -45.41,45.41 -25.06,0 -45.41,-20.34 -45.41,-45.41z"/>
   <path class="fil0" d="M154.59 5512.27c0,-25.08 20.35,-45.41 45.41,-45.41 25.08,0 45.41,20.33 45.41,45.41 0,25.07 -20.33,45.4 -45.41,45.4 -25.06,0 -45.41,-20.33 -45.41,-45.4z"/>
   <path class="fil0" d="M154.59 5663.49c0,-25.07 20.35,-45.4 45.41,-45.4 25.08,0 45.41,20.33 45.41,45.4 0,25.08 -20.33,45.41 -45.41,45.41 -25.06,0 -45.41,-20.33 -45.41,-45.41z"/>
   <path class="fil0" d="M154.59 5814.72c0,-25.07 20.35,-45.4 45.41,-45.4 25.08,0 45.41,20.33 45.41,45.4 0,25.07 -20.33,45.41 -45.41,45.41 -25.06,0 -45.41,-20.34 -45.41,-45.41z"/>
   <path class="fil0" d="M154.59 2638.95c0,-25.07 20.35,-45.4 45.41,-45.4 25.08,0 45.41,20.33 45.41,45.4 0,25.08 -20.33,45.41 -45.41,45.41 -25.06,0 -45.41,-20.33 -45.41,-45.41z"/>
   <path class="fil0" d="M154.59 2487.73c0,-25.08 20.35,-45.41 45.41,-45.41 25.08,0 45.41,20.33 45.41,45.41 0,25.07 -20.33,45.4 -45.41,45.4 -25.06,0 -45.41,-20.33 -45.41,-45.4z"/>
   <path class="fil0" d="M154.59 2336.5c0,-25.08 20.35,-45.41 45.41,-45.41 25.08,0 45.41,20.33 45.41,45.41 0,25.07 -20.33,45.4 -45.41,45.4 -25.06,0 -45.41,-20.33 -45.41,-45.4z"/>
   <path class="fil0" d="M154.59 2185.28c0,-25.07 20.35,-45.41 45.41,-45.41 25.08,0 45.41,20.34 45.41,45.41 0,25.06 -20.33,45.4 -45.41,45.4 -25.06,0 -45.41,-20.34 -45.41,-45.4z"/>
   <path class="fil0" d="M154.59 2034.05c0,-25.07 20.35,-45.4 45.41,-45.4 25.08,0 45.41,20.33 45.41,45.4 0,25.08 -20.33,45.41 -45.41,45.41 -25.06,0 -45.41,-20.33 -45.41,-45.41z"/>
   <path class="fil0" d="M154.59 1882.83c0,-25.08 20.35,-45.41 45.41,-45.41 25.08,0 45.41,20.33 45.41,45.41 0,25.07 -20.33,45.4 -45.41,45.4 -25.06,0 -45.41,-20.33 -45.41,-45.4z"/>
   <path class="fil0" d="M154.59 1731.6c0,-25.07 20.35,-45.41 45.41,-45.41 25.08,0 45.41,20.34 45.41,45.41 0,25.07 -20.33,45.41 -45.41,45.41 -25.06,0 -45.41,-20.34 -45.41,-45.41z"/>
   <path class="fil0" d="M154.59 1580.37c0,-25.07 20.35,-45.4 45.41,-45.4 25.08,0 45.41,20.33 45.41,45.4 0,25.08 -20.33,45.41 -45.41,45.41 -25.06,0 -45.41,-20.33 -45.41,-45.41z"/>
   <path class="fil0" d="M154.59 1429.15c0,-25.08 20.35,-45.41 45.41,-45.41 25.08,0 45.41,20.33 45.41,45.41 0,25.07 -20.33,45.4 -45.41,45.4 -25.06,0 -45.41,-20.33 -45.41,-45.4z"/>
   <path class="fil0" d="M154.59 1277.92c0,-25.08 20.35,-45.41 45.41,-45.41 25.08,0 45.41,20.33 45.41,45.41 0,25.07 -20.33,45.4 -45.41,45.4 -25.06,0 -45.41,-20.33 -45.41,-45.4z"/>
   <path class="fil0" d="M154.59 1126.69c0,-25.07 20.35,-45.4 45.41,-45.4 25.08,0 45.41,20.33 45.41,45.4 0,25.07 -20.33,45.41 -45.41,45.41 -25.06,0 -45.41,-20.34 -45.41,-45.41z"/>
   <path class="fil0" d="M154.59 975.46c0,-25.07 20.35,-45.4 45.41,-45.4 25.08,0 45.41,20.33 45.41,45.4 0,25.08 -20.33,45.41 -45.41,45.41 -25.06,0 -45.41,-20.33 -45.41,-45.41z"/>
   <path class="fil0" d="M154.59 824.24c0,-25.08 20.35,-45.41 45.41,-45.41 25.08,0 45.41,20.33 45.41,45.41 0,25.07 -20.33,45.4 -45.41,45.4 -25.06,0 -45.41,-20.33 -45.41,-45.4z"/>
   <path class="fil0" d="M154.59 673.01c0,-25.07 20.35,-45.41 45.41,-45.41 25.08,0 45.41,20.34 45.41,45.41 0,25.07 -20.33,45.41 -45.41,45.41 -25.06,0 -45.41,-20.34 -45.41,-45.41z"/>
   <path class="fil0" d="M154.59 521.78c0,-25.07 20.35,-45.4 45.41,-45.4 25.08,0 45.41,20.33 45.41,45.4 0,25.08 -20.33,45.41 -45.41,45.41 -25.06,0 -45.41,-20.33 -45.41,-45.41z"/>
   <path class="fil0" d="M154.59 370.56c0,-25.08 20.35,-45.41 45.41,-45.41 25.08,0 45.41,20.33 45.41,45.41 0,25.07 -20.33,45.4 -45.41,45.4 -25.06,0 -45.41,-20.33 -45.41,-45.4z"/>
   <path class="fil0" d="M154.59 219.33c0,-25.07 20.35,-45.41 45.41,-45.41 25.08,0 45.41,20.34 45.41,45.41 0,25.07 -20.33,45.4 -45.41,45.4 -25.06,0 -45.41,-20.33 -45.41,-45.4z"/>
  </g>
 </g>
</svg>
