<?xml version="1.0" encoding="UTF-8"?>
<!DOCTYPE svg PUBLIC "-//W3C//DTD SVG 1.1//EN" "http://www.w3.org/Graphics/SVG/1.1/DTD/svg11.dtd">
<!-- Creator: CorelDRAW 2017 -->
<svg xmlns="http://www.w3.org/2000/svg" xml:space="preserve" width="117mm" height="20mm" version="1.1" style="shape-rendering:geometricPrecision; text-rendering:geometricPrecision; image-rendering:optimizeQuality; fill-rule:evenodd; clip-rule:evenodd"
viewBox="0 0 11700 2000"
 xmlns:xlink="http://www.w3.org/1999/xlink">
 <defs>
  <style type="text/css">
   <![CDATA[
    .fil19 {fill:#FEFEFE}
    .fil15 {fill:#2B2A29}
    .fil2 {fill:#010101}
    .fil14 {fill:#020202}
    .fil0 {fill:#040404}
    .fil7 {fill:#050505}
    .fil6 {fill:#060606}
    .fil9 {fill:#080808}
    .fil10 {fill:#090906}
    .fil12 {fill:#0A0A09}
    .fil11 {fill:#0C0C0A}
    .fil8 {fill:#888B8A}
    .fil3 {fill:#CD151A}
    .fil23 {fill:#D9261C}
    .fil21 {fill:#ED1B24}
    .fil13 {fill:#F1EE0F}
    .fil4 {fill:#F8F303}
    .fil5 {fill:#FDFDFD}
    .fil1 {fill:#FEFEFE}
    .fil22 {fill:white}
    .fil20 {fill:#DB0016}
    .fil16 {fill:#2B2A29;fill-rule:nonzero}
    .fil17 {fill:#6C7F8F;fill-rule:nonzero}
    .fil24 {fill:#ED1B24;fill-rule:nonzero}
    .fil18 {fill:#F08884;fill-rule:nonzero}
   ]]>
  </style>
 </defs>
 <g id="Vrstva_x0020_1">
  <metadata id="CorelCorpID_0Corel-Layer"/>
  <g id="_2239435676656">
   <g>
    <path class="fil0" d="M7000.86 926.07c-133.33,33.64 -157.14,38.13 -301.58,38.13 -74.6,0 -157.13,-6.73 -230.14,-26.91 -17.46,-4.49 -52.38,-15.7 -66.67,-17.94 -4.76,112.12 23.81,291.53 50.79,399.17 65.08,264.63 407.92,287.05 493.63,4.49 23.81,-76.25 65.08,-336.39 53.97,-396.94z"/>
    <path class="fil1" d="M6618.2 1496.83c22.03,8.51 45.37,13.61 69.31,14.93 2.87,0.16 5.74,0.26 8.61,0.31l1.58 -260.6c-144.44,6.72 -122.22,-33.64 -153.96,-20.19 -12.7,4.49 -19.05,6.73 -33.34,2.24 -17.46,-4.48 -34.91,-22.42 -33.33,-42.6 0,-20.19 15.87,-38.13 31.75,-42.61 47.61,-17.94 133.32,47.09 188.88,29.15l1.58 -199.37c-26.57,0 -53.72,-0.81 -80.94,-2.7 0.1,15.91 1.72,110.54 -1.41,155.38l-50.97 -5.11c-39.46,-4.29 -123.89,-20.87 -138.16,-22.32 0.66,5.08 1.34,10.16 2.04,15.24 6.29,45.65 14,91.87 23.48,137.43 18.99,5.15 115.07,26.31 165.18,31.74 1.31,16.49 -0.4,173.18 -0.3,209.08z"/>
    <path class="fil2" d="M7043.32 728.44c-25.39,-17.94 -82.14,-51.29 -112.3,-64.75 -63.49,-33.64 -157.14,-43.45 -239.67,-41.21 -92.06,2.25 -160.31,9.82 -234.91,43.46 -33.33,15.69 -58.73,33.63 -88.89,51.57l-82.53 53.83c23.41,-7.29 62.83,-21.8 88.88,-29.16 31.75,-8.97 63.49,-17.94 98.41,-24.67 84.12,-13.45 126.98,-24.66 219.04,-24.66 120.63,0 250.78,24.66 366.65,60.55 24.47,8.11 38.96,15.72 60.31,22.42 -23.89,-16.88 -50.4,-31.03 -74.99,-47.38z"/>
    <path class="fil3" d="M6427.8 1103.34c14.27,1.45 98.7,18.03 138.16,22.32l50.97 5.11c3.13,-44.84 1.51,-139.47 1.41,-155.38 -51.84,-3.61 -103.92,-11.17 -152.66,-24.65 -10.54,-2.71 -21.04,-5.91 -31.5,-8.93 -5.72,-1.66 -12.01,-3.58 -18.29,-5.28 -0.37,25.42 0.81,51.06 2.62,76.3 2.16,30.23 5.38,60.44 9.29,90.51z"/>
    <path class="fil4" d="M6792.9 976.77l-4.57 154.76c46.5,-0.62 144.75,-19.32 186.02,-30.54 2.76,-10.3 10.47,-78.76 11.75,-93.75 1.35,-15.91 2.43,-31.98 2.67,-47.95 0.07,-4.75 0.11,-9.93 -0.07,-15.09 -3.49,0.61 -6.86,1.22 -10.12,1.84 -25.73,6.49 -51.76,12.87 -77.85,18.04 -13.63,3.02 -28.22,5.66 -46.37,7.66 -20.28,2.59 -40.84,4.12 -61.46,5.03z"/>
    <path class="fil2" d="M6529.45 632.3c122.22,-26.92 258.72,-24.67 350.78,4.48 -36.51,-91.94 -73.01,-121.1 -174.6,-121.1 -42.85,-2.24 -88.88,2.24 -119.04,24.67 -25.39,15.7 -46.03,53.82 -57.14,91.95z"/>
    <path class="fil3" d="M6618.2 1496.83c-0.1,-35.9 1.61,-192.59 0.3,-209.08 -50.11,-5.43 -146.19,-26.59 -165.18,-31.74 4.13,19.88 8.6,39.65 13.43,59.18 13.7,55.4 41.75,105.92 85.79,142.84 19.76,16.56 41.94,29.65 65.66,38.8z"/>
    <path class="fil4" d="M6788.17 1292.62l-1.58 202.06c15.95,-6.68 31.2,-15.22 45.46,-25.53 50.78,-36.66 83.47,-90.96 101.55,-150.19 4.22,-13.8 8.73,-32.07 11.93,-46.57 -52.53,8.26 -83.84,18.02 -157.36,20.23z"/>
    <path class="fil0" d="M6269.15 784.79l4.76 17.94c33.33,-8.97 69.84,-20.18 99.99,-29.15 114.28,-33.64 217.45,-49.34 341.26,-49.34 114.28,2.24 273,26.91 380.93,71.76 31.75,15.7 34.92,15.7 39.68,-2.24 0,0 -1.58,-2.24 -1.58,-2.24 0,0 -3.18,-4.49 -19.05,-11.21 -128.57,-51.58 -322.21,-80.74 -409.51,-80.74 -104.75,-8.97 -336.49,38.13 -436.48,85.22z"/>
    <path class="fil5" d="M6702.46 1181.95l0 76.24c92.06,13.46 215.86,-2.24 234.91,-112.13 -36.51,13.46 -30.16,17.95 -104.76,31.4 -46.03,6.73 -84.12,8.97 -130.15,4.49z"/>
    <path class="fil0" d="M6433.83 606.09c-10.96,-8.2 -29.53,-8.43 -42.47,-2.95 -15.87,6.73 -30.75,20.98 -40.26,29.95 -19.06,17.95 -23.64,33.11 -57.08,49.08 -14.04,6.69 -24.33,6.49 -30.96,4.15 0.25,19.57 30.92,59.96 88.62,8.77 24.38,-22.97 27.75,-42.09 47.63,-56.56 7.19,-5.24 14.8,-10.74 27.47,-13.29 6.15,-1.24 13.07,-1.17 21.72,1.56 -4.24,-8.99 -6.44,-14.55 -14.67,-20.71z"/>
    <path class="fil0" d="M6958 627.81c52.38,4.49 65.08,35.88 88.89,65.04 11.11,11.21 25.39,26.91 47.61,31.39 26.99,4.49 41.27,-11.21 47.62,-31.39 -15.87,-2.25 -38.09,13.45 -85.71,-58.31 -7.94,-11.21 -25.39,-24.67 -47.62,-26.91 -20.63,-2.25 -44.44,6.73 -50.79,20.18z"/>
    <path class="fil6" d="M6345.33 1123.42c-50.79,20.18 -20.63,89.7 28.57,74.01 44.45,-15.7 23.81,-96.44 -28.57,-74.01z"/>
    <path class="fil2" d="M6983.4 1316.28c-53.97,13.46 -31.75,89.71 17.46,76.25 49.2,-13.46 30.16,-87.46 -17.46,-76.25z"/>
    <path class="fil0" d="M7023.08 1123.42c-49.2,17.94 -19.05,91.95 28.57,71.76 44.44,-15.69 22.22,-91.94 -28.57,-71.76z"/>
    <path class="fil0" d="M7086.57 1320.77c-53.97,13.45 -30.16,87.46 20.63,74 46.03,-13.45 28.57,-87.46 -20.63,-74z"/>
    <path class="fil0" d="M7002.45 1455.32c-7.94,15.7 -12.7,35.88 -7.94,58.31 3.17,20.18 19.05,31.4 31.74,35.88 15.88,4.49 25.4,2.24 39.68,-2.24 -7.93,-17.94 -30.15,-22.43 -36.5,-65.04 -6.35,-35.88 11.11,-51.58 -12.7,-82.97 -1.59,15.7 -1.59,24.67 -14.28,56.06z"/>
    <path class="fil0" d="M6927.85 654.72c23.8,6.73 58.72,31.4 79.36,42.61 22.22,13.46 57.14,47.09 87.29,35.88 -79.36,-35.88 -65.07,-80.73 -114.28,-94.19 -17.46,-6.72 -38.09,0 -52.37,15.7z"/>
    <path class="fil7" d="M6899.28 572.76c-46.03,24.67 -11.12,87.46 33.33,67.28 44.44,-17.94 15.87,-91.95 -33.33,-67.28z"/>
    <path class="fil0" d="M6481.83 568.27c-52.37,13.46 -31.74,85.22 17.46,74.01 17.46,-4.49 31.75,-20.18 26.99,-44.85 -3.18,-17.94 -23.81,-33.64 -44.45,-29.16z"/>
    <path class="fil0" d="M6313.59 726.48c28.57,8.97 63.49,-29.15 109.52,-53.82 19.04,-11.21 34.92,-15.7 47.61,-22.42 -31.74,-31.4 -60.31,-20.19 -87.29,17.94 -19.05,24.67 -39.68,49.33 -69.84,58.3z"/>
    <g>
     <path class="fil0" d="M7096.73 1405.08c16.3,34.94 -3.75,50.81 0.95,95.09 3.17,24.67 36.51,60.55 79.36,44.86 -6.35,4.48 -31.74,-13.46 -38.09,-35.89 -6.35,-26.91 1.58,-56.06 0,-74 -1.59,-15.7 -7.94,-29.15 -15.87,-38.13l-0.12 0.03c-3.84,2.52 -8.26,4.59 -13.32,6.07l-0.22 0.06c-4.41,1.16 -8.64,1.77 -12.69,1.91z"/>
     <path class="fil7" d="M7119.9 1547.27c-31.74,-26.91 -36.51,-58.31 -26.98,-91.95 4.32,-18.3 3.41,-38.46 -2.72,-50.41 -5.79,-0.55 -11.12,-2.12 -15.9,-4.47 -39.76,41.07 -22,137.94 45.6,146.83z"/>
     <path class="fil6" d="M7218.31 1522.6c-15.87,-2.24 -39.68,-4.49 -52.38,-58.31 -4.68,-26.42 -6.29,-59.33 -37.9,-71.13 -0.26,0.23 -0.51,0.47 -0.77,0.69 33.43,43.8 10.18,57.47 18.04,106.32 1.58,13.46 15.87,31.4 26.98,38.13 20.63,11.21 36.51,2.24 46.03,-15.7z"/>
    </g>
    <path class="fil6" d="M6253.27 639.02c-12.69,35.88 7.94,47.1 33.34,38.13 15.87,-4.49 34.91,-20.19 53.96,-42.61 12.7,-15.7 17.46,-17.94 34.92,-31.4 -50.79,-2.24 -60.31,49.34 -122.22,35.88z"/>
    <path class="fil7" d="M7153.23 645.75c-11.11,0 -23.81,13.46 -60.31,-13.45 -12.7,-8.97 -30.16,-24.67 -53.97,-22.43 14.29,8.97 39.68,44.85 53.97,58.31 17.46,17.94 63.49,33.64 60.31,-22.43z"/>
    <path class="fil6" d="M6556.43 739.94c-1.58,20.18 9.53,31.4 23.81,38.12 15.87,6.73 26.99,-2.24 44.44,15.7 1.59,-47.09 -19.04,-69.52 -68.25,-53.82z"/>
    <path class="fil7" d="M6781.82 793.76c6.35,-6.73 20.63,-8.97 30.16,-8.97 3.17,0 6.35,-4.48 7.93,-4.48 9.53,-4.49 20.64,-22.43 20.64,-38.13 -38.1,-22.42 -60.32,13.46 -58.73,51.58z"/>
    <path class="fil6" d="M6340.57 1026.99c-1.59,-42.61 -19.05,-44.85 -34.92,-56.06 -9.52,-6.73 -7.93,-8.98 -15.87,-15.7 -23.81,35.88 6.35,62.79 50.79,71.76z"/>
    <path class="fil6" d="M6619.92 874.49c34.92,-47.09 3.18,-89.7 -28.57,-82.97 -6.35,38.12 11.11,24.67 25.4,69.52l3.17 13.45z"/>
    <path class="fil8" d="M6713.57 1193.16l0 53.82c7.94,-13.45 7.94,-20.18 9.52,-38.12 69.84,-2.25 161.9,-17.94 190.47,-42.61 -30.16,8.97 -30.16,13.45 -88.88,22.42 -46.03,6.73 -71.43,6.73 -111.11,4.49z"/>
    <path class="fil6" d="M7059.59 1029.23c12.69,-2.24 36.5,-13.45 44.44,-20.18 12.7,-11.21 12.7,-31.4 6.35,-51.58l-31.75 26.91c-12.7,11.21 -19.04,22.43 -19.04,44.85z"/>
    <path class="fil6" d="M6364.38 1089.78c-1.59,-44.85 -19.05,-56.06 -57.14,-65.03 -4.76,24.67 7.94,38.12 22.22,47.09 11.11,4.49 23.81,6.73 34.92,17.94z"/>
    <path class="fil9" d="M7075.46 975.41c9.52,-2.24 28.57,-22.43 33.33,-29.15 9.52,-20.19 -7.94,-42.61 -14.29,-51.58 -3.17,8.97 -1.58,8.97 -7.93,17.94 -12.7,22.42 -22.22,24.67 -11.11,62.79z"/>
    <path class="fil6" d="M6324.7 975.41c12.7,-29.15 3.17,-42.61 -14.29,-74 -30.15,11.21 -26.98,56.06 14.29,74z"/>
    <path class="fil7" d="M7069.11 923.83c26.98,-24.67 22.22,-65.03 -19.05,-71.76 -1.59,35.88 -4.76,56.06 19.05,71.76z"/>
    <path class="fil6" d="M7048.47 1080.81c11.12,-6.73 25.4,-11.21 33.34,-11.21 11.11,-6.73 20.63,-26.91 17.46,-47.1l-36.51 13.46c-12.7,8.97 -15.87,24.67 -14.29,44.85z"/>
    <path class="fil10" d="M6900.86 856.55c7.94,22.43 41.27,40.37 66.67,13.46 -12.7,-31.4 -41.27,-33.64 -66.67,-13.46z"/>
    <path class="fil9" d="M6331.05 923.83c25.39,-11.21 15.87,-42.61 15.87,-74 -34.92,11.21 -44.44,44.85 -15.87,74z"/>
    <path class="fil7" d="M6780.23 858.8c11.11,-22.43 6.35,-17.94 22.22,-29.16 11.12,-8.97 14.29,-17.94 9.53,-35.88 -38.1,-4.48 -58.73,42.61 -31.75,65.04z"/>
    <path class="fil0" d="M6819.91 899.16c0,-29.15 11.11,-44.85 -12.69,-62.79 -30.16,11.21 -28.57,60.55 12.69,62.79z"/>
    <path class="fil0" d="M6391.36 863.28c14.29,6.73 20.64,6.73 34.92,-2.24 3.18,-2.24 22.22,-15.7 25.4,-20.18 -19.05,-26.92 -58.73,-17.94 -60.32,22.42z"/>
    <path class="fil7" d="M6432.63 867.77c11.11,11.21 28.57,13.45 38.09,11.21 7.94,-8.97 14.29,-11.21 28.57,-20.18 -19.04,-22.43 -57.14,-15.7 -66.66,8.97z"/>
    <path class="fil7" d="M6953.24 834.13c6.35,17.94 28.57,47.09 55.55,35.88 -4.76,-11.21 -7.93,-31.4 -15.87,-40.37 -12.7,-11.21 -28.57,0 -39.68,4.49z"/>
    <path class="fil7" d="M6572.31 899.16c39.68,2.25 53.96,-31.39 28.57,-58.3 -25.4,6.72 -22.22,31.39 -28.57,58.3z"/>
    <path class="fil6" d="M7040.54 887.95c6.35,-40.37 4.76,-62.79 -39.68,-58.31 12.7,24.67 11.11,56.07 39.68,58.31z"/>
    <path class="fil6" d="M6475.49 885.71c20.63,31.39 60.31,0 66.66,-15.7 -22.22,-17.94 -53.97,0 -66.66,15.7z"/>
    <path class="fil6" d="M7070.89 1125.38c9.46,-13.33 18.8,-24.54 10.92,-46.81 -25.85,0 -38.59,12.34 -47.99,33.09 15.58,-1.96 28.31,3.97 37.07,13.72z"/>
    <path class="fil0" d="M6353.27 887.95c17.46,-2.24 30.16,-13.46 31.74,-26.91 0,-8.97 3.18,-17.94 11.11,-29.15 -14.28,-2.25 -26.98,0 -34.91,8.97 -11.12,8.97 -7.94,29.15 -7.94,47.09z"/>
    <path class="fil7" d="M6827.85 901.41c20.63,11.21 23.81,6.72 44.44,0 -6.35,-6.73 -11.11,-15.7 -14.28,-24.67 -6.35,-8.97 -11.11,-13.46 -26.99,-11.22 -4.76,15.7 -4.76,22.43 -3.17,35.89z"/>
    <path class="fil7" d="M6861.18 867.77c9.53,24.66 28.57,44.85 58.73,20.18 -17.46,-8.97 -19.05,-17.94 -26.98,-22.43 -7.94,-4.48 -20.64,-2.24 -31.75,2.25z"/>
    <path class="fil11" d="M7078.63 1282.64c4.76,-31.39 -4.76,-44.85 -34.92,-47.09 -3.17,31.4 4.76,44.85 34.92,47.09z"/>
    <path class="fil10" d="M6383.43 1284.89c23.8,-13.46 30.15,-38.13 15.87,-62.8 -25.4,22.43 -25.4,26.91 -15.87,62.8z"/>
    <path class="fil6" d="M6521.52 901.41c14.28,15.69 47.61,11.21 50.79,-33.64 -23.81,0 -38.1,20.18 -50.79,33.64z"/>
    <path class="fil0" d="M7024.67 1231.06c-9.53,2.25 -22.22,8.97 -26.99,15.7 -4.76,4.49 -17.46,49.34 7.94,31.4 17.46,-8.97 20.63,-26.91 19.05,-47.1z"/>
    <path class="fil11" d="M6372.17 1111.86c-6.44,-15.59 -22.25,-31.03 -45.88,-28.81 -3.12,17.61 -1.65,22.26 5.9,37.25 2.92,-1.8 6.15,-3.44 9.73,-4.86 9.93,-4.25 20.4,-5.82 30.25,-3.58z"/>
    <path class="fil6" d="M6338.98 1289.37c11.11,-22.42 14.29,-33.64 -4.76,-53.82l-6.35 -4.49c-19.04,22.43 -4.76,47.1 11.11,58.31z"/>
    <path class="fil6" d="M6329.72 1315.53c5.91,-17.5 -0.46,-28.59 -14.54,-41.86 -7.9,8.93 -14.23,15.64 -14.29,33.38 4.67,0.09 9.63,0.88 14.86,2.52 5.3,1.54 9.93,3.56 13.97,5.96z"/>
    <path class="fil9" d="M6363.55 1208.28c4.01,10.59 4.09,21.17 5.59,31.75 7.94,-2.24 11.11,-4.48 19.05,-15.69 9.28,-10.93 8.01,-17.6 6.47,-30.38 -4.67,5.06 -10.65,9.1 -17.87,11.65l-0.25 0.09c-4.47,1.43 -8.81,2.26 -12.99,2.58z"/>
    <path class="fil6" d="M6418.34 1308.83c-0.08,-8.49 -1.62,-12.91 -3.17,-19.46l-6.35 -15.7c0,0 0,0 0,-2.24 -14.98,12.71 -22.89,21.41 -21.06,39.34 8.63,-3.96 18.97,-5.09 30.58,-1.94z"/>
    <path class="fil12" d="M7097.37 1310.42c-4.92,-21.05 -16.03,-21.1 -37.78,-23.29 -1.54,10.86 -1.59,23.82 4.17,34.81 5.39,-4.15 12.18,-7.47 20.52,-9.55 4.59,-1.25 8.96,-1.88 13.09,-1.97z"/>
    <path class="fil6" d="M7038.64 1207.21c-7.24,19.55 6.94,26.07 27.29,23.85 1.39,-15.59 0.36,-26.11 -3.06,-31.53 -2.46,1.43 -5.14,2.7 -8.08,3.75 -5.31,2.23 -10.75,3.55 -16.15,3.93z"/>
    <path class="fil6" d="M6348.51 1240.03l7.93 -11.21c4.77,-8.97 3.18,-8.97 3.18,-20.18l-1.26 -0.21c-9.81,-0.23 -18.56,-3.35 -25.82,-8.33 -4.53,19.94 4.94,33.26 15.97,39.93z"/>
    <path class="fil6" d="M7000.86 1231.06c15.64,-2.2 26.66,-8.77 30.01,-23.99 -7.69,-0.82 -15.13,-3.71 -21.83,-8.84 -1.2,-0.92 -2.35,-1.9 -3.45,-2.92 -4.74,17.8 -6.32,15.62 -4.73,35.75z"/>
    <path class="fil13" d="M6648.49 1202.13c-15.87,8.97 -3.17,31.4 14.29,24.67 15.87,-8.97 4.76,-35.88 -14.29,-24.67z"/>
    <g>
     <g>
      <path class="fil14" d="M6976.89 1401.1c-3.79,41.29 -30,59.26 -30,96.83 0,40.37 39.68,58.31 77.78,58.31 -25.4,-8.97 -44.45,-29.16 -38.1,-69.52 3.16,-26.76 22,-51.29 25.34,-89.04 -2.74,1.3 -5.67,2.38 -8.76,3.22 -9.7,2.66 -18.53,2.45 -26.26,0.2z"/>
      <path class="fil0" d="M6954.83 1542.78c-31.75,-49.33 -4.76,-82.97 11.11,-118.85 4.63,-9.82 5.04,-19.64 4.92,-25.1 -5.52,-2.58 -10.34,-6.28 -14.33,-10.73l-0.12 -0.06c-19.04,11.22 -36.5,42.61 -38.09,76.25 -1.59,31.4 17.46,69.52 36.51,78.49z"/>
     </g>
     <path class="fil6" d="M7014.4 1311.97c3.91,-10.02 3.82,-16.72 2.33,-29.33 -16.69,4.29 -27.58,8.58 -32.67,24.62 10.62,-1.99 21.2,-0.51 30.34,4.71z"/>
    </g>
    <polygon class="fil15" points="6434.22,1538.3 6432.63,1538.3 6427.87,1542.78 "/>
    <path class="fil13" d="M6584.7 1191.56c-15.87,8.97 -3.17,31.39 14.29,24.67 15.87,-8.97 4.76,-35.89 -14.29,-24.67z"/>
    <path class="fil13" d="M6513.99 1179.16c-15.88,8.97 -3.18,31.4 14.28,24.67 15.87,-8.97 4.76,-35.88 -14.28,-24.67z"/>
    <path class="fil15" d="M6416.6 1317.35c53.41,15.49 28.31,90.84 -20.34,75.52 -48.66,-15.31 -26.82,-88.54 20.34,-75.52z"/>
    <path class="fil15" d="M6313.33 1317.91c53.42,15.49 26.82,88.54 -23.43,73.17 -45.48,-15.2 -25.23,-88.49 23.43,-73.17z"/>
    <path class="fil15" d="M6392.28 1455.56c7.34,15.99 11.33,36.34 5.72,58.57 -3.94,20.05 -20.23,30.65 -33.08,34.65 -16.04,3.88 -25.47,1.27 -39.57,-3.75 8.61,-17.63 30.99,-21.26 38.95,-63.6 7.71,-35.62 -9.14,-51.97 15.84,-82.44 0.99,15.75 0.65,24.72 12.14,56.57z"/>
    <g>
     <path class="fil15" d="M6299.98 1401.78c-17.62,34.29 1.82,50.91 -4.56,94.98 -4.11,24.53 -38.78,59.12 -81.01,41.81 6.17,4.72 32.23,-12.24 39.43,-34.41 7.36,-26.65 0.54,-56.08 2.81,-73.95 2.18,-15.63 9.04,-28.83 17.31,-37.5l0.11 0.04c3.74,2.66 8.08,4.89 13.08,6.56l0.21 0.07c4.37,1.33 8.58,2.1 12.62,2.4z"/>
     <path class="fil15" d="M6271.42 1542.98c32.75,-25.69 38.7,-56.88 30.46,-90.86 -3.62,-18.45 -1.95,-38.55 4.62,-50.27 5.81,-0.33 11.2,-1.69 16.06,-3.86 38.18,42.55 16.75,138.68 -51.14,144.99z"/>
     <path class="fil15" d="M6174.02 1514.59c15.95,-1.64 39.82,-2.97 54.56,-56.27 5.67,-26.23 8.54,-59.05 40.57,-69.64 0.25,0.24 0.49,0.48 0.74,0.71 -35.06,42.5 -12.35,57.05 -22.06,105.57 -2.09,13.38 -17.05,30.77 -28.41,37.07 -21.04,10.42 -36.56,0.85 -45.4,-17.44z"/>
    </g>
    <g>
     <path class="fil15" d="M6419.88 1402.35c2.22,41.41 27.73,60.36 26.3,97.9 -1.53,40.34 -41.87,56.76 -79.93,55.31 25.71,-8 45.51,-27.44 40.7,-68.02 -2.13,-26.86 -20.03,-52.09 -21.93,-89.94 2.69,1.4 5.57,2.59 8.63,3.56 9.59,3.02 18.42,3.15 26.23,1.19z"/>
     <path class="fil15" d="M6436.55 1544.77c33.59,-48.1 7.91,-82.74 -6.59,-119.2 -4.26,-9.98 -4.29,-19.81 -3.97,-25.26 5.62,-2.37 10.57,-5.88 14.73,-10.18l0.12 -0.05c18.6,11.93 34.86,43.97 35.17,77.64 0.39,31.43 -20.09,68.81 -39.46,77.05z"/>
    </g>
   </g>
   <path class="fil16" d="M7466.54 589.56c-1.41,-0.81 -2.6,-1.01 -3.81,0l-22.6 15.2 -23 -15.2c-1.2,-1.01 -2.4,-0.81 -3.6,0l-7.6 3.79c-1.79,0.8 -1.99,2 -0.8,3.4l20 27.81c0.6,1.19 1.41,1.99 4.21,1.99l21.19 0c2.8,0 3.61,-0.8 4.41,-1.99l19.8 -27.81c1.19,-1.4 0.99,-2.6 -0.6,-3.4l-7.6 -3.79zm-21.8 43.4c-19.01,0 -39.01,0.79 -58.62,2.4 -2.38,0.19 -2.99,0.79 -2.99,2.79l0 149.42c0,2.6 0.61,3.19 2.99,3.19l31.01 0c2.4,0 3,-0.59 3,-3.19l0 -52.6 12.8 0 32.6 51.39c2.01,3 3.41,4.4 8,4.4l31.21 0c3,0 4.01,-1.8 2.4,-4l-34.01 -54.2c21.81,-4.8 29.61,-17.6 29.61,-47 0,-39.41 -14.81,-52.6 -58,-52.6zm-4.01 32.2c19.21,0 24.4,5.2 24.4,21.59 0,16.61 -5.19,20.61 -24.4,20.61l-20.6 0 0 -42.2 20.6 0zm103.42 -76.21c-1.21,0 -2.01,0.39 -2.4,1.2l-14.61 27.01c-0.59,0.99 -0.4,2.19 0.6,2.8l11.01 6.19c1.19,0.6 1.8,0.8 2.8,0l38.39 -31.39c0.4,-0.42 1.01,-1.41 1.01,-2.4l0 -1.41c0,-1.39 -0.81,-2 -2,-2l-34.8 0zm-16.21 45.2c-1.99,0 -3,1.21 -3,3.21l0 150.01c0,2.4 1.01,3.39 3,3.39l31.01 0c2,0 3,-0.99 3,-3.39l0 -150.01c0,-2 -1,-3.21 -3,-3.21l-31.01 0zm194.22 -0.2c-7.21,0 -10.2,1.6 -12.8,8l-34.01 89.61 -34.01 -89.4c-2.39,-6.41 -5.6,-8.01 -12.8,-8.01l-28.4 0c-2,0 -2.4,1.4 -2.6,3.21l-15.2 150.01c-0.19,2.4 1,3.39 3,3.39l31 0c2,0 2.81,-0.99 3.01,-3.39l8.79 -87.21 32.21 82.61c0.79,2.2 2.4,3.19 4.4,3.19l21.39 0c2.01,0 3.41,-0.99 4.41,-3.19l32.2 -82.61 8.6 87.21c0.21,2.4 1.01,3.39 3.01,3.39l31 0c2,0 3.19,-0.99 2.99,-3.39l-15.2 -150.01c-0.2,-2 -0.4,-3.41 -2.4,-3.41l-28.59 0zm120 -0.99c-39,0 -57.8,10.79 -57.8,40l0 4.4c0,27.21 9.19,37.8 26.2,43.8l34.6 12.6c9.6,3.41 13.99,6.4 13.99,14l0 2.01c0,6.79 -5,9.8 -14.19,9.8l-57.8 0c-3.01,0 -4.2,1.19 -4.2,4.19l0 18c0,3.01 0.99,4.4 3.79,5 19.8,3.61 35.61,5 49.8,5 37.82,0 60.01,-11 60.01,-40.2l0 -5.2c0,-27.01 -10.4,-35.4 -30,-42.8l-34.6 -12.8c-7.2,-2.8 -10.21,-7.01 -10.21,-12.6l0 -2.4c0,-7.01 5.21,-10.6 14.8,-10.6l48.61 0c2.8,0 4,-1.01 4,-4.01l0 -19.4c0,-2.19 -1,-3.2 -4,-4.19 -15,-3.21 -26.4,-4.6 -43,-4.6zm160.61 1.19c-1.8,0 -3.19,0.81 -4.2,2l-46 65.01 0 -63.8c0,-2 -0.99,-3.21 -3,-3.21l-31.01 0c-1.99,0 -3,1.21 -3,3.21l0 150.21c0,2.2 1.01,3.19 3,3.19l31.01 0c2.01,0 3,-0.99 3,-3.19l0 -73.22 50 74.21c0.8,1.41 2.4,2.2 4.41,2.2l34.2 0c5.4,0 5.2,-2.79 3.4,-5.39l-54.21 -79.41 48.41 -68c1.4,-2.21 1.79,-3.81 -1.8,-3.81l-34.21 0zm116.22 -1.19c-52.01,0 -66.61,18.19 -66.61,79.6 0,61 14.6,79.2 66.61,79.2 52,0 66.81,-18.2 66.81,-79.2 0,-61.41 -14.81,-79.6 -66.81,-79.6zm0 32.2c24.2,0 29.21,11.59 29.21,47.4 0,35.4 -5.01,47.01 -29.21,47.01 -24.01,0 -29.21,-11.61 -29.21,-47.01 0,-35.81 5.2,-47.4 29.21,-47.4zm175.61 -31.01c-1.81,0 -3.2,0.81 -4.21,2l-45.99 65.01 0 -63.8c0,-2 -1,-3.21 -3,-3.21l-31.01 0c-1.99,0 -3,1.21 -3,3.21l0 150.21c0,2.2 1.01,3.19 3,3.19l31.01 0c2,0 3,-0.99 3,-3.19l0 -73.22 50 74.21c0.79,1.41 2.4,2.2 4.4,2.2l34.21 0c5.4,0 5.2,-2.79 3.39,-5.39l-54.2 -79.41 48.41 -68c1.39,-2.21 1.79,-3.81 -1.81,-3.81l-34.2 0zm113.81 -1.19c-25.6,0 -30,1.8 -36.19,24.2l-35.82 130.41c-0.39,2.2 0.6,3.19 2.6,3.19l30.62 0c1.79,0 1.99,-0.99 2.6,-3.19l11.19 -40.4 50.2 0 10.8 40.4c0.61,2.2 1.01,3.19 2.81,3.19l30.6 0c2,0 3,-0.99 2.6,-3.19l-35.6 -130.41c-6.21,-22.2 -10.41,-24.2 -36.41,-24.2zm-0.2 30.79c2.6,0 2.8,0.6 3.6,3.2l13.61 50 -33.81 0 13.41 -50c0.79,-2.6 0.99,-3.2 3.19,-3.2zm79.2 -29.6c-1.99,0 -3,1.01 -3,3.01l0 26.2c0,2 1.01,2.99 3,2.99l40 0 0 121.22c0,2.2 1.01,3.19 3.01,3.19l31 0c2,0 3,-0.99 3,-3.19l0 -121.22 40.2 0c2,0 3.21,-0.99 3.21,-2.99l0 -26.2c0,-2 -1.21,-3.01 -3.21,-3.01l-117.21 0zm198.62 -1.19c-52,0 -66.61,18.19 -66.61,79.6 0,61 14.61,79.2 66.61,79.2 52.01,0 66.81,-18.2 66.81,-79.2 0,-61.41 -14.8,-79.6 -66.81,-79.6zm0 32.2c24.21,0 29.21,11.59 29.21,47.4 0,35.4 -5,47.01 -29.21,47.01 -24.01,0 -29.2,-11.61 -29.2,-47.01 0,-35.81 5.19,-47.4 29.2,-47.4zm91.4 -31.01c-1.99,0 -3,1.21 -3,3.21l0 150.21c0,2.2 1.01,3.19 3,3.19l96.21 0c2.01,0 3,-0.99 3,-2.99l0 -26.21c0,-1.99 -0.99,-3 -3,-3l-62.2 0 0 -121.2c0,-2 -1,-3.21 -3,-3.21l-31.01 0zm118.6 0c-1.99,0 -2.99,1.21 -2.99,3.21l0 150.01c0,2.4 1,3.39 2.99,3.39l31.01 0c2.01,0 3,-0.99 3,-3.39l0 -150.01c0,-2 -0.99,-3.21 -3,-3.21l-31.01 0zm121.62 -1.19c-52.21,0 -66.02,17.79 -66.02,79.21 0,61.39 13.81,79.59 66.02,79.59 19.6,0 30.6,-1.19 40.4,-3.59 3.39,-0.8 5.2,-2.21 5.2,-6.21l0 -19.39c0,-2.01 -1,-3 -3,-3l-42.6 0c-24.21,0 -28.61,-11.61 -28.61,-47.4 0,-35.82 4.4,-47.01 28.61,-47.01l42.6 0c2,0 3,-1.01 3,-3l0 -19.4c0,-4.01 -1.81,-5.2 -5.2,-6.21 -9.8,-2.2 -20.8,-3.59 -40.4,-3.59zm152.41 1.19c-1.81,0 -3.2,0.81 -4.21,2l-45.99 65.01 0 -63.8c0,-2 -1,-3.21 -3,-3.21l-31.01 0c-1.99,0 -3,1.21 -3,3.21l0 150.21c0,2.2 1.01,3.19 3,3.19l31.01 0c2,0 3,-0.99 3,-3.19l0 -73.22 50 74.21c0.79,1.41 2.4,2.2 4.4,2.2l34.21 0c5.4,0 5.2,-2.79 3.4,-5.39l-54.21 -79.41 48.41 -68c1.39,-2.21 1.79,-3.81 -1.8,-3.81l-34.21 0zm115.62 -45.2c-1.21,0 -2.01,0.39 -2.4,1.2l-14.61 27.01c-0.59,0.99 -0.39,2.19 0.6,2.8l11.01 6.19c0.99,0.6 1.79,0.8 2.8,0l38.4 -31.39c0.39,-0.42 0.99,-1.41 0.99,-2.4l0 -1.41c0,-1.39 -0.8,-2 -1.99,-2l-34.8 0zm-1.81 44.01c-25.6,0 -30,1.8 -36.19,24.2l-35.81 130.41c-0.4,2.2 0.59,3.19 2.59,3.19l30.62 0c1.79,0 1.99,-0.99 2.6,-3.19l11.19 -40.4 50.2 0 10.8 40.4c0.61,2.2 1.01,3.19 2.81,3.19l30.6 0c2,0 3,-0.99 2.6,-3.19l-35.6 -130.41c-6.21,-22.2 -10.41,-24.2 -36.41,-24.2zm-0.2 30.79c2.6,0 2.8,0.6 3.6,3.2l13.61 50 -33.81 0 13.41 -50c0.79,-2.6 0.99,-3.2 3.19,-3.2zm-1897.55 210.42c-1.99,0 -2.99,1.2 -2.99,3.21l0 150.21c0,2.2 1,3.19 2.99,3.19l31.01 0c2.01,0 3,-0.99 3,-3.19l0 -59.21 58.4 0c2,0 3.21,-1 3.21,-3l0 -24.6c0,-2.01 -1.21,-3 -3.21,-3l-58.4 0 0 -31.41 64.21 0c2,0 3.2,-0.99 3.2,-3l0 -26.19c0,-2.01 -1.2,-3.01 -3.2,-3.01l-98.22 0zm178.82 -1.2c-25.6,0 -30,1.81 -36.19,24.21l-35.82 130.41c-0.39,2.2 0.6,3.19 2.6,3.19l30.62 0c1.79,0 1.99,-0.99 2.6,-3.19l11.19 -40.4 50.2 0 10.8 40.4c0.61,2.2 1.01,3.19 2.81,3.19l30.6 0c2,0 3,-0.99 2.6,-3.19l-35.6 -130.41c-6.21,-22.2 -10.41,-24.21 -36.41,-24.21zm-0.2 30.8c2.6,0 2.8,0.6 3.6,3.2l13.61 50 -33.81 0 13.41 -50c0.79,-2.6 0.99,-3.2 3.19,-3.2zm147.81 -30.8c-19,0 -39.01,0.8 -58.61,2.4 -2.39,0.2 -3,0.8 -3,2.8l0 149.42c0,2.6 0.61,3.19 3,3.19l31.01 0c2.4,0 3,-0.59 3,-3.19l0 -52.61 12.8 0 32.6 51.4c2,3 3.41,4.4 8,4.4l31.21 0c2.99,0 4,-1.8 2.4,-4l-34.01 -54.2c21.81,-4.8 29.6,-17.6 29.6,-47 0,-39.41 -14.8,-52.61 -58,-52.61zm-4 32.21c19.2,0 24.4,5.2 24.4,21.59 0,16.61 -5.2,20.61 -24.4,20.61l-20.6 0 0 -42.2 20.6 0zm182.62 -31.01c-2,0 -3.01,1.2 -3.01,3.21l0 84.59 -56.59 -80.8c-3.41,-5 -4.61,-7 -13,-7l-22.82 0c-1.98,0 -2.99,1.2 -2.99,3.21l0 150.01c0,2.4 1.01,3.39 2.99,3.39l31.02 0c2,0 2.99,-0.99 2.99,-3.39l0 -87.01 59.01 84.61c3,4.19 5.8,5.79 11.59,5.79l21.81 0c2,0 3,-0.99 3,-3.39l0 -150.01c0,-2.01 -1,-3.21 -3,-3.21l-31 0zm122.21 -1.2c-52,0 -66.61,18.2 -66.61,79.61 0,61 14.61,79.2 66.61,79.2 52.01,0 66.81,-18.2 66.81,-79.2 0,-61.41 -14.8,-79.61 -66.81,-79.61zm0 32.21c24.21,0 29.21,11.59 29.21,47.4 0,35.4 -5,47.01 -29.21,47.01 -24,0 -29.2,-11.61 -29.2,-47.01 0,-35.81 5.2,-47.4 29.2,-47.4zm141.82 -32.21c-39.01,0 -57.8,10.8 -57.8,40.01l0 4.4c0,27.2 9.19,37.8 26.19,43.8l34.61 12.6c9.6,3.4 13.99,6.4 13.99,14l0 2.01c0,6.79 -5,9.8 -14.19,9.8l-57.81 0c-3.01,0 -4.2,1.19 -4.2,4.19l0 18c0,3.01 0.99,4.4 3.79,5 19.81,3.6 35.62,5 49.81,5 37.81,0 60,-11 60,-40.21l0 -5.19c0,-27.01 -10.4,-35.4 -30,-42.81l-34.59 -12.79c-7.2,-2.8 -10.22,-7.01 -10.22,-12.61l0 -2.4c0,-7 5.22,-10.59 14.81,-10.59l48.61 0c2.8,0 3.99,-1.01 3.99,-4.01l0 -19.4c0,-2.19 -0.99,-3.2 -3.99,-4.19 -15,-3.22 -26.41,-4.61 -43,-4.61zm66.4 1.2c-1.99,0 -3,1 -3,3.01l0 26.19c0,2.01 1.01,3 3,3l40 0 0 121.22c0,2.2 1.01,3.19 3.01,3.19l31 0c2,0 2.99,-0.99 2.99,-3.19l0 -121.22 40.21 0c2,0 3.21,-0.99 3.21,-3l0 -26.19c0,-2.01 -1.21,-3.01 -3.21,-3.01l-117.21 0zm-776.31 240.43c-26.58,0 -31.14,1.86 -37.57,25.11l-37.17 135.35c-0.41,2.29 0.63,3.33 2.7,3.33l31.77 0c1.86,0 2.07,-1.04 2.7,-3.33l11.62 -41.93 52.1 0 11.21 41.93c0.63,2.29 1.04,3.33 2.91,3.33l31.77 0c2.07,0 3.11,-1.04 2.69,-3.33l-36.94 -135.35c-6.44,-23.04 -10.8,-25.11 -37.79,-25.11zm-0.21 31.96c2.7,0 2.91,0.62 3.73,3.32l14.12 51.89 -35.08 0 13.9 -51.89c0.84,-2.7 1.05,-3.32 3.33,-3.32zm153.42 -31.96c-19.73,0 -40.49,0.82 -60.83,2.48 -2.5,0.21 -3.11,0.83 -3.11,2.91l0 155.07c0,2.7 0.61,3.33 3.11,3.33l32.17 0c2.49,0 3.11,-0.63 3.11,-3.33l0 -54.59 13.29 0 33.83 53.34c2.09,3.13 3.54,4.58 8.32,4.58l32.38 0c3.11,0 4.15,-1.88 2.49,-4.15l-35.29 -56.27c22.63,-4.97 30.73,-18.27 30.73,-48.78 0,-40.9 -15.37,-54.59 -60.2,-54.59zm-4.17 33.41c19.93,0 25.33,5.39 25.33,22.43 0,17.23 -5.4,21.38 -25.33,21.38l-21.38 0 0 -43.81 21.38 0zm150.92 -33.41c-54.18,0 -68.5,18.46 -68.5,82.2 0,63.73 14.32,82.62 68.5,82.62 20.36,0 31.77,-1.25 41.94,-3.73 3.54,-0.83 5.4,-2.29 5.4,-6.44l0 -20.14c0,-2.08 -1.04,-3.11 -3.11,-3.11l-44.23 0c-25.11,0 -29.67,-12.04 -29.67,-49.2 0,-37.16 4.56,-48.79 29.67,-48.79l44.23 0c2.07,0 3.11,-1.04 3.11,-3.11l0 -20.13c0,-4.17 -1.86,-5.4 -5.4,-6.44 -10.17,-2.29 -21.58,-3.73 -41.94,-3.73zm70.8 1.23c-2.07,0 -3.11,1.25 -3.11,3.33l0 155.7c0,2.49 1.04,3.53 3.11,3.53l32.18 0c2.07,0 3.11,-1.04 3.11,-3.53l0 -155.7c0,-2.08 -1.04,-3.33 -3.11,-3.33l-32.18 0zm127.47 -1.23c-21.18,0 -41.31,0.82 -61.65,2.48 -2.5,0.21 -3.11,0.83 -3.11,2.91l0 154.45c0,1.87 0.61,2.28 3.11,2.5 20.34,1.66 40.47,2.48 61.65,2.48 49.82,0 68.71,-24.29 68.71,-81.99 0,-58.34 -18.89,-82.83 -68.71,-82.83zm-0.62 33.41c22.43,0 30.52,14.96 30.52,49.42 0,34.03 -7.89,48.57 -29.9,48.57l-26.36 0 0 -97.99 25.74 0zm173.13 -78.47c-1.45,-0.83 -2.7,-1.04 -3.93,0l-23.47 15.78 -23.86 -15.78c-1.25,-1.04 -2.5,-0.83 -3.74,0l-7.9 3.94c-1.86,0.83 -2.07,2.08 -0.82,3.53l20.75 28.86c0.63,1.24 1.46,2.08 4.36,2.08l22.01 0c2.91,0 3.73,-0.84 4.57,-2.08l20.56 -28.86c1.23,-1.45 1.03,-2.7 -0.63,-3.53l-7.9 -3.94zm-78.67 46.29c-2.07,0 -3.11,1.25 -3.11,3.33l0 155.9c0,2.29 1.04,3.33 3.11,3.33l107.54 0c2.07,0 3.32,-1.04 3.32,-3.12l0 -27.2c0,-2.07 -1.25,-3.11 -3.32,-3.11l-72.25 0 0 -31.35 66.23 0c2.07,0 3.32,-1.04 3.32,-3.11l0 -25.74c0,-2.08 -1.25,-3.11 -3.32,-3.11l-66.23 0 0 -32.39 72.25 0c2.07,0 3.32,-1.04 3.32,-3.11l0 -27.21c0,-2.07 -1.25,-3.11 -3.32,-3.11l-107.54 0zm224.21 0c-1.86,0 -3.32,0.84 -4.36,2.08l-47.75 67.47 0 -66.22c0,-2.08 -1.03,-3.33 -3.11,-3.33l-32.17 0c-2.08,0 -3.11,1.25 -3.11,3.33l0 155.9c0,2.29 1.03,3.33 3.11,3.33l32.17 0c2.08,0 3.11,-1.04 3.11,-3.33l0 -75.98 51.91 77.02c0.82,1.46 2.49,2.29 4.56,2.29l35.5 0c5.61,0 5.4,-2.92 3.54,-5.62l-56.27 -82.4 50.24 -70.59c1.45,-2.29 1.87,-3.95 -1.87,-3.95l-35.5 0zm118.13 -1.23c-26.58,0 -31.14,1.86 -37.57,25.11l-37.16 135.35c-0.41,2.29 0.62,3.33 2.7,3.33l31.76 0c1.86,0 2.07,-1.04 2.7,-3.33l11.62 -41.93 52.11 0 11.2 41.93c0.63,2.29 1.04,3.33 2.92,3.33l31.76 0c2.07,0 3.11,-1.04 2.7,-3.33l-36.95 -135.35c-6.44,-23.04 -10.8,-25.11 -37.79,-25.11zm-0.21 31.96c2.7,0 2.91,0.62 3.74,3.32l14.12 51.89 -35.09 0 13.91 -51.89c0.83,-2.7 1.05,-3.32 3.32,-3.32zm191.62 -30.73c-2.09,0 -3.13,1.25 -3.13,3.33l0 87.81 -58.74 -83.87c-3.53,-5.19 -4.77,-7.27 -13.49,-7.27l-23.67 0c-2.07,0 -3.11,1.25 -3.11,3.33l0 155.7c0,2.49 1.04,3.53 3.11,3.53l32.18 0c2.07,0 3.11,-1.04 3.11,-3.53l0 -90.32 61.24 87.82c3.11,4.36 6.02,6.03 12.04,6.03l22.63 0c2.08,0 3.12,-1.04 3.12,-3.53l0 -155.7c0,-2.08 -1.04,-3.33 -3.12,-3.33l-32.17 0zm118.12 -1.23c-40.47,0 -59.99,11.2 -59.99,41.5l0 4.58c0,28.22 9.54,39.23 27.19,45.46l35.92 13.08c9.96,3.52 14.54,6.65 14.54,14.53l0 2.08c0,7.06 -5.2,10.17 -14.75,10.17l-59.99 0c-3.13,0 -4.36,1.25 -4.36,4.36l0 18.68c0,3.12 1.04,4.57 3.93,5.2 20.56,3.73 36.97,5.18 51.7,5.18 39.23,0 62.28,-11.42 62.28,-41.72l0 -5.4c0,-28.02 -10.79,-36.75 -31.14,-44.43l-35.92 -13.28c-7.47,-2.92 -10.58,-7.26 -10.58,-13.09l0 -2.48c0,-7.28 5.4,-11.01 15.36,-11.01l50.44 0c2.91,0 4.16,-1.04 4.16,-4.15l0 -20.13c0,-2.29 -1.03,-3.32 -4.16,-4.36 -15.57,-3.33 -27.4,-4.77 -44.63,-4.77zm68.92 1.23c-2.07,0 -3.11,1.04 -3.11,3.11l0 27.21c0,2.07 1.04,3.11 3.11,3.11l41.53 0 0 125.8c0,2.29 1.03,3.33 3.11,3.33l32.17 0c2.08,0 3.11,-1.04 3.11,-3.33l0 -125.8 41.74 0c2.07,0 3.32,-1.04 3.32,-3.11l0 -27.21c0,-2.07 -1.25,-3.11 -3.32,-3.11l-121.66 0zm133.07 0c-2.08,0 -3.11,0.84 -2.7,3.33l34.67 135.15c5.81,23.04 10.8,25.11 37.17,25.11 26.97,0 31.96,-2.28 37.57,-25.11l34.25 -135.15c0.41,-2.49 -0.63,-3.33 -2.7,-3.33l-31.55 0c-2.07,0 -2.29,0.84 -2.91,3.33l-31.55 125.6c-0.63,2.7 -1.04,3.74 -3.33,3.74 -1.87,0 -2.28,-1.04 -2.91,-3.74l-31.55 -125.6c-0.63,-2.49 -0.82,-3.33 -2.91,-3.33l-31.55 0zm176.87 -46.92c-1.24,0 -2.07,0.43 -2.49,1.25l-15.15 28.03c-0.63,1.03 -0.41,2.28 0.62,2.91l11.42 6.44c1.25,0.62 1.86,0.82 2.9,0l39.86 -32.61c0.43,-0.41 1.04,-1.45 1.04,-2.48l0 -1.45c0,-1.46 -0.82,-2.09 -2.07,-2.09l-36.13 0zm-16.8 46.92c-2.08,0 -3.12,1.25 -3.12,3.33l0 155.7c0,2.49 1.04,3.53 3.12,3.53l32.17 0c2.07,0 3.11,-1.04 3.11,-3.53l0 -155.7c0,-2.08 -1.04,-3.33 -3.11,-3.33l-32.17 0zm-1603.71 247.89c-19.73,0 -40.49,0.82 -60.83,2.48 -2.5,0.22 -3.11,0.83 -3.11,2.92l0 155.06c0,2.7 0.61,3.33 3.11,3.33l32.17 0c2.49,0 3.12,-0.63 3.12,-3.33l0 -54.59 25.54 0c44.83,0 60.2,-9.97 60.2,-51.28 0,-40.9 -15.37,-54.59 -60.2,-54.59zm-4.17 33.41c19.93,0 25.33,5.4 25.33,22.43 0,17.23 -5.4,21.38 -25.33,21.38l-21.37 0 0 -43.81 21.37 0zm144.92 -33.41c-26.58,0 -31.14,1.86 -37.58,25.11l-37.16 135.35c-0.41,2.29 0.62,3.33 2.7,3.33l31.76 0c1.86,0 2.08,-1.04 2.7,-3.33l11.62 -41.93 52.11 0 11.21 41.93c0.62,2.29 1.03,3.33 2.91,3.33l31.76 0c2.08,0 3.11,-1.04 2.7,-3.33l-36.95 -135.35c-6.43,-23.04 -10.79,-25.11 -37.78,-25.11zm-0.22 31.96c2.7,0 2.91,0.63 3.74,3.33l14.12 51.89 -35.09 0 13.91 -51.89c0.84,-2.7 1.05,-3.33 3.32,-3.33zm153.42 -31.96c-19.73,0 -40.48,0.82 -60.83,2.48 -2.5,0.22 -3.11,0.83 -3.11,2.92l0 155.06c0,2.7 0.61,3.33 3.11,3.33l32.18 0c2.49,0 3.11,-0.63 3.11,-3.33l0 -54.59 13.28 0 33.84 53.34c2.09,3.13 3.54,4.58 8.31,4.58l32.39 0c3.11,0 4.15,-1.88 2.49,-4.15l-35.29 -56.27c22.63,-4.97 30.73,-18.27 30.73,-48.78 0,-40.9 -15.37,-54.59 -60.21,-54.59zm-4.16 33.41c19.93,0 25.33,5.4 25.33,22.43 0,17.23 -5.4,21.38 -25.33,21.38l-21.38 0 0 -43.81 21.38 0zm152.17 -33.41c-21.18,0 -41.31,0.82 -61.65,2.48 -2.5,0.22 -3.11,0.83 -3.11,2.92l0 154.44c0,1.87 0.61,2.29 3.11,2.5 20.34,1.66 40.47,2.49 61.65,2.49 49.82,0 68.71,-24.3 68.71,-82 0,-58.34 -18.89,-82.83 -68.71,-82.83zm-0.62 33.41c22.43,0 30.52,14.96 30.52,49.42 0,34.04 -7.9,48.57 -29.9,48.57l-26.37 0 0 -97.99 25.75 0zm189.75 -32.18c-2.09,0 -3.12,0.84 -3.12,3.12l0 78.27c0,39.02 -5.81,48.78 -29.07,48.78 -23.45,0 -29.26,-9.76 -29.26,-48.78l0 -78.27c0,-2.28 -1.04,-3.12 -3.11,-3.12l-32.19 0c-2.08,0 -3.11,0.84 -3.11,3.12l0 78.27c0,65.81 13.49,82.21 67.67,82.21 53.98,0 67.48,-16.4 67.48,-82.21l0 -78.27c0,-2.28 -0.84,-3.12 -3.11,-3.12l-32.18 0zm124.76 -1.23c-19.72,0 -40.06,0.82 -60.41,2.48 -2.5,0.22 -3.11,0.83 -3.11,2.92l0 154.03c0,2.07 0.61,2.7 3.11,2.91 20.35,1.66 44.84,2.49 64.36,2.49 42.14,0 58.54,-11.43 58.54,-44.85 0,-24.08 -7.26,-35.07 -29.27,-37.15l0 -0.62c18.9,-3.13 25.74,-13.3 25.74,-37.17 0,-33.01 -16.4,-45.04 -58.96,-45.04zm-4.15 33.41c17.44,0 24.08,4.36 24.08,18.07 0,13.91 -6.64,17.43 -25.94,17.43l-19.11 0 0 -35.5 20.97 0zm4.77 62.29c16,0 22.84,4.56 22.84,18.47 0,13.08 -6.43,17.23 -23.04,17.23l-25.54 0 0 -35.7 25.74 0zm86.16 -94.47c-2.08,0 -3.11,1.25 -3.11,3.33l0 155.71c0,2.48 1.03,3.52 3.11,3.52l32.17 0c2.08,0 3.11,-1.04 3.11,-3.52l0 -155.71c0,-2.08 -1.03,-3.33 -3.11,-3.33l-32.17 0zm126.21 -1.23c-54.18,0 -68.49,18.47 -68.49,82.21 0,63.72 14.31,82.62 68.49,82.62 20.36,0 31.77,-1.25 41.94,-3.74 3.54,-0.82 5.4,-2.29 5.4,-6.44l0 -20.14c0,-2.07 -1.04,-3.11 -3.11,-3.11l-44.23 0c-25.11,0 -29.67,-12.03 -29.67,-49.19 0,-37.17 4.56,-48.8 29.67,-48.8l44.23 0c2.07,0 3.11,-1.04 3.11,-3.11l0 -20.13c0,-4.16 -1.86,-5.4 -5.4,-6.44 -10.17,-2.28 -21.58,-3.73 -41.94,-3.73zm70.8 1.23c-2.07,0 -3.11,1.25 -3.11,3.33l0 155.9c0,2.29 1.04,3.33 3.11,3.33l107.54 0c2.08,0 3.33,-1.04 3.33,-3.11l0 -27.21c0,-2.07 -1.25,-3.11 -3.33,-3.11l-72.25 0 0 -31.35 66.23 0c2.07,0 3.32,-1.04 3.32,-3.11l0 -25.74c0,-2.07 -1.25,-3.11 -3.32,-3.11l-66.23 0 0 -32.39 72.25 0c2.08,0 3.33,-1.04 3.33,-3.11l0 -27.2c0,-2.08 -1.25,-3.12 -3.33,-3.12l-107.54 0z"/>
   <path class="fil1" d="M5034.84 428.72c315.48,127.47 467.88,486.56 340.43,802.05 -127.48,315.48 -486.58,467.89 -802.05,340.43 -315.5,-127.47 -467.91,-486.56 -340.44,-802.05 127.47,-315.49 486.55,-467.9 802.06,-340.43z"/>
   <g>
    <g>
     <path class="fil17" d="M4412.96 805.25c19.65,-40.52 77.11,-64.75 110.16,7.69 23.68,51.89 43.27,83.52 67.28,103.64 17.19,14.4 39.46,23.82 60.69,29.53 16.64,4.48 36.14,6.65 54.14,5.1 80.03,-6.93 118.14,-98.68 159.05,-108.67 45.41,-11.1 81.59,35.07 65.33,74.18 -19.17,46.06 -61.64,75.11 -100.54,100.53 -67.77,44.26 -184.39,68.98 -282.62,8.33 -32.71,-20.2 -66.58,-59.93 -94.03,-108.61 -20.08,-35.61 -60.98,-67.32 -39.46,-111.72z"/>
     <path class="fil17" d="M4579.36 755.17c-22.56,43.17 -0.28,100.95 49.76,129.06 50.04,28.1 108.89,15.86 131.45,-27.31 22.56,-43.18 0.29,-100.96 -49.75,-129.06 -50.05,-28.1 -108.9,-15.87 -131.46,27.31z"/>
    </g>
    <path class="fil17" d="M4185.22 1223.94l-13.11 -2.87c-1.22,6.83 -3.26,12.6 -6.16,17.3 -2.94,4.7 -6.56,8.23 -10.96,10.65 -4.37,2.43 -9.37,3.65 -15.03,3.65 -7.5,-0.02 -13.94,-2.09 -19.27,-6.22 -5.35,-4.16 -9.46,-10.27 -12.33,-18.32 -2.84,-8.05 -4.28,-17.92 -4.31,-29.68 0.03,-12.06 1.44,-22.18 4.28,-30.38 2.82,-8.23 6.86,-14.42 12.15,-18.61 5.3,-4.2 11.67,-6.32 19.13,-6.32 7.69,0.03 14.09,2.58 19.24,7.66 5.15,5.06 8.71,12.51 10.75,22.33l13.46 -3.41c-2.78,-12.88 -7.93,-22.54 -15.41,-29.03 -7.48,-6.5 -17.27,-9.76 -29.3,-9.76 -7.39,0 -14.06,1.49 -20.05,4.46 -5.98,2.96 -11.13,7.27 -15.41,12.99 -4.28,5.71 -7.57,12.74 -9.88,21.04 -2.31,8.29 -3.47,17.77 -3.5,28.49 0.03,14.45 2,26.66 5.93,36.63 3.92,10 9.57,17.57 17,22.75 7.42,5.14 16.42,7.74 26.99,7.78 12.12,0 22,-3.42 29.63,-10.27 7.63,-6.82 13.02,-17.12 16.16,-30.86zm21.91 38.97l0 0 79.72 0 0 -12.39 -65.36 0 0 -49.74 44.17 0 0 -12.21 -44.17 0 0 -43.27 62.31 0 0 -12.22 -76.67 0 0 129.83zm102.53 0l0 0 13.46 0 0 -114.92 68.96 114.92 11.13 0 0 -129.83 -13.47 0 0 101.28 -59.61 -101.28 -20.47 0 0 129.83zm152.81 0l0 0 14.72 0 0 -117.43 37.89 0 0 -12.4 -90.5 0 0 12.4 37.89 0 0 117.43zm74.16 0l0 0 14.18 0 0 -58.89 33.4 0 28.55 58.89 15.81 0 -30.53 -62.31c8.98,-2.6 15.71,-6.67 20.2,-12.24 4.49,-5.54 6.73,-12.54 6.73,-20.98 0,-8.23 -1.88,-14.87 -5.66,-19.9 -3.8,-5.06 -9.54,-8.71 -17.2,-11.01 -7.69,-2.31 -17.36,-3.42 -29.03,-3.39l-36.45 0 0 129.83zm36.45 -117.8l0 0c6.5,-0.02 12.12,0.3 16.82,0.99 4.72,0.69 8.59,1.92 11.61,3.63 3.05,1.73 5.3,4.12 6.73,7.21 1.47,3.05 2.19,6.97 2.19,11.7 0.03,5.59 -1.32,10.11 -4.04,13.56 -2.7,3.44 -6.86,5.92 -12.45,7.48 -5.6,1.55 -12.72,2.33 -21.4,2.3l-21.73 0 0 -46.87 22.27 0zm80.62 -12.03l0 0 0 86.02c0.04,15.2 3.98,26.63 11.82,34.35 7.88,7.73 19.49,11.58 34.87,11.62 15.33,-0.04 26.93,-3.93 34.89,-11.68 7.94,-7.75 11.94,-19.18 11.98,-34.29l0 -86.02 -14.19 0 0 81.35c0.03,3.05 -0.03,5.92 -0.12,8.64 -0.11,2.73 -0.39,5.33 -0.89,7.79 -0.48,2.45 -1.29,4.81 -2.4,7.09 -2.36,4.61 -6.04,8.23 -11.07,10.8 -5,2.58 -11.07,3.9 -18.2,3.92 -7.03,-0.02 -13.05,-1.34 -18.04,-3.92 -5.01,-2.57 -8.68,-6.19 -11.05,-10.8 -1.04,-2.09 -1.82,-4.25 -2.33,-6.49 -0.48,-2.25 -0.78,-4.58 -0.9,-7.01 -0.15,-2.45 -0.21,-4.99 -0.18,-7.69l0 -83.68 -14.19 0zm128.03 129.83l0 0 13.83 0 0 -114.39 39.15 114.39 9.69 0 39.15 -114.39 0 114.39 13.82 0 0 -129.83 -20.83 0 -36.45 109.72 -36.27 -109.72 -22.09 0 0 129.83z"/>
    <path class="fil18" d="M4946.96 1263.38l38.97 0c20.65,0 36.18,-5.5 46.56,-16.49 10.36,-10.98 15.56,-27.41 15.56,-49.23 -0.02,-21.4 -5.17,-37.55 -15.47,-48.45 -10.26,-10.89 -25.53,-16.34 -45.75,-16.37l-39.87 0 0 130.54zm24.6 -21.54l0 0 0 -87.27 13.11 0c8.8,-0.03 16.01,1.5 21.7,4.57 5.68,3.09 9.9,7.82 12.62,14.19 2.75,6.35 4.13,14.46 4.11,24.33 0.02,10.33 -1.26,18.74 -3.89,25.27 -2.61,6.52 -6.74,11.31 -12.34,14.36 -5.62,3.05 -12.89,4.57 -21.84,4.55l-13.47 0zm90.5 -43.46l0 0c0.03,10.62 1.29,20.08 3.77,28.37 2.51,8.29 6.11,15.33 10.83,21.1 4.7,5.78 10.39,10.15 17.07,13.14 6.67,3.02 14.18,4.52 22.56,4.55 8.38,-0.03 15.89,-1.53 22.56,-4.55 6.67,-2.99 12.36,-7.36 17.1,-13.14 4.69,-5.77 8.28,-12.81 10.8,-21.1 2.48,-8.29 3.74,-17.75 3.77,-28.37 -0.07,-14.21 -2.24,-26.33 -6.59,-36.33 -4.37,-10 -10.56,-17.63 -18.64,-22.86 -8.08,-5.27 -17.75,-7.93 -29,-7.97 -11.25,0.04 -20.89,2.7 -28.97,7.97 -8.08,5.23 -14.31,12.86 -18.68,22.86 -4.34,10 -6.52,22.12 -6.58,36.33zm24.96 0l0 0c0.03,-15.02 2.51,-26.33 7.48,-33.97 5,-7.63 12.24,-11.46 21.79,-11.46 9.55,0 16.82,3.83 21.79,11.46 4.96,7.64 7.44,18.95 7.48,33.97 -0.04,14.9 -2.52,26.16 -7.48,33.73 -4.97,7.54 -12.24,11.35 -21.79,11.35 -9.55,0 -16.79,-3.81 -21.79,-11.35 -4.97,-7.57 -7.45,-18.83 -7.48,-33.73zm104.33 65l0 0 22.8 0 0 -72.18c0,-4.85 -0.09,-9.49 -0.33,-13.89 -0.24,-4.43 -0.66,-8.64 -1.29,-12.68 2.79,7 5.42,13.1 7.9,18.34 2.49,5.21 4.77,9.58 6.83,13.08l40.76 67.33 22.8 0 0 -130.54 -22.8 0 0 70.21c0,4.85 0.15,9.49 0.42,13.88 0.3,4.43 0.74,8.66 1.37,12.7 -2.15,-5.66 -4.48,-11.1 -6.94,-16.32 -2.48,-5.21 -5.08,-10.17 -7.78,-14.93l-37.53 -65.54 -26.21 0 0 130.54z"/>
    <path class="fil18" d="M4946.47 1442.75l46.15 0c16.16,0.03 28.22,-2.99 36.18,-9.04 7.99,-6.01 11.97,-15.23 11.94,-27.59 0,-16.16 -7.36,-26.76 -22.09,-31.78 6.62,-3.21 11.44,-7.04 14.52,-11.53 3.06,-4.45 4.55,-9.78 4.52,-15.95 -0.03,-11.25 -3.74,-19.84 -11.13,-25.73 -7.4,-5.91 -18.29,-8.9 -32.69,-8.93l-47.4 0 0 130.55zm24.06 -20.11l0 0 0 -38.61 21.19 0c8.17,-0.03 14.28,1.53 18.35,4.67 4.06,3.11 6.07,7.9 6.07,14.37 0.03,6.85 -2.04,11.85 -6.22,14.96 -4.16,3.11 -10.6,4.67 -19.27,4.61l-20.12 0zm0 -58.18l0 0 0 -32.14 18.68 0c5.38,-0.03 9.88,0.48 13.46,1.5 3.6,1.04 6.28,2.72 8.08,5.05 1.8,2.37 2.7,5.51 2.7,9.43 0,5.47 -1.92,9.51 -5.75,12.18 -3.83,2.66 -9.51,3.98 -17.05,3.98l-20.12 0zm87.45 13.29l0 0c0.03,10.62 1.29,20.08 3.77,28.37 2.51,8.29 6.11,15.32 10.84,21.1 4.7,5.77 10.38,10.14 17.05,13.14 6.68,3.02 14.19,4.52 22.57,4.55 8.38,-0.03 15.89,-1.53 22.56,-4.55 6.68,-3 12.37,-7.37 17.09,-13.14 4.7,-5.78 8.29,-12.81 10.81,-21.1 2.48,-8.29 3.74,-17.75 3.77,-28.37 -0.06,-14.22 -2.25,-26.34 -6.59,-36.34 -4.36,-9.99 -10.56,-17.63 -18.64,-22.86 -8.08,-5.27 -17.75,-7.93 -29,-7.96 -11.25,0.03 -20.89,2.69 -28.97,7.96 -8.08,5.23 -14.31,12.87 -18.67,22.86 -4.35,10 -6.53,22.12 -6.59,36.34zm24.96 0l0 0c0.03,-15.03 2.52,-26.34 7.48,-33.97 5,-7.63 12.24,-11.46 21.79,-11.46 9.54,0 16.82,3.83 21.78,11.46 4.98,7.63 7.46,18.94 7.49,33.97 -0.03,14.9 -2.51,26.15 -7.49,33.73 -4.96,7.54 -12.24,11.34 -21.78,11.34 -9.55,0 -16.79,-3.8 -21.79,-11.34 -4.96,-7.58 -7.45,-18.83 -7.48,-33.73zm94.99 35.55l0 0c4.25,10.27 10.54,18.02 18.82,23.29 8.33,5.29 18.5,7.93 30.56,7.95 9.37,-0.02 17.35,-1.64 23.94,-4.78 6.62,-3.15 11.65,-7.63 15.15,-13.41 3.46,-5.77 5.23,-12.66 5.26,-20.59 0,-5.09 -0.66,-9.52 -2.03,-13.29 -1.35,-3.8 -3.35,-7.12 -6.08,-10 -2.69,-2.87 -6.07,-5.47 -10.14,-7.83 -4.08,-2.37 -8.8,-4.7 -14.25,-6.95 -5.18,-2.15 -9.82,-4.04 -13.91,-5.63 -4.14,-1.58 -7.64,-3.14 -10.54,-4.66 -2.9,-1.56 -5.12,-3.32 -6.64,-5.33 -1.53,-2.04 -2.31,-4.55 -2.31,-7.54 0.03,-4.28 1.56,-7.64 4.58,-10.08 3.02,-2.47 7.24,-3.72 12.66,-3.75 3.71,0 6.97,0.57 9.84,1.77 2.88,1.19 5.42,3.02 7.66,5.47 2.25,2.49 4.26,5.63 6.03,9.46l22.26 -8.08c-3.41,-9.46 -8.83,-16.55 -16.2,-21.34 -7.38,-4.79 -16.63,-7.21 -27.8,-7.21 -6.49,0.03 -12.33,0.9 -17.56,2.67 -5.21,1.73 -9.69,4.18 -13.41,7.35 -3.71,3.18 -6.58,6.95 -8.56,11.26 -2,4.33 -2.99,9.1 -3.02,14.27 0.03,6.23 1.32,11.76 3.92,16.64 2.6,4.88 6.37,8.92 11.34,12.09 2.87,1.83 5.98,3.5 9.28,5 3.32,1.5 6.82,2.93 10.47,4.31 3.65,1.35 7.42,2.75 11.32,4.16 4.49,1.64 8.14,3.32 11.01,5.03 2.87,1.71 4.97,3.62 6.34,5.75 1.38,2.12 2.04,4.64 2.04,7.54 0,3.32 -0.87,6.2 -2.55,8.68 -1.67,2.45 -4.09,4.36 -7.24,5.74 -3.14,1.38 -6.94,2.07 -11.4,2.1 -5.78,0.03 -10.83,-1.56 -15.11,-4.79 -4.28,-3.21 -8.11,-8.27 -11.46,-15.14l-22.27 9.87zm183.87 -9.52l0 0c-1.17,4.04 -2.93,7.49 -5.33,10.39 -2.36,2.87 -5.23,5.09 -8.55,6.64 -3.35,1.56 -7.04,2.33 -11.08,2.37 -9.3,0.03 -16.13,-3.69 -20.46,-11.14 -4.37,-7.44 -6.53,-18.7 -6.47,-33.75 0,-15.72 2.15,-27.47 6.52,-35.32 4.38,-7.84 10.99,-11.73 19.88,-11.73 5.92,0 10.8,1.61 14.63,4.79 3.83,3.2 6.55,7.96 8.17,14.24l22.63 -5.56c-2.58,-11.11 -7.57,-19.55 -15.06,-25.35 -7.48,-5.8 -17.12,-8.74 -28.94,-8.77 -11.16,0.03 -20.68,2.63 -28.51,7.84 -7.88,5.21 -13.86,12.81 -18.02,22.86 -4.13,10.03 -6.23,22.3 -6.26,36.82 0.03,22.11 4.37,38.75 13.02,49.94 8.64,11.23 21.43,16.83 38.34,16.86 8.26,-0.03 15.62,-1.38 22.05,-4.04 6.43,-2.7 11.82,-6.62 16.22,-11.8 4.41,-5.18 7.67,-11.52 9.85,-19l-22.63 -6.29zm34.12 -26.03l0 0c0.03,10.62 1.29,20.08 3.77,28.37 2.51,8.29 6.11,15.32 10.84,21.1 4.7,5.77 10.38,10.14 17.06,13.14 6.67,3.02 14.18,4.52 22.56,4.55 8.38,-0.03 15.89,-1.53 22.56,-4.55 6.68,-3 12.37,-7.37 17.09,-13.14 4.7,-5.78 8.3,-12.81 10.81,-21.1 2.48,-8.29 3.74,-17.75 3.77,-28.37 -0.06,-14.22 -2.24,-26.34 -6.59,-36.34 -4.36,-9.99 -10.56,-17.63 -18.64,-22.86 -8.08,-5.27 -17.75,-7.93 -29,-7.96 -11.25,0.03 -20.89,2.69 -28.97,7.96 -8.08,5.23 -14.31,12.87 -18.67,22.86 -4.35,10 -6.53,22.12 -6.59,36.34zm24.96 0l0 0c0.03,-15.03 2.52,-26.34 7.48,-33.97 5,-7.63 12.24,-11.46 21.79,-11.46 9.55,0 16.82,3.83 21.78,11.46 4.98,7.63 7.46,18.94 7.49,33.97 -0.03,14.9 -2.51,26.15 -7.49,33.73 -4.96,7.54 -12.23,11.34 -21.78,11.34 -9.55,0 -16.79,-3.8 -21.79,-11.34 -4.96,-7.58 -7.45,-18.83 -7.48,-33.73z"/>
    <path class="fil17" d="M4560.19 1409.39c3.62,11.5 9.27,20.14 17,25.95 7.71,5.81 17.35,8.71 28.97,8.71 8.22,-0.06 15.35,-1.56 21.36,-4.55 5.98,-2.99 10.63,-7.18 13.89,-12.57 3.26,-5.36 4.93,-11.61 4.97,-18.8 0,-4.99 -0.66,-9.36 -1.98,-13.13 -1.32,-3.75 -3.32,-7.06 -6.01,-9.91 -2.7,-2.87 -6.08,-5.45 -10.18,-7.75 -4.13,-2.27 -8.95,-4.49 -14.51,-6.55 -4.13,-1.53 -7.96,-2.94 -11.44,-4.19 -3.5,-1.26 -6.61,-2.49 -9.33,-3.71 -2.73,-1.23 -5.03,-2.55 -6.89,-3.95 -2.78,-2.25 -4.88,-4.64 -6.31,-7.25 -1.41,-2.57 -2.13,-5.44 -2.13,-8.56 0.03,-4.34 0.96,-8.08 2.82,-11.25 1.82,-3.14 4.46,-5.6 7.84,-7.33 3.41,-1.71 7.45,-2.58 12.14,-2.6 7.31,0 13.45,2 18.38,5.95 4.97,3.98 8.53,9.81 10.72,17.57l12.93 -3.77c-2.04,-6.89 -4.97,-12.69 -8.77,-17.42 -3.81,-4.73 -8.35,-8.29 -13.71,-10.72 -5.35,-2.42 -11.37,-3.65 -18.1,-3.65 -7.76,0.03 -14.49,1.5 -20.18,4.35 -5.68,2.87 -10.05,6.88 -13.16,12.05 -3.12,5.18 -4.7,11.26 -4.73,18.26 0,5.57 1.08,10.38 3.26,14.45 2.18,4.04 5.48,7.61 9.88,10.66 4.43,3.05 9.96,5.86 16.66,8.47 3.72,1.4 7.37,2.75 10.9,3.98 3.53,1.26 6.94,2.6 10.17,4.01 3.23,1.41 6.29,3.05 9.1,4.94 2.96,1.97 5.18,4.45 6.61,7.42 1.48,2.99 2.19,6.49 2.19,10.53 -0.03,4.52 -1.14,8.47 -3.33,11.86 -2.17,3.38 -5.29,6.01 -9.33,7.89 -4.04,1.89 -8.86,2.85 -14.46,2.88 -4.93,-0.03 -9.51,-1.11 -13.7,-3.23 -4.19,-2.13 -7.81,-5.18 -10.89,-9.16 -3.09,-3.99 -5.42,-8.77 -7.01,-14.37l-13.64 4.49zm112.76 32.5l0 0 14.19 0 0 -43.63 20.65 -25.14 38.96 68.77 16.7 0 -46.33 -79.9 40.59 -49.92 -15.8 0 -54.77 68.41 0 -68.41 -14.19 0 0 129.82zm110.97 0l0 0 13.83 0 0 -114.38 39.14 114.38 9.7 0 39.14 -114.38 0 114.38 13.83 0 0 -129.82 -20.83 0 -36.45 109.71 -36.27 -109.71 -22.09 0 0 129.82z"/>
    <g>
     <path class="fil18" d="M5039.65 827.22c3.54,32.55 -36.36,82.23 -38.08,101.58 -1.94,21.9 26.61,47.88 53.93,19.4 27.33,-28.49 31.8,-55.51 63.58,-90.74 9.42,-10.45 20.23,-18.43 31.93,-25.03 36.9,-20.78 75.86,-35.91 95.06,-44.78 25.23,-11.64 38.99,-34.29 19.99,-57.94 -17.64,-21.96 -75.25,8.63 -106.37,-6.95 -11.95,-5.99 -19.68,-21.29 -23.31,-34.19 -8.73,-30.96 -2.35,-68.62 -3.99,-91.97 -2.14,-30.44 -71.5,-46.67 -63.4,12.04 4.17,30.22 4.38,50.13 -0.7,66.09 -3.65,11.43 -11.01,22.06 -18.96,30.73 -6.23,6.79 -14.43,13.35 -23,17.81 -38.14,19.79 -81.64,-10.74 -102.98,-3.53 -23.7,8 -26.82,39.22 -8.27,52.22 33.74,23.65 81.47,5.77 110.21,30.75 7.12,6.19 13.28,14.64 14.36,24.51z"/>
     <path class="fil18" d="M5027.04 598.65c22.56,13.04 29.04,45.52 14.49,72.55 -14.56,27.03 -44.65,38.37 -67.22,25.33 -22.56,-13.05 -29.05,-45.53 -14.49,-72.56 14.56,-27.03 44.66,-38.37 67.22,-25.32z"/>
    </g>
   </g>
   <path class="fil19" d="M2855.53 288.68c392.85,0 711.32,318.48 711.32,711.32 0,392.85 -318.47,711.32 -711.32,711.32 -392.85,0 -711.32,-318.47 -711.32,-711.32 0,-392.84 318.47,-711.32 711.32,-711.32z"/>
   <path class="fil20" d="M2855.53 285c394.89,0 715,320.12 715,715 0,394.88 -320.11,715 -715,715 -394.88,0 -715,-320.12 -715,-715 0,-394.88 320.12,-715 715,-715zm0 48.49c368.1,0 666.51,298.4 666.51,666.51 0,368.11 -298.41,666.51 -666.51,666.51 -368.11,0 -666.51,-298.4 -666.51,-666.51 0,-368.11 298.4,-666.51 666.51,-666.51z"/>
   <path class="fil20" d="M2900.58 713.4l0 399.66 -90.09 0 0 -399.66 -76.11 76.11 0 323.55 -90.09 0 0 -233.46 -66.84 66.85 -63.71 -63.71c269.48,-269.47 204.33,-204.32 341.8,-341.79 137.47,137.47 72.32,72.32 341.8,341.79l-63.71 63.71 -66.85 -66.85 0 233.46 -90.09 0 0 -323.55 -76.11 -76.11zm-46.18 -310.64c34.98,0 63.34,28.36 63.34,63.34 0,34.97 -28.36,63.33 -63.34,63.33 -34.98,0 -63.33,-28.36 -63.33,-63.33 0,-34.98 28.35,-63.34 63.33,-63.34zm-204.43 175.88c34.98,0 63.34,28.35 63.34,63.33 0,34.98 -28.36,63.33 -63.34,63.33 -34.98,0 -63.33,-28.35 -63.33,-63.33 0,-34.98 28.35,-63.33 63.33,-63.33zm411.14 0c34.97,0 63.33,28.35 63.33,63.33 0,34.98 -28.36,63.33 -63.33,63.33 -34.98,0 -63.34,-28.35 -63.34,-63.33 0,-34.98 28.36,-63.33 63.34,-63.33z"/>
   <path class="fil16" d="M2471.1 1193.89c-20.16,0 -32.54,9.95 -32.54,25.62 0,11.41 6.68,18.94 24.65,25.25l10.56 3.52c4.73,1.58 8.5,4.13 8.5,8.38 0,4.37 -4.37,7.28 -11.78,7.28 -8.01,0 -17.73,-3.52 -26.22,-9.59l-8.74 17.12c8.37,6.19 21.36,10.08 34.84,10.08 21.48,0 34.72,-9.6 34.72,-25.87 0,-14.2 -10.2,-21 -25.37,-26.1l-10.45 -3.51c-4.97,-1.71 -8.01,-4.02 -8.01,-7.9 0,-4.25 3.64,-6.68 10.81,-6.68 7.16,0 16.39,2.43 22.7,6.08l7.77 -16.03c-8.74,-4.74 -20.4,-7.65 -31.44,-7.65zm88.75 1.34l-20.64 0 -33.03 84.98 23.56 0 6.68 -17.85 26.22 0 6.8 17.85 24.16 0 -33.75 -84.98zm-10.2 25.49l8.98 23.8 -18.45 0 9.47 -23.8zm74.66 -25.49l-22.7 0 0 84.98 56.82 0 0 -19.43 -34.12 0 0 -65.55zm107.93 0l-63.86 0 0 84.98 63.86 0 0 -19.43 -41.15 0 0 -14.08 38.11 0 0 -17.48 -38.11 0 0 -14.57 41.15 0 0 -19.42zm43.35 -1.34c-20.16,0 -32.55,9.95 -32.55,25.62 0,11.41 6.68,18.94 24.65,25.25l10.56 3.52c4.74,1.58 8.5,4.13 8.5,8.38 0,4.37 -4.37,7.28 -11.77,7.28 -8.02,0 -17.73,-3.52 -26.23,-9.59l-8.74 17.12c8.38,6.19 21.37,10.08 34.85,10.08 21.48,0 34.72,-9.6 34.72,-25.87 0,-14.2 -10.2,-21 -25.38,-26.1l-10.44 -3.51c-4.98,-1.71 -8.01,-4.02 -8.01,-7.9 0,-4.25 3.64,-6.68 10.81,-6.68 7.16,0 16.38,2.43 22.7,6.08l7.76 -16.03c-8.74,-4.74 -20.39,-7.65 -31.43,-7.65zm67.86 1.34l-22.7 0 0 84.98 22.7 0 0 -84.98zm74.91 -26.47l-22.58 0 -10.69 20.64 6.81 0 26.46 -19.3 0 -1.34zm-12.87 26.47l-20.64 0 -33.02 84.98 23.55 0 6.68 -17.85 26.22 0 6.8 17.85 24.16 0 -33.75 -84.98zm-10.2 25.49l8.99 23.8 -18.46 0 9.47 -23.8zm124.44 -25.49l-22.7 0 0 44.55 -32.05 -44.55 -17.73 0 0 84.98 22.71 0 0 -45.29 32.17 45.29 17.6 0 0 -84.98zm45.89 -1.34c-20.15,0 -32.54,9.95 -32.54,25.62 0,11.41 6.68,18.94 24.65,25.25l10.56 3.52c4.74,1.58 8.5,4.13 8.5,8.38 0,4.37 -4.37,7.28 -11.77,7.28 -8.02,0 -17.73,-3.52 -26.23,-9.59l-8.74 17.12c8.38,6.19 21.37,10.08 34.84,10.08 21.49,0 34.72,-9.6 34.72,-25.87 0,-14.2 -10.19,-21 -25.37,-26.1l-10.44 -3.51c-4.98,-1.71 -8.01,-4.02 -8.01,-7.9 0,-4.25 3.64,-6.68 10.81,-6.68 7.16,0 16.38,2.43 22.7,6.08l7.76 -16.03c-8.74,-4.74 -20.39,-7.65 -31.44,-7.65zm117.89 1.34l-23.56 0 -26.46 38.36 0 -38.36 -22.7 0 0 84.98 22.7 0 0 -22.34 8.98 -11.41 21.5 33.75 23.54 0 0 -2.19 -29.38 -46.25 25.38 -34.36 0 -2.18zm68.23 -26.47l-22.58 0 -10.56 20.64 6.79 0 26.35 -19.3 0 -1.34zm23.79 26.47l-24.88 0 -19.42 27.43 -19.31 -27.43 -25.01 0 0 2.18 33.03 43.22 0 39.58 22.69 0 0 -39.94 32.9 -42.86 0 -2.18zm-756.47 128.76l-8.39 0 -33.03 42.16 0 -42.16 -7.54 0 0 74.33 7.54 0 0 -22.4 11.79 -14.23 26.44 36.63 8.82 0 0 -0.63 -30.48 -41.53 24.85 -31.54 0 -0.63zm23.89 0l-7.44 0 0 74.33 41.32 0 0 -6.27 -33.88 0 0 -68.06zm99.92 0l-7.43 0 0 47.25c0,13.06 -8.71,21.45 -21.34,21.45 -12.64,0 -21.45,-8.39 -21.45,-21.45l0 -47.25 -7.44 0 0 47.25c0,17.2 11.79,28.25 28.89,28.25 16.99,0 28.77,-11.05 28.77,-28.25l0 -47.25zm20.92 0l0 74.33 31.44 0c14.23,0 23.89,-7.54 23.89,-18.9 0,-9.88 -7.43,-17.52 -18.8,-19.01 9.14,-2.23 14.98,-9.34 14.98,-17.73 0,-11.47 -9.67,-18.69 -23.58,-18.69l-27.93 0zm27.93 6.26c9.35,0 15.93,4.89 15.93,12.85 0,8.82 -7.75,14.87 -20.17,14.87l-16.25 0 0 -27.72 20.49 0zm-1.91 33.66c13.17,0 21.67,6.27 21.67,15.3 0,7.86 -6.59,12.84 -16.25,12.84l-24 0 0 -28.14 18.58 0zm150.69 -39.92l-8.93 0 -27.71 63.71 -27.82 -63.71 -8.82 0 -7.01 74.33 7.65 0 5.73 -63.5 27.19 62.55 6.05 0 27.29 -62.55 5.63 63.5 7.65 0 -6.9 -74.33zm32.91 0l-7.43 0 0 74.33 41.31 0 0 -6.27 -33.88 0 0 -68.06zm85.38 -19.86l-9.02 0 -9.77 15.5 2.87 0 15.92 -14.75 0 -0.75zm-9.88 19.86l-9.02 0 -29.42 74.33 7.86 0 8.39 -21.77 35.36 0 8.6 21.77 7.76 0 -29.53 -74.33zm-4.45 7.22l15.18 39.18 -30.47 0 15.29 -39.18zm46.4 -7.22l0 74.33 22.19 0c22.84,0 38.23,-15.08 38.23,-37.17 0,-22.08 -15.39,-37.16 -38.23,-37.16l-22.19 0zm22.19 6.26c18.27,0 30.69,12.53 30.69,30.9 0,18.38 -12.42,30.9 -30.69,30.9l-14.76 0 0 -61.8 14.76 0zm102.59 -6.26l-47.9 0 0 74.33 47.9 0 0 -6.27 -40.46 0 0 -26.96 37.49 0 0 -6.27 -37.49 0 0 -28.57 40.46 0 0 -6.26zm52.56 -19.86l-2.97 0 -11.9 9.87 -11.89 -9.87 -2.97 0 11.89 15.5 5.95 0 11.89 -15.5zm12 19.86l-52.67 0 0 6.26 43.22 0 -45.87 62.23 0 5.84 56.49 0 0 -6.27 -47.58 0 46.41 -62.11 0 -5.95zm63.82 0l-47.89 0 0 74.33 47.89 0 0 -6.27 -40.46 0 0 -26.96 37.49 0 0 -6.27 -37.49 0 0 -28.57 40.46 0 0 -6.26zm-674.26 114.69l0 74.33 7.43 0 0 -32.39 21.45 0c12.75,0 21.13,-8.49 21.13,-20.81 0,-12.53 -8.38,-21.13 -21.13,-21.13l-28.88 0zm28.88 6.26c8.18,0 13.49,6.05 13.49,14.87 0,8.6 -5.31,14.55 -13.49,14.55l-21.45 0 0 -29.42 21.45 0zm59.89 -6.26l-9.02 0 -29.42 74.33 7.86 0 8.39 -21.77 35.36 0 8.6 21.77 7.76 0 -29.53 -74.33zm-4.46 7.22l15.19 39.18 -30.47 0 15.28 -39.18zm46.41 -7.22l0 74.33 7.43 0 0 -32.39 14.02 0 21.24 32.39 7.86 0 0 -0.63 -21.45 -31.76 1.27 0c11.89,-0.74 19.65,-9.13 19.65,-20.81 0,-12.53 -8.39,-21.13 -21.14,-21.13l-28.88 0zm28.88 6.26c8.18,0 13.49,6.05 13.49,14.87 0,8.6 -5.31,14.55 -13.49,14.55l-21.45 0 0 -29.42 21.45 0zm38.13 -6.26l0 74.33 22.19 0c22.83,0 38.23,-15.08 38.23,-37.17 0,-22.08 -15.4,-37.16 -38.23,-37.16l-22.19 0zm22.19 6.26c18.27,0 30.69,12.53 30.69,30.9 0,18.38 -12.42,30.91 -30.69,30.91l-14.76 0 0 -61.81 14.76 0zm111.4 -6.26l-7.44 0 0 47.25c0,13.06 -8.7,21.45 -21.34,21.45 -12.64,0 -21.45,-8.39 -21.45,-21.45l0 -47.25 -7.43 0 0 47.25c0,17.21 11.78,28.25 28.88,28.25 16.99,0 28.78,-11.04 28.78,-28.25l0 -47.25zm20.92 0l0 74.33 31.43 0c14.23,0 23.9,-7.54 23.9,-18.9 0,-9.88 -7.44,-17.52 -18.8,-19.01 9.13,-2.23 14.97,-9.34 14.97,-17.73 0,-11.47 -9.66,-18.69 -23.57,-18.69l-27.93 0zm27.93 6.26c9.34,0 15.92,4.89 15.92,12.85 0,8.82 -7.75,14.87 -20.17,14.87l-16.25 0 0 -27.72 20.5 0zm-1.92 33.66c13.17,0 21.67,6.27 21.67,15.3 0,7.86 -6.58,12.85 -16.25,12.85l-24 0 0 -28.15 18.58 0zm52.99 -39.92l-7.43 0 0 74.33 7.43 0 0 -74.33zm56.6 -1.17c-24.32,0 -40.14,15.61 -40.14,38.33 0,22.73 15.93,38.34 40.25,38.34 8.49,0 17.84,-3.08 24.11,-7.75l-2.87 -5.73c-5.53,4.03 -13.81,6.68 -21.67,6.68 -19.54,0 -32.17,-12.84 -32.17,-31.54 0,-18.69 12.63,-31.53 32.07,-31.53 7.86,0 16.24,2.65 21.77,6.8l2.87 -5.64c-6.27,-4.77 -15.72,-7.96 -24.22,-7.96zm86.76 1.17l-47.89 0 0 74.33 47.89 0 0 -6.26 -40.46 0 0 -26.97 37.49 0 0 -6.27 -37.49 0 0 -28.57 40.46 0 0 -6.26z"/>
   <g>
    <g>
     <path class="fil20" d="M532.42 309.36l872.91 0c21.17,0 38.5,17.33 38.5,38.51l0 872.9c0,21.18 -17.33,38.51 -38.5,38.51l-872.91 0c-21.18,0 -38.5,-17.33 -38.5,-38.51l0 -872.9c0,-21.18 17.32,-38.51 38.5,-38.51z"/>
     <path class="fil19" d="M1011.59 742.1l0 379.02 -85.44 0 0 -379.01 -72.17 72.17 0 306.84 -85.44 0 0 -221.4 -63.4 63.39 -60.41 -60.41c255.56,-255.55 193.77,-193.77 324.14,-324.14 130.37,130.37 68.59,68.59 324.14,324.14l-60.41 60.41 -63.4 -63.39 0 221.4 -85.43 0 0 -306.84 -72.18 -72.18zm-43.8 -294.58c33.17,0 60.06,26.89 60.06,60.06 0,33.17 -26.89,60.06 -60.06,60.06 -33.17,0 -60.06,-26.89 -60.06,-60.06 0,-33.17 26.89,-60.06 60.06,-60.06zm-193.87 166.78c33.18,0 60.07,26.89 60.07,60.07 0,33.17 -26.89,60.06 -60.07,60.06 -33.17,0 -60.06,-26.89 -60.06,-60.06 0,-33.18 26.89,-60.07 60.06,-60.07zm389.9 0c33.17,0 60.06,26.89 60.06,60.07 0,33.17 -26.89,60.06 -60.06,60.06 -33.17,0 -60.06,-26.89 -60.06,-60.06 0,-33.18 26.89,-60.07 60.06,-60.07z"/>
    </g>
    <path class="fil16" d="M549.08 1388.04c-29.86,0 -48.2,14.75 -48.2,37.95 0,16.9 9.89,28.05 36.51,37.4l15.65 5.22c7.01,2.33 12.58,6.11 12.58,12.4 0,6.48 -6.47,10.79 -17.44,10.79 -11.87,0 -26.26,-5.21 -38.85,-14.2l-12.94 25.36c12.4,9.17 31.65,14.92 51.61,14.92 31.83,0 51.44,-14.2 51.44,-38.3 0,-21.04 -15.11,-31.11 -37.59,-38.67l-15.47 -5.21c-7.37,-2.52 -11.87,-5.94 -11.87,-11.69 0,-6.3 5.4,-9.89 16.01,-9.89 10.61,0 24.27,3.59 33.63,8.99l11.5 -23.74c-12.94,-7.01 -30.2,-11.33 -46.57,-11.33zm131.46 1.98l-30.58 0 -48.91 125.88 34.89 0 9.89 -26.43 38.84 0 10.07 26.43 35.79 0 -49.99 -125.88zm-15.11 37.76l13.31 35.25 -27.33 0 14.02 -35.25zm110.6 -37.76l-33.63 0 0 125.88 84.17 0 0 -28.77 -50.54 0 0 -97.11zm159.88 0l-94.6 0 0 125.88 94.6 0 0 -28.77 -60.97 0 0 -20.86 56.47 0 0 -25.9 -56.47 0 0 -21.58 60.97 0 0 -28.77zm64.2 -1.98c-29.86,0 -48.2,14.75 -48.2,37.95 0,16.9 9.89,28.05 36.51,37.4l15.64 5.22c7.02,2.33 12.59,6.11 12.59,12.4 0,6.48 -6.47,10.79 -17.44,10.79 -11.87,0 -26.26,-5.21 -38.85,-14.2l-12.94 25.36c12.4,9.17 31.65,14.92 51.61,14.92 31.83,0 51.44,-14.2 51.44,-38.3 0,-21.04 -15.11,-31.11 -37.59,-38.67l-15.47 -5.21c-7.37,-2.52 -11.87,-5.94 -11.87,-11.69 0,-6.3 5.4,-9.89 16,-9.89 10.62,0 24.28,3.59 33.63,8.99l11.52 -23.74c-12.95,-7.01 -30.22,-11.33 -46.58,-11.33zm100.53 1.98l-33.63 0 0 125.88 33.63 0 0 -125.88zm110.96 -39.2l-33.45 0 -15.83 30.57 10.07 0 39.21 -28.6 0 -1.97zm-19.06 39.2l-30.58 0 -48.91 125.88 34.89 0 9.89 -26.43 38.84 0 10.07 26.43 35.79 0 -49.99 -125.88zm-15.11 37.76l13.31 35.25 -27.33 0 14.02 -35.25zm184.33 -37.76l-33.63 0 0 66 -47.47 -66 -26.26 0 0 125.88 33.63 0 0 -67.07 47.66 67.07 26.07 0 0 -125.88zm57.73 0l-33.63 0 0 125.88 33.63 0 0 -125.88zm-925.29 189.09l0 102.71 30.67 0c31.54,0 52.82,-20.83 52.82,-51.36 0,-30.51 -21.28,-51.35 -52.82,-51.35l-30.67 0zm30.67 8.66c25.23,0 42.4,17.32 42.4,42.69 0,25.39 -17.17,42.71 -42.4,42.71l-20.4 0 0 -85.4 20.4 0zm121.19 -10.27c-29.34,0 -53.26,23.77 -53.26,52.96 0,29.21 23.92,52.98 53.26,52.98 29.35,0 53.26,-23.77 53.26,-52.98 0,-29.19 -23.91,-52.96 -53.26,-52.96zm0 9.39c23.48,0 42.7,19.07 42.7,43.57 0,24.51 -19.22,43.59 -42.7,43.59 -23.32,0 -42.7,-19.08 -42.7,-43.59 0,-24.5 19.38,-43.57 42.7,-43.57zm156.12 -7.78l-10.26 0 0 83.93 -61.93 -83.93 -8.07 0 0 102.71 10.28 0 0 -84.22 62.21 84.22 7.77 0 0 -102.71zm70.43 0l-12.47 0 -40.64 102.71 10.85 0 11.59 -30.08 48.87 0 11.88 30.08 10.71 0 -40.79 -102.71zm-6.16 9.98l20.98 54.14 -42.11 0 21.13 -54.14zm98.31 -9.98l0 102.71 43.43 0c19.67,0 33.03,-10.42 33.03,-26.12 0,-13.64 -10.28,-24.2 -25.98,-26.26 12.62,-3.08 20.69,-12.91 20.69,-24.5 0,-15.85 -13.35,-25.83 -32.58,-25.83l-38.59 0zm38.59 8.66c12.92,0 22.01,6.75 22.01,17.75 0,12.18 -10.71,20.55 -27.87,20.55l-22.46 0 0 -38.3 28.32 0zm-2.64 46.51c18.2,0 29.94,8.66 29.94,21.13 0,10.86 -9.1,17.76 -22.46,17.76l-33.16 0 0 -38.89 25.68 0zm108.59 -56.78c-29.35,0 -53.26,23.77 -53.26,52.96 0,29.21 23.91,52.98 53.26,52.98 29.34,0 53.26,-23.77 53.26,-52.98 0,-29.19 -23.92,-52.96 -53.26,-52.96zm0 9.39c23.47,0 42.7,19.07 42.7,43.57 0,24.51 -19.23,43.59 -42.7,43.59 -23.33,0 -42.7,-19.08 -42.7,-43.59 0,-24.5 19.37,-43.57 42.7,-43.57zm104.03 -9.39c-20.69,0 -35.07,10.12 -35.07,27.44 0,13.06 8.66,21.71 24.94,26.56l18.2 5.43c10.27,3.08 18.78,7.62 18.78,18.48 0,11.45 -9.83,18.49 -25.68,18.49 -11.89,0 -24.8,-3.82 -33.75,-9.39l-5.14 7.92c10.42,6.46 24.95,11.01 39.04,11.01 21.86,0 36.09,-10.86 36.09,-28.47 0,-15.7 -11.3,-22.45 -26.41,-27.14l-18.34 -5.73c-11,-3.52 -17.17,-8.07 -17.17,-17.16 0,-11.74 10.12,-17.91 24.51,-17.91 10.12,0 20.1,2.8 28.61,7.34l4.4 -8.51c-9.54,-4.99 -21.13,-8.36 -33.01,-8.36zm126.48 1.61l-11.59 0 -45.64 58.25 0 -58.25 -10.42 0 0 102.71 10.42 0 0 -30.96 16.29 -19.66 36.54 50.62 12.17 0 0 -0.87 -42.11 -57.38 34.34 -43.58 0 -0.88zm62.94 0l-12.47 0 -40.64 102.71 10.85 0 11.59 -30.08 48.86 0 11.89 30.08 10.71 0 -40.79 -102.71zm-6.16 9.98l20.98 54.14 -42.11 0 21.13 -54.14z"/>
   </g>
   <g>
    <path class="fil21" d="M10914.93 734.36c2.14,23.11 3.15,41.07 3.15,58.32 0,43.27 -6.73,81.53 -20.5,116.96 -17.32,44.46 -45.57,85.06 -86.39,124.17 -95.96,91.99 -228.51,148.01 -229.83,148.57l-1.77 0.73 -1.82 -0.73c-1.31,-0.56 -133.87,-56.58 -229.86,-148.57 -40.79,-39.11 -69.06,-79.71 -86.36,-124.17 -13.79,-35.43 -20.49,-73.69 -20.49,-116.96 0,-17.23 0.98,-35.21 3.14,-58.32 10.08,-106.77 44.37,-220.93 51.14,-242.74l1 -3.25 566.45 0 0.98 3.21c6.78,21.82 41.06,135.89 51.16,242.78z"/>
    <path class="fil22" d="M10470.48 707.29c-0.06,0.3 -0.09,0.11 -0.21,0.64 -0.88,3.24 -1.5,6.76 -5.09,10.83 -3.15,3.52 -5.16,4.25 -8.25,3.61 -3.03,-0.61 -4.59,-3.25 -4.59,-3.25 0,0 0.46,-0.18 3.61,-2.73 3.18,-2.53 3.7,-6.32 3.7,-6.32 -2.42,3.64 -6.24,5.27 -9.13,4.95 -4.12,-0.4 -7.97,-2.05 -11.65,-7.77 -3.7,-5.7 -1.75,-10.46 -1.31,-11.75 0.48,-1.25 0.66,-2.11 -0.16,-2.36 -0.79,-0.27 -1.26,0.37 -1.26,0.37 0,0 -1.06,-1.37 -1.18,-5.07 -0.12,-4.29 1.06,-6.84 2.44,-9.21 1.08,-1.87 2.36,-2.88 3.79,-3.25 0.74,-0.12 1.69,-0.18 2.52,-0.1 0.12,0.04 0.24,0.04 0.4,0.1 2.72,0.52 5.25,1.68 9.42,4.59 4.16,2.9 6.76,6.42 6.76,6.42 0,0 -1.96,5.11 -0.4,10.44 0.68,2.3 2.85,5.11 4.29,6.39 2.02,1.83 4.37,2.88 6.3,3.47z"/>
    <path class="fil22" d="M10468.03 703.46c-1.59,-0.92 -3.58,-2.56 -5.21,-6.4 -1.61,-3.8 -0.72,-7.47 -0.08,-9.07 0.55,-1.3 0.7,-1.46 0.33,-2.04 -0.33,-0.61 -0.95,-1.44 -1.53,-2.1 -3.91,-4.78 -9.91,-8.76 -14.16,-9.77 -2.39,-0.59 -4.41,-0.67 -6.27,-0.21 0,0 -0.96,0.21 -1.75,0.49 0.61,-1.26 2.47,-4.69 5.96,-6.13 1.1,-1.53 2.57,-4.03 3.24,-5.28 2.12,-3.9 4.23,-9.22 6.07,-15.31 1.86,-6.29 4.13,-12.11 6.7,-17.35 1.99,-4.04 5.36,-9.3 6.66,-10.74 1.96,-2.08 2.98,-5.04 2.7,-7.95l-0.06 -0.44c-0.24,-2.6 -0.43,-4.46 0.3,-7.58 0.71,-3.06 1.96,-5.63 6.34,-9.74 4.86,-4.59 8.23,-8.03 9.83,-10.98 1.22,-2.32 1.83,-3.34 3,-6.21 0,0 -9.83,1.65 -14.91,-4.07 -1.77,-1.99 -3.03,-4.93 -3.33,-9.02 -0.19,-2.64 0,-5.67 0.79,-8.39 0.7,-2.42 1.8,-4.65 3.06,-6.17 0,0 -3.64,11.53 4.14,14.95 5.68,2.51 11.68,-1.09 14.44,-4.1 1.19,-1.29 2.54,-3.06 4.13,-4.93 -0.1,-0.05 -0.12,-0.12 -0.22,-0.19l0 0.04c-0.52,-0.53 -6.36,-4.66 -7.34,-10.36 -0.98,-5.74 -0.89,-10.94 -1.32,-13.11 -0.46,-2.15 -1.93,-5.27 -2.48,-6.49 -0.55,-1.19 -0.48,-2.2 0.74,-3.09 1.28,-0.91 2.81,-1.53 5.6,0.18 2.75,1.69 5.17,4.74 7.25,6.95 2.08,2.21 5.23,4.22 7.9,6.03 4.74,3.22 8.13,5.05 9.39,5.63 -0.37,-2.39 -0.64,-5.26 -0.86,-7.38 -0.37,-4.01 -1,-9.7 -1.14,-10.52 -0.08,-0.79 -0.45,-2.06 -1.06,-3.34 -0.8,-1.58 -1.34,-3.26 -1.9,-4.71 -0.55,-1.46 -1.07,-3.58 0.8,-4.75 1.9,-1.19 4.5,-1.27 7.31,0.65 2.91,1.87 4.77,4.98 7.65,6.4 2.9,1.44 9.17,5.17 15.46,12.91 3.79,4.65 6.27,10.22 7.19,15.6 0.61,-0.08 1.52,-0.2 2.57,-0.39l-0.04 0c0,0 5.72,-1.68 9.37,-4.01 4.25,-2.69 7.74,-7.28 10.53,-11.2 2.78,-3.95 10.86,-15.05 24.94,-17.19 11.96,-1.81 13.86,0 18.45,-1.74 4.56,-1.75 5.1,-1.88 5.1,-1.88 0,0 -2.62,5.48 -6.61,8.15 -4,2.65 -10.7,4.09 -16.12,11.32 -1.99,2.66 -4.04,6.66 -4.04,6.66 0,0 9.09,-9.18 21.05,-12.46 11.94,-3.26 24.21,-1.19 31.77,0 7.43,1.21 14.96,3.23 22.7,0.32 5.88,-2.24 6.67,-2.24 6.67,-2.24 0,0 -3.24,4.05 -5.96,9.18 -2.73,5.15 -5.39,9.67 -12.92,12.89 -7.13,3.09 -9.15,3.39 -9.15,3.39 0,0 8.08,1.14 14.6,1.11 6.52,-0.09 12.42,-1.35 19.8,-2.45 7.34,-1.11 20.41,-3.13 29.16,0.23 8.75,3.4 12.79,6.96 12.79,6.96 0,0 -8.94,-0.7 -17.39,7.09 -5.47,5.14 -9.72,10.56 -13.36,12.51 -3.65,1.91 -7.31,3.44 -7.31,3.44 0,0 6.27,1.41 18.75,8.26 9.12,4.98 16.24,7.87 20.04,8.45 7.68,1.17 14.05,0.67 20.63,-2.49 3.51,-1.68 4.5,-1.68 4.5,-1.68 0,0 -6.68,5.6 -9.31,14.17 -1.19,3.76 -6.88,12.42 -14.26,16 -5.75,2.76 -12.67,1.99 -12.67,1.99 0,0 8.36,1.75 19.49,13.62 11.09,11.87 15.1,12.61 21.77,14.17 6.7,1.56 11.35,0.3 13.7,-0.39 0,0 -7.49,9.21 -12.33,14.03 -4.77,4.81 -12.36,12.41 -26.83,10.16 -8.23,-1.34 -9.58,-3.12 -14.17,-4.55 -4.59,-1.44 -7.1,-1.99 -11.26,-1.87 0,0 6.15,2.82 14.87,12.67 8.75,9.81 13.58,11.23 19.98,13.04 6.37,1.73 15.06,-0.62 19.06,-1.1 3.95,-0.5 8.02,0.17 8.02,0.17 0,0 -3.94,0.47 -9.24,7.41 -5.29,6.95 -13.06,19.41 -27.45,21.88 -13.12,2.32 -29.68,-5.29 -29.68,-5.29 0,0 7.44,9.64 13.71,12.91 6.27,3.28 15.64,4.01 20.93,3.15 4.07,-0.67 5.51,-0.67 5.51,-0.67 0,0 -2.79,0.67 -7.23,5.48 -4.37,4.83 -10.28,9.24 -18.2,10.31 -6.55,0.92 -14.79,0.36 -19.52,-2.71 -4.47,-2.98 -7.69,-6.57 -9.07,-11.74 -0.79,-2.99 -0.88,-5.84 -1.22,-8.62 -0.94,-6.89 -0.58,-20.34 -0.73,-24.6 -1.07,-38.45 -10.07,-56.68 -13.49,-64.42 -11.05,-24.97 -31.13,-44.58 -45.87,-55.17 -14.76,-10.6 -23.11,-14.38 -33.91,-18.21 -11.87,-4.2 -20.77,-5.88 -20.77,-5.88 0,0 8.56,3.29 20.49,8.98 21.7,10.31 33.21,21.68 45.79,33.56 12.54,11.84 22.03,26.46 27.84,39.53 8.78,19.72 10.31,40.89 10.78,48.05 0.42,7.12 0.7,31.85 1.49,42.32 0.82,10.49 5.57,16.55 10.65,22.74 5.11,6.15 14.69,11.16 14.69,11.16 -11.33,5.97 -26.41,13.87 -47.55,18.31 -34.09,7.12 -65.4,2.92 -96.16,-11.12 -13.09,-6 -23.53,-14.46 -23.53,-14.46 6.53,-9.38 13.44,-16.93 20.48,-28.28 10.56,-17.04 10.13,-28.28 8.17,-38.22 -1.99,-9.98 -11.6,-15.4 -11.6,-15.4 14.63,-10 23.17,-30.01 13.77,-50.49 -3.14,-6.88 -6.33,-8.23 -6.33,-8.23 3.33,7.41 5.99,12.73 4.95,23.28 -1.44,14.88 -9.45,30.43 -24.66,34.06 -6.09,1.48 -11.59,1.84 -18.66,0 -7.04,-1.76 -13.93,-5.05 -13.93,-5.05 0,0 1.25,1.36 5.78,4.63 6.12,4.4 11.6,5.54 11.6,5.54 -2.81,3.15 -5.35,5.04 -12.38,9.28 -7.08,4.25 -10.81,5.86 -14.39,6.78 -3.64,0.92 -2.42,5.84 -2.36,9.13 0.03,3.33 0.68,5.53 -0.55,8.96 -1.07,2.88 -1.31,2.57 -1.31,2.57 -1.93,-2.18 -7.04,-9.18 -7.04,-9.18 0.63,-1.09 1.59,-2.45 1.93,-4.46 0.7,-4.11 -0.2,-6.34 -1.02,-8.24 -0.86,-2.02 -2.78,-3.18 -3.58,-3.44 3.18,4.84 2.88,7.57 2.54,10.08 -0.34,2.5 -1.87,5.05 -3.55,6.58 0,0 12.18,16.83 19.38,25.55 7.16,8.72 15.51,17.5 28.79,28.24 13.28,10.74 49.27,33.85 102.11,31.25 21.24,-1.07 40.43,-7.32 55.05,-13.8 17.6,-7.83 53.92,-31.45 53.92,-31.45 13.43,-8.3 57.68,-34.78 80.14,-15.95 5.39,4.52 8.48,10.59 8.84,17.47 0.53,8.96 -3.61,16.7 -10.95,24.51 -7.28,7.77 -28.85,17.65 -48.02,19.42 0,0 -16.8,2.24 -32.12,0.59 -3.21,-3.49 -6.51,-7.86 -6.51,-7.86 2.44,0.33 7.18,0.49 7.18,0.49 7.04,0.39 19.68,-0.76 19.68,-0.76 9.91,-1.24 24.87,-3.12 38.73,-9.86 10.53,-5.11 18.45,-13.31 20.66,-21.36 1.32,-4.71 0.67,-9.28 -1.93,-13.22 -4.22,-6.51 -18.42,-9.71 -39.44,-1.25 -8.97,3.57 -14.04,5.97 -24.82,12.26 -4.74,2.7 -42.84,25.98 -60.62,34.13 -34.48,15.72 -66.21,22.45 -96.63,16.46 -30.39,-5.96 -50.4,-16.56 -67.47,-31.03 -17.11,-14.47 -25.61,-24.42 -37.03,-39.63 -7.68,-10.22 -12.43,-18.57 -13.83,-20.71 -0.58,-0.9 -2.7,-0.12 -5.14,-0.35 -2.24,-0.2 -4.07,-1.07 -6.03,-2.19z"/>
    <path class="fil22" d="M10501.01 713.59c20.74,19.11 38.83,25.62 38.83,25.62 -0.93,1.53 -7.34,10.54 -7.34,10.54 0,0 -9.92,-7.52 -18.55,-16.27 -8.17,-8.26 -15.06,-17.25 -15.06,-17.25 1.38,-1.38 2.12,-2.64 2.12,-2.64z"/>
    <path class="fil22" d="M10844.34 894.17c-2.69,31.89 -12.67,55.69 -36.93,77.45 -20.85,18.7 -51.37,31.76 -90.49,34.76 -29.52,2.32 -56.3,-4.55 -64.99,-6.98 -8.69,-2.41 -15.24,-3.91 -20.78,-4.28 -2.96,-0.18 -6.12,0.65 -8.41,1.45 -0.24,-0.04 -0.52,-0.07 -0.76,-0.1l-3.34 0c-0.62,1.19 -1.22,2.26 -1.84,3.09 -4.35,5.81 -10.22,13.55 -26.04,13.37 -16.83,-0.18 -23.1,-1.44 -23.1,-1.44 0,0 -0.61,0.1 -2.42,0.83 -1.8,0.73 -11.75,5.7 -29.04,4.16 -17.29,-1.56 -32.19,-5.07 -43.51,-8.32 -11.35,-3.28 -14.75,-4.05 -18.24,-2.18 -1.41,0.74 -2.11,2.21 -1.47,4.23 2.97,9.54 5.75,16.68 9.74,24.73 3.54,7.15 8.59,14.26 14.58,18.9 5.97,4.59 11.08,7.99 12.31,16.47 0.79,5.7 -3.37,9.66 -3.37,9.66 0,0 3.16,2.61 6.52,2.61 3.34,0 10.31,-3.59 13.64,-4.47 3.37,-0.92 9.34,-2.26 13.72,7.41 0,0 5.41,2.6 8.29,4.77 2.87,2.17 5.51,6.43 5.08,15.3 -0.49,8.84 -1.47,20.16 -5.17,36.9 -0.28,1.25 -1.44,0.46 -2.09,0.1 -0.64,-0.38 -23.61,-16.56 -25.05,-17.57 -1.44,-0.98 -2.54,-1.77 -2.54,-1.77 0,0 -6.24,2.26 -11.75,-4.38 -5.54,-6.58 -9.15,-12.46 -14.48,-15.72 -5.32,-3.25 -16,-6.43 -20.53,-10.69 -4.59,-4.29 -7.17,-9.31 -10.67,-18.26 -3.53,-8.97 -10.5,-27.58 -13.38,-33.76 -2.91,-6.15 -8.45,-15.8 -13.22,-22.31 -5.08,-7 -5.73,-10.15 -5.54,-16.58 0.21,-6.43 3.18,-13.46 7.62,-18.73 0,0 0.43,-7.71 5.87,-12.58 5.42,-4.9 12.76,-7.49 30.48,-9.3 17.75,-1.83 29.13,-5.23 39.57,-10.96 1.01,-0.54 3.3,-2.04 3.91,-2.8 0.61,-0.8 -0.55,-0.87 -5.22,1.92 -1.48,0.95 -12.12,3.86 -23.6,1.96 -14.38,-2.33 -26.87,-9.22 -35.62,-17.99 -8.81,-8.75 -22,-23.33 -28.33,-36.35 -6.34,-13.04 -10.69,-29.27 -13.41,-36.54 -2.69,-7.34 -5.6,-15.58 -10.77,-20.29 -5.17,-4.71 -12.37,2.17 -14.57,3.91 -2.16,1.68 -11.46,9.39 -18.02,17.64 -1.68,2.13 -4.31,5.13 -4.4,7.02 -0.1,1.75 -1.36,10.35 -2.73,14.48 -1.35,4.16 -4.86,7.77 -8.93,7.87 -4.07,0.12 -6.82,-1.11 -6.82,-1.11 0,0 0.67,3.59 6.17,8.55 5.54,4.98 9.58,10.48 8.63,15.38 -1.01,4.84 -4.13,6.34 -5.65,7.32 0,0 -0.53,3.98 -0.62,5.97 -0.22,4.9 -3.61,8.84 -7.74,10.64 -4.16,1.8 -13.99,4.86 -34.48,8.6 -5.85,1.04 -8.06,0.61 -8.06,0.61 0,0 -0.51,-0.34 -0.27,-1.43 0.27,-1.07 6.39,-23.81 6.95,-26.2 0.54,-2.35 1.52,-3.64 1.52,-3.64 0,0 -5.71,-4.47 -2.68,-11.57 3.05,-7.21 6.3,-11.48 7.31,-18.17 1,-6.7 0.58,-13.4 4.06,-21.27 3.55,-7.86 9.16,-11.65 15.12,-16.92 5.97,-5.24 13.77,-11.94 19.34,-17.81 5.64,-5.88 12.58,-19.35 20.04,-25.68 7.38,-6.33 15.73,-8.08 22.96,-6.91 0,0 1.61,0.4 2.78,-0.33 1.2,-0.75 6.33,-5.27 14.04,-1.82 8.18,3.66 13.01,11.76 18.09,17.03 5.08,5.22 7.4,9.11 27.69,19.43 12.79,6.47 20.63,12.75 25.62,18.05 1.28,-2.06 4.53,-6.7 9.6,-10.19 4.01,-2.82 8.88,-3.99 9.49,-4.04 0.76,-0.12 0.76,1 0.76,1 0.74,7.87 2.64,16.89 3.34,18.4 0.33,0.71 1.99,2.15 1.99,2.15 -3.4,-18.61 -2.69,-28.62 -1.68,-37.58 1.28,-11.79 2.48,-17.35 5.1,-25.47 4.33,-13.39 10.6,-22.76 11.66,-24.17 11.57,10.86 27.7,23.08 45.93,29.93 26.96,10.13 58.06,10.13 86.88,1.07 23.92,-7.53 42.23,-14.99 61.11,-26.83l1.22 1.46c0,0 5.76,6.49 12.7,14.68 9.06,10.69 19.13,12.83 35.47,14.85 24.94,3.09 44.15,4.78 57.74,19.52 12.36,13.47 20.26,44.52 18.11,69.86z"/>
    <path class="fil22" d="M10477.21 708.54c0.33,0.69 4.21,9.04 6.09,11.94 0,0 0.3,0.92 -2.49,1.02 -2.75,0.02 -5.44,-1.41 -6.15,-2.55 -0.45,-0.76 -0.98,-2.26 -0.98,-4.9 0,-2.62 0.98,-6.04 0.98,-6.04 0,0 0.67,0.12 1.72,0.05 0,0 0.45,-0.16 0.83,0.48z"/>
    <path class="fil23" d="M10540.54 589.6c-0.37,0.25 -0.73,0.46 -0.98,0.25 -1.23,-0.89 -3.28,-2.36 -4.4,-3.32 -3.83,-3.14 -7.81,-6.04 -11.81,-8.9 -14.36,-10.15 -20.48,-7.92 -28.77,-6.08l-0.68 -0.09c7.9,-5.08 16.44,-5.66 32.47,5.85 2.11,1.51 11.7,8.8 12.92,9.76 0.34,0.24 0.52,0 0.86,-0.22 1.3,-0.74 2.99,-1.38 5.59,-1.43 2.02,-0.04 3.46,0.2 4.8,0.69 0.25,0.1 5.03,-7.92 7.17,-12.79 2.45,-5.44 4.1,-12.39 1.49,-18.36 0,0 4.66,5.12 1.66,14.82 -1.99,6.39 -5.45,13.65 -9.49,19.03 -0.09,0.09 -0.18,0.18 -0.37,0.13 0,0 -1.98,-1.11 -4.82,-1.02 -2.79,0.12 -4.66,1.07 -5.64,1.68z"/>
    <path class="fil23" d="M10649.11 533.86c0,0 -3.89,-1.01 -13.07,-0.5 -10.9,0.62 -17.01,3.52 -23.1,7.26 -6.25,3.76 -9.19,8.08 -12.92,10.52 -3.64,2.43 -7.61,4.2 -7.61,4.2 7.71,-0.95 12.48,-5.61 15.08,-7.62 9.88,-7.74 15.55,-10.13 21.73,-11.65 6.18,-1.51 19.89,-2.21 19.89,-2.21z"/>
    <path class="fil23" d="M10669.26 563.24c10.81,-0.35 16.58,-4.54 16.58,-4.54 -5.23,1.69 -12.76,2.82 -19.7,2.72 -4.9,-0.09 -11.66,-0.57 -20.38,3.03 -5.2,2.12 -9.51,5.54 -12.06,8.12 -1.74,1.77 -2.26,2.9 -2.26,2.9 0,0 2.14,-1.5 5.85,-4 2.48,-1.69 4.87,-3.13 8.07,-4.54 8.08,-3.64 13.1,-3.4 23.9,-3.69z"/>
    <path class="fil23" d="M10706.77 601.86c6.41,1.23 10.2,0.26 10.2,0.26 0,0 -4.71,0 -9.36,-1.02 -4.66,-1.04 -13.14,-5.51 -21.11,-5.39 -7.97,0.12 -14.26,2.91 -18.83,5.89 -4.5,2.94 -6.15,6.11 -6.15,6.11 0,0 3.55,-2.98 6.97,-4.68 6.74,-3.36 10.84,-4.47 18.43,-4.89 7.59,-0.42 13.46,2.5 19.85,3.72z"/>
    <path class="fil23" d="M10708.18 642.16c7.86,0.89 17.32,7.53 22.49,9.5 5.24,1.99 9.27,1.85 9.27,1.85 0,0 -5.22,-0.91 -10.06,-3.52 -4.84,-2.59 -10.56,-6.73 -18.18,-8.92 -7.61,-2.14 -14.69,-1.75 -20.31,0.15 -6.34,2.11 -8.76,4.13 -8.76,4.13 0,0 2.47,-0.46 6.22,-1.75 6.05,-2.04 11.41,-2.35 19.33,-1.44z"/>
    <path class="fil23" d="M10719.45 701.16c2.84,1.16 5.82,1.88 8.02,1.92 4.09,0.03 6.97,-1.34 6.97,-1.34 0,0 -1.68,-0.04 -3.6,-0.04 -3.06,0 -6.22,-0.54 -10.32,-1.99 -4.13,-1.43 -8.56,-4.52 -10.68,-6.69 -2.17,-2.17 -5.78,-5.39 -10.86,-6.45 -5.05,-1.11 -9.88,0.23 -9.88,0.23 0,0 4.77,-0.3 10.92,1.98 2.66,0.99 4.96,2.59 7.19,4.45 1.44,1.2 4.77,4.92 12.24,7.93z"/>
    <path class="fil23" d="M10444.36 700.6c-0.37,3.89 3.88,6.61 6.76,6.61 2.94,0 5.27,-2.72 3.31,-7.95 -2.02,-5.27 -7.35,-7.59 -7.99,-7.8 -0.64,-0.19 -1.56,0.85 -1.56,0.85 0,0 -0.49,0.58 0.4,0.71 0.61,0.05 0.82,0.05 2.26,0.97 1.44,0.92 2.05,2.45 2.05,2.45 -1.49,-0.54 -4.86,0.28 -5.23,4.16z"/>
    <path class="fil23" d="M10485.24 617.56c0,0 -0.15,0.7 0.37,2.66 0.55,1.93 3.33,6.09 8.63,6.67 3.37,0.34 6.76,-1.17 8.82,-3.55 2.56,-2.96 2.01,-7.19 2.01,-7.19 0.71,-0.03 2.94,0 4.41,-0.95 1.47,-0.92 2.57,-2.45 3.33,-4.25 0.64,-1.56 0.37,-3.55 0.37,-3.55 0,0 -0.43,1.07 -1.47,2.38 -0.85,1.05 -2.23,2.57 -4.5,2.97 -2.2,0.43 -5.01,-0.88 -5.13,-1.13 -0.12,-0.21 -0.38,-0.02 -0.84,0.13 -0.42,0.12 -0.52,0.36 -0.52,0.36 0,0 0.4,1.6 0.38,3.36 -0.07,1.79 -1.05,3.55 -2.89,4.82 -1.8,1.22 -3.14,1.22 -3.14,1.22 1.68,-3.86 1.68,-6.06 1.68,-7.72 -0.06,-1.83 -1.1,-2.48 -1.1,-2.48 0,0 -1.26,-0.85 -3.61,-0.66 -3.34,0.23 -4.93,2.8 -5.48,3.3 -0.55,0.48 -1.4,1.01 -3.61,0.88 -2.24,-0.09 -4.35,-0.74 -4.35,-0.74 0,0 0.46,0.65 1.97,1.88 1.49,1.22 4.67,1.59 4.67,1.59z"/>
    <path class="fil23" d="M10491.81 603.63c-3.24,0.31 -5.41,2.4 -6.14,4.13 -0.71,1.74 -1.26,4.29 -1.26,4.29 -0.06,0.28 0.61,0.25 0.61,0.25 0,0 0.65,-1.45 2.11,-3.21 2.27,-2.8 5.67,-3.41 8.97,-2.8 2.44,0.46 4.59,1.26 4.59,1.26 0,0 0.55,0.46 0.67,0 0.03,-0.19 -0.33,-0.49 -0.33,-0.49 0,0 -0.62,-0.5 -1.75,-1.19 -1.86,-1.14 -4.22,-2.57 -7.47,-2.24z"/>
    <path class="fil23" d="M10512.88 654.65c7.72,-9.99 14.94,-20.89 21.88,-31.45 2.02,-3.12 4.2,-6.36 6.18,-9.49 0,0 0.49,-0.92 1.07,-1.65 0.37,-0.45 2.28,-0.07 3.31,0.12 4.84,0.86 10.01,-2.01 12.25,-5.38 5.04,-7.43 1.28,-13.77 -0.26,-15.22 0,0 -0.02,-0.24 0,-0.36 0.1,-0.12 0.34,-0.48 0.34,-0.48 2.36,-3.1 4.04,-6.89 5.81,-10.81 2.27,-4.93 3.76,-10.15 3.83,-15.08 0.06,-4.31 -2.11,-10.1 -7.13,-13.34 0,0 5.94,5.71 4.92,15.18 -0.85,8.01 -5.74,18.11 -10.52,24.75l0.64 0.83c1.71,1.95 4.23,8.19 0.18,13.43 -4.28,5.57 -9.99,4.56 -11.87,4.13 -0.73,-0.18 -1.77,-0.64 -2.2,-0.86l-2.69 4.17c-2.02,3.21 -4.07,6.45 -6.15,9.67 -4.44,7 -9.19,13.76 -13.9,20.52 -4.1,5.86 -8.38,11.54 -12.78,17.12 -3.83,4.76 -11.63,14.16 -17.3,20.71 -2.72,3.1 -3.82,4.56 -3.82,4.56 0,0 1.5,0.12 4.01,-2.51 0,0 13.93,-15.18 24.2,-28.56z"/>
    <path class="fil23" d="M10687.54 986.12c15.54,2.36 45.19,3 76.86,-9.55 28.83,-11.48 45.25,-29.89 45.25,-29.89 -12.69,12.14 -43.04,27.57 -60.95,31.66 -27.39,6.27 -48.84,5.05 -75.09,2.18 -25.3,-2.75 -30.57,1.46 -30.57,1.46 12.09,-2.53 28.89,1.78 44.5,4.14z"/>
    <path class="fil23" d="M10669.07 917.73c12.94,-14.77 13.4,-34.73 13.4,-34.73 0,0 -1.87,4.59 -5.35,14.38 -3.5,9.79 -9.83,17.9 -15.43,23.6 -9.06,9.05 -23.44,16.66 -23.44,16.66 0,0 15,-1.8 30.82,-19.91z"/>
    <path class="fil23" d="M10568.49 977.26c-4.89,4.53 -10.52,7.77 -26.71,10.03 -16.19,2.27 -34.92,0.65 -38,0.56 -2.27,-0.1 -3.59,0.88 -3.59,0.88 0,0 23.88,3.18 44.41,1.65 23.41,-1.73 29.1,-8.23 32.19,-12.88 3.09,-4.59 4.07,-10.34 -3.43,-15.09 -7.5,-4.67 -20.75,-4.25 -20.75,-4.25 1.14,1.63 2.76,1.34 2.76,1.34 5.14,0.65 10.31,2.3 14.38,5.73 4.07,3.43 3.61,7.53 -1.26,12.03z"/>
    <path class="fil23" d="M10459.84 1000.36c-0.46,0.61 -1.1,2.33 -1.66,3.4 -1.3,2.63 -3.36,4.89 -5.99,6.18 -1.38,0.7 -2.78,0.58 -4.56,0.51 0.09,-0.03 -0.21,0.65 -0.21,0.65 4.29,3.01 7.25,7.86 8.81,11.51 4.16,9.63 6.94,15.63 9.18,19.73 1.23,2.29 2.21,3.8 3.15,4.87 0.77,0.89 1.44,1.05 1.44,1.05 -10.32,-22.02 -10.68,-30.67 -11.23,-35.85 -0.79,-7.12 1.65,-12.12 1.65,-12.12 0,0 -0.52,0.07 -0.58,0.07z"/>
    <path class="fil23" d="M10476.57 907.96c-5.9,0.55 -10.06,-3.25 -18.39,-13.3 -8.31,-10.05 -16.28,-23.6 -20.25,-30.58 -3.98,-6.98 -7.87,-12.92 -7.87,-12.92 0,0 3.01,7.14 7.35,16.48 4.31,9.26 8.47,17.43 13.71,26.21 5.26,8.79 14.26,21.43 23.1,21.52 8.84,0.12 13.89,-7.26 13.41,-17.26 -0.5,-9.15 -8.15,-19.74 -8.15,-19.74 3.34,7.81 5.06,13.73 4.87,18.9 -0.19,5.55 -2.48,10.2 -7.78,10.69z"/>
    <path class="fil23" d="M10376.26 821.11l-0.95 0.12c-0.74,4.44 -2.54,6.52 -4.89,9.51 -2.36,3.04 -6.15,6.77 -9.37,10.19 -2.63,2.78 -12.79,13.41 -12.79,13.41 0,0 11.78,-9.95 14.69,-12.7 7.96,-7.46 13.03,-10.51 17.05,-12.15 3.73,-1.5 7.43,-1.14 7.43,-1.14l0.4 -1.12c-1.75,0.27 -4.66,0.4 -7.59,-1.04 -2.88,-1.44 -3.98,-5.08 -3.98,-5.08z"/>
    <path class="fil23" d="M10486.65 845.2c-1.17,0.84 -2.54,3.2 -2.54,3.2 0,0 6.58,6.03 13.09,17.54 5.27,9.34 7.13,17.07 7.13,17.07 -0.6,-6.49 -2.51,-12.39 -4.74,-17.54 -2.57,-5.87 -5.54,-12.56 -12.94,-20.27z"/>
    <path class="fil23" d="M10678.15 821.9c6.95,7 12.28,18.69 12.52,20.62 0.24,1.93 1.07,1.93 1.07,1.93 0,-0.43 -0.31,-5.18 -2.75,-10.95 -2.39,-5.64 -6.68,-12.25 -12.09,-16.32 -10.93,-8.25 -18.82,-8.99 -18.82,-8.99 1.07,1.28 2.2,1.53 2.2,1.53 6.79,2.47 12,6.21 17.87,12.18z"/>
    <path class="fil23" d="M10536.58 548.57c-2.6,-0.52 -5.5,-2.56 -8.01,-6.88 -2.36,-3.95 -3.99,-10.19 -4.73,-13.68 -0.63,-2.84 -1.92,-4.07 -1.92,-4.07 0,0 0.56,1.9 0.74,2.76 0.46,2.23 0.76,5.63 1.34,9.63 0.62,4.05 1.17,5.73 4.01,9.83 2.84,4.09 8.15,5.47 10.47,4.4 2.39,-1.1 2.32,-3.14 2.32,-3.14 -0.37,0.42 -1.62,1.61 -4.22,1.15z"/>
    <path class="fil23" d="M10484.76 677.7c1.41,-1.57 4.66,-5.13 6.92,-7.72 6.03,-7 11.79,-14.22 17.44,-21.48 10.01,-12.81 19.83,-28.73 28.74,-42.28 0,0 -0.74,-1.07 -1.65,-2.73 -0.98,-1.81 -1.05,-4.84 -0.62,-7.07 0.18,-0.85 0.76,-2.13 0.76,-2.13 0.5,-1.11 -1.19,-2.46 -1.92,-3.17 -0.76,-0.69 -2.88,-2.41 -4.04,-3.42 -10.56,-9.61 -21.6,-15.63 -32.83,-15.82 0,0 14.62,2.7 29.58,15.58 0,0 5.48,4.92 5.91,5.35 0.24,0.27 0.28,0.22 0.74,0.71 0.18,0.15 0.27,0.61 0.06,1.22 -0.06,0.25 -0.76,1.62 -0.83,4.87 -0.12,4.01 2.02,6.18 2.02,6.18 0,0 0.19,0.62 -0.15,1.1 -0.31,0.48 -19.77,31.13 -30.51,44.89 -5.42,6.95 -10.95,13.8 -16.71,20.46 -2.05,2.4 -4.19,4.76 -6.3,7.11 0,0 -0.46,0.49 -0.8,0.25 -0.76,-0.52 -2.68,-1.35 -5.93,-1.67 -2.78,-0.23 -5.18,0.5 -5.94,0.87 -0.19,0.09 -0.46,-0.19 -0.46,-0.19 0,0 -3.95,-4.46 -7.46,-7.15 -5.33,-3.98 -8.69,-4.6 -9.67,-4.74 -0.92,-0.13 -1.35,0.48 -1.35,0.48 -0.98,0.92 -0.58,1.08 -0.03,1.2 0.88,0.18 1.5,0.06 4.22,1.35 4.23,1.95 6,3.66 8.01,5.54 3.43,3.17 5.24,5.11 5.67,5.59 0.73,0.79 1.31,0.73 1.71,0.56 0.61,-0.28 1.14,-0.56 3.4,-0.9 2.23,-0.33 4.47,0.32 4.99,0.44 1.1,0.3 2.1,0.73 2.38,0.88 0.12,0.05 0.46,0.24 0.7,0.09 1.05,-0.64 2.79,-2.99 3.95,-4.25z"/>
    <path class="fil23" d="M10521.76 552.66c3.15,2.42 5.29,2.68 7.19,2.68 3.22,0 4.71,-1.19 4.71,-1.19 -3.49,0.69 -10.06,-1.56 -13.28,-7.2 -1.16,-2 -1.93,-3.77 -2.45,-6.55 -0.46,-0.21 -2.85,-1.5 -2.85,-1.5 0,0.22 1.05,4.83 1.11,5.05 0.88,3.3 3.67,7.17 5.57,8.71z"/>
    <path class="fil23" d="M10557.36 751.45c-0.42,0.49 -0.52,0.74 -0.24,0.91 0.31,0.17 0.58,0.07 0.58,0.07 0,0 10.71,-11.13 18.88,-22.9 17.75,-25.47 30.72,-50.11 23.5,-79.95 -7.22,-29.87 -31.88,-50.63 -31.88,-50.63 -0.28,0.45 1.4,2.14 1.4,2.14 0,0 10.53,12.72 18.49,27.75 12.3,23.13 11.65,41.03 6.11,61.51 -5.93,21.84 -30.23,53.55 -36.84,61.1z"/>
    <path class="fil23" d="M10621.87 1002.19c3.79,-5.69 6.46,-21.16 7.18,-26.75 0.74,-5.58 2.24,-7.99 6.01,-15.49 4.15,-8.37 3.24,-15.73 3.24,-15.73 -2.6,9.4 -4.38,12.46 -7.74,17.49 -3.43,5.01 -5.36,9.63 -6.46,14.06 -1.16,4.41 -1.84,11.41 -5.56,21.03l3.33 5.39z"/>
    <path class="fil23" d="M10523.3 1118.83c0.27,-0.05 0.91,-0.24 1.28,-0.55 2.45,-2.02 6.94,-7.18 10.13,-12.69 3.7,-6.28 5.85,-11.15 6.3,-12.39 1.16,-3.01 1.84,-4.63 1.99,-6.31 0.1,-1.38 -2.99,-2.82 -2.87,-1.53 0.12,1.23 -0.96,4.49 -1.44,5.81 -0.46,1.26 -2.97,7.41 -6.12,13.92 -3.25,6.58 -7.4,12.16 -9.48,13.74l0.21 0z"/>
    <path class="fil23" d="M10314.94 916.02c1.01,0.05 1.41,0 3.83,0.05 4.74,0.19 13.34,0.8 22.51,3.03 3.95,0.9 9.74,3.1 12.04,4.66l-0.04 -1.96 0.09 -0.8c-11.59,-6.42 -28.03,-6.31 -35.16,-5.93 -2.2,0.12 -2.41,0.19 -3.51,0.27 -1.08,0.12 -0.74,0.64 0.24,0.68z"/>
    <path class="fil23" d="M10551.16 901.5c-17.53,6.97 -25.46,15.72 -30.47,21.94 -6.52,-17.73 -3.28,-35.04 -1.68,-42.18 5.31,-23.95 19.06,-40.18 27.6,-47.73 13.92,-12.42 30.07,-18.94 30.07,-18.94 -19.39,4.99 -32.62,15.85 -44.73,29.22 -12.12,13.4 -16.96,25.94 -20.47,38.81 -3.53,12.85 -3.25,21.71 -0.64,34.99 0.67,3.34 1.68,6.31 2.81,8.94 0.03,0.22 0,0.3 0.03,0.53 3.27,12.5 -2.82,22.82 -2.82,22.82l2.21 -0.39c0,0 2.57,-0.99 4.12,-2.97 1.14,-1.44 2.64,-6.16 3.37,-8.72l0.07 0.08c5.51,-15.53 19.18,-24.05 23.06,-26.68 12.28,-8.3 27.18,-12.27 45.05,-8.68 13.56,2.72 22.98,9.11 22.98,9.11 -19.88,-16.71 -42.99,-17.14 -60.56,-10.15z"/>
    <path class="fil23" d="M10556.62 543.91c-0.89,0.4 -2.91,1.22 -5.29,1.31 0.64,4.47 -0.44,8.29 -2.12,11.35 -1.99,3.71 -5.41,5.34 -8.44,5.7 -2.98,0.37 -5.51,-0.66 -4.78,0.1 0.7,0.76 2.33,1.37 3.95,1.58 5.96,0.77 9.45,-2.04 11.17,-3.98 2.85,-3.14 4.16,-6.97 4.83,-9.41 0.56,-2.06 0.77,-4.29 0.68,-6.65z"/>
    <path class="fil24" d="M10006.36 1322.83c23.22,0 36.95,12.43 36.95,35.98 0,20.61 -14.71,35.65 -37.93,35.65l-18.32 0c-6.54,0 -9.81,-2.62 -9.81,-9.81l0 -52.01c0,-7.19 2.94,-9.81 9.81,-9.81l19.3 0zm-60.19 -37.29c-5.56,0 -8.5,2.29 -8.5,8.5l0 219.15c0,6.21 3.27,8.5 8.5,8.5l22.57 0c5.56,0 8.51,-2.61 8.51,-8.5l0 -71.63c0,-6.87 2.94,-9.81 9.81,-9.81l17.99 0c47.75,0 77.84,-29.76 77.84,-73.27 0,-47.1 -30.42,-72.94 -76.2,-72.94l-60.52 0zm262.65 236.15c5.89,0 8.51,-2.61 8.51,-8.5l0 -95.51c0,-40.23 -13.42,-67.05 -57.57,-67.05 -22.9,0 -44.49,7.52 -61.82,16.68 -4.58,2.29 -5.24,7.2 -3.6,10.8l6.55 14.06c2.28,5.56 6.86,6.87 11.12,4.58 13.08,-6.87 28.45,-12.1 42.84,-12.1 17.99,0 24.53,10.46 24.53,26.82l0 4.9c0,3.27 -1.63,4.91 -4.9,4.91l-13.41 0c-51.03,0 -75.56,15.37 -75.56,53.97 0,29.11 19.95,49.71 46.44,49.71 17.34,0 31.08,-6.21 42.53,-13.73 2.94,-2.29 5.88,-1.31 7.19,1.96l0.98 3.27c1.31,3.6 3.93,5.23 8.18,5.23l17.99 0zm-35 -69.34c3.93,0 5.56,1.64 5.56,5.56l0 10.79c0,4.59 -1.63,10.15 -5.56,13.41 -6.54,6.55 -17.33,11.78 -28.13,11.78 -15.37,0 -22.24,-8.83 -22.24,-20.6 0,-13.74 10.47,-20.94 27.15,-20.94l23.22 0zm78.17 60.84c0,5.23 2.29,8.5 8.51,8.5l20.93 0c5.56,0 8.5,-2.61 8.5,-8.5l0 -80.46c0,-24.21 18.97,-44.16 40.89,-44.16l5.24 0c5.56,0 7.52,-2.94 7.52,-7.52l0 -23.88c0,-3.92 -2.62,-6.54 -6.22,-6.54 -18.31,0 -31.4,9.81 -40.56,22.9 -1.63,2.61 -5.56,2.29 -6.21,-1.31l-0.98 -9.49c-0.98,-5.56 -3.6,-8.83 -9.49,-8.83l-19.62 0c-5.56,0 -8.51,2.95 -8.51,8.83l0 150.46zm146.86 -103.36c0,-17.33 8.18,-25.84 22.9,-25.84 8.5,0 20.93,4.58 27.15,10.47 3.92,3.27 5.56,7.53 5.56,12.76l0 61.16c0,5.24 -1.64,9.48 -5.56,13.08 -6.22,5.89 -18.65,10.47 -27.15,10.47 -14.72,0 -22.9,-8.83 -22.9,-26.17l0 -55.93zm-37.94 67.05c0,28.13 19.63,48.08 47.1,48.08 16.36,0 32.38,-7.52 41.54,-13.73 2.94,-2.29 5.88,-1.31 7.19,1.96l0.99 3.27c1.3,3.6 3.92,5.23 8.17,5.23l17.99 0c6.54,0 8.51,-3.6 8.51,-8.5l0 -219.15c0,-4.9 -1.97,-8.5 -8.51,-8.5l-20.93 0c-6.22,0 -8.5,3.27 -8.5,8.5l0 66.08c0,5.23 -4.91,4.58 -6.88,3.27 -7.19,-4.91 -23.21,-12.76 -39.57,-12.76 -27.47,0 -47.1,19.95 -47.1,48.08l0 78.17zm297.64 -114.15c0,-5.56 -2.29,-8.83 -8.5,-8.83l-20.93 0c-6.22,0 -8.51,3.27 -8.51,8.83l0 105.65c0,5.24 -1.64,9.48 -5.56,13.08 -6.21,5.89 -18.64,10.47 -27.14,10.47 -14.72,0 -22.9,-8.83 -22.9,-26.17l0 -103.03c0,-5.56 -2.29,-8.83 -8.51,-8.83l-20.93 0c-6.21,0 -8.5,3.27 -8.5,8.83l0 114.15c0,28.13 19.62,48.08 47.1,48.08 16.35,0 32.38,-7.52 41.54,-13.73 2.94,-2.29 5.89,-1.31 7.19,1.96l0.98 3.27c1.31,3.6 3.93,5.23 8.18,5.23l17.99 0c6.54,0 8.5,-3.6 8.5,-8.5l0 -150.46zm128.22 103.03c0,17.34 -8.18,26.17 -22.9,26.17 -8.5,0 -20.93,-4.58 -27.15,-10.47 -3.92,-3.6 -5.56,-7.84 -5.56,-13.08l0 -61.16c0,-5.23 1.64,-9.49 5.56,-12.76 6.22,-5.89 18.65,-10.47 27.15,-10.47 14.72,0 22.9,8.51 22.9,25.84l0 55.93zm-67.05 55.93c4.24,0 6.87,-1.63 8.17,-5.23l0.99 -3.27c1.3,-3.27 4.24,-4.25 7.19,-1.96 9.49,6.21 25.18,13.73 41.54,13.73 27.47,0 47.1,-19.95 47.1,-48.08l0 -78.17c0,-28.13 -19.63,-48.08 -47.1,-48.08 -16.36,0 -32.05,7.85 -39.58,12.76 -1.96,1.31 -6.87,1.96 -6.87,-3.27l0 -66.08c0,-5.23 -2.28,-8.5 -8.5,-8.5l-20.94 0c-6.21,0 -8.5,3.6 -8.5,8.5l0 219.15c0,4.9 2.29,8.5 8.5,8.5l18 0zm174.33 -158.96c0,-5.56 -2.29,-8.83 -8.51,-8.83l-20.93 0c-6.21,0 -8.5,3.27 -8.5,8.83l0 150.46c0,5.23 2.29,8.5 8.5,8.5l20.93 0c6.22,0 8.51,-3.27 8.51,-8.5l0 -150.46zm-42.85 -53.31c0,14.71 9.16,23.87 23.88,23.87 14.72,0 23.87,-9.16 23.87,-23.87 0,-14.72 -9.15,-23.88 -23.87,-23.88 -14.72,0 -23.88,9.16 -23.88,23.88zm70.98 128.54c0,54.62 19.63,87 69.67,87 37.61,0 59.2,-22.24 61.81,-56.26 0.33,-5.23 -2.28,-8.82 -8.17,-8.82l-19.95 0c-6.22,0 -8.51,1.96 -9.16,5.88 -2.94,17.34 -11.78,26.17 -24.53,26.17 -21.91,0 -31.73,-17.66 -31.73,-53.97 0,-36.63 9.82,-54.29 31.73,-54.29 12.75,0 21.59,9.16 24.53,26.16 0.65,3.93 2.94,5.89 9.16,5.89l19.95 0c5.89,0 8.5,-3.27 8.17,-8.83 -2.61,-34.02 -24.2,-56.26 -61.81,-56.26 -50.04,0 -69.67,32.38 -69.67,87.33l0 0zm275.73 16.36c4.58,0 8.17,-2.95 8.17,-7.86l0 -12.42c0,-53.32 -19.62,-83.41 -62.47,-83.41 -41.54,0 -69.99,25.19 -69.99,88.64 0,60.84 30.74,85.69 70.32,85.69 21.91,0 38.59,-8.83 52,-16.02 5.24,-2.62 6.88,-6.55 4.91,-11.45l-6.21 -14.06c-2.3,-4.91 -6.22,-6.88 -11.12,-4.58 -11.12,5.56 -23.23,12.1 -36.96,12.1 -15.37,0 -29.77,-10.8 -32.71,-29.11 -0.66,-5.23 1.63,-7.52 5.56,-7.52l78.5 0zm-84.72 -37.95c0,-18.64 10.47,-32.7 27.48,-32.7 15.7,0 26.17,12.1 26.17,32.7 0,4.59 -1.97,6.87 -6.87,6.87l-40.23 0c-4.59,0 -6.55,-2.28 -6.55,-6.87z"/>
   </g>
  </g>
 </g>
</svg>
