<?xml version="1.0" encoding="UTF-8"?>
<!DOCTYPE svg PUBLIC "-//W3C//DTD SVG 1.1//EN" "http://www.w3.org/Graphics/SVG/1.1/DTD/svg11.dtd">
<!-- Creator: CorelDRAW 2017 -->
<svg xmlns="http://www.w3.org/2000/svg" xml:space="preserve" width="150mm" height="28mm" version="1.1" style="shape-rendering:geometricPrecision; text-rendering:geometricPrecision; image-rendering:optimizeQuality; fill-rule:evenodd; clip-rule:evenodd"
viewBox="0 0 15000 2800"
 xmlns:xlink="http://www.w3.org/1999/xlink">
 <defs>
  <style type="text/css">
   <![CDATA[
    .fil0 {fill:#FEFEFE}
    .fil9 {fill:#2B2A29}
    .fil4 {fill:#FCFDFE}
    .fil2 {fill:#D12124}
    .fil11 {fill:#B42322}
    .fil3 {fill:#F9E908}
    .fil8 {fill:#F4E60A}
    .fil5 {fill:#888A89}
    .fil6 {fill:#1F1C20}
    .fil7 {fill:#1F1B20}
    .fil1 {fill:#1F1B20}
    .fil10 {fill:#2B2A29;fill-rule:nonzero}
   ]]>
  </style>
    <clipPath id="id0">
     <path d="M6843.84 2004l1922.38 0 0 -1189.72 -1922.38 0 0 1189.72z"/>
    </clipPath>
 </defs>
 <g id="Vrstva_x0020_1">
  <metadata id="CorelCorpID_0Corel-Layer"/>
  <g id="_2902129310368">
   <path class="fil0" d="M8118.65 623.84c428.64,173.2 635.71,661.08 462.54,1089.75 -173.2,428.64 -661.11,635.72 -1089.74,462.54 -428.68,-173.2 -635.76,-661.1 -462.56,-1089.74 173.2,-428.67 661.07,-635.75 1089.76,-462.55z"/>
   <g style="clip-path:url(#id0)">
    <image x="6843.84" y="813.95" width="1922.92" height="1190.05" xlink:href="loga_komplet_Images\loga_komplet_ImgID1.png"/>
   </g>
   <path class="fil1" d="M11378.54 1299.59c-181.16,45.7 -213.51,51.8 -409.74,51.8 -101.37,0 -213.52,-9.14 -312.7,-36.56 -23.73,-6.1 -71.18,-21.34 -90.59,-24.38 -6.46,152.34 32.37,396.11 69.02,542.36 88.4,359.55 554.23,390.03 670.68,6.1 32.37,-103.61 88.44,-457.06 73.33,-539.32z"/>
   <path class="fil0" d="M10858.61 2075.08c29.92,11.55 61.66,18.48 94.19,20.28 3.89,0.22 7.8,0.36 11.68,0.43l2.16 -354.08c-196.27,9.14 -166.06,-45.72 -209.2,-27.44 -17.24,6.1 -25.86,9.14 -45.29,3.06 -23.72,-6.1 -47.45,-30.48 -45.27,-57.9 0,-27.42 21.55,-51.8 43.11,-57.89 64.72,-24.38 181.15,63.99 256.65,39.61l2.16 -270.89c-36.09,0 -73,-1.1 -109.97,-3.67 0.11,21.63 2.32,150.19 -1.95,211.11l-69.23 -6.92c-53.62,-5.83 -168.33,-28.38 -187.72,-30.34 0.9,6.91 1.81,13.8 2.75,20.71 8.56,62.02 19.04,124.82 31.9,186.73 25.8,7 156.36,35.73 224.46,43.11 1.77,22.4 -0.55,235.31 -0.43,284.09z"/>
   <path class="fil1" d="M11436.24 1031.06c-34.51,-24.38 -111.59,-69.69 -152.6,-87.97 -86.26,-45.72 -213.49,-59.05 -325.64,-55.99 -125.06,3.04 -217.8,13.33 -319.17,59.03 -45.29,21.32 -79.78,45.7 -120.77,70.09l-112.13 73.12c31.79,-9.9 85.36,-29.6 120.77,-39.6 43.12,-12.2 86.25,-24.38 133.72,-33.52 114.29,-18.29 172.52,-33.53 297.58,-33.53 163.92,0 340.75,33.53 498.19,82.27 33.24,11.03 52.92,21.37 81.94,30.48 -32.47,-22.94 -68.5,-42.16 -101.89,-64.38z"/>
   <path class="fil2" d="M10599.93 1540.44c19.39,1.96 134.1,24.51 187.72,30.34l69.23 6.92c4.27,-60.92 2.06,-189.48 1.95,-211.11 -70.45,-4.91 -141.23,-15.18 -207.43,-33.48 -14.34,-3.69 -28.59,-8.05 -42.82,-12.15 -7.75,-2.25 -16.32,-4.86 -24.83,-7.16 -0.52,34.53 1.08,69.36 3.55,103.66 2.95,41.08 7.32,82.12 12.63,122.98z"/>
   <path class="fil3" d="M11095.97 1368.46l-6.2 210.29c63.19,-0.85 196.7,-26.26 252.74,-41.5 3.78,-13.99 14.25,-107.02 15.98,-127.39 1.84,-21.62 3.29,-43.45 3.62,-65.15 0.09,-6.44 0.18,-13.47 -0.09,-20.49 -4.73,0.83 -9.3,1.65 -13.75,2.5 -34.96,8.82 -70.32,17.49 -105.76,24.51 -18.53,4.1 -38.34,7.7 -63.01,10.4 -27.55,3.52 -55.49,5.61 -83.53,6.83z"/>
   <path class="fil1" d="M10738.04 900.43c166.06,-36.56 351.51,-33.52 476.62,6.08 -49.63,-124.92 -99.24,-164.52 -237.22,-164.52 -58.25,-3.05 -120.79,3.04 -161.78,33.52 -34.49,21.32 -62.52,73.12 -77.62,124.92z"/>
   <path class="fil2" d="M10858.61 2075.08c-0.12,-48.78 2.2,-261.69 0.43,-284.09 -68.1,-7.38 -198.66,-36.11 -224.46,-43.11 5.63,27.01 11.71,53.85 18.26,80.41 18.61,75.27 56.72,143.91 116.56,194.07 26.87,22.51 57,40.29 89.21,52.72z"/>
   <path class="fil3" d="M11089.55 1797.61l-2.12 274.56c21.66,-9.09 42.37,-20.69 61.75,-34.69 68.98,-49.83 113.43,-123.6 137.97,-204.08 5.74,-18.75 11.87,-43.56 16.21,-63.26 -71.34,11.21 -113.91,24.47 -213.81,27.47z"/>
   <path class="fil1" d="M10384.37 1107.62l6.44 24.38c45.29,-12.18 94.9,-27.42 135.89,-39.6 155.27,-45.72 295.46,-67.04 463.67,-67.04 155.26,3.04 370.93,36.56 517.55,97.5 43.17,21.32 47.45,21.32 53.95,-3.04 0,0 -2.16,-3.06 -2.16,-3.06 0,0 -4.34,-6.08 -25.9,-15.22 -174.67,-70.08 -437.76,-109.71 -556.37,-109.71 -142.35,-12.18 -457.22,51.81 -593.07,115.79z"/>
   <path class="fil4" d="M10973.1 1647.25l0 103.6c125.11,18.28 293.3,-3.06 319.18,-152.37 -49.59,18.29 -40.97,24.39 -142.35,42.67 -62.52,9.14 -114.27,12.2 -176.83,6.1z"/>
   <path class="fil1" d="M10608.11 864.82c-14.89,-11.15 -40.12,-11.46 -57.68,-4.01 -21.59,9.14 -41.78,28.5 -54.72,40.7 -25.89,24.38 -32.1,44.98 -77.57,66.68 -19.05,9.09 -33.05,8.82 -42.05,5.65 0.35,26.58 42.02,81.46 120.4,11.91 33.16,-31.21 37.73,-57.2 64.73,-76.86 9.77,-7.11 20.12,-14.58 37.32,-18.05 8.37,-1.67 17.74,-1.58 29.51,2.12 -5.78,-12.21 -8.74,-19.77 -19.94,-28.14z"/>
   <path class="fil1" d="M11320.31 894.33c71.16,6.1 88.44,48.76 120.79,88.36 15.09,15.24 34.49,36.57 64.7,42.67 36.63,6.1 56.07,-15.24 64.68,-42.67 -21.55,-3.04 -51.76,18.29 -116.45,-79.22 -10.77,-15.24 -34.51,-33.52 -64.72,-36.56 -28.01,-3.04 -60.38,9.14 -69,27.42z"/>
   <path class="fil1" d="M10487.88 1567.72c-69.02,27.42 -28.05,121.88 38.82,100.56 60.38,-21.34 32.35,-131.03 -38.82,-100.56z"/>
   <path class="fil1" d="M11354.82 1829.77c-73.34,18.28 -43.13,121.88 23.72,103.6 66.88,-18.28 40.98,-118.84 -23.72,-103.6z"/>
   <path class="fil1" d="M11408.75 1567.72c-66.88,24.38 -25.88,124.94 38.79,97.5 60.38,-21.32 30.21,-124.92 -38.79,-97.5z"/>
   <path class="fil1" d="M11494.99 1835.87c-73.31,18.28 -40.96,118.82 28.05,100.54 62.54,-18.28 38.83,-118.83 -28.05,-100.54z"/>
   <path class="fil1" d="M11380.71 2018.67c-10.78,21.34 -17.27,48.76 -10.78,79.23 4.29,27.44 25.88,42.66 43.12,48.76 21.55,6.1 34.49,3.04 53.92,-3.04 -10.78,-24.38 -40.99,-30.48 -49.61,-88.37 -8.61,-48.76 15.1,-70.08 -17.25,-112.74 -2.14,21.32 -2.14,33.52 -19.4,76.16z"/>
   <path class="fil1" d="M11279.36 930.89c32.33,9.14 79.78,42.66 107.79,57.9 30.21,18.29 77.66,63.99 118.65,48.75 -107.83,-48.75 -88.44,-109.69 -155.28,-127.97 -23.75,-9.14 -51.77,0 -71.16,21.32z"/>
   <path class="fil1" d="M11240.53 819.53c-62.54,33.53 -15.1,118.83 45.29,91.41 60.38,-24.36 21.55,-124.93 -45.29,-91.41z"/>
   <path class="fil1" d="M10673.34 813.43c-71.18,18.29 -43.13,115.79 23.71,100.57 23.74,-6.1 43.15,-27.42 36.67,-60.94 -4.3,-24.38 -32.35,-45.71 -60.38,-39.63z"/>
   <path class="fil1" d="M10444.76 1028.4c38.79,12.2 86.24,-39.61 148.78,-73.13 25.89,-15.24 47.45,-21.32 64.72,-30.46 -43.15,-42.66 -81.96,-27.44 -118.63,24.36 -25.87,33.52 -53.92,67.05 -94.87,79.23z"/>
   <path class="fil1" d="M11508.8 1950.43c22.17,47.46 -5.11,69.02 1.28,129.19 4.34,33.52 49.63,82.28 107.83,60.94 -8.6,6.1 -43.11,-18.28 -51.74,-48.74 -8.64,-36.57 2.14,-76.19 0,-100.57 -2.15,-21.32 -10.8,-39.6 -21.58,-51.8l-0.14 0.06c-5.22,3.41 -11.23,6.22 -18.12,8.22l-0.27 0.09c-5.99,1.58 -11.75,2.41 -17.26,2.61z"/>
   <path class="fil1" d="M11540.29 2143.62c-43.15,-36.58 -49.59,-79.23 -36.65,-124.95 5.87,-24.86 4.62,-52.25 -3.69,-68.48 -7.9,-0.75 -15.11,-2.88 -21.63,-6.08 -54.01,55.8 -29.86,187.43 61.97,199.51z"/>
   <path class="fil1" d="M11673.98 2110.1c-21.56,-3.06 -53.89,-6.1 -71.16,-79.23 -6.34,-35.89 -8.53,-80.61 -51.5,-96.64 -0.32,0.31 -0.66,0.61 -1.04,0.92 45.43,59.52 13.85,78.11 24.52,144.47 2.16,18.28 21.58,42.66 36.67,51.8 28.02,15.24 49.57,3.06 62.51,-21.32z"/>
   <path class="fil1" d="M10362.78 909.57c-17.24,48.74 10.78,63.98 45.31,51.8 21.57,-6.1 47.44,-27.42 73.3,-57.9 17.27,-21.32 23.75,-24.38 47.45,-42.66 -69.01,-3.04 -81.94,67.04 -166.06,48.76z"/>
   <path class="fil1" d="M11585.58 918.71c-15.1,0 -32.37,18.28 -81.94,-18.28 -17.27,-12.2 -41.01,-33.52 -73.32,-30.48 19.38,12.2 53.89,60.94 73.32,79.22 23.71,24.38 86.24,45.71 81.94,-30.46z"/>
   <path class="fil1" d="M10774.71 1046.68c-2.18,27.42 12.94,42.66 32.33,51.8 21.56,9.14 36.67,-3.04 60.39,21.34 2.18,-64 -25.88,-94.46 -92.72,-73.14z"/>
   <path class="fil1" d="M11080.93 1119.82c8.62,-9.14 28.05,-12.2 40.99,-12.2 4.3,0 8.62,-6.08 10.78,-6.08 12.93,-6.1 28.01,-30.48 28.01,-51.8 -51.73,-30.48 -81.94,18.28 -79.78,70.08z"/>
   <path class="fil1" d="M10481.39 1436.71c-2.14,-57.9 -25.86,-60.94 -47.45,-76.18 -12.93,-9.14 -10.78,-12.18 -21.55,-21.34 -32.34,48.76 8.62,85.32 69,97.52z"/>
   <path class="fil1" d="M10860.97 1229.5c47.45,-63.98 4.3,-121.88 -38.81,-112.74 -8.64,51.8 15.09,33.52 34.49,94.46l4.32 18.28z"/>
   <path class="fil5" d="M10988.21 1662.49l0 73.12c10.76,-18.28 10.76,-27.42 12.94,-51.8 94.9,-3.04 219.95,-24.38 258.78,-57.9 -40.96,12.2 -40.96,18.28 -120.77,30.48 -62.53,9.14 -97.06,9.14 -150.95,6.1z"/>
   <path class="fil1" d="M11458.35 1439.75c17.24,-3.04 49.57,-18.28 60.37,-27.42 17.25,-15.24 17.25,-42.66 8.63,-70.08l-43.14 36.56c-17.24,15.24 -25.86,30.46 -25.86,60.94z"/>
   <path class="fil1" d="M10513.76 1522.01c-2.16,-60.94 -25.88,-76.16 -77.66,-88.36 -6.44,33.52 10.8,51.8 30.21,63.98 15.08,6.1 32.35,9.14 47.45,24.38z"/>
   <path class="fil1" d="M11479.91 1366.63c12.92,-3.06 38.81,-30.48 45.29,-39.62 12.93,-27.42 -10.78,-57.89 -19.4,-70.09 -4.32,12.2 -2.16,12.2 -10.81,24.39 -17.24,30.46 -30.18,33.52 -15.08,85.32z"/>
   <path class="fil1" d="M10459.83 1366.63c17.28,-39.62 4.32,-57.9 -19.39,-100.56 -40.99,15.24 -36.67,76.18 19.39,100.56z"/>
   <path class="fil1" d="M11471.27 1296.55c36.65,-33.53 30.21,-88.37 -25.85,-97.51 -2.16,48.74 -6.5,76.17 25.85,97.51z"/>
   <path class="fil1" d="M11443.26 1509.83c15.09,-9.14 34.49,-15.24 45.28,-15.24 15.1,-9.14 28.04,-36.56 23.72,-63.98l-49.63 18.28c-17.21,12.18 -21.53,33.52 -19.37,60.94z"/>
   <path class="fil6" d="M11242.69 1205.12c10.78,30.48 56.06,54.86 90.58,18.28 -17.28,-42.64 -56.07,-45.7 -90.58,-18.28z"/>
   <path class="fil1" d="M10468.47 1296.55c34.51,-15.24 21.57,-57.91 21.57,-100.57 -47.44,15.24 -60.38,60.94 -21.57,100.57z"/>
   <path class="fil1" d="M11078.77 1208.18c15.1,-30.48 8.64,-24.38 30.21,-39.62 15.1,-12.18 19.4,-24.38 12.94,-48.74 -51.77,-6.1 -79.82,57.88 -43.15,88.36z"/>
   <path class="fil1" d="M11132.7 1263.02c0,-39.62 15.08,-60.94 -17.28,-85.32 -40.95,15.24 -38.79,82.28 17.28,85.32z"/>
   <path class="fil1" d="M10550.43 1214.26c19.39,9.14 28.01,9.14 47.45,-3.04 4.28,-3.04 30.17,-21.32 34.49,-27.42 -25.88,-36.56 -79.78,-24.38 -81.94,30.46z"/>
   <path class="fil1" d="M10606.49 1220.36c15.1,15.24 38.83,18.28 51.77,15.24 10.78,-12.2 19.4,-15.24 38.79,-27.42 -25.85,-30.48 -77.62,-21.34 -90.56,12.18z"/>
   <path class="fil1" d="M11313.85 1174.66c8.64,24.38 38.81,63.98 75.46,48.74 -6.44,-15.22 -10.77,-42.64 -21.55,-54.84 -17.24,-15.24 -38.83,0 -53.91,6.1z"/>
   <path class="fil1" d="M10796.27 1263.02c53.92,3.05 73.34,-42.66 38.82,-79.22 -34.51,9.14 -30.21,42.66 -38.82,79.22z"/>
   <path class="fil1" d="M11432.46 1247.78c8.64,-54.84 6.46,-85.32 -53.92,-79.22 17.27,33.52 15.11,76.18 53.92,79.22z"/>
   <path class="fil1" d="M10664.7 1244.74c28.05,42.66 81.96,0 90.58,-21.34 -30.18,-24.36 -73.31,0 -90.58,21.34z"/>
   <path class="fil1" d="M11473.72 1570.4c12.84,-18.12 25.51,-33.36 14.82,-63.61 -35.14,0 -52.45,16.77 -65.2,44.97 21.16,-2.68 38.45,5.38 50.38,18.64z"/>
   <path class="fil1" d="M10498.66 1247.78c23.72,-3.04 40.97,-18.28 43.11,-36.56 0,-12.18 4.32,-24.38 15.1,-39.6 -19.38,-3.06 -36.65,0 -47.45,12.18 -15.09,12.18 -10.76,39.6 -10.76,63.98z"/>
   <path class="fil1" d="M11143.49 1266.07c28.04,15.24 32.32,9.14 60.39,0 -8.64,-9.15 -15.12,-21.33 -19.43,-33.53 -8.64,-12.18 -15.08,-18.28 -36.67,-15.22 -6.46,21.32 -6.46,30.46 -4.29,48.75z"/>
   <path class="fil1" d="M11188.76 1220.36c12.94,33.52 38.83,60.95 79.78,27.42 -23.71,-12.18 -25.85,-24.38 -36.63,-30.46 -10.81,-6.1 -28.03,-3.06 -43.15,3.04z"/>
   <path class="fil6" d="M11484.21 1784.06c6.49,-42.66 -6.46,-60.94 -47.45,-63.98 -4.3,42.64 6.5,60.94 47.45,63.98z"/>
   <path class="fil6" d="M10539.63 1787.1c32.35,-18.28 40.97,-51.8 21.58,-85.3 -34.51,30.46 -34.51,36.56 -21.58,85.3z"/>
   <path class="fil1" d="M10727.26 1266.07c19.4,21.33 64.69,15.24 69.01,-45.71 -32.34,0 -51.77,27.42 -69.01,45.71z"/>
   <path class="fil1" d="M11410.89 1713.98c-12.92,3.04 -30.18,12.18 -36.67,21.32 -6.46,6.1 -23.7,67.04 10.81,42.66 23.72,-12.18 28.02,-36.56 25.86,-63.98z"/>
   <path class="fil6" d="M10524.34 1552.01c-8.75,-21.18 -30.25,-42.16 -62.35,-39.14 -4.24,23.92 -2.23,30.25 8.05,50.62 3.94,-2.45 8.34,-4.68 13.18,-6.6 13.5,-5.8 27.73,-7.92 41.12,-4.88z"/>
   <path class="fil1" d="M10479.25 1793.2c15.08,-30.48 19.41,-45.7 -6.48,-73.12l-8.62 -6.1c-25.89,30.46 -6.48,63.98 15.1,79.22z"/>
   <path class="fil1" d="M10466.67 1828.74c8.03,-23.79 -0.65,-38.85 -19.77,-56.86 -10.73,12.13 -19.31,21.23 -19.42,45.35 6.35,0.1 13.08,1.18 20.21,3.41 7.2,2.09 13.49,4.84 18.98,8.1z"/>
   <path class="fil1" d="M10512.63 1683.03c5.43,14.38 5.57,28.76 7.59,43.13 10.78,-3.04 15.11,-6.08 25.87,-21.32 12.63,-14.84 10.89,-23.91 8.82,-41.27 -6.35,6.87 -14.47,12.36 -24.27,15.83l-0.35 0.11c-6.08,1.94 -11.98,3.07 -17.66,3.52z"/>
   <path class="fil1" d="M10587.08 1819.64c-0.11,-11.54 -2.23,-17.55 -4.32,-26.44l-8.62 -21.32c0,0 0,0 0,-3.06 -20.35,17.28 -31.11,29.1 -28.61,53.46 11.74,-5.38 25.79,-6.91 41.55,-2.64z"/>
   <path class="fil7" d="M11509.67 1821.81c-6.68,-28.61 -21.77,-28.68 -51.32,-31.65 -2.1,14.74 -2.16,32.35 5.67,47.29 7.32,-5.63 16.55,-10.15 27.87,-12.97 6.23,-1.7 12.18,-2.56 17.78,-2.67z"/>
   <path class="fil1" d="M11429.89 1681.56c-9.83,26.57 9.43,35.43 37.08,32.42 1.87,-21.19 0.47,-35.48 -4.16,-42.86 -3.34,1.96 -7.01,3.67 -10.97,5.11 -7.25,3.03 -14.63,4.82 -21.95,5.33z"/>
   <path class="fil1" d="M10492.2 1726.16l10.78 -15.22c6.46,-12.2 4.3,-12.2 4.3,-27.44l-1.73 -0.27c-13.31,-0.32 -25.19,-4.55 -35.06,-11.32 -6.14,27.1 6.73,45.18 21.71,54.25z"/>
   <path class="fil1" d="M11378.54 1713.98c21.24,-3 36.22,-11.93 40.79,-32.6 -10.44,-1.12 -20.57,-5.04 -29.68,-12.02 -1.63,-1.24 -3.18,-2.57 -4.69,-3.96 -6.42,24.18 -8.58,21.21 -6.42,48.58z"/>
   <path class="fil8" d="M10899.78 1674.67c-21.57,12.18 -4.3,42.66 19.41,33.52 21.58,-12.2 6.46,-48.76 -19.41,-33.52z"/>
   <path class="fil1" d="M11345.99 1945.01c-5.15,56.1 -40.78,80.52 -40.78,131.57 0,54.84 53.93,79.22 105.68,79.22 -34.51,-12.18 -60.37,-39.62 -51.75,-94.46 4.28,-36.35 29.87,-69.69 34.4,-120.97 -3.71,1.76 -7.68,3.22 -11.87,4.37 -13.19,3.62 -25.19,3.33 -35.68,0.27z"/>
   <path class="fil1" d="M11315.99 2137.52c-43.13,-67.04 -6.46,-112.75 15.1,-161.49 6.31,-13.35 6.85,-26.68 6.71,-34.1 -7.5,-3.5 -14.07,-8.52 -19.47,-14.59l-0.18 -0.07c-25.87,15.24 -49.61,57.9 -51.75,103.6 -2.14,42.66 23.74,94.45 49.59,106.65z"/>
   <path class="fil1" d="M11396.94 1823.9c5.31,-13.6 5.2,-22.71 3.17,-39.84 -22.67,5.83 -37.46,11.66 -44.39,33.45 14.43,-2.7 28.79,-0.7 41.22,6.39z"/>
   <polygon class="fil9" points="10608.65,2131.42 10606.49,2131.42 10600,2137.52 "/>
   <path class="fil8" d="M10813.13 1660.31c-21.58,12.18 -4.34,42.64 19.37,33.5 21.58,-12.18 6.5,-48.74 -19.37,-33.5z"/>
   <path class="fil8" d="M10717.02 1643.47c-21.55,12.18 -4.31,42.66 19.4,33.52 21.57,-12.2 6.5,-48.76 -19.4,-33.52z"/>
   <path class="fil9" d="M10584.7 1831.21c72.59,21.05 38.47,123.43 -27.63,102.63 -66.13,-20.82 -36.44,-120.3 27.63,-102.63z"/>
   <path class="fil9" d="M10444.38 1831.98c72.58,21.05 36.43,120.3 -31.81,99.41 -61.81,-20.64 -34.28,-120.23 31.81,-99.41z"/>
   <path class="fil9" d="M10551.65 2019.02c9.99,21.71 15.42,49.35 7.79,79.56 -5.36,27.24 -27.49,41.65 -44.94,47.09 -21.81,5.27 -34.6,1.73 -53.78,-5.09 11.71,-23.95 42.1,-28.9 52.93,-86.42 10.47,-48.4 -12.41,-70.61 21.52,-112.01 1.35,21.39 0.88,33.57 16.48,76.87z"/>
   <path class="fil9" d="M10426.26 1945.93c-23.93,46.6 2.45,69.16 -6.21,129.06 -5.59,33.32 -52.7,80.32 -110.08,56.81 8.4,6.4 43.81,-16.65 53.6,-46.77 9.99,-36.2 0.72,-76.2 3.82,-100.47 2.96,-21.23 12.25,-39.17 23.51,-50.94l0.15 0.04c5.09,3.61 10.97,6.65 17.76,8.92l0.28 0.09c5.96,1.82 11.66,2.86 17.17,3.26z"/>
   <path class="fil9" d="M10387.45 2137.79c44.49,-34.91 52.57,-77.28 41.38,-123.45 -4.93,-25.08 -2.64,-52.4 6.28,-68.3 7.9,-0.45 15.22,-2.31 21.84,-5.26 51.84,57.81 22.75,188.42 -69.5,197.01z"/>
   <path class="fil9" d="M10255.13 2099.21c21.64,-2.23 54.08,-4.05 74.09,-76.45 7.74,-35.65 11.63,-80.23 55.15,-94.63 0.34,0.33 0.67,0.65 1.01,0.98 -47.66,57.73 -16.79,77.51 -30,143.42 -2.84,18.19 -23.13,41.81 -38.57,50.38 -28.61,14.16 -49.7,1.15 -61.68,-23.7z"/>
   <path class="fil9" d="M10589.17 1946.7c3.02,56.27 37.67,82.01 35.71,133.02 -2.07,54.81 -56.87,77.12 -108.6,75.16 34.94,-10.87 61.84,-37.3 55.31,-92.43 -2.88,-36.49 -27.21,-70.77 -29.78,-122.19 3.63,1.89 7.56,3.51 11.7,4.82 13.04,4.11 25.04,4.29 35.66,1.62z"/>
   <path class="fil9" d="M10611.82 2140.22c45.63,-65.35 10.74,-112.42 -8.96,-161.96 -5.79,-13.56 -5.83,-26.92 -5.4,-34.33 7.63,-3.22 14.36,-7.99 20.03,-13.82l0.14 -0.07c25.3,16.21 47.38,59.74 47.81,105.49 0.5,42.7 -27.3,93.48 -53.62,104.69z"/>
   <path class="fil10" d="M12011.27 842.33c-1.9,-1.08 -3.54,-1.35 -5.18,0l-30.69 20.66 -31.26 -20.66c-1.63,-1.35 -3.25,-1.08 -4.89,0l-10.33 5.17c-2.43,1.09 -2.72,2.71 -1.1,4.62l27.21 37.78c0.79,1.62 1.87,2.72 5.68,2.72l28.81 0c3.82,0 4.9,-1.1 5.99,-2.72l26.88 -37.78c1.64,-1.91 1.39,-3.53 -0.79,-4.62l-10.33 -5.17zm-29.61 58.98c-25.84,0 -52.99,1.08 -79.64,3.26 -3.25,0.27 -4.08,1.1 -4.08,3.81l0 203c0,3.54 0.83,4.35 4.08,4.35l42.12 0c3.28,0 4.07,-0.81 4.07,-4.35l0 -71.47 17.4 0 44.3 69.85c2.71,4.07 4.62,5.97 10.87,5.97l42.4 0c4.07,0 5.44,-2.44 3.26,-5.43l-46.2 -73.64c29.63,-6.54 40.23,-23.92 40.23,-63.88 0,-53.53 -20.14,-71.47 -78.81,-71.47zm-5.44 43.76c26.08,0 33.15,7.05 33.15,29.35 0,22.56 -7.07,27.99 -33.15,27.99l-28.01 0 0 -57.34 28.01 0zm140.51 -103.55c-1.64,0 -2.73,0.54 -3.27,1.64l-19.83 36.69c-0.83,1.35 -0.54,2.98 0.79,3.79l14.97 8.42c1.64,0.83 2.43,1.1 3.78,0l52.2 -42.66c0.54,-0.54 1.36,-1.9 1.36,-3.25l0 -1.91c0,-1.91 -1.08,-2.72 -2.71,-2.72l-47.29 0zm-22.02 61.43c-2.72,0 -4.09,1.62 -4.09,4.34l0 203.82c0,3.26 1.37,4.62 4.09,4.62l42.14 0c2.71,0 4.05,-1.36 4.05,-4.62l0 -203.82c0,-2.72 -1.34,-4.34 -4.05,-4.34l-42.14 0zm263.88 -0.29c-9.77,0 -13.87,2.18 -17.38,10.89l-46.22 121.74 -46.19 -121.47c-3.26,-8.71 -7.59,-10.87 -17.38,-10.87l-38.61 0c-2.72,0 -3.26,1.89 -3.51,4.34l-20.68 203.82c-0.25,3.26 1.35,4.62 4.07,4.62l42.12 0c2.72,0 3.83,-1.36 4.09,-4.62l11.98 -118.48 43.74 112.24c1.08,2.98 3.26,4.35 5.97,4.35l29.08 0c2.72,0 4.62,-1.37 5.97,-4.35l43.76 -112.24 11.7 118.48c0.25,3.26 1.35,4.62 4.06,4.62l42.13 0c2.71,0 4.35,-1.36 4.08,-4.62l-20.64 -203.82c-0.3,-2.72 -0.56,-4.63 -3.27,-4.63l-38.87 0zm163.05 -1.35c-53,0 -78.52,14.68 -78.52,54.36l0 5.97c0,36.96 12.47,51.37 35.59,59.52l47.02 17.11c13.04,4.63 19,8.71 19,19.04l0 2.72c0,9.23 -6.78,13.31 -19.29,13.31l-78.54 0c-4.06,0 -5.68,1.62 -5.68,5.71l0 24.45c0,4.08 1.33,5.99 5.14,6.8 26.92,4.89 48.39,6.8 67.67,6.8 51.36,0 81.55,-14.95 81.55,-54.62l0 -7.08c0,-36.68 -14.13,-48.09 -40.77,-58.15l-47.02 -17.4c-9.79,-3.79 -13.87,-9.52 -13.87,-17.13l0 -3.25c0,-9.5 7.07,-14.4 20.11,-14.4l66.04 0c3.79,0 5.43,-1.37 5.43,-5.43l0 -26.36c0,-3.01 -1.33,-4.36 -5.43,-5.72 -20.37,-4.34 -35.88,-6.25 -58.43,-6.25zm218.24 1.64c-2.46,0 -4.34,1.08 -5.72,2.72l-62.49 88.31 0 -86.69c0,-2.72 -1.37,-4.34 -4.08,-4.34l-42.14 0c-2.72,0 -4.05,1.62 -4.05,4.34l0 204.09c0,2.99 1.33,4.35 4.05,4.35l42.14 0c2.71,0 4.08,-1.36 4.08,-4.35l0 -99.46 67.92 100.83c1.1,1.9 3.26,2.98 5.98,2.98l46.47 0c7.36,0 7.07,-3.79 4.64,-7.34l-73.64 -107.88 65.75 -92.4c1.92,-3 2.46,-5.16 -2.43,-5.16l-46.48 0zm157.91 -1.64c-70.66,0 -90.53,24.72 -90.53,108.16 0,82.89 19.87,107.63 90.53,107.63 70.64,0 90.75,-24.74 90.75,-107.63 0,-83.44 -20.11,-108.16 -90.75,-108.16zm0 43.76c32.87,0 39.65,15.76 39.65,64.4 0,48.11 -6.78,63.87 -39.65,63.87 -32.62,0 -39.7,-15.76 -39.7,-63.87 0,-48.64 7.08,-64.4 39.7,-64.4zm238.6 -42.12c-2.46,0 -4.33,1.08 -5.72,2.72l-62.49 88.31 0 -86.69c0,-2.72 -1.37,-4.34 -4.08,-4.34l-42.14 0c-2.72,0 -4.05,1.62 -4.05,4.34l0 204.09c0,2.99 1.33,4.35 4.05,4.35l42.14 0c2.71,0 4.08,-1.36 4.08,-4.35l0 -99.46 67.92 100.83c1.1,1.9 3.26,2.98 5.98,2.98l46.47 0c7.36,0 7.07,-3.79 4.65,-7.34l-73.65 -107.88 65.75 -92.4c1.92,-3 2.46,-5.16 -2.43,-5.16l-46.48 0zm154.65 -1.64c-34.82,0 -40.79,2.45 -49.19,32.89l-48.65 177.18c-0.54,2.99 0.8,4.35 3.52,4.35l41.58 0c2.47,0 2.72,-1.36 3.55,-4.35l15.22 -54.9 68.21 0 14.65 54.9c0.84,2.99 1.38,4.35 3.81,4.35l41.58 0c2.72,0 4.09,-1.36 3.55,-4.35l-48.38 -177.18c-8.43,-30.17 -14.15,-32.89 -49.45,-32.89zm-0.29 41.85c3.55,0 3.8,0.81 4.9,4.36l18.48 67.94 -45.92 0 18.19 -67.94c1.08,-3.55 1.38,-4.36 4.35,-4.36zm107.62 -40.21c-2.72,0 -4.05,1.35 -4.05,4.07l0 35.6c0,2.72 1.33,4.07 4.05,4.07l54.37 0 0 164.69c0,2.99 1.35,4.35 4.07,4.35l42.14 0c2.7,0 4.07,-1.36 4.07,-4.35l0 -164.69 54.62 0c2.72,0 4.36,-1.35 4.36,-4.07l0 -35.6c0,-2.72 -1.64,-4.07 -4.36,-4.07l-159.27 0zm269.86 -1.64c-70.64,0 -90.49,24.72 -90.49,108.16 0,82.89 19.85,107.63 90.49,107.63 70.67,0 90.79,-24.74 90.79,-107.63 0,-83.44 -20.12,-108.16 -90.79,-108.16zm0 43.76c32.91,0 39.69,15.76 39.69,64.4 0,48.11 -6.78,63.87 -39.69,63.87 -32.59,0 -39.66,-15.76 -39.66,-63.87 0,-48.64 7.07,-64.4 39.66,-64.4zm124.2 -42.12c-2.72,0 -4.08,1.62 -4.08,4.34l0 204.09c0,2.99 1.36,4.35 4.08,4.35l130.72 0c2.72,0 4.07,-1.36 4.07,-4.08l0 -35.59c0,-2.72 -1.35,-4.08 -4.07,-4.08l-84.53 0 0 -164.69c0,-2.72 -1.33,-4.34 -4.05,-4.34l-42.14 0zm161.16 0c-2.71,0 -4.08,1.62 -4.08,4.34l0 203.82c0,3.26 1.37,4.62 4.08,4.62l42.14 0c2.72,0 4.05,-1.36 4.05,-4.62l0 -203.82c0,-2.72 -1.33,-4.34 -4.05,-4.34l-42.14 0zm165.23 -1.64c-70.92,0 -89.67,24.19 -89.67,107.62 0,83.43 18.75,108.17 89.67,108.17 26.63,0 41.59,-1.64 54.92,-4.89 4.59,-1.1 7.05,-2.99 7.05,-8.44l0 -26.36c0,-2.72 -1.37,-4.07 -4.08,-4.07l-57.89 0c-32.89,0 -38.86,-15.76 -38.86,-64.41 0,-48.64 5.97,-63.86 38.86,-63.86l57.89 0c2.71,0 4.08,-1.37 4.08,-4.08l0 -26.36c0,-5.44 -2.46,-7.07 -7.05,-8.42 -13.33,-2.99 -28.29,-4.9 -54.92,-4.9zm207.08 1.64c-2.42,0 -4.31,1.08 -5.68,2.72l-62.53 88.31 0 -86.69c0,-2.72 -1.35,-4.34 -4.06,-4.34l-42.12 0c-2.72,0 -4.09,1.62 -4.09,4.34l0 204.09c0,2.99 1.37,4.35 4.09,4.35l42.12 0c2.71,0 4.06,-1.36 4.06,-4.35l0 -99.46 67.96 100.83c1.1,1.9 3.26,2.98 5.98,2.98l46.47 0c7.33,0 7.07,-3.79 4.61,-7.34l-73.63 -107.88 65.77 -92.4c1.88,-3 2.42,-5.16 -2.47,-5.16l-46.48 0zm157.1 -61.43c-1.64,0 -2.72,0.54 -3.26,1.64l-19.82 36.69c-0.83,1.35 -0.54,2.98 0.79,3.79l14.97 8.42c1.35,0.83 2.43,1.1 3.78,0l52.18 -42.66c0.55,-0.54 1.38,-1.9 1.38,-3.25l0 -1.91c0,-1.91 -1.11,-2.72 -2.72,-2.72l-47.3 0zm-2.43 59.79c-34.8,0 -40.77,2.45 -49.21,32.89l-48.65 177.18c-0.54,2.99 0.84,4.35 3.56,4.35l41.56 0c2.47,0 2.72,-1.36 3.53,-4.35l15.22 -54.9 68.21 0 14.67 54.9c0.84,2.99 1.38,4.35 3.81,4.35l41.58 0c2.72,0 4.09,-1.36 3.55,-4.35l-48.38 -177.18c-8.42,-30.17 -14.15,-32.89 -49.45,-32.89zm-0.29 41.85c3.55,0 3.82,0.81 4.9,4.36l18.49 67.94 -45.93 0 18.19 -67.94c1.1,-3.55 1.39,-4.36 4.35,-4.36zm-2578.26 285.91c-2.72,0 -4.08,1.62 -4.08,4.34l0 204.09c0,2.99 1.36,4.36 4.08,4.36l42.12 0c2.72,0 4.07,-1.37 4.07,-4.36l0 -80.43 79.37 0c2.73,0 4.35,-1.36 4.35,-4.08l0 -33.43c0,-2.72 -1.62,-4.07 -4.35,-4.07l-79.37 0 0 -42.68 87.23 0c2.73,0 4.35,-1.35 4.35,-4.06l0 -35.61c0,-2.72 -1.62,-4.07 -4.35,-4.07l-133.42 0zm242.98 -1.64c-34.8,0 -40.79,2.45 -49.19,32.9l-48.66 177.17c-0.54,2.99 0.81,4.36 3.53,4.36l41.58 0c2.47,0 2.72,-1.37 3.55,-4.36l15.22 -54.89 68.19 0 14.67 54.89c0.84,2.99 1.38,4.36 3.81,4.36l41.58 0c2.72,0 4.09,-1.37 3.55,-4.36l-48.39 -177.17c-8.42,-30.18 -14.14,-32.9 -49.44,-32.9zm-0.29 41.86c3.55,0 3.8,0.81 4.89,4.35l18.48 67.94 -45.91 0 18.19 -67.94c1.08,-3.54 1.38,-4.35 4.35,-4.35zm200.86 -41.86c-25.82,0 -52.99,1.08 -79.66,3.26 -3.26,0.27 -4.05,1.1 -4.05,3.82l0 202.99c0,3.55 0.79,4.36 4.05,4.36l42.14 0c3.26,0 4.08,-0.81 4.08,-4.36l0 -71.47 17.4 0 44.3 69.85c2.72,4.07 4.59,5.98 10.87,5.98l42.37 0c4.11,0 5.44,-2.45 3.26,-5.44l-46.17 -73.64c29.62,-6.53 40.2,-23.92 40.2,-63.88 0,-53.53 -20.12,-71.47 -78.79,-71.47zm-5.46 43.76c26.11,0 33.18,7.06 33.18,29.35 0,22.56 -7.07,28 -33.18,28l-27.98 0 0 -57.35 27.98 0zm248.13 -42.12c-2.72,0 -4.07,1.62 -4.07,4.34l0 114.96 -76.9 -109.8c-4.63,-6.78 -6.25,-9.5 -17.67,-9.5l-30.98 0c-2.72,0 -4.07,1.62 -4.07,4.34l0 203.82c0,3.26 1.35,4.63 4.07,4.63l42.12 0c2.71,0 4.08,-1.37 4.08,-4.63l0 -118.21 80.16 114.96c4.08,5.7 7.9,7.88 15.76,7.88l29.62 0c2.71,0 4.1,-1.37 4.1,-4.63l0 -203.82c0,-2.72 -1.39,-4.34 -4.1,-4.34l-42.12 0zm166.05 -1.64c-70.64,0 -90.48,24.73 -90.48,108.16 0,82.89 19.84,107.63 90.48,107.63 70.68,0 90.8,-24.74 90.8,-107.63 0,-83.43 -20.12,-108.16 -90.8,-108.16zm0 43.76c32.91,0 39.7,15.77 39.7,64.4 0,48.11 -6.79,63.88 -39.7,63.88 -32.58,0 -39.65,-15.77 -39.65,-63.88 0,-48.63 7.07,-64.4 39.65,-64.4zm192.69 -43.76c-52.99,0 -78.54,14.69 -78.54,54.36l0 5.97c0,36.96 12.49,51.37 35.59,59.53l47.02 17.11c13.04,4.62 19.01,8.71 19.01,19.03l0 2.72c0,9.23 -6.76,13.32 -19.27,13.32l-78.55 0c-4.07,0 -5.69,1.61 -5.69,5.7l0 24.45c0,4.09 1.33,5.99 5.15,6.8 26.9,4.9 48.38,6.8 67.67,6.8 51.35,0 81.52,-14.95 81.52,-54.62l0 -7.07c0,-36.69 -14.1,-48.1 -40.75,-58.16l-47.01 -17.4c-9.78,-3.79 -13.88,-9.51 -13.88,-17.13l0 -3.25c0,-9.5 7.07,-14.4 20.12,-14.4l66.05 0c3.8,0 5.43,-1.36 5.43,-5.43l0 -26.36c0,-3 -1.34,-4.35 -5.43,-5.72 -20.39,-4.34 -35.9,-6.25 -58.44,-6.25zm90.22 1.64c-2.72,0 -4.05,1.35 -4.05,4.07l0 35.61c0,2.71 1.33,4.06 4.05,4.06l54.37 0 0 164.69c0,2.99 1.35,4.36 4.07,4.36l42.12 0c2.72,0 4.08,-1.37 4.08,-4.36l0 -164.69 54.63 0c2.72,0 4.35,-1.35 4.35,-4.06l0 -35.61c0,-2.72 -1.63,-4.07 -4.35,-4.07l-159.27 0zm-1054.79 326.66c-36.11,0 -42.32,2.54 -51.08,34.14l-50.49 183.9c-0.55,3.11 0.85,4.52 3.67,4.52l43.17 0c2.54,0 2.82,-1.41 3.65,-4.52l15.82 -56.98 70.78 0 15.24 56.98c0.85,3.11 1.41,4.52 3.94,4.52l43.17 0c2.82,0 4.24,-1.41 3.67,-4.52l-50.22 -183.9c-8.74,-31.31 -14.65,-34.14 -51.32,-34.14zm-0.28 43.44c3.67,0 3.94,0.84 5.07,4.51l19.18 70.52 -47.66 0 18.87 -70.52c1.15,-3.67 1.44,-4.51 4.54,-4.51zm208.44 -43.44c-26.8,0 -55.02,1.14 -82.65,3.39 -3.39,0.28 -4.23,1.13 -4.23,3.94l0 210.71c0,3.67 0.84,4.52 4.23,4.52l43.74 0c3.36,0 4.22,-0.85 4.22,-4.52l0 -74.18 18.05 0 45.97 72.49c2.81,4.23 4.79,6.21 11.3,6.21l43.98 0c4.23,0 5.65,-2.54 3.38,-5.65l-47.93 -76.44c30.73,-6.76 41.74,-24.83 41.74,-66.28 0,-55.56 -20.89,-74.19 -81.8,-74.19zm-5.63 45.42c27.08,0 34.41,7.32 34.41,30.46 0,23.41 -7.33,29.06 -34.41,29.06l-29.06 0 0 -59.52 29.06 0zm205.05 -45.42c-73.61,0 -93.08,25.1 -93.08,111.7 0,86.6 19.47,112.26 93.08,112.26 27.64,0 43.17,-1.69 56.98,-5.07 4.79,-1.14 7.33,-3.1 7.33,-8.75l0 -27.35c0,-2.82 -1.41,-4.24 -4.21,-4.24l-60.1 0c-34.11,0 -40.32,-16.36 -40.32,-66.85 0,-50.48 6.21,-66.28 40.32,-66.28l60.1 0c2.8,0 4.21,-1.42 4.21,-4.23l0 -27.37c0,-5.65 -2.54,-7.34 -7.33,-8.74 -13.81,-3.1 -29.34,-5.08 -56.98,-5.08zm96.19 1.7c-2.82,0 -4.21,1.69 -4.21,4.51l0 211.54c0,3.4 1.39,4.81 4.21,4.81l43.72 0c2.83,0 4.23,-1.41 4.23,-4.81l0 -211.54c0,-2.82 -1.4,-4.51 -4.23,-4.51l-43.72 0zm173.2 -1.7c-28.75,0 -56.14,1.14 -83.77,3.39 -3.39,0.28 -4.23,1.13 -4.23,3.94l0 209.87c0,2.53 0.84,3.11 4.23,3.38 27.63,2.27 55.02,3.38 83.77,3.38 67.69,0 93.37,-33 93.37,-111.41 0,-79.26 -25.68,-112.55 -93.37,-112.55zm-0.85 45.42c30.47,0 41.46,20.31 41.46,67.13 0,46.26 -10.69,66 -40.61,66l-35.81 0 0 -133.13 34.96 0zm235.24 -106.63c-1.96,-1.13 -3.63,-1.4 -5.34,0l-31.88 21.43 -32.43 -21.43c-1.71,-1.4 -3.38,-1.13 -5.09,0l-10.7 5.36c-2.56,1.14 -2.81,2.83 -1.14,4.79l28.22 39.21c0.82,1.69 1.97,2.82 5.92,2.82l29.9 0c3.94,0 5.06,-1.13 6.21,-2.82l27.9 -39.21c1.7,-1.96 1.44,-3.65 -0.82,-4.79l-10.75 -5.36zm-106.87 62.91c-2.83,0 -4.23,1.69 -4.23,4.51l0 211.83c0,3.11 1.4,4.52 4.23,4.52l146.12 0c2.79,0 4.5,-1.41 4.5,-4.23l0 -36.96c0,-2.82 -1.71,-4.23 -4.5,-4.23l-98.19 0 0 -42.59 89.98 0c2.83,0 4.54,-1.42 4.54,-4.22l0 -34.98c0,-2.83 -1.71,-4.23 -4.54,-4.23l-89.98 0 0 -44.01 98.19 0c2.79,0 4.5,-1.4 4.5,-4.23l0 -36.96c0,-2.82 -1.71,-4.22 -4.5,-4.22l-146.12 0zm304.62 0c-2.54,0 -4.5,1.13 -5.9,2.82l-64.89 91.67 0 -89.98c0,-2.82 -1.4,-4.51 -4.23,-4.51l-43.74 0c-2.82,0 -4.22,1.69 -4.22,4.51l0 211.83c0,3.11 1.4,4.52 4.22,4.52l43.74 0c2.83,0 4.23,-1.41 4.23,-4.52l0 -103.24 70.52 104.66c1.11,1.96 3.38,3.1 6.2,3.1l48.23 0c7.61,0 7.32,-3.94 4.78,-7.61l-76.41 -111.99 68.24 -95.9c1.96,-3.12 2.54,-5.36 -2.52,-5.36l-48.25 0zm160.49 -1.7c-36.11,0 -42.32,2.54 -51.06,34.14l-50.49 183.9c-0.54,3.11 0.87,4.52 3.69,4.52l43.13 0c2.57,0 2.82,-1.41 3.67,-4.52l15.8 -56.98 70.82 0 15.24 56.98c0.84,3.11 1.4,4.52 3.92,4.52l43.18 0c2.81,0 4.23,-1.41 3.64,-4.52l-50.2 -183.9c-8.73,-31.31 -14.67,-34.14 -51.34,-34.14zm-0.27 43.44c3.66,0 3.94,0.84 5.06,4.51l19.2 70.52 -47.66 0 18.87 -70.52c1.15,-3.67 1.42,-4.51 4.53,-4.51zm260.34 -41.74c-2.82,0 -4.21,1.69 -4.21,4.51l0 119.31 -79.83 -113.95c-4.79,-7.05 -6.51,-9.87 -18.35,-9.87l-32.14 0c-2.82,0 -4.23,1.69 -4.23,4.51l0 211.54c0,3.4 1.41,4.81 4.23,4.81l43.72 0c2.83,0 4.23,-1.41 4.23,-4.81l0 -122.69 83.2 119.31c4.23,5.94 8.17,8.19 16.37,8.19l30.74 0c2.82,0 4.23,-1.41 4.23,-4.81l0 -211.54c0,-2.82 -1.41,-4.51 -4.23,-4.51l-43.73 0zm160.5 -1.7c-54.99,0 -81.51,15.23 -81.51,56.41l0 6.21c0,38.36 12.99,53.31 36.96,61.77l48.8 17.78c13.55,4.8 19.75,9.03 19.75,19.73l0 2.83c0,9.59 -7.05,13.82 -20.02,13.82l-81.55 0c-4.21,0 -5.92,1.69 -5.92,5.94l0 25.38c0,4.23 1.43,6.19 5.37,7.04 27.94,5.09 50.21,7.05 70.24,7.05 53.31,0 84.64,-15.51 84.64,-56.69l0 -7.33c0,-38.09 -14.68,-49.93 -42.32,-60.36l-48.82 -18.07c-10.13,-3.94 -14.37,-9.86 -14.37,-17.76l0 -3.38c0,-9.88 7.32,-14.95 20.87,-14.95l68.55 0c3.94,0 5.65,-1.42 5.65,-5.65l0 -27.35c0,-3.11 -1.42,-4.52 -5.65,-5.94 -21.17,-4.5 -37.22,-6.48 -60.67,-6.48zm93.65 1.7c-2.82,0 -4.22,1.4 -4.22,4.22l0 36.96c0,2.83 1.4,4.23 4.22,4.23l56.41 0 0 170.93c0,3.11 1.42,4.52 4.25,4.52l43.7 0c2.83,0 4.25,-1.41 4.25,-4.52l0 -170.93 56.7 0c2.82,0 4.53,-1.4 4.53,-4.23l0 -36.96c0,-2.82 -1.71,-4.22 -4.53,-4.22l-165.31 0zm180.83 0c-2.82,0 -4.24,1.13 -3.67,4.51l47.11 183.62c7.88,31.32 14.66,34.13 50.49,34.13 36.67,0 43.43,-3.09 51.04,-34.13l46.55 -183.62c0.58,-3.38 -0.85,-4.51 -3.67,-4.51l-42.88 0c-2.82,0 -3.11,1.13 -3.94,4.51l-42.88 170.65c-0.84,3.67 -1.4,5.09 -4.53,5.09 -2.52,0 -3.08,-1.42 -3.92,-5.09l-42.88 -170.65c-0.86,-3.38 -1.15,-4.51 -3.96,-4.51l-42.86 0zm240.32 -63.75c-1.68,0 -2.83,0.55 -3.39,1.69l-20.58 38.07c-0.86,1.42 -0.56,3.11 0.85,3.96l15.49 8.74c1.71,0.85 2.53,1.14 3.97,0l54.15 -44.28c0.55,-0.57 1.4,-1.98 1.4,-3.4l0 -1.96c0,-1.98 -1.1,-2.82 -2.83,-2.82l-49.06 0zm-22.85 63.75c-2.83,0 -4.23,1.69 -4.23,4.51l0 211.54c0,3.4 1.4,4.81 4.23,4.81l43.72 0c2.82,0 4.25,-1.41 4.25,-4.81l0 -211.54c0,-2.82 -1.43,-4.51 -4.25,-4.51l-43.72 0zm-2179.04 336.79c-26.77,0 -54.99,1.13 -82.62,3.38 -3.4,0.29 -4.23,1.13 -4.23,3.94l0 210.72c0,3.67 0.83,4.51 4.23,4.51l43.7 0c3.39,0 4.23,-0.84 4.23,-4.51l0 -74.19 34.69 0c60.94,0 81.83,-13.53 81.83,-69.67 0,-55.56 -20.89,-74.18 -81.83,-74.18zm-5.63 45.41c27.08,0 34.4,7.32 34.4,30.46 0,23.41 -7.32,29.06 -34.4,29.06l-29.06 0 0 -59.52 29.06 0zm196.9 -45.41c-36.12,0 -42.32,2.53 -51.09,34.13l-50.48 183.91c-0.56,3.11 0.84,4.51 3.67,4.51l43.16 0c2.54,0 2.83,-1.4 3.65,-4.51l15.82 -56.99 70.78 0 15.24 56.99c0.85,3.11 1.41,4.51 3.94,4.51l43.17 0c2.82,0 4.25,-1.4 3.67,-4.51l-50.22 -183.91c-8.72,-31.31 -14.64,-34.13 -51.31,-34.13zm-0.29 43.43c3.67,0 3.94,0.85 5.07,4.52l19.18 70.51 -47.66 0 18.87 -70.51c1.16,-3.67 1.44,-4.52 4.54,-4.52zm208.45 -43.43c-26.81,0 -55.03,1.13 -82.66,3.38 -3.39,0.29 -4.23,1.13 -4.23,3.94l0 210.72c0,3.67 0.84,4.51 4.23,4.51l43.74 0c3.36,0 4.23,-0.84 4.23,-4.51l0 -74.19 18.04 0 45.97 72.49c2.81,4.23 4.79,6.21 11.3,6.21l43.98 0c4.23,0 5.65,-2.54 3.38,-5.65l-47.93 -76.43c30.73,-6.77 41.74,-24.83 41.74,-66.29 0,-55.56 -20.89,-74.18 -81.79,-74.18zm-5.64 45.41c27.08,0 34.41,7.32 34.41,30.46 0,23.41 -7.33,29.06 -34.41,29.06l-29.05 0 0 -59.52 29.05 0zm206.76 -45.41c-28.77,0 -56.15,1.13 -83.79,3.38 -3.37,0.29 -4.23,1.13 -4.23,3.94l0 209.87c0,2.54 0.86,3.11 4.23,3.38 27.64,2.27 55.02,3.38 83.79,3.38 67.69,0 93.37,-32.99 93.37,-111.41 0,-79.26 -25.68,-112.54 -93.37,-112.54zm-0.86 45.41c30.46,0 41.45,20.32 41.45,67.13 0,46.26 -10.68,66 -40.59,66l-35.82 0 0 -133.13 34.96 0zm257.84 -43.72c-2.83,0 -4.27,1.13 -4.27,4.23l0 106.33c0,53.05 -7.88,66.29 -39.46,66.29 -31.88,0 -39.8,-13.24 -39.8,-66.29l0 -106.33c0,-3.1 -1.4,-4.23 -4.23,-4.23l-43.72 0c-2.82,0 -4.21,1.13 -4.21,4.23l0 106.33c0,89.43 18.32,111.7 91.96,111.7 73.34,0 91.66,-22.27 91.66,-111.7l0 -106.33c0,-3.1 -1.12,-4.23 -4.23,-4.23l-43.7 0zm169.51 -1.69c-26.79,0 -54.45,1.13 -82.09,3.38 -3.38,0.29 -4.22,1.13 -4.22,3.94l0 209.31c0,2.83 0.84,3.67 4.22,3.94 27.64,2.27 60.93,3.38 87.47,3.38 57.25,0 79.54,-15.5 79.54,-60.92 0,-32.71 -9.89,-47.66 -39.8,-50.49l0 -0.84c25.68,-4.23 35,-18.05 35,-50.49 0,-44.86 -22.27,-61.21 -80.12,-61.21zm-5.63 45.41c23.67,0 32.71,5.92 32.71,24.54 0,18.9 -9.04,23.7 -35.27,23.7l-25.93 0 0 -48.24 28.49 0zm6.47 84.62c21.74,0 31.02,6.21 31.02,25.1 0,17.78 -8.72,23.41 -31.29,23.41l-34.69 0 0 -48.51 34.96 0zm117.07 -128.34c-2.83,0 -4.23,1.69 -4.23,4.51l0 211.55c0,3.4 1.4,4.8 4.23,4.8l43.74 0c2.82,0 4.22,-1.4 4.22,-4.8l0 -211.55c0,-2.82 -1.4,-4.51 -4.22,-4.51l-43.74 0zm171.5 -1.69c-73.6,0 -93.07,25.1 -93.07,111.7 0,86.6 19.47,112.25 93.07,112.25 27.64,0 43.17,-1.69 57.01,-5.07 4.78,-1.13 7.3,-3.09 7.3,-8.74l0 -27.35c0,-2.83 -1.4,-4.25 -4.23,-4.25l-60.08 0c-34.11,0 -40.34,-16.35 -40.34,-66.84 0,-50.49 6.23,-66.29 40.34,-66.29l60.08 0c2.83,0 4.23,-1.42 4.23,-4.23l0 -27.36c0,-5.65 -2.52,-7.35 -7.3,-8.75 -13.84,-3.09 -29.37,-5.07 -57.01,-5.07zm96.19 1.69c-2.82,0 -4.22,1.69 -4.22,4.51l0 211.84c0,3.11 1.4,4.51 4.22,4.51l146.13 0c2.82,0 4.49,-1.4 4.49,-4.23l0 -36.95c0,-2.83 -1.67,-4.23 -4.49,-4.23l-98.16 0 0 -42.59 89.99 0c2.82,0 4.49,-1.42 4.49,-4.23l0 -34.98c0,-2.82 -1.67,-4.23 -4.49,-4.23l-89.99 0 0 -44.01 98.16 0c2.82,0 4.49,-1.4 4.49,-4.23l0 -36.95c0,-2.83 -1.67,-4.23 -4.49,-4.23l-146.13 0z"/>
   <path class="fil11" d="M4510.77 428.58c536.5,0 971.44,434.93 971.44,971.46 0,536.51 -434.94,971.46 -971.44,971.46 -536.53,0 -971.45,-434.95 -971.45,-971.46 0,-536.53 434.92,-971.46 971.45,-971.46z"/>
   <path class="fil0" d="M4510.77 494.46c500.14,0 905.57,405.43 905.57,905.58 0,500.13 -405.43,905.57 -905.57,905.57 -500.16,0 -905.6,-405.44 -905.6,-905.57 0,-500.15 405.44,-905.58 905.6,-905.58z"/>
   <path class="fil11" d="M4510.77 745.67c-211.48,189.54 -124.88,111.94 -416.96,373.75 -22.42,20.08 -24.35,54.88 -4.23,77.28l0 0c20.08,22.42 54.86,24.33 77.28,4.23l59.5 -53.31 0 247.58c0,39.28 52.36,89.44 87.07,98.44 15.11,3.92 26.84,-12.06 26.84,-22.49l0 -425.64 115.77 -103.77 0 553.57c0,30.11 24.63,54.74 54.73,54.74l0 0c30.09,0 54.74,-24.63 54.74,-54.74l0 -553.57 115.73 103.77 0 425.64c0,10.43 11.73,26.41 26.85,22.49 34.72,-9 87.06,-59.16 87.06,-98.44l0 -247.58 59.52 53.31c22.4,20.1 57.2,18.19 77.27,-4.23l0 0c20.11,-22.4 18.19,-57.2 -4.22,-77.28 -292.07,-261.79 -205.49,-184.21 -416.95,-373.75z"/>
   <path class="fil11" d="M4510.77 572.13c41.86,0 75.79,33.95 75.79,75.82 0,41.87 -33.93,75.83 -75.79,75.83 -41.88,0 -75.82,-33.96 -75.82,-75.83 0,-41.87 33.94,-75.82 75.82,-75.82z"/>
   <path class="fil11" d="M4781.3 771.13c41.85,0 75.8,33.94 75.8,75.83 0,41.87 -33.95,75.8 -75.8,75.8 -41.87,0 -75.82,-33.93 -75.82,-75.8 0,-41.89 33.95,-75.83 75.82,-75.83z"/>
   <path class="fil11" d="M4240.21 771.13c41.89,0 75.83,33.94 75.83,75.83 0,41.87 -33.94,75.8 -75.83,75.8 -41.85,0 -75.78,-33.93 -75.78,-75.8 0,-41.89 33.93,-75.83 75.78,-75.83z"/>
   <path class="fil10" d="M3977.81 1791.46c6.87,2.18 21.34,5.42 37.42,5.42 28.21,0 39.06,-9.22 39.06,-36.15 0,-22.42 -11.21,-30.57 -29.67,-38.53l-8.47 -3.43c-9.05,-3.8 -14.67,-7.42 -14.67,-18.09 0,-9.39 5.96,-13.18 16.63,-13.18 4.34,0 8.49,0.72 12.68,1.44l0 13.2 18.63 0 0 -30.01c-7.06,-2.18 -19.9,-4.53 -32.93,-4.53 -22.58,0 -38.52,8.87 -38.52,34.18 0,21.32 10.67,29.11 28.23,36.71l9.39 3.79c12.11,4.88 15.2,11.03 15.2,19.17 0,11.57 -4.53,15.54 -18.1,15.54 -5.97,0 -11.37,-0.9 -16.26,-1.98l0 -13.74 -18.62 0 0 30.19zm187.84 3.8l0 -17.37 -10.11 0 -23.32 -108.66 -36.34 0 -23.5 108.66 -10.31 0 0 17.37 30.37 0 5.23 -27.48 31.65 0 5.44 27.48 30.89 0zm-52.43 -106.86l1.08 0 12.51 61.84 -26.22 0 12.63 -61.84zm109.04 -1.8l0 -17.37 -50.27 0 0 17.37 13.02 0 0 91.29 -13.02 0 0 17.37 83.18 0 0 -35.09 -19.72 0 0 15.2 -26.38 0 0 -88.77 13.19 0zm126.74 16.44l0 -33.81 -83.7 0 0 17.37 12.99 0 0 91.29 -12.99 0 0 17.37 84.6 0 0 -33.81 -18.62 0 0 13.92 -28.94 0 0 -35.98 34.01 0 0 -19.16 -34.01 0 0 -31.11 28.06 0 0 13.92 18.6 0zm16.64 88.42c6.88,2.18 21.34,5.42 37.43,5.42 28.19,0 39.06,-9.22 39.06,-36.15 0,-22.42 -11.21,-30.57 -29.67,-38.53l-8.49 -3.43c-9.05,-3.8 -14.63,-7.42 -14.63,-18.09 0,-9.39 5.94,-13.18 16.61,-13.18 4.33,0 8.49,0.72 12.68,1.44l0 13.2 18.63 0 0 -30.01c-7.08,-2.18 -19.92,-4.53 -32.93,-4.53 -22.58,0 -38.52,8.87 -38.52,34.18 0,21.32 10.68,29.11 28.23,36.71l9.37 3.79c12.15,4.88 15.22,11.03 15.22,19.17 0,11.57 -4.55,15.54 -18.08,15.54 -5.97,0 -11.39,-0.9 -16.28,-1.98l0 -13.74 -18.63 0 0 30.19zm147.35 3.8l0 -17.37 -16.97 0 0 -91.29 16.97 0 0 -17.37 -58.01 0 0 17.37 16.98 0 0 91.29 -16.98 0 0 17.37 58.01 0zm109.03 0l0 -17.37 -10.11 0 -23.32 -108.66 -36.34 0 -23.5 108.66 -10.33 0 0 17.37 30.39 0 5.24 -27.48 31.65 0 5.41 27.48 30.91 0zm-52.43 -106.86l1.08 0 12.51 61.84 -26.24 0 12.65 -61.84zm25.14 -56.23l-20.8 0 -12.45 27.83 16.61 0 16.64 -27.83zm78.3 163.09l0 -17.37 -9.59 0 0 -39.96c0,-18.62 -1.07,-40.12 -1.07,-40.12l0.7 0c0,0 5.43,18.06 9.59,29.47l24.97 67.98 30.55 0 0 -108.66 12.11 0 0 -17.37 -43.76 0 0 17.37 9.59 0 0 41.94c0,17.9 1.08,38.68 1.08,38.68l-0.73 0c0,0 -5.58,-18.62 -9.77,-29.83l-24.94 -68.16 -43.4 0 0 17.37 13.03 0 0 91.29 -13.03 0 0 17.37 44.67 0zm80.81 -3.8c6.89,2.18 21.36,5.42 37.43,5.42 28.23,0 39.06,-9.22 39.06,-36.15 0,-22.42 -11.21,-30.57 -29.64,-38.53l-8.49 -3.43c-9.05,-3.8 -14.66,-7.42 -14.66,-18.09 0,-9.39 5.95,-13.18 16.62,-13.18 4.36,0 8.5,0.72 12.67,1.44l0 13.2 18.64 0 0 -30.01c-7.05,-2.18 -19.9,-4.53 -32.93,-4.53 -22.6,0 -38.52,8.87 -38.52,34.18 0,21.32 10.67,29.11 28.21,36.71l9.41 3.79c12.11,4.88 15.19,11.03 15.19,19.17 0,11.57 -4.52,15.54 -18.08,15.54 -5.98,0 -11.37,-0.9 -16.27,-1.98l0 -13.74 -18.64 0 0 30.19zm188.78 -104.86l0 -17.37 -28.01 0 -23.7 53.87c-2.72,-0.36 -7.59,-1.08 -9.77,-1.26l0 -35.24 10.13 0 0 -17.37 -47.18 0 0 17.37 12.99 0 0 91.29 -12.99 0 0 17.37 47.18 0 0 -17.37 -10.13 0 0 -36.34c9.43,0.37 14.85,2.17 21.18,16.46l16.62 37.25 28.94 0 0 -17.37 -11.05 0 -12.29 -26.57c-4.89,-10.67 -8.31,-15.55 -13.19,-20.43l20.24 -44.29 11.03 0zm101.07 0l0 -17.37 -40.3 0 0 17.37 5.97 0 -6.71 14.08c-2.52,5.26 -4.88,10.85 -6.32,14.65l-0.54 0c-1.28,-3.62 -3.07,-8.13 -6.15,-15.01l-6.5 -13.72 6.14 0 0 -17.37 -13.93 0 0 0.36 -0.16 -0.36 -26.79 0 0 17.37 9.23 0 26.21 53.15 0 38.14 -13 0 0 17.37 50.09 0 0 -17.37 -13.05 0 0 -37.96 26.44 -53.33 9.37 0zm-23.3 -54.43l-20.8 0 -12.49 27.83 16.65 0 16.64 -27.83zm-935.38 225.32l0 -6.17 -14.88 0 -34.8 51.41c-2.36,-0.94 -6.96,-1.73 -9.95,-1.89l0 -43.35 10.88 0 0 -6.17 -30.03 0 0 6.17 11.86 0 0 97.92 -11.86 0 0 6.17 30.03 0 0 -6.17 -10.88 0 0 -48.09c9.3,0.48 13.91,2.86 21.34,13.76l21.21 29.58c5.99,8.71 9.16,11.39 15.98,11.39 4.08,0 7.58,-1.58 7.58,-1.58l-1.26 -5.69c0,0 -2.38,1.1 -4.59,1.1 -3.8,0 -6.17,-0.78 -12.04,-9.48l-20.71 -28.49c-5.38,-7.59 -7.59,-9.8 -11.39,-12.65l32.28 -47.77 11.23 0zm43.65 0l0 -6.17 -30.82 0 0 6.17 11.85 0 0 97.92 -11.85 0 0 6.17 63.42 0 0 -20.1 -6.49 0 0 13.62 -37.79 0 0 -97.61 11.68 0zm66.91 0l0 -6.17 -28.28 0 0 6.17 11.07 0 0 76.89c0,20.08 11.22,29.11 32.74,29.11 21.18,0 32.75,-9.03 32.75,-29.11l0 -76.89 11.05 0 0 -6.17 -18.32 0 0 1.26 -0.18 -1.26 -9.95 0 0 6.17 10.13 0 0 76.56c0,15.68 -8.1,22.94 -25.48,22.94 -17.58,0 -25.46,-7.26 -25.46,-22.94l0 -76.56 9.93 0zm110.77 104.09c20.69,0 34.17,-7.91 34.17,-30.21 0,-18.19 -9.34,-26.11 -21.99,-27.85 11.37,-2.05 17.69,-9.48 17.69,-24.2 0,-17.72 -8.06,-28 -32.89,-28l-36.69 0 0 6.17 11.86 0 0 97.92 -11.86 0 0 6.17 39.71 0zm-20.57 -6.48l0 -47.62 21.02 0c19,0 26.43,7.28 26.43,23.89 0,18.82 -11.55,23.73 -27.06,23.73l-20.39 0zm0 -54.1l0 -43.2 17.22 0c19.79,0 25.97,7.12 25.97,21.36 0,15.97 -6.82,21.84 -24.69,21.84l-18.5 0zm134.28 60.58l0 -6.17 -11.39 0 4.29 -68.8c1.11,-17.26 1.11,-28.65 1.11,-28.65l0.63 0c0,0 3.78,11.08 7.11,19.94l24.83 64.23 7.59 0 24.83 -64.39c3.49,-9.81 6.84,-19.78 6.84,-19.78l0.63 0c0,0 0.14,11.71 1.1,28.65l3.94 68.8 -11.07 0 0 6.17 29.89 0 0 -6.17 -11.68 0 -5.72 -97.92 11.73 0 0 -6.17 -23.41 0 -24.23 64.07c-3.3,9.02 -6.32,18.83 -6.32,18.83l-0.47 0c0,0 -2.53,-9.18 -6.31,-18.99l-24.87 -63.91 -23.08 0 0 6.17 11.53 0 -5.99 97.92 -11.72 0 0 6.17 30.21 0zm133.85 -104.09l0 -6.17 -30.85 0 0 6.17 11.85 0 0 97.92 -11.85 0 0 6.17 63.42 0 0 -20.1 -6.46 0 0 13.62 -37.82 0 0 -97.61 11.71 0zm127.5 104.09l0 -6.17 -9.32 0 -29.6 -104.09 -10.9 0 -29.13 104.09 -9.3 0 0 6.17 14.84 0 8.06 -29.9 41.92 0 8.23 29.9 15.2 0zm-44.6 -103.92l0.32 0 19.15 67.85 -38.47 0 19 -67.85zm13.11 -35.13l-7.57 0 -9.02 20.73 6.79 0 9.8 -20.73zm65.03 139.05c36.69,0 50.15,-5.7 50.15,-55.36 0,-49.05 -12.99,-54.9 -49.05,-54.9l-27.35 0 0 6.17 11.86 0 0 97.92 -11.86 0 0 6.17 26.25 0zm-7.11 -6.48l0 -97.3 8.21 0c30.86,0 41.78,2.7 41.78,48.72 0,45.09 -11.55,48.58 -42.56,48.58l-7.43 0zm140.17 -83.68l0 -20.1 -66.92 0 0 6.17 11.86 0 0 97.92 -11.86 0 0 6.17 68.34 0 0 -20.1 -6.64 0 0 13.62 -42.55 0 0 -47.62 34.96 0 0 -6.48 -34.96 0 0 -43.2 41.27 0 0 13.62 6.5 0zm26.39 0l0 -13.62 39.41 0 -49.84 100.62 0 3.16 60.58 0 0 -20.1 -6.64 0 0 13.62 -44.42 0 49.64 -100.61 0 -3.17 -55.37 0 0 20.1 6.64 0zm19.78 -28.16l3.81 0 18.68 -20.73 -7.29 0 -13.13 14.7 -13.14 -14.7 -7.43 0 18.5 20.73zm111.86 28.16l0 -20.1 -66.92 0 0 6.17 11.86 0 0 97.92 -11.86 0 0 6.17 68.32 0 0 -20.1 -6.62 0 0 13.62 -42.55 0 0 -47.62 34.94 0 0 -6.48 -34.94 0 0 -43.2 41.26 0 0 13.62 6.51 0zm-836.78 250.89l0 -6.17 -11.87 0 0 -40.64 19.79 0c23.55,0 33.84,-13.46 33.84,-32.12 0,-24.06 -10.13,-31.33 -32.92,-31.33l-39.86 0 0 6.17 11.86 0 0 97.92 -11.86 0 0 6.17 31.02 0zm-11.87 -53.31l0 -50.47 20.71 0c18.19,0 25.65,5.24 25.65,24.69 0,18.66 -9.68,25.78 -26.57,25.78l-19.79 0zm143.96 53.31l0 -6.17 -9.34 0 -29.58 -104.09 -10.91 0 -29.13 104.09 -9.3 0 0 6.17 14.85 0 8.06 -29.9 41.94 0 8.2 29.9 15.21 0zm-44.61 -103.92l0.33 0 19.14 67.85 -38.47 0 19 -67.85zm81.94 103.92l0 -6.17 -10.9 0 0 -41.29 20.24 0c12.63,0 15.98,5.7 19.45,17.88l4.73 15.82c3.17,10.76 6.01,14.23 13.61,14.23 4.3,0 7.61,-1.58 7.61,-1.58l-1.28 -5.85c0,0 -2.66,1.12 -4.91,1.12 -4.41,0 -5.85,-2.22 -8.06,-9.97l-4.74 -16.14c-2.86,-9.5 -6.65,-16.3 -13.29,-18.52 11.85,-2.05 20.24,-10.76 20.24,-28.95 0,-23.87 -9.95,-30.84 -32.73,-30.84l-40.02 0 0 6.17 11.86 0 0 97.92 -11.86 0 0 6.17 30.05 0zm-10.9 -53.94l0 -49.84 20.69 0c18.19,0 25.66,4.91 25.66,24.22 0,18.33 -8.39,25.62 -25.16,25.62l-21.19 0zm100.13 53.94c36.69,0 50.15,-5.7 50.15,-55.36 0,-49.05 -12.98,-54.9 -49.05,-54.9l-27.35 0 0 6.17 11.85 0 0 97.92 -11.85 0 0 6.17 26.25 0zm-7.11 -6.47l0 -97.31 8.21 0c30.85,0 41.78,2.7 41.78,48.72 0,45.1 -11.56,48.59 -42.56,48.59l-7.43 0zm99.63 -97.62l0 -6.17 -28.3 0 0 6.17 11.08 0 0 76.89c0,20.08 11.21,29.11 32.75,29.11 21.19,0 32.74,-9.03 32.74,-29.11l0 -76.89 11.07 0 0 -6.17 -18.35 0 0 1.26 -0.15 -1.26 -9.97 0 0 6.17 10.12 0 0 76.56c0,15.68 -8.06,22.95 -25.46,22.95 -17.56,0 -25.46,-7.27 -25.46,-22.95l0 -76.56 9.93 0zm110.75 104.09c20.71,0 34.16,-7.91 34.16,-30.21 0,-18.19 -9.33,-26.1 -21.98,-27.85 11.4,-2.05 17.72,-9.48 17.72,-24.2 0,-17.72 -8.06,-28 -32.91,-28l-36.71 0 0 6.17 11.86 0 0 97.92 -11.86 0 0 6.17 39.72 0zm-20.57 -6.47l0 -47.63 21.03 0c19,0 26.42,7.29 26.42,23.89 0,18.82 -11.54,23.74 -27.03,23.74l-20.42 0zm0 -54.11l0 -43.2 17.25 0c19.76,0 25.95,7.13 25.95,21.36 0,15.98 -6.82,21.84 -24.7,21.84l-18.5 0zm106.45 60.58l0 -6.17 -15.96 0 0 -97.92 15.96 0 0 -6.17 -39.07 0 0 6.17 15.84 0 0 97.92 -15.84 0 0 6.17 39.07 0zm73.28 -89.69l0 -19.15c-3.35,-0.95 -12.18,-2.84 -22.63,-2.84 -21.67,0 -35.59,8.06 -35.59,57.42 0,46.04 12.18,55.68 35.59,55.68 10.58,0 21.17,-2.68 23.1,-3.32l0 -18.82 -6.64 0 0 13.92c-4.59,0.79 -10.78,1.75 -16.46,1.75 -19.15,0 -28.31,-8.39 -28.31,-50.01 0,-44.28 10.73,-50.14 28.31,-50.14 5.86,0 11.22,0.63 15.96,1.58l0 13.93 6.67 0zm83.69 -0.47l0 -20.1 -66.92 0 0 6.17 11.86 0 0 97.92 -11.86 0 0 6.17 68.34 0 0 -20.09 -6.64 0 0 13.62 -42.56 0 0 -47.63 34.95 0 0 -6.48 -34.95 0 0 -43.2 41.26 0 0 13.62 6.52 0z"/>
   <path class="fil11" d="M1175.28 426.89c356.4,0 645.32,288.92 645.32,645.32 0,356.39 -288.92,645.3 -645.32,645.3 -356.4,0 -645.32,-288.91 -645.32,-645.3 0,-356.4 288.92,-645.32 645.32,-645.32z"/>
   <path class="fil0" d="M1175.28 743.98c-211.47,189.54 -124.87,111.94 -416.97,373.75 -22.4,20.08 -24.33,54.88 -4.21,77.3l0 0c20.06,22.4 54.84,24.31 77.26,4.21l59.52 -53.31 0 247.58c0,39.28 52.34,89.44 87.05,98.44 15.14,3.92 26.87,-12.06 26.87,-22.49l0 -425.64 115.73 -103.77 0 553.57c0,30.1 24.65,54.74 54.75,54.74l0 0c30.1,0 54.73,-24.64 54.73,-54.74l0 -553.57 115.75 103.77 0 425.64c0,10.43 11.72,26.41 26.85,22.49 34.71,-9 87.07,-59.16 87.07,-98.44l0 -247.58 59.5 53.31c22.42,20.1 57.2,18.19 77.28,-4.21l0 0c20.11,-22.42 18.19,-57.2 -4.23,-77.3 -292.08,-261.8 -205.48,-184.21 -416.95,-373.75z"/>
   <path class="fil0" d="M1175.28 570.44c41.87,0 75.8,33.95 75.8,75.82 0,41.87 -33.93,75.82 -75.8,75.82 -41.87,0 -75.8,-33.95 -75.8,-75.82 0,-41.87 33.93,-75.82 75.8,-75.82z"/>
   <path class="fil0" d="M1445.82 769.44c41.87,0 75.79,33.94 75.79,75.82 0,41.87 -33.92,75.81 -75.79,75.81 -41.89,0 -75.82,-33.94 -75.82,-75.81 0,-41.88 33.93,-75.82 75.82,-75.82z"/>
   <path class="fil0" d="M904.74 769.44c41.87,0 75.82,33.94 75.82,75.82 0,41.87 -33.95,75.81 -75.82,75.81 -41.85,0 -75.81,-33.94 -75.81,-75.81 0,-41.88 33.96,-75.82 75.81,-75.82z"/>
   <path class="fil10" d="M422.53 2061.7c12.41,3.92 38.61,9.82 67.72,9.82 51.08,0 70.71,-16.7 70.71,-65.46 0,-40.59 -20.31,-55.31 -53.67,-69.72l-15.4 -6.21c-16.36,-6.87 -26.49,-13.42 -26.49,-32.73 0,-17.02 10.8,-23.89 30.09,-23.89 7.88,0 15.4,1.31 22.92,2.61l0 23.89 33.72 0 0 -54.32c-12.76,-3.94 -36,-8.19 -59.59,-8.19 -40.9,0 -69.69,16.03 -69.69,61.86 0,38.62 19.29,52.69 51.06,66.43l16.99 6.88c21.95,8.83 27.51,19.97 27.51,34.69 0,20.96 -8.17,28.16 -32.75,28.16 -10.77,0 -20.6,-1.64 -29.45,-3.6l0 -24.89 -33.68 0 0 54.67zm340.05 6.87l0 -31.42 -18.36 0 -42.21 -196.7 -65.76 0 -42.56 196.7 -18.67 0 0 31.42 55 0 9.5 -49.75 57.26 0 9.84 49.75 55.96 0zm-94.92 -193.43l1.96 0 22.57 111.94 -47.45 0 22.92 -111.94zm197.33 -3.27l0 -31.42 -90.97 0 0 31.42 23.57 0 0 165.28 -23.57 0 0 31.42 150.56 0 0 -63.5 -35.68 0 0 27.49 -47.79 0 0 -160.69 23.88 0zm229.45 29.78l0 -61.2 -151.54 0 0 31.42 23.57 0 0 165.28 -23.57 0 0 31.42 153.17 0 0 -61.21 -33.7 0 0 25.2 -52.37 0 0 -65.13 61.51 0 0 -34.69 -61.51 0 0 -56.3 50.74 0 0 25.21 33.7 0zm30.1 160.05c12.45,3.92 38.61,9.82 67.76,9.82 51.05,0 70.7,-16.7 70.7,-65.46 0,-40.59 -20.32,-55.31 -53.7,-69.72l-15.36 -6.21c-16.36,-6.87 -26.52,-13.42 -26.52,-32.73 0,-17.02 10.81,-23.89 30.1,-23.89 7.86,0 15.38,1.31 22.92,2.61l0 23.89 33.7 0 0 -54.32c-12.75,-3.94 -35.98,-8.19 -59.55,-8.19 -40.92,0 -69.73,16.03 -69.73,61.86 0,38.62 19.33,52.69 51.09,66.43l17 6.88c21.91,8.83 27.49,19.97 27.49,34.69 0,20.96 -8.18,28.16 -32.73,28.16 -10.79,0 -20.64,-1.64 -29.47,-3.6l0 -24.89 -33.7 0 0 54.67zm266.74 6.87l0 -31.42 -30.75 0 0 -165.28 30.75 0 0 -31.42 -105.07 0 0 31.42 30.78 0 0 165.28 -30.78 0 0 31.42 105.07 0zm197.35 0l0 -31.42 -18.32 0 -42.21 -196.7 -65.8 0 -42.55 196.7 -18.64 0 0 31.42 54.97 0 9.5 -49.75 57.29 0 9.8 49.75 55.96 0zm-94.91 -193.43l1.96 0 22.6 111.94 -47.45 0 22.89 -111.94zm45.48 -101.78l-37.64 0 -22.56 50.4 30.1 0 30.1 -50.4zm141.72 295.21l0 -31.42 -17.35 0 0 -72.33c0,-33.72 -1.96,-72.65 -1.96,-72.65l1.31 0c0,0 9.83,32.72 17.37,53.34l45.16 123.06 55.31 0 0 -196.7 21.92 0 0 -31.42 -79.19 0 0 31.42 17.34 0 0 75.93c0,32.41 1.96,70.05 1.96,70.05l-1.31 0c0,0 -10.13,-33.72 -17.69,-54.02l-45.16 -123.38 -78.54 0 0 31.42 23.56 0 0 165.28 -23.56 0 0 31.42 80.83 0zm247.44 0l0 -31.42 -30.74 0 0 -165.28 30.74 0 0 -31.42 -105.05 0 0 31.42 30.77 0 0 165.28 -30.77 0 0 31.42 105.05 0zm-1459.34 301.09c66.45,0 90.78,-10.31 90.78,-100.24 0,-88.77 -23.47,-99.35 -88.76,-99.35l-49.56 0 0 11.15 21.51 0 0 177.27 -21.51 0 0 11.17 47.54 0zm-12.86 -11.75l0 -176.11 14.88 0c55.85,0 75.58,4.87 75.58,88.2 0,81.62 -20.9,87.91 -77.02,87.91l-13.44 0zm137.75 -88.2c0,70.46 15.46,103.39 64.13,103.39 48.97,0 65.29,-32.93 65.29,-103.39 0,-70.15 -15.47,-103.08 -64.12,-103.08 -48.98,0 -65.3,32.93 -65.3,103.08zm64.72 91.64c-39.24,0 -51.55,-27.48 -51.55,-91.64 0,-63.86 12.31,-91.35 51.55,-91.35 39.23,0 51.53,27.49 51.53,91.35 0,64.16 -12.3,91.64 -51.53,91.64zm147.47 8.31l0 -11.17 -19.47 0 0 -121.99c0,-27.21 -0.57,-53.84 -0.57,-53.84l0.57 0c0,0 12,26.92 20.03,43.81l69.61 143.19 20.05 0 0 -188.44 20.02 0 0 -11.15 -52.41 0 0 11.15 19.77 0 0 125.72c0,24.34 0.29,50.42 0.29,50.42l-0.59 0c0,0 -11.73,-26.36 -20.05,-43.84l-69.86 -143.45 -41.24 0 0 11.15 21.48 0 0 177.27 -21.48 0 0 11.17 53.85 0zm278.93 0l0 -11.17 -16.9 0 -53.55 -188.42 -19.77 0 -52.68 188.42 -16.9 0 0 11.17 26.92 0 14.59 -54.12 75.91 0 14.9 54.12 27.48 0zm-80.76 -188.15l0.56 0 34.67 122.86 -69.61 0 34.38 -122.86zm236.25 188.15c37.52,0 61.88,-14.32 61.88,-54.7 0,-32.92 -16.91,-47.25 -39.82,-50.39 20.6,-3.73 32.08,-17.19 32.08,-43.82 0,-32.08 -14.63,-50.68 -59.59,-50.68l-66.41 0 0 11.15 21.46 0 0 177.27 -21.46 0 0 11.17 71.86 0zm-37.23 -11.75l0 -86.18 38.1 0c34.36,0 47.84,13.17 47.84,43.23 0,34.08 -20.91,42.95 -48.98,42.95l-36.96 0zm0 -97.93l0 -78.18 31.22 0c35.81,0 46.98,12.88 46.98,38.66 0,28.92 -12.34,39.52 -44.69,39.52l-33.51 0zm128.6 9.73c0,70.46 15.46,103.39 64.13,103.39 48.97,0 65.29,-32.93 65.29,-103.39 0,-70.15 -15.47,-103.08 -64.12,-103.08 -48.98,0 -65.3,32.93 -65.3,103.08zm64.72 91.64c-39.24,0 -51.55,-27.48 -51.55,-91.64 0,-63.86 12.31,-91.35 51.55,-91.35 39.21,0 51.53,27.49 51.53,91.35 0,64.16 -12.32,91.64 -51.53,91.64zm97.34 4.01c7.47,2.31 26.34,6.88 52.43,6.88 40.94,0 54.7,-14.33 54.7,-51.27 0,-34.92 -21.5,-48.67 -43.56,-58.42l-14.86 -6.59c-22.37,-9.73 -35.23,-18.02 -35.23,-44.38 0,-21.76 12.59,-32.36 40.36,-32.36 12.32,0 23.19,2 32.1,3.73l0 24.06 12 0 0 -34.08c-7.99,-2.31 -28.07,-5.45 -45.22,-5.45 -33.81,0 -52.41,13.45 -52.41,44.1 0,33.23 17.18,44.67 43.22,56.13l13.17 5.73c22.94,10.02 37.23,22.63 37.23,47.53 0,30.07 -10.58,39.53 -43.53,39.53 -16.59,0 -29.49,-2.3 -38.36,-4.58l0 -24.64 -12.04 0 0 34.08zm278.95 -184.14l0 -11.15 -26.94 0 -63.01 93.06c-4.26,-1.71 -12.59,-3.15 -18.03,-3.44l0 -78.47 19.76 0 0 -11.15 -54.39 0 0 11.15 21.46 0 0 177.27 -21.46 0 0 11.17 54.39 0 0 -11.17 -19.76 0 0 -87.05c16.91,0.86 25.21,5.14 38.67,24.92l38.36 53.55c10.89,15.74 16.62,20.62 28.93,20.62 7.45,0 13.77,-2.86 13.77,-2.86l-2.32 -10.31c0,0 -4.29,1.99 -8.3,1.99 -6.87,0 -11.17,-1.44 -21.77,-17.18l-37.52 -51.55c-9.71,-13.75 -13.72,-17.76 -20.6,-22.91l58.43 -86.49 20.33 0zm178.7 188.44l0 -11.17 -16.93 0 -53.55 -188.42 -19.73 0 -52.72 188.42 -16.9 0 0 11.17 26.96 0 14.59 -54.12 75.87 0 14.9 54.12 27.51 0zm-80.77 -188.15l0.58 0 34.63 122.86 -69.57 0 34.36 -122.86z"/>
  </g>
 </g>
</svg>
