<?xml version="1.0" encoding="UTF-8"?>
<!DOCTYPE svg PUBLIC "-//W3C//DTD SVG 1.1//EN" "http://www.w3.org/Graphics/SVG/1.1/DTD/svg11.dtd">
<!-- Creator: CorelDRAW 2017 -->
<svg xmlns="http://www.w3.org/2000/svg" xml:space="preserve" width="54mm" height="28mm" version="1.1" style="shape-rendering:geometricPrecision; text-rendering:geometricPrecision; image-rendering:optimizeQuality; fill-rule:evenodd; clip-rule:evenodd"
viewBox="0 0 5400 2800"
 xmlns:xlink="http://www.w3.org/1999/xlink">
 <defs>
  <style type="text/css">
   <![CDATA[
    .fil0 {fill:#FEFEFE}
    .fil2 {fill:#F08884;fill-rule:nonzero}
    .fil1 {fill:#6C7F8F;fill-rule:nonzero}
   ]]>
  </style>
 </defs>
 <g id="Vrstva_x0020_1">
  <metadata id="CorelCorpID_0Corel-Layer"/>
  <g id="_2901493230304">
   <path class="fil0" d="M3036.28 592.52c445.95,180.19 661.37,687.77 481.22,1133.74 -180.2,445.95 -687.81,661.39 -1133.74,481.22 -445.99,-180.19 -661.43,-687.79 -481.24,-1133.74 180.19,-445.97 687.77,-661.41 1133.76,-481.22z"/>
   <g>
    <g>
     <g>
      <path class="fil1" d="M2157.22 1124.76c27.77,-57.28 109,-91.52 155.71,10.88 33.48,73.34 61.17,118.06 95.11,146.49 24.3,20.36 55.78,33.67 85.79,41.75 23.52,6.33 51.08,9.4 76.53,7.2 113.12,-9.79 166.99,-139.48 224.82,-153.6 64.2,-15.69 115.34,49.57 92.35,104.85 -27.1,65.11 -87.13,106.18 -142.12,142.1 -95.79,62.57 -260.64,97.51 -399.5,11.78 -46.24,-28.55 -94.11,-84.71 -132.92,-153.53 -28.38,-50.33 -86.19,-95.15 -55.77,-157.92z"/>
      <path class="fil1" d="M2392.44 1053.97c-31.9,61.02 -0.4,142.7 70.33,182.44 70.74,39.71 153.93,22.42 185.82,-38.61 31.89,-61.03 0.41,-142.71 -70.33,-182.43 -70.75,-39.72 -153.94,-22.44 -185.82,38.6z"/>
     </g>
     <path class="fil1" d="M1835.29 1716.61l-18.53 -4.06c-1.73,9.65 -4.61,17.81 -8.71,24.45 -4.15,6.64 -9.27,11.64 -15.49,15.06 -6.17,3.43 -13.24,5.16 -21.24,5.16 -10.61,-0.04 -19.71,-2.96 -27.24,-8.8 -7.57,-5.88 -13.37,-14.51 -17.43,-25.89 -4.02,-11.38 -6.05,-25.34 -6.09,-41.96 0.04,-17.05 2.03,-31.35 6.05,-42.94 3.98,-11.63 9.69,-20.39 17.17,-26.31 7.49,-5.93 16.5,-8.93 27.04,-8.93 10.87,0.04 19.92,3.64 27.2,10.83 7.28,7.15 12.31,17.68 15.19,31.56l19.03 -4.82c-3.93,-18.2 -11.21,-31.86 -21.78,-41.04 -10.58,-9.18 -24.41,-13.79 -41.42,-13.79 -10.45,0 -19.88,2.11 -28.34,6.3 -8.46,4.19 -15.74,10.28 -21.79,18.36 -6.05,8.08 -10.7,18.02 -13.96,29.74 -3.26,11.72 -4.91,25.13 -4.95,40.28 0.04,20.43 2.83,37.69 8.38,51.78 5.54,14.13 13.53,24.83 24.03,32.15 10.49,7.27 23.22,10.95 38.15,11 17.14,0 31.1,-4.83 41.89,-14.51 10.78,-9.65 18.4,-24.2 22.84,-43.62zm30.97 55.08l0 0 112.69 0 0 -17.51 -92.39 0 0 -70.31 62.44 0 0 -17.26 -62.44 0 0 -61.17 88.08 0 0 -17.27 -108.38 0 0 183.52zm144.93 0l0 0 19.04 0 0 -162.45 97.47 162.45 15.74 0 0 -183.52 -19.04 0 0 143.16 -84.27 -143.16 -28.94 0 0 183.52zm216.01 0l0 0 20.81 0 0 -166 53.56 0 0 -17.52 -127.93 0 0 17.52 53.56 0 0 166zm104.83 0l0 0 20.05 0 0 -83.25 47.21 0 40.36 83.25 22.34 0 -43.15 -88.08c12.69,-3.68 22.21,-9.43 28.55,-17.3 6.35,-7.83 9.52,-17.72 9.52,-29.65 0,-11.64 -2.66,-21.03 -8,-28.14 -5.37,-7.15 -13.49,-12.31 -24.32,-15.56 -10.87,-3.26 -24.54,-4.83 -41.04,-4.79l-51.52 0 0 183.52zm51.52 -166.51l0 0c9.19,-0.04 17.14,0.42 23.78,1.4 6.68,0.97 12.14,2.7 16.41,5.12 4.32,2.45 7.49,5.83 9.52,10.19 2.08,4.32 3.09,9.86 3.09,16.54 0.04,7.91 -1.86,14.3 -5.71,19.17 -3.81,4.86 -9.69,8.37 -17.6,10.57 -7.91,2.2 -17.98,3.3 -30.25,3.26l-30.71 0 0 -66.25 31.47 0zm113.97 -17.01l0 0 0 121.59c0.05,21.49 5.63,37.65 16.71,48.56 11.13,10.92 27.54,16.37 49.29,16.42 21.66,-0.05 38.07,-5.55 49.32,-16.5 11.22,-10.96 16.88,-27.12 16.93,-48.48l0 -121.59 -20.06 0 0 114.99c0.05,4.31 -0.04,8.37 -0.17,12.22 -0.16,3.85 -0.55,7.53 -1.26,11 -0.68,3.47 -1.82,6.81 -3.39,10.03 -3.34,6.51 -8.54,11.63 -15.65,15.27 -7.06,3.64 -15.65,5.5 -25.72,5.54 -9.94,-0.04 -18.45,-1.9 -25.51,-5.54 -7.07,-3.64 -12.27,-8.76 -15.61,-15.27 -1.48,-2.96 -2.58,-6.01 -3.3,-9.18 -0.68,-3.17 -1.1,-6.47 -1.27,-9.9 -0.21,-3.47 -0.3,-7.06 -0.25,-10.87l0 -118.29 -20.06 0zm180.98 183.52l0 0 19.55 0 0 -161.69 55.33 161.69 13.7 0 55.34 -161.69 0 161.69 19.54 0 0 -183.52 -29.44 0 -51.53 155.09 -51.27 -155.09 -31.22 0 0 183.52z"/>
     <path class="fil2" d="M2912.06 1772.36l55.08 0c29.19,0 51.14,-7.78 65.82,-23.31 14.64,-15.52 22,-38.75 22,-69.59 -0.04,-30.25 -7.32,-53.09 -21.87,-68.49 -14.51,-15.4 -36.09,-23.1 -64.68,-23.14l-56.35 0 0 184.53zm34.77 -30.46l0 0 0 -123.36 18.53 0c12.44,-0.04 22.63,2.12 30.67,6.47 8.04,4.36 14,11.05 17.85,20.06 3.89,8.97 5.84,20.43 5.8,34.39 0.04,14.6 -1.78,26.48 -5.5,35.71 -3.68,9.22 -9.52,15.99 -17.43,20.3 -7.95,4.32 -18.23,6.47 -30.88,6.43l-19.04 0zm127.93 -61.42l0 0c0.04,15.01 1.82,28.38 5.33,40.1 3.55,11.72 8.63,21.66 15.31,29.82 6.64,8.17 14.68,14.35 24.12,18.57 9.43,4.28 20.05,6.39 31.89,6.44 11.85,-0.05 22.47,-2.16 31.9,-6.44 9.43,-4.22 17.47,-10.4 24.16,-18.57 6.64,-8.16 11.71,-18.1 15.27,-29.82 3.51,-11.72 5.29,-25.09 5.33,-40.1 -0.09,-20.1 -3.17,-37.23 -9.31,-51.36 -6.18,-14.13 -14.93,-24.92 -26.35,-32.32 -11.43,-7.45 -25.09,-11.21 -41,-11.26 -15.9,0.05 -29.52,3.81 -40.95,11.26 -11.42,7.4 -20.22,18.19 -26.4,32.32 -6.13,14.13 -9.22,31.26 -9.3,51.36zm35.28 0l0 0c0.04,-21.24 3.55,-37.23 10.58,-48.02 7.06,-10.79 17.3,-16.2 30.79,-16.2 13.5,0 23.78,5.41 30.8,16.2 7.02,10.79 10.53,26.78 10.58,48.02 -0.05,21.06 -3.56,36.97 -10.58,47.67 -7.02,10.66 -17.3,16.04 -30.8,16.04 -13.49,0 -23.73,-5.38 -30.79,-16.04 -7.03,-10.7 -10.54,-26.61 -10.58,-47.67zm147.47 91.88l0 0 32.24 0 0 -102.04c0,-6.85 -0.13,-13.41 -0.47,-19.63 -0.34,-6.26 -0.93,-12.22 -1.82,-17.93 3.94,9.9 7.66,18.53 11.17,25.93 3.51,7.36 6.73,13.54 9.65,18.49l57.61 95.18 32.24 0 0 -184.53 -32.24 0 0 99.24c0,6.86 0.22,13.42 0.6,19.63 0.42,6.26 1.05,12.23 1.94,17.94 -3.04,-7.99 -6.34,-15.69 -9.81,-23.06 -3.51,-7.36 -7.19,-14.38 -11,-21.1l-53.05 -92.65 -37.06 0 0 184.53z"/>
     <path class="fil2" d="M2911.36 2025.9l65.24 0c22.84,0.05 39.89,-4.23 51.14,-12.77 11.3,-8.5 16.93,-21.53 16.88,-39.01 0,-22.84 -10.4,-37.82 -31.22,-44.92 9.35,-4.53 16.16,-9.95 20.52,-16.29 4.32,-6.3 6.43,-13.83 6.39,-22.55 -0.04,-15.91 -5.29,-28.05 -15.74,-36.38 -10.45,-8.34 -25.85,-12.57 -46.2,-12.61l-67.01 0 0 184.53zm34.02 -28.42l0 0 0 -54.58 29.95 0c11.55,-0.04 20.18,2.16 25.93,6.6 5.75,4.4 8.59,11.17 8.59,20.31 0.04,9.69 -2.88,16.75 -8.8,21.15 -5.88,4.4 -14.98,6.6 -27.24,6.52l-28.43 0zm0 -82.24l0 0 0 -45.44 26.4 0c7.61,-0.04 13.96,0.68 19.03,2.12 5.08,1.48 8.88,3.85 11.42,7.15 2.54,3.34 3.81,7.78 3.81,13.32 0,7.74 -2.71,13.45 -8.12,17.22 -5.42,3.76 -13.45,5.63 -24.11,5.63l-28.43 0zm123.61 18.78l0 0c0.04,15.02 1.82,28.39 5.33,40.1 3.55,11.72 8.63,21.66 15.32,29.83 6.64,8.16 14.67,14.34 24.11,18.57 9.43,4.27 20.05,6.39 31.9,6.43 11.84,-0.04 22.46,-2.16 31.89,-6.43 9.44,-4.23 17.48,-10.41 24.16,-18.57 6.64,-8.17 11.72,-18.11 15.27,-29.83 3.51,-11.71 5.29,-25.08 5.33,-40.1 -0.08,-20.1 -3.17,-37.23 -9.31,-51.36 -6.17,-14.13 -14.93,-24.92 -26.35,-32.32 -11.42,-7.45 -25.09,-11.21 -40.99,-11.25 -15.91,0.04 -29.53,3.8 -40.95,11.25 -11.43,7.4 -20.23,18.19 -26.4,32.32 -6.14,14.13 -9.22,31.26 -9.31,51.36zm35.28 0l0 0c0.04,-21.24 3.56,-37.23 10.58,-48.02 7.06,-10.78 17.3,-16.2 30.8,-16.2 13.49,0 23.77,5.42 30.79,16.2 7.03,10.79 10.54,26.78 10.58,48.02 -0.04,21.07 -3.55,36.97 -10.58,47.68 -7.02,10.66 -17.3,16.03 -30.79,16.03 -13.5,0 -23.74,-5.37 -30.8,-16.03 -7.02,-10.71 -10.54,-26.61 -10.58,-47.68zm134.28 50.26l0 0c6,14.51 14.89,25.46 26.6,32.91 11.77,7.49 26.15,11.21 43.2,11.25 13.24,-0.04 24.53,-2.33 33.84,-6.77 9.35,-4.44 16.46,-10.78 21.41,-18.95 4.9,-8.16 7.4,-17.89 7.44,-29.1 0,-7.2 -0.93,-13.46 -2.87,-18.79 -1.91,-5.37 -4.74,-10.07 -8.59,-14.13 -3.81,-4.06 -8.59,-7.74 -14.34,-11.08 -5.76,-3.34 -12.44,-6.64 -20.14,-9.82 -7.32,-3.04 -13.88,-5.71 -19.67,-7.95 -5.84,-2.24 -10.79,-4.44 -14.89,-6.6 -4.1,-2.2 -7.24,-4.69 -9.39,-7.53 -2.16,-2.88 -3.26,-6.43 -3.26,-10.66 0.04,-6.05 2.2,-10.79 6.47,-14.25 4.27,-3.48 10.24,-5.25 17.9,-5.29 5.24,0 9.85,0.8 13.91,2.49 4.07,1.69 7.66,4.28 10.83,7.74 3.18,3.52 6.01,7.96 8.51,13.37l31.47 -11.42c-4.82,-13.37 -12.48,-23.39 -22.89,-30.16 -10.44,-6.77 -23.52,-10.2 -39.3,-10.2 -9.18,0.04 -17.43,1.27 -24.83,3.77 -7.36,2.45 -13.7,5.92 -18.95,10.4 -5.25,4.49 -9.31,9.82 -12.1,15.91 -2.83,6.13 -4.23,12.86 -4.27,20.18 0.04,8.8 1.86,16.62 5.54,23.52 3.68,6.9 9.01,12.61 16.03,17.09 4.06,2.58 8.46,4.95 13.12,7.07 4.69,2.11 9.64,4.14 14.8,6.09 5.16,1.9 10.49,3.89 16,5.88 6.34,2.32 11.5,4.69 15.56,7.1 4.06,2.42 7.03,5.12 8.97,8.13 1.95,3 2.88,6.56 2.88,10.66 0,4.69 -1.23,8.76 -3.6,12.27 -2.37,3.47 -5.79,6.17 -10.24,8.12 -4.44,1.95 -9.81,2.92 -16.11,2.96 -8.17,0.04 -15.32,-2.2 -21.37,-6.77 -6.05,-4.53 -11.46,-11.68 -16.2,-21.4l-31.47 13.96zm259.91 -13.46l0 0c-1.65,5.71 -4.14,10.58 -7.53,14.68 -3.34,4.06 -7.4,7.2 -12.09,9.39 -4.74,2.2 -9.95,3.3 -15.66,3.35 -13.15,0.04 -22.8,-5.21 -28.93,-15.74 -6.18,-10.53 -9.23,-26.44 -9.14,-47.72 0,-22.21 3.04,-38.83 9.22,-49.92 6.18,-11.08 15.53,-16.58 28.09,-16.58 8.38,0 15.27,2.28 20.69,6.77 5.41,4.52 9.26,11.25 11.55,20.13l31.98 -7.86c-3.64,-15.7 -10.7,-27.63 -21.28,-35.84 -10.58,-8.2 -24.2,-12.35 -40.91,-12.39 -15.78,0.04 -29.23,3.72 -40.31,11.08 -11.13,7.36 -19.59,18.11 -25.47,32.32 -5.84,14.17 -8.8,31.52 -8.84,52.04 0.04,31.26 6.17,54.78 18.4,70.6 12.22,15.87 30.29,23.78 54.19,23.82 11.68,-0.04 22.08,-1.95 31.18,-5.71 9.09,-3.81 16.71,-9.35 22.93,-16.67 6.22,-7.32 10.83,-16.29 13.92,-26.86l-31.99 -8.89zm48.23 -36.8l0 0c0.04,15.02 1.82,28.39 5.33,40.1 3.55,11.72 8.63,21.66 15.32,29.83 6.64,8.16 14.67,14.34 24.11,18.57 9.43,4.27 20.05,6.39 31.9,6.43 11.84,-0.04 22.46,-2.16 31.89,-6.43 9.44,-4.23 17.48,-10.41 24.16,-18.57 6.64,-8.17 11.72,-18.11 15.27,-29.83 3.51,-11.71 5.29,-25.08 5.33,-40.1 -0.08,-20.1 -3.17,-37.23 -9.31,-51.36 -6.17,-14.13 -14.93,-24.92 -26.35,-32.32 -11.42,-7.45 -25.09,-11.21 -40.99,-11.25 -15.91,0.04 -29.53,3.8 -40.95,11.25 -11.43,7.4 -20.23,18.19 -26.4,32.32 -6.14,14.13 -9.22,31.26 -9.31,51.36zm35.28 0l0 0c0.04,-21.24 3.56,-37.23 10.58,-48.02 7.06,-10.78 17.3,-16.2 30.8,-16.2 13.49,0 23.77,5.42 30.79,16.2 7.03,10.79 10.54,26.78 10.58,48.02 -0.04,21.07 -3.55,36.97 -10.58,47.68 -7.02,10.66 -17.3,16.03 -30.79,16.03 -13.5,0 -23.74,-5.37 -30.8,-16.03 -7.02,-10.71 -10.54,-26.61 -10.58,-47.68z"/>
     <path class="fil1" d="M2365.33 1978.75c5.12,16.25 13.11,28.47 24.03,36.68 10.91,8.21 24.53,12.31 40.95,12.31 11.63,-0.09 21.7,-2.2 30.2,-6.43 8.46,-4.23 15.02,-10.15 19.63,-17.77 4.61,-7.57 6.98,-16.41 7.03,-26.57 0,-7.06 -0.94,-13.24 -2.8,-18.57 -1.86,-5.29 -4.69,-9.98 -8.5,-14 -3.81,-4.06 -8.59,-7.7 -14.38,-10.96 -5.84,-3.21 -12.65,-6.34 -20.52,-9.26 -5.84,-2.16 -11.25,-4.15 -16.16,-5.92 -4.95,-1.78 -9.35,-3.52 -13.2,-5.25 -3.85,-1.73 -7.11,-3.6 -9.73,-5.58 -3.94,-3.18 -6.9,-6.56 -8.93,-10.24 -1.98,-3.64 -3,-7.7 -3,-12.1 0.04,-6.14 1.35,-11.42 3.98,-15.91 2.58,-4.44 6.3,-7.91 11.08,-10.36 4.82,-2.41 10.53,-3.64 17.17,-3.68 10.33,0 19,2.83 25.98,8.42 7.02,5.62 12.06,13.87 15.15,24.83l18.27 -5.33c-2.88,-9.73 -7.02,-17.94 -12.39,-24.62 -5.38,-6.69 -11.81,-11.72 -19.38,-15.15 -7.57,-3.42 -16.07,-5.16 -25.59,-5.16 -10.96,0.04 -20.48,2.12 -28.52,6.14 -8.03,4.06 -14.21,9.73 -18.61,17.04 -4.4,7.32 -6.64,15.91 -6.68,25.81 0,7.87 1.52,14.68 4.61,20.43 3.08,5.71 7.74,10.75 13.96,15.06 6.26,4.32 14.08,8.29 23.56,11.98 5.25,1.98 10.41,3.89 15.4,5.62 4.99,1.78 9.81,3.68 14.38,5.67 4.57,1.99 8.89,4.32 12.86,6.98 4.19,2.79 7.32,6.3 9.35,10.49 2.08,4.23 3.09,9.18 3.09,14.89 -0.04,6.39 -1.61,11.97 -4.7,16.76 -3.08,4.78 -7.48,8.5 -13.19,11.16 -5.72,2.67 -12.53,4.02 -20.44,4.07 -6.98,-0.05 -13.45,-1.57 -19.37,-4.57 -5.92,-3.01 -11.04,-7.32 -15.4,-12.95 -4.36,-5.63 -7.66,-12.4 -9.9,-20.31l-19.29 6.35zm159.4 45.94l0 0 20.05 0 0 -61.68 29.19 -35.53 55.08 97.21 23.61 0 -65.49 -112.95 57.37 -70.56 -22.34 0 -77.42 96.7 0 -96.7 -20.05 0 0 183.51zm156.86 0l0 0 19.55 0 0 -161.68 55.33 161.68 13.71 0 55.33 -161.68 0 161.68 19.54 0 0 -183.51 -29.44 0 -51.52 155.08 -51.28 -155.08 -31.22 0 0 183.51z"/>
     <g>
      <path class="fil2" d="M3043.08 1155.82c5.01,46.01 -51.4,116.24 -53.83,143.59 -2.74,30.95 37.61,67.68 76.24,27.42 38.63,-40.27 44.95,-78.47 89.87,-128.26 13.32,-14.77 28.59,-26.06 45.14,-35.39 52.15,-29.37 107.23,-50.76 134.37,-63.29 35.66,-16.46 55.11,-48.47 28.25,-81.91 -24.93,-31.04 -106.36,12.21 -150.36,-9.82 -16.89,-8.47 -27.81,-30.1 -32.94,-48.33 -12.35,-43.77 -3.33,-97 -5.65,-130 -3.02,-43.03 -101.06,-65.98 -89.61,17.01 5.89,42.72 6.19,70.86 -1,93.42 -5.15,16.16 -15.56,31.19 -26.8,43.44 -8.81,9.6 -20.39,18.88 -32.51,25.18 -53.91,27.98 -115.4,-15.18 -145.57,-4.99 -33.5,11.31 -37.91,55.44 -11.69,73.82 47.69,33.43 115.17,8.15 155.79,43.47 10.07,8.75 18.78,20.69 20.3,34.64z"/>
      <path class="fil2" d="M3025.25 832.72c31.89,18.43 41.06,64.35 20.49,102.56 -20.59,38.21 -63.12,54.23 -95.02,35.8 -31.89,-18.44 -41.06,-64.36 -20.48,-102.57 20.58,-38.21 63.12,-54.23 95.01,-35.79z"/>
     </g>
    </g>
   </g>
  </g>
 </g>
</svg>
