<?xml version="1.0" encoding="UTF-8"?>
<!DOCTYPE svg PUBLIC "-//W3C//DTD SVG 1.1//EN" "http://www.w3.org/Graphics/SVG/1.1/DTD/svg11.dtd">
<!-- Creator: CorelDRAW 2017 -->
<svg xmlns="http://www.w3.org/2000/svg" xml:space="preserve" width="54mm" height="28mm" version="1.1" style="shape-rendering:geometricPrecision; text-rendering:geometricPrecision; image-rendering:optimizeQuality; fill-rule:evenodd; clip-rule:evenodd"
viewBox="0 0 5400 2800"
 xmlns:xlink="http://www.w3.org/1999/xlink">
 <defs>
  <style type="text/css">
   <![CDATA[
    .fil1 {fill:#FEFEFE}
    .fil0 {fill:#B42322}
    .fil2 {fill:#2B2A29;fill-rule:nonzero}
   ]]>
  </style>
 </defs>
 <g id="Vrstva_x0020_1">
  <metadata id="CorelCorpID_0Corel-Layer"/>
  <g id="_2901479565456">
   <path class="fil0" d="M2699.99 428.54c536.5,0 971.44,434.93 971.44,971.46 0,536.51 -434.94,971.46 -971.44,971.46 -536.53,0 -971.45,-434.95 -971.45,-971.46 0,-536.53 434.92,-971.46 971.45,-971.46z"/>
   <path class="fil1" d="M2699.99 494.42c500.14,0 905.57,405.43 905.57,905.58 0,500.13 -405.43,905.57 -905.57,905.57 -500.16,0 -905.6,-405.44 -905.6,-905.57 0,-500.15 405.44,-905.58 905.6,-905.58z"/>
   <path class="fil0" d="M2699.99 745.63c-211.48,189.54 -124.88,111.94 -416.96,373.75 -22.42,20.08 -24.35,54.88 -4.23,77.28l0 0c20.08,22.42 54.86,24.33 77.28,4.23l59.5 -53.31 0 247.58c0,39.28 52.36,89.44 87.07,98.44 15.11,3.92 26.84,-12.06 26.84,-22.49l0 -425.64 115.77 -103.77 0 553.57c0,30.11 24.63,54.74 54.73,54.74l0 0c30.09,0 54.74,-24.63 54.74,-54.74l0 -553.57 115.73 103.77 0 425.64c0,10.43 11.73,26.41 26.85,22.49 34.72,-9 87.06,-59.16 87.06,-98.44l0 -247.58 59.52 53.31c22.4,20.1 57.2,18.19 77.27,-4.23l0 0c20.11,-22.4 18.19,-57.2 -4.22,-77.28 -292.07,-261.79 -205.49,-184.21 -416.95,-373.75z"/>
   <path class="fil0" d="M2699.99 572.09c41.86,0 75.79,33.95 75.79,75.82 0,41.87 -33.93,75.83 -75.79,75.83 -41.88,0 -75.82,-33.96 -75.82,-75.83 0,-41.87 33.94,-75.82 75.82,-75.82z"/>
   <path class="fil0" d="M2970.52 771.09c41.85,0 75.8,33.94 75.8,75.83 0,41.87 -33.95,75.8 -75.8,75.8 -41.87,0 -75.82,-33.93 -75.82,-75.8 0,-41.89 33.95,-75.83 75.82,-75.83z"/>
   <path class="fil0" d="M2429.43 771.09c41.89,0 75.83,33.94 75.83,75.83 0,41.87 -33.94,75.8 -75.83,75.8 -41.85,0 -75.78,-33.93 -75.78,-75.8 0,-41.89 33.93,-75.83 75.78,-75.83z"/>
   <path class="fil2" d="M2167.03 1791.42c6.87,2.18 21.34,5.42 37.42,5.42 28.21,0 39.06,-9.22 39.06,-36.15 0,-22.42 -11.21,-30.57 -29.67,-38.53l-8.47 -3.43c-9.05,-3.8 -14.67,-7.42 -14.67,-18.09 0,-9.39 5.96,-13.18 16.63,-13.18 4.34,0 8.49,0.72 12.68,1.44l0 13.2 18.63 0 0 -30.01c-7.06,-2.18 -19.9,-4.53 -32.93,-4.53 -22.58,0 -38.52,8.87 -38.52,34.18 0,21.32 10.67,29.11 28.23,36.71l9.39 3.79c12.11,4.88 15.2,11.03 15.2,19.17 0,11.57 -4.53,15.54 -18.1,15.54 -5.97,0 -11.37,-0.9 -16.26,-1.98l0 -13.74 -18.62 0 0 30.19zm187.84 3.8l0 -17.37 -10.11 0 -23.32 -108.66 -36.34 0 -23.5 108.66 -10.31 0 0 17.37 30.37 0 5.23 -27.48 31.65 0 5.44 27.48 30.89 0zm-52.43 -106.86l1.08 0 12.51 61.84 -26.22 0 12.63 -61.84zm109.04 -1.8l0 -17.37 -50.27 0 0 17.37 13.02 0 0 91.29 -13.02 0 0 17.37 83.18 0 0 -35.09 -19.72 0 0 15.2 -26.38 0 0 -88.77 13.19 0zm126.74 16.44l0 -33.81 -83.7 0 0 17.37 12.99 0 0 91.29 -12.99 0 0 17.37 84.6 0 0 -33.81 -18.62 0 0 13.92 -28.94 0 0 -35.98 34.01 0 0 -19.16 -34.01 0 0 -31.11 28.06 0 0 13.92 18.6 0zm16.64 88.42c6.88,2.18 21.34,5.42 37.43,5.42 28.19,0 39.06,-9.22 39.06,-36.15 0,-22.42 -11.21,-30.57 -29.67,-38.53l-8.49 -3.43c-9.05,-3.8 -14.63,-7.42 -14.63,-18.09 0,-9.39 5.94,-13.18 16.61,-13.18 4.33,0 8.49,0.72 12.68,1.44l0 13.2 18.63 0 0 -30.01c-7.08,-2.18 -19.92,-4.53 -32.93,-4.53 -22.58,0 -38.52,8.87 -38.52,34.18 0,21.32 10.68,29.11 28.23,36.71l9.37 3.79c12.15,4.88 15.22,11.03 15.22,19.17 0,11.57 -4.55,15.54 -18.08,15.54 -5.97,0 -11.39,-0.9 -16.28,-1.98l0 -13.74 -18.63 0 0 30.19zm147.35 3.8l0 -17.37 -16.97 0 0 -91.29 16.97 0 0 -17.37 -58.01 0 0 17.37 16.98 0 0 91.29 -16.98 0 0 17.37 58.01 0zm109.03 0l0 -17.37 -10.11 0 -23.32 -108.66 -36.34 0 -23.5 108.66 -10.33 0 0 17.37 30.39 0 5.24 -27.48 31.65 0 5.41 27.48 30.91 0zm-52.43 -106.86l1.08 0 12.51 61.84 -26.24 0 12.65 -61.84zm25.14 -56.23l-20.8 0 -12.45 27.83 16.61 0 16.64 -27.83zm78.3 163.09l0 -17.37 -9.59 0 0 -39.96c0,-18.62 -1.07,-40.12 -1.07,-40.12l0.7 0c0,0 5.43,18.06 9.59,29.47l24.97 67.98 30.55 0 0 -108.66 12.11 0 0 -17.37 -43.76 0 0 17.37 9.59 0 0 41.94c0,17.9 1.08,38.68 1.08,38.68l-0.73 0c0,0 -5.58,-18.62 -9.77,-29.83l-24.94 -68.16 -43.4 0 0 17.37 13.03 0 0 91.29 -13.03 0 0 17.37 44.67 0zm80.81 -3.8c6.89,2.18 21.36,5.42 37.43,5.42 28.23,0 39.06,-9.22 39.06,-36.15 0,-22.42 -11.21,-30.57 -29.64,-38.53l-8.49 -3.43c-9.05,-3.8 -14.66,-7.42 -14.66,-18.09 0,-9.39 5.95,-13.18 16.62,-13.18 4.36,0 8.5,0.72 12.67,1.44l0 13.2 18.64 0 0 -30.01c-7.05,-2.18 -19.9,-4.53 -32.93,-4.53 -22.6,0 -38.52,8.87 -38.52,34.18 0,21.32 10.67,29.11 28.21,36.71l9.41 3.79c12.11,4.88 15.19,11.03 15.19,19.17 0,11.57 -4.52,15.54 -18.08,15.54 -5.98,0 -11.37,-0.9 -16.27,-1.98l0 -13.74 -18.64 0 0 30.19zm188.78 -104.86l0 -17.37 -28.01 0 -23.7 53.87c-2.72,-0.36 -7.59,-1.08 -9.77,-1.26l0 -35.24 10.13 0 0 -17.37 -47.18 0 0 17.37 12.99 0 0 91.29 -12.99 0 0 17.37 47.18 0 0 -17.37 -10.13 0 0 -36.34c9.43,0.37 14.85,2.17 21.18,16.46l16.62 37.25 28.94 0 0 -17.37 -11.05 0 -12.29 -26.57c-4.89,-10.67 -8.31,-15.55 -13.19,-20.43l20.24 -44.29 11.03 0zm101.07 0l0 -17.37 -40.3 0 0 17.37 5.97 0 -6.71 14.08c-2.52,5.26 -4.88,10.85 -6.32,14.65l-0.54 0c-1.28,-3.62 -3.07,-8.13 -6.15,-15.01l-6.5 -13.72 6.14 0 0 -17.37 -13.93 0 0 0.36 -0.16 -0.36 -26.79 0 0 17.37 9.23 0 26.21 53.15 0 38.14 -13 0 0 17.37 50.09 0 0 -17.37 -13.05 0 0 -37.96 26.44 -53.33 9.37 0zm-23.3 -54.43l-20.8 0 -12.49 27.83 16.65 0 16.64 -27.83zm-935.38 225.32l0 -6.17 -14.88 0 -34.8 51.41c-2.36,-0.94 -6.96,-1.73 -9.95,-1.89l0 -43.35 10.88 0 0 -6.17 -30.03 0 0 6.17 11.86 0 0 97.92 -11.86 0 0 6.17 30.03 0 0 -6.17 -10.88 0 0 -48.09c9.3,0.48 13.91,2.86 21.34,13.76l21.21 29.58c5.99,8.71 9.16,11.39 15.98,11.39 4.08,0 7.58,-1.58 7.58,-1.58l-1.26 -5.69c0,0 -2.38,1.1 -4.59,1.1 -3.8,0 -6.17,-0.78 -12.04,-9.48l-20.71 -28.49c-5.38,-7.59 -7.59,-9.8 -11.39,-12.65l32.28 -47.77 11.23 0zm43.65 0l0 -6.17 -30.82 0 0 6.17 11.85 0 0 97.92 -11.85 0 0 6.17 63.42 0 0 -20.1 -6.49 0 0 13.62 -37.79 0 0 -97.61 11.68 0zm66.91 0l0 -6.17 -28.28 0 0 6.17 11.07 0 0 76.89c0,20.08 11.22,29.11 32.74,29.11 21.18,0 32.75,-9.03 32.75,-29.11l0 -76.89 11.05 0 0 -6.17 -18.32 0 0 1.26 -0.18 -1.26 -9.95 0 0 6.17 10.13 0 0 76.56c0,15.68 -8.1,22.94 -25.48,22.94 -17.58,0 -25.46,-7.26 -25.46,-22.94l0 -76.56 9.93 0zm110.77 104.09c20.69,0 34.17,-7.91 34.17,-30.21 0,-18.19 -9.34,-26.11 -21.99,-27.85 11.37,-2.05 17.69,-9.48 17.69,-24.2 0,-17.72 -8.06,-28 -32.89,-28l-36.69 0 0 6.17 11.86 0 0 97.92 -11.86 0 0 6.17 39.71 0zm-20.57 -6.48l0 -47.62 21.02 0c19,0 26.43,7.28 26.43,23.89 0,18.82 -11.55,23.73 -27.06,23.73l-20.39 0zm0 -54.1l0 -43.2 17.22 0c19.79,0 25.97,7.12 25.97,21.36 0,15.97 -6.82,21.84 -24.69,21.84l-18.5 0zm134.28 60.58l0 -6.17 -11.39 0 4.29 -68.8c1.11,-17.26 1.11,-28.65 1.11,-28.65l0.63 0c0,0 3.78,11.08 7.11,19.94l24.83 64.23 7.59 0 24.83 -64.39c3.49,-9.81 6.84,-19.78 6.84,-19.78l0.63 0c0,0 0.14,11.71 1.1,28.65l3.94 68.8 -11.07 0 0 6.17 29.89 0 0 -6.17 -11.68 0 -5.72 -97.92 11.73 0 0 -6.17 -23.41 0 -24.23 64.07c-3.3,9.02 -6.32,18.83 -6.32,18.83l-0.47 0c0,0 -2.53,-9.18 -6.31,-18.99l-24.87 -63.91 -23.08 0 0 6.17 11.53 0 -5.99 97.92 -11.72 0 0 6.17 30.21 0zm133.85 -104.09l0 -6.17 -30.85 0 0 6.17 11.85 0 0 97.92 -11.85 0 0 6.17 63.42 0 0 -20.1 -6.46 0 0 13.62 -37.82 0 0 -97.61 11.71 0zm127.5 104.09l0 -6.17 -9.32 0 -29.6 -104.09 -10.9 0 -29.13 104.09 -9.3 0 0 6.17 14.84 0 8.06 -29.9 41.92 0 8.23 29.9 15.2 0zm-44.6 -103.92l0.32 0 19.15 67.85 -38.47 0 19 -67.85zm13.11 -35.13l-7.57 0 -9.02 20.73 6.79 0 9.8 -20.73zm65.03 139.05c36.69,0 50.15,-5.7 50.15,-55.36 0,-49.05 -12.99,-54.9 -49.05,-54.9l-27.35 0 0 6.17 11.86 0 0 97.92 -11.86 0 0 6.17 26.25 0zm-7.11 -6.48l0 -97.3 8.21 0c30.86,0 41.78,2.7 41.78,48.72 0,45.09 -11.55,48.58 -42.56,48.58l-7.43 0zm140.17 -83.68l0 -20.1 -66.92 0 0 6.17 11.86 0 0 97.92 -11.86 0 0 6.17 68.34 0 0 -20.1 -6.64 0 0 13.62 -42.55 0 0 -47.62 34.96 0 0 -6.48 -34.96 0 0 -43.2 41.27 0 0 13.62 6.5 0zm26.39 0l0 -13.62 39.41 0 -49.84 100.62 0 3.16 60.58 0 0 -20.1 -6.64 0 0 13.62 -44.42 0 49.64 -100.61 0 -3.17 -55.37 0 0 20.1 6.64 0zm19.78 -28.16l3.81 0 18.68 -20.73 -7.29 0 -13.13 14.7 -13.14 -14.7 -7.43 0 18.5 20.73zm111.86 28.16l0 -20.1 -66.92 0 0 6.17 11.86 0 0 97.92 -11.86 0 0 6.17 68.32 0 0 -20.1 -6.62 0 0 13.62 -42.55 0 0 -47.62 34.94 0 0 -6.48 -34.94 0 0 -43.2 41.26 0 0 13.62 6.51 0zm-836.78 250.89l0 -6.17 -11.87 0 0 -40.64 19.79 0c23.55,0 33.84,-13.46 33.84,-32.12 0,-24.06 -10.13,-31.33 -32.92,-31.33l-39.86 0 0 6.17 11.86 0 0 97.92 -11.86 0 0 6.17 31.02 0zm-11.87 -53.31l0 -50.47 20.71 0c18.19,0 25.65,5.24 25.65,24.69 0,18.66 -9.68,25.78 -26.57,25.78l-19.79 0zm143.96 53.31l0 -6.17 -9.34 0 -29.58 -104.09 -10.91 0 -29.13 104.09 -9.3 0 0 6.17 14.85 0 8.06 -29.9 41.94 0 8.2 29.9 15.21 0zm-44.61 -103.92l0.33 0 19.14 67.85 -38.47 0 19 -67.85zm81.94 103.92l0 -6.17 -10.9 0 0 -41.29 20.24 0c12.63,0 15.98,5.7 19.45,17.88l4.73 15.82c3.17,10.76 6.01,14.23 13.61,14.23 4.3,0 7.61,-1.58 7.61,-1.58l-1.28 -5.85c0,0 -2.66,1.12 -4.91,1.12 -4.41,0 -5.85,-2.22 -8.06,-9.97l-4.74 -16.14c-2.86,-9.5 -6.65,-16.3 -13.29,-18.52 11.85,-2.05 20.24,-10.76 20.24,-28.95 0,-23.87 -9.95,-30.84 -32.73,-30.84l-40.02 0 0 6.17 11.86 0 0 97.92 -11.86 0 0 6.17 30.05 0zm-10.9 -53.94l0 -49.84 20.69 0c18.19,0 25.66,4.91 25.66,24.22 0,18.33 -8.39,25.62 -25.16,25.62l-21.19 0zm100.13 53.94c36.69,0 50.15,-5.7 50.15,-55.36 0,-49.05 -12.98,-54.9 -49.05,-54.9l-27.35 0 0 6.17 11.85 0 0 97.92 -11.85 0 0 6.17 26.25 0zm-7.11 -6.47l0 -97.31 8.21 0c30.85,0 41.78,2.7 41.78,48.72 0,45.1 -11.56,48.59 -42.56,48.59l-7.43 0zm99.63 -97.62l0 -6.17 -28.3 0 0 6.17 11.08 0 0 76.89c0,20.08 11.21,29.11 32.75,29.11 21.19,0 32.74,-9.03 32.74,-29.11l0 -76.89 11.07 0 0 -6.17 -18.35 0 0 1.26 -0.15 -1.26 -9.97 0 0 6.17 10.12 0 0 76.56c0,15.68 -8.06,22.95 -25.46,22.95 -17.56,0 -25.46,-7.27 -25.46,-22.95l0 -76.56 9.93 0zm110.75 104.09c20.71,0 34.16,-7.91 34.16,-30.21 0,-18.19 -9.33,-26.1 -21.98,-27.85 11.4,-2.05 17.72,-9.48 17.72,-24.2 0,-17.72 -8.06,-28 -32.91,-28l-36.71 0 0 6.17 11.86 0 0 97.92 -11.86 0 0 6.17 39.72 0zm-20.57 -6.47l0 -47.63 21.03 0c19,0 26.42,7.29 26.42,23.89 0,18.82 -11.54,23.74 -27.03,23.74l-20.42 0zm0 -54.11l0 -43.2 17.25 0c19.76,0 25.95,7.13 25.95,21.36 0,15.98 -6.82,21.84 -24.7,21.84l-18.5 0zm106.45 60.58l0 -6.17 -15.96 0 0 -97.92 15.96 0 0 -6.17 -39.07 0 0 6.17 15.84 0 0 97.92 -15.84 0 0 6.17 39.07 0zm73.28 -89.69l0 -19.15c-3.35,-0.95 -12.18,-2.84 -22.63,-2.84 -21.67,0 -35.59,8.06 -35.59,57.42 0,46.04 12.18,55.68 35.59,55.68 10.58,0 21.17,-2.68 23.1,-3.32l0 -18.82 -6.64 0 0 13.92c-4.59,0.79 -10.78,1.75 -16.46,1.75 -19.15,0 -28.31,-8.39 -28.31,-50.01 0,-44.28 10.73,-50.14 28.31,-50.14 5.86,0 11.22,0.63 15.96,1.58l0 13.93 6.67 0zm83.69 -0.47l0 -20.1 -66.92 0 0 6.17 11.86 0 0 97.92 -11.86 0 0 6.17 68.34 0 0 -20.09 -6.64 0 0 13.62 -42.56 0 0 -47.63 34.95 0 0 -6.48 -34.95 0 0 -43.2 41.26 0 0 13.62 6.52 0z"/>
  </g>
 </g>
</svg>
