<?xml version="1.0" encoding="UTF-8"?>
<!DOCTYPE svg PUBLIC "-//W3C//DTD SVG 1.1//EN" "http://www.w3.org/Graphics/SVG/1.1/DTD/svg11.dtd">
<!-- Creator: CorelDRAW 2017 -->
<svg xmlns="http://www.w3.org/2000/svg" xml:space="preserve" width="54mm" height="28mm" version="1.1" style="shape-rendering:geometricPrecision; text-rendering:geometricPrecision; image-rendering:optimizeQuality; fill-rule:evenodd; clip-rule:evenodd"
viewBox="0 0 5400 2800"
 xmlns:xlink="http://www.w3.org/1999/xlink">
 <defs>
  <style type="text/css">
   <![CDATA[
    .fil1 {fill:#FEFEFE}
    .fil0 {fill:#B42322}
    .fil2 {fill:#2B2A29;fill-rule:nonzero}
   ]]>
  </style>
 </defs>
 <g id="Vrstva_x0020_1">
  <metadata id="CorelCorpID_0Corel-Layer"/>
  <g id="_2901479558896">
   <path class="fil0" d="M2688.73 426.9c356.4,0 645.32,288.92 645.32,645.32 0,356.39 -288.92,645.3 -645.32,645.3 -356.4,0 -645.32,-288.91 -645.32,-645.3 0,-356.4 288.92,-645.32 645.32,-645.32z"/>
   <path class="fil1" d="M2688.73 743.99c-211.47,189.54 -124.87,111.94 -416.97,373.75 -22.4,20.08 -24.33,54.88 -4.21,77.3l0 0c20.06,22.4 54.84,24.31 77.26,4.21l59.52 -53.31 0 247.58c0,39.28 52.34,89.44 87.05,98.44 15.14,3.92 26.87,-12.06 26.87,-22.49l0 -425.64 115.73 -103.77 0 553.57c0,30.1 24.65,54.74 54.75,54.74l0 0c30.1,0 54.73,-24.64 54.73,-54.74l0 -553.57 115.75 103.77 0 425.64c0,10.43 11.72,26.41 26.85,22.49 34.71,-9 87.07,-59.16 87.07,-98.44l0 -247.58 59.5 53.31c22.42,20.1 57.2,18.19 77.28,-4.21l0 0c20.11,-22.42 18.19,-57.2 -4.23,-77.3 -292.08,-261.8 -205.48,-184.21 -416.95,-373.75z"/>
   <path class="fil1" d="M2688.73 570.45c41.87,0 75.8,33.95 75.8,75.82 0,41.87 -33.93,75.82 -75.8,75.82 -41.87,0 -75.8,-33.95 -75.8,-75.82 0,-41.87 33.93,-75.82 75.8,-75.82z"/>
   <path class="fil1" d="M2959.27 769.45c41.87,0 75.79,33.94 75.79,75.82 0,41.87 -33.92,75.81 -75.79,75.81 -41.89,0 -75.82,-33.94 -75.82,-75.81 0,-41.88 33.93,-75.82 75.82,-75.82z"/>
   <path class="fil1" d="M2418.19 769.45c41.87,0 75.82,33.94 75.82,75.82 0,41.87 -33.95,75.81 -75.82,75.81 -41.85,0 -75.81,-33.94 -75.81,-75.81 0,-41.88 33.96,-75.82 75.81,-75.82z"/>
   <path class="fil2" d="M1935.98 2061.71c12.41,3.92 38.61,9.82 67.72,9.82 51.08,0 70.71,-16.7 70.71,-65.46 0,-40.59 -20.31,-55.31 -53.67,-69.72l-15.4 -6.21c-16.36,-6.87 -26.49,-13.42 -26.49,-32.73 0,-17.02 10.8,-23.89 30.09,-23.89 7.88,0 15.4,1.31 22.92,2.61l0 23.89 33.72 0 0 -54.32c-12.76,-3.94 -36,-8.19 -59.59,-8.19 -40.9,0 -69.69,16.03 -69.69,61.86 0,38.62 19.29,52.69 51.06,66.43l16.99 6.88c21.95,8.83 27.51,19.97 27.51,34.69 0,20.96 -8.17,28.16 -32.75,28.16 -10.77,0 -20.6,-1.64 -29.45,-3.6l0 -24.89 -33.68 0 0 54.67zm340.05 6.87l0 -31.42 -18.36 0 -42.21 -196.7 -65.76 0 -42.56 196.7 -18.67 0 0 31.42 55 0 9.5 -49.75 57.26 0 9.84 49.75 55.96 0zm-94.92 -193.43l1.96 0 22.57 111.94 -47.45 0 22.92 -111.94zm197.33 -3.27l0 -31.42 -90.97 0 0 31.42 23.57 0 0 165.28 -23.57 0 0 31.42 150.56 0 0 -63.5 -35.68 0 0 27.49 -47.79 0 0 -160.69 23.88 0zm229.45 29.78l0 -61.2 -151.54 0 0 31.42 23.57 0 0 165.28 -23.57 0 0 31.42 153.17 0 0 -61.21 -33.7 0 0 25.2 -52.37 0 0 -65.13 61.51 0 0 -34.69 -61.51 0 0 -56.3 50.74 0 0 25.21 33.7 0zm30.1 160.05c12.45,3.92 38.61,9.82 67.76,9.82 51.05,0 70.7,-16.7 70.7,-65.46 0,-40.59 -20.32,-55.31 -53.7,-69.72l-15.36 -6.21c-16.36,-6.87 -26.52,-13.42 -26.52,-32.73 0,-17.02 10.81,-23.89 30.1,-23.89 7.86,0 15.38,1.31 22.92,2.61l0 23.89 33.7 0 0 -54.32c-12.75,-3.94 -35.98,-8.19 -59.55,-8.19 -40.92,0 -69.73,16.03 -69.73,61.86 0,38.62 19.33,52.69 51.09,66.43l17 6.88c21.91,8.83 27.49,19.97 27.49,34.69 0,20.96 -8.18,28.16 -32.73,28.16 -10.79,0 -20.64,-1.64 -29.47,-3.6l0 -24.89 -33.7 0 0 54.67zm266.74 6.87l0 -31.42 -30.75 0 0 -165.28 30.75 0 0 -31.42 -105.07 0 0 31.42 30.78 0 0 165.28 -30.78 0 0 31.42 105.07 0zm197.35 0l0 -31.42 -18.32 0 -42.21 -196.7 -65.8 0 -42.55 196.7 -18.64 0 0 31.42 54.97 0 9.5 -49.75 57.29 0 9.8 49.75 55.96 0zm-94.91 -193.43l1.96 0 22.6 111.94 -47.45 0 22.89 -111.94zm45.48 -101.78l-37.64 0 -22.56 50.4 30.1 0 30.1 -50.4zm141.72 295.21l0 -31.42 -17.35 0 0 -72.33c0,-33.72 -1.96,-72.65 -1.96,-72.65l1.31 0c0,0 9.83,32.72 17.37,53.34l45.16 123.06 55.31 0 0 -196.7 21.92 0 0 -31.42 -79.19 0 0 31.42 17.34 0 0 75.93c0,32.41 1.96,70.05 1.96,70.05l-1.31 0c0,0 -10.13,-33.72 -17.69,-54.02l-45.16 -123.38 -78.54 0 0 31.42 23.56 0 0 165.28 -23.56 0 0 31.42 80.83 0zm247.44 0l0 -31.42 -30.74 0 0 -165.28 30.74 0 0 -31.42 -105.05 0 0 31.42 30.77 0 0 165.28 -30.77 0 0 31.42 105.05 0zm-1459.34 301.09c66.45,0 90.78,-10.31 90.78,-100.24 0,-88.77 -23.47,-99.35 -88.76,-99.35l-49.56 0 0 11.15 21.51 0 0 177.27 -21.51 0 0 11.17 47.54 0zm-12.86 -11.75l0 -176.11 14.88 0c55.85,0 75.58,4.87 75.58,88.2 0,81.62 -20.9,87.91 -77.02,87.91l-13.44 0zm137.75 -88.2c0,70.46 15.46,103.39 64.13,103.39 48.97,0 65.29,-32.93 65.29,-103.39 0,-70.15 -15.47,-103.08 -64.12,-103.08 -48.98,0 -65.3,32.93 -65.3,103.08zm64.72 91.64c-39.24,0 -51.55,-27.48 -51.55,-91.64 0,-63.86 12.31,-91.35 51.55,-91.35 39.23,0 51.53,27.49 51.53,91.35 0,64.16 -12.3,91.64 -51.53,91.64zm147.47 8.31l0 -11.17 -19.47 0 0 -121.99c0,-27.21 -0.57,-53.84 -0.57,-53.84l0.57 0c0,0 12,26.92 20.03,43.81l69.61 143.19 20.05 0 0 -188.44 20.02 0 0 -11.15 -52.41 0 0 11.15 19.77 0 0 125.72c0,24.34 0.29,50.42 0.29,50.42l-0.59 0c0,0 -11.73,-26.36 -20.05,-43.84l-69.86 -143.45 -41.24 0 0 11.15 21.48 0 0 177.27 -21.48 0 0 11.17 53.85 0zm278.93 0l0 -11.17 -16.9 0 -53.55 -188.42 -19.77 0 -52.68 188.42 -16.9 0 0 11.17 26.92 0 14.59 -54.12 75.91 0 14.9 54.12 27.48 0zm-80.76 -188.15l0.56 0 34.67 122.86 -69.61 0 34.38 -122.86zm236.25 188.15c37.52,0 61.88,-14.32 61.88,-54.7 0,-32.92 -16.91,-47.25 -39.82,-50.39 20.6,-3.73 32.08,-17.19 32.08,-43.82 0,-32.08 -14.63,-50.68 -59.59,-50.68l-66.41 0 0 11.15 21.46 0 0 177.27 -21.46 0 0 11.17 71.86 0zm-37.23 -11.75l0 -86.18 38.1 0c34.36,0 47.84,13.17 47.84,43.23 0,34.08 -20.91,42.95 -48.98,42.95l-36.96 0zm0 -97.93l0 -78.18 31.22 0c35.81,0 46.98,12.88 46.98,38.66 0,28.92 -12.34,39.52 -44.69,39.52l-33.51 0zm128.6 9.73c0,70.46 15.46,103.39 64.13,103.39 48.97,0 65.29,-32.93 65.29,-103.39 0,-70.15 -15.47,-103.08 -64.12,-103.08 -48.98,0 -65.3,32.93 -65.3,103.08zm64.72 91.64c-39.24,0 -51.55,-27.48 -51.55,-91.64 0,-63.86 12.31,-91.35 51.55,-91.35 39.21,0 51.53,27.49 51.53,91.35 0,64.16 -12.32,91.64 -51.53,91.64zm97.34 4.01c7.47,2.31 26.34,6.88 52.43,6.88 40.94,0 54.7,-14.33 54.7,-51.27 0,-34.92 -21.5,-48.67 -43.56,-58.42l-14.86 -6.59c-22.37,-9.73 -35.23,-18.02 -35.23,-44.38 0,-21.76 12.59,-32.36 40.36,-32.36 12.32,0 23.19,2 32.1,3.73l0 24.06 12 0 0 -34.08c-7.99,-2.31 -28.07,-5.45 -45.22,-5.45 -33.81,0 -52.41,13.45 -52.41,44.1 0,33.23 17.18,44.67 43.22,56.13l13.17 5.73c22.94,10.02 37.23,22.63 37.23,47.53 0,30.07 -10.58,39.53 -43.53,39.53 -16.59,0 -29.49,-2.3 -38.36,-4.58l0 -24.64 -12.04 0 0 34.08zm278.95 -184.14l0 -11.15 -26.94 0 -63.01 93.06c-4.26,-1.71 -12.59,-3.15 -18.03,-3.44l0 -78.47 19.76 0 0 -11.15 -54.39 0 0 11.15 21.46 0 0 177.27 -21.46 0 0 11.17 54.39 0 0 -11.17 -19.76 0 0 -87.05c16.91,0.86 25.21,5.14 38.67,24.92l38.36 53.55c10.89,15.74 16.62,20.62 28.93,20.62 7.45,0 13.77,-2.86 13.77,-2.86l-2.32 -10.31c0,0 -4.29,1.99 -8.3,1.99 -6.87,0 -11.17,-1.44 -21.77,-17.18l-37.52 -51.55c-9.71,-13.75 -13.72,-17.76 -20.6,-22.91l58.43 -86.49 20.33 0zm178.7 188.44l0 -11.17 -16.93 0 -53.55 -188.42 -19.73 0 -52.72 188.42 -16.9 0 0 11.17 26.96 0 14.59 -54.12 75.87 0 14.9 54.12 27.51 0zm-80.77 -188.15l0.58 0 34.63 122.86 -69.57 0 34.36 -122.86z"/>
  </g>
 </g>
</svg>
