<?xml version="1.0" encoding="UTF-8"?>
<!DOCTYPE svg PUBLIC "-//W3C//DTD SVG 1.1//EN" "http://www.w3.org/Graphics/SVG/1.1/DTD/svg11.dtd">
<!-- Creator: CorelDRAW 2017 -->
<svg xmlns="http://www.w3.org/2000/svg" xml:space="preserve" width="150mm" height="125mm" version="1.1" style="shape-rendering:geometricPrecision; text-rendering:geometricPrecision; image-rendering:optimizeQuality; fill-rule:evenodd; clip-rule:evenodd"
viewBox="0 0 15000 12500"
 xmlns:xlink="http://www.w3.org/1999/xlink">
 <defs>
  <style type="text/css">
   <![CDATA[
    .str0 {stroke:#FEFEFE;stroke-width:7.62;stroke-miterlimit:22.9256}
    .fil1 {fill:#7F222B}
    .fil0 {fill:#22B6D3}
    .fil2 {fill:#FEFEFE;fill-rule:nonzero}
   ]]>
  </style>
 </defs>
 <g id="Vrstva_x0020_1">
  <metadata id="CorelCorpID_0Corel-Layer"/>
  <g id="_2901843681840">
   <path class="fil0" d="M938.58 12159.72c-36.83,-20.55 -72.91,-43.09 -108.18,-67.68 -27.12,-18.87 -53.3,-38.68 -78.56,-59.27 -259.66,-211.65 -431.23,-514.24 -486.61,-844.5l-3.11 -18.44c-19.81,-112.18 -25.14,-223.45 -17.54,-336.79 0,-0.07 0.03,-0.07 0.03,-0.1 -2.89,-48.45 -2.6,-96.45 0.59,-146.66 -2.93,-46.15 -2.99,-91.82 -0.49,-141.64l4.51 -89.86c0.59,-11.72 1.24,-21.73 2.15,-33.45l3.21 -41.41 3.61 -72.78c0.84,-17.02 1.95,-33 3.31,-48.81l-1.1 -13.81c-1.27,-16.69 -2.08,-30.91 -2.8,-47.61l-0.32 -7.89c-12.9,-81.48 -18.61,-161.15 -18.61,-245.13 0,-32.51 0.94,-61.32 3.25,-91.98 -2.31,-30.59 -3.25,-59.66 -3.25,-92.2 0,-73.14 4.03,-144.36 13.48,-215.32 -1.85,-54.27 0.09,-108.09 5.81,-164.37 -4.03,-40.66 -5.85,-79.89 -5.85,-123.48 0,-9.32 0,-18.7 0,-28.02 -6.26,-51.16 -8.99,-98.09 -8.99,-151.67l0 -31.44c0,-10.49 0,-20.95 0,-31.44 0,-41.96 1.72,-80.22 5.39,-118.96 -15.66,-127.31 -13.38,-255.66 4.12,-384.85 0.1,-4 0.26,-8.06 0.46,-12.31l0 -0.85c-6.33,-64.4 -7.31,-126.66 -3.28,-195.64l3.12 -53.39c1.33,-38.26 3.93,-75.87 8.18,-113.25l0 -176.44c0,-219.45 44.88,-427.04 143.55,-624.57 156.11,-312.39 420.12,-549.28 740.51,-675.26 -48.95,-49.27 -87.79,-95.03 -128.71,-151.7l-48.46 -67.03c-37.7,-38.81 -73.3,-80.77 -108.24,-127.38 -65.51,-87.16 -122.02,-176.28 -170.86,-273.91l-2.02 -4.12c-57.25,-85.45 -106,-173.49 -146.66,-270.96l-10.85 -25.36c-30.66,-57.03 -57.87,-115.07 -81.61,-174.31 -35.83,-65.53 -65.64,-134.87 -91.17,-211.36l-9.22 -27.76c-34.46,-88.05 -59.53,-178.11 -74.67,-270.41l-5.84 -29.13c-42.45,-124.35 -69.57,-246.63 -78.86,-378.1 -22.92,-116.56 -32.12,-235.13 -32.12,-360.04l0 -31.53c-5.29,-88.57 -2.89,-176.77 6.92,-264.27 -2.99,-84.73 3.25,-167.38 18.61,-255.04 -8.31,-102.53 -5.32,-191.09 10,-293.04l16.67 -110.91 1.33 -13.64c8.9,-120.06 33.77,-236.36 73.91,-349.87l10.62 -37.12c32.81,-121.47 79.02,-234.03 140.37,-341.69l3.18 -9.19 18.71 -56.22c22.77,-68.17 46.77,-124.65 80.09,-188.27l52.29 -99.87 14.12 -33.74c23.91,-57.42 47.71,-104.97 79.31,-158.52l83.76 -141.73 27.25 -49.01c53.94,-97.1 111.2,-175.89 185.21,-254.03l33.91 -43.1c6.27,-7.96 11.85,-14.94 17.96,-22.41 57.58,-78.46 122.92,-149.94 196.78,-219.22 14.29,-13.9 28.06,-26.63 43.81,-40.53l91.16 -80.48 71.58 -71.45c18.45,-18.48 34.62,-33.74 54.14,-51.11l58.46 -51.94 71.12 -64.01c48.07,-43.22 91.69,-77.13 145.47,-112.98l35.79 -23.94c87.04,-62.94 180.15,-117.14 277.68,-162.09 76.09,-58.75 157.83,-111.46 244.32,-159.53 49.82,-27.73 96.16,-49.88 145.82,-69.6 54.72,-24 110.97,-44.75 170.08,-63.49 40.89,-13.45 77.3,-23.38 120.01,-32.87l63.62 -14.12 44.07 -14.68c60.34,-20.17 112.99,-33.62 175.57,-44.98l23.77 -4.32 7.34 -1.98c188.82,-75.12 391.09,-113.87 595.37,-113.87l14.81 0 7.99 -0.81c3.93,-0.39 7.21,-0.68 11.11,-1.07l234.41 -21.31c40.5,-3.67 75.19,-5.26 115.85,-5.26l94.31 0c101.53,-15.52 192.1,-18.48 296.19,-9.81l170.7 14.2c26.34,2.2 48.82,4.77 74.99,8.5l3.05 0.46c118.51,10.91 235.4,36.02 348.48,73.75 8.74,2.93 16.27,5.56 25.01,8.68l99.57 35.56c1.14,0.39 2.21,0.78 3.35,1.2 98.73,8.15 191.26,27.77 291.03,61.06l141.27 47.09c86.32,25.95 168.75,59.17 247.99,100.74l126.53 57.55c46.28,21.01 84.64,41.21 128.26,67.33l34.29 20.55c28.42,15.72 56.32,32.55 83.6,50.41 58.85,23.12 108.8,47.12 164.56,78.95l49.82 28.45c15.36,8.77 28.32,16.53 43.32,25.95 101.78,63.59 195.94,138.15 280.99,221.88 239.2,-183.27 530.9,-294.01 840.44,-307.78l202.33 -17.87c39.24,-3.44 72.82,-4.93 112.28,-4.93 21.3,0 42.64,0 64.01,0 49.4,0 92.01,2.34 140.43,7.76 94.38,-6.14 188.04,-4.29 284.92,7.76 76.32,-4.29 149.78,-1.14 230.62,9.45l128.48 16.73c110.61,10.52 217.14,34.36 325.09,69.43 471.96,150.73 813.91,509.08 969.31,974.9 15.46,46.24 28.06,92.23 38.26,138.28 67.78,29.36 133.61,63.56 197.42,102.7l26.12 14.9c8.83,5.07 17.6,10.2 26.3,15.43 125.33,-73.37 255.4,-122.11 406.55,-163.49 14.22,-4.06 26.34,-7.34 39.46,-10.55 115.16,-45.28 233.77,-73.63 361.56,-91.69 23.03,-3.89 45.44,-6.98 70.35,-9.74l2.4 -0.26c112.18,-28.48 227.24,-44.33 344.49,-48.85 120.19,-27.67 237.66,-36.04 366.69,-26.76 66.13,-4.67 123.97,-4.35 190.9,1.04l177.81 14.26c49.6,3.93 91.62,9.68 140.43,19.16l220.52 42.64c51.45,9.94 95.62,21.15 144.04,36.64 29.84,8.7 59.43,17.34 89.05,27.18 40.66,13.61 74.7,26.83 113.93,44.24l42.09 18.73 58.85 23.55c114.32,41.34 220.35,92.98 323.11,161.41l21.37 14.23c5.55,3.73 10.26,6.91 15.79,10.68l105.9 72.88 34.75 23.12c42.77,28.48 82.43,58.56 121.79,90.52 31.89,23.74 61.64,48.45 93.24,77.16l58.07 52.78 21.7 18.12c13.51,11.24 25.91,21.92 37.9,32.77 72.39,62.87 137.15,130.94 195.18,206.36l75.45 92.85c20.2,24.91 36.66,46.7 55.05,73.01l29.58 42.22 56.41 71.84c21.28,27.11 38.52,50.89 51.58,70.6 18.74,26.73 37.77,52.87 55.92,80.09 44.46,66.54 77.3,126.69 109.19,200.12l71.16 163.59c10.91,25.23 19.65,46.99 29.07,72.84l28.38 78.21c21.01,57.87 35.56,108.44 48.49,168.68l21.37 99.61c2.43,11.53 4.54,22.08 6.59,32.83 27.15,127.35 40.86,248.42 37.41,373.26l2.86 23.06c6.98,55.24 9.91,102.73 9.91,158.42l0 77.43c20.62,146.86 22.96,295.21 4.32,444.06 -6.73,53.49 -15.17,98.76 -28.26,151.11l-8.05 32.25c-20.63,110.39 -53.04,217.66 -96.1,320.48 0.06,4.39 0.06,8.81 0.06,13.22l0 221.14 5.88 135.78c0.03,1.56 0.16,2.86 0.2,4.45l5.65 140.01 3.28 33.52c4.45,44.2 6.33,82.1 6.33,126.59l0 149.4c0,72.06 -5.81,142.44 -16.66,212.85 -0.13,0.91 -0.23,1.82 -0.36,2.7l-0.71 5.55c-15.2,216.95 -80.8,412.75 -198.11,590.89 34.75,44.42 66.9,90.74 96.13,138.74 123.93,201.58 187.13,424.41 195.77,659.86l2.96 48.53c1.75,27.83 2.5,51.54 2.5,79.4l0 130.27c0,64.07 -4.52,124.94 -12.7,185.73 3.6,82.14 0.45,164.5 -9.45,246.28 -1.69,37.47 -4.74,74.95 -9.16,112.79 -0.06,20.23 -0.65,40.92 -1.75,62.26l-4.45 89.86c-1.53,30.11 -4.03,59.92 -7.54,89.77 -0.61,62.87 -5.39,123.83 -14,184.69l-0.42 6.47c-1.36,35.79 -3.93,71.19 -7.95,106.36l0 20.91c0,55.44 -2.89,102.76 -9.75,157.81l-3.15 25.2 -0.32 5.65 2.69 52.71c3.97,78.82 1.46,148.49 -8.21,223.28 0.58,15.36 0.78,30.85 0.78,47.48l0 80.87c0,41.96 -1.53,83.11 -4.78,123.9 43.62,105.65 74.08,215.84 90.87,334.16 3.15,22.21 5.69,43.35 7.63,64.14 11.53,108.15 11.24,216.29 -0.84,324.44 -2.92,62.33 -10.39,120.78 -23.35,185.64l-9 44.92c-1.2,5.87 -2.21,10.94 -3.44,16.82l-13.48 62.91c-5.68,26.24 -11.14,48.45 -18.28,74.27l-22.51 80.87c-5.97,21.5 -11.5,39.72 -18.54,60.89 -7.89,23.84 -16.44,47.26 -25.46,70.61 -16.63,46.08 -34.63,87.69 -57.65,133.67l-40.24 80.55c-111.14,222.43 -270.47,405.34 -472.28,549.38 -9.87,7.04 -18.58,13.12 -28.32,19.65 -70.57,50.69 -145.92,94.21 -226.04,131.36 -14,6.63 -27.87,12.87 -43.19,19.46l-31.47 13.48c-73.18,31.3 -138.03,52.45 -215.55,70.37l-116.82 26.93c-76.19,17.6 -145.08,27.44 -219,31.05 -47.57,4.19 -95.58,6.1 -144.36,6.1 -40.56,0 -75.6,-1.59 -115.06,-5.2 -95.68,-2.69 -188.56,-12.95 -282.78,-34.06l-14.22 -3.06c-81.62,-14.09 -162.16,-35.56 -239.65,-63.91l-12.57 -4.19c-82.65,-27.54 -151.05,-58 -226.43,-100.81 -91.1,-46.96 -176.09,-102.85 -254.68,-167.09 -183.89,161.89 -392.72,257.93 -642.3,296.22l-58.36 8.93c-67.33,10.33 -125.36,14.78 -193.47,14.78l-6.98 0c-118.83,12.14 -237.63,10.1 -356.5,-6.21l-16.4 -0.64c-46.02,2.95 -88.11,3.24 -136.05,1.03l-22.31 -1c-45.08,2.82 -85.83,3.15 -132.54,1.13l-103.27 -4.48c-261.9,-11.36 -483.72,-88.82 -695.66,-242.99 -43.52,-31.63 -85.38,-65.15 -125.43,-100.48 -17.31,10.36 -34.94,20.33 -52.74,29.84l-53 30.69c-55.96,32.42 -106.4,57 -165.15,80.35 -119.09,69.53 -245.94,118.35 -380.79,149.04l-65.21 17.15c-38.97,10.29 -72.72,17.53 -112.21,24.22l-13.77 3.61c-137.87,41.89 -274.76,59.17 -419.12,59.17 -14.51,0 -26.92,-0.19 -41.44,-0.65l-51.44 -1.65c-100.35,15.52 -202.43,20.59 -304.6,15.26 -12.41,0.36 -25.11,0.52 -38.32,0.52l-166.22 0c-40.63,0 -75.32,-1.56 -115.72,-5.26l-98.86 -9c-3.8,-0.32 -7.04,-0.65 -10.84,-1.04l-30.92 -3.05 -44.33 -3.44c-38.94,-3.02 -72.04,-7.05 -110.55,-13.45l-53.98 -8.93c-94.54,-15.72 -187.56,-40.3 -277.39,-73.49 -42.18,-10.33 -83.82,-22.74 -124.94,-37.13 -99.38,35.79 -203.59,61.06 -311.19,75.58l-60.34 8.64c-92.92,17.86 -186.62,25.65 -283.85,25.65 -24.75,0 -45.83,-0.58 -70.54,-1.94l-80.9 -4.49c-9.81,-0.55 -18.12,-1.13 -27.9,-1.88l-39.43 -3.02c-8.02,0.45 -16.1,0.88 -24.26,1.2l-84.34 3.54 -147.22 11.63c-19.91,1.56 -38.06,2.63 -56.51,3.25 -91.32,4.96 -179.89,2.46 -268.65,-9.23 -39.16,3.7 -78.72,5.46 -121.2,5.46l-134.78 0c-31.99,0 -59.21,-0.98 -91.1,-3.25l-1.56 -0.13c-52.61,4.13 -103.73,4.61 -160.14,1.75l-77.88 -3.89c-14.23,-0.59 -28.39,-1.33 -42.58,-2.37 -30.66,2.33 -60.79,3.37 -93.95,3.37 -11.99,0 -23.97,0 -35.96,0 -44.65,0 -82.68,-1.91 -127.21,-6.36l-77.68 -7.83 -40.96 -3.73 -37.09 -2.86c-221.07,0.84 -438.73,-45.44 -639.43,-145.99 -71.32,-35.79 -129.39,-71.67 -193.27,-119.48 -41.54,-31.08 -80.81,-64.21 -117.8,-99.15 -15.55,14.52 -31.44,28.71 -47.51,42.45 -11.21,9.61 -20.88,17.63 -32.45,26.86 -211.52,169.4 -448.6,259.29 -715.27,291.51 -21.08,2.79 -40.34,4.87 -62.49,6.69l-53.87 4.48c-15.66,1.33 -30.34,2.31 -44.89,2.99 -91.62,5.97 -181.51,3.77 -271.28,-7.8 -9.74,-0.22 -19.45,-0.58 -29.23,-1.04 -26.5,1.47 -52.8,2.02 -79.37,1.63l-1.79 0.23c-51.05,5.87 -94.86,8.41 -146.31,8.41l-134.74 0c-49.4,0 -91.49,-2.34 -140.6,-7.76 -201.94,-22.38 -394.2,-81.33 -570.94,-180.71z"/>
   <path class="fil1" d="M1246.69 11600.54c-22.96,-12.93 -45.34,-27.42 -67,-43.56 -3.15,-2.3 -6.24,-4.64 -9.35,-7.04 -148.1,-114 -244.75,-283.75 -275.57,-467.25l-3.57 -21.56c-11.7,-64.73 -13.97,-126.96 -9.2,-192.33 0.56,-12.93 1.53,-25.63 2.93,-39.3 -4.91,-43.94 -4.91,-85.35 -0.23,-131.6l1.27 -13.22c-4.52,-36.69 -5.59,-69.95 -3.74,-107.95l4.58 -89.86c0.29,-5.88 0.62,-10.91 1.07,-16.76l3.77 -49.89 4.09 -81.35c1.14,-21.95 2.93,-40.79 6.14,-62.26l-1.4 -34.26 -3.6 -47.06c-0.72,-8.31 -1.11,-15.46 -1.46,-23.84l-2.02 -50.63c-11.85,-60.44 -16.4,-115.55 -16.4,-176.93 0,-21.28 0.85,-39.43 2.89,-60.61l3.09 -32.21 -2.76 -27.77c-2.24,-22.22 -3.22,-41.25 -3.22,-63.59 0,-60.54 3.84,-117.83 15.36,-176.45l1.53 -12.79c-5.68,-51.68 -4.84,-99.45 2.44,-153.07l5.23 -38.13 -4.65 -32.51c-4.51,-31.4 -6.46,-58.49 -6.46,-90.22 0,-16.46 0,-32.96 0,-49.43 0,-6.85 0.13,-13.51 0.32,-19.97l-2.89 -20.07c-4.51,-31.41 -6.43,-58.46 -6.43,-90.22l0 -31.44c0,-10.49 0,-20.95 0,-31.44 0,-35.04 2.37,-64.92 7.8,-99.54l1.98 -12.5c-0.03,-1.33 -0.07,-2.7 -0.2,-4.06l-1.36 -32.22c-18.51,-97.01 -16.69,-194.37 -0.94,-293.69l1.72 -12.24 0 -12.96c0,-8.58 0.16,-15.88 0.49,-24.46l2.04 -52.22c-6.88,-44.92 -8.6,-85.12 -5.88,-131.37l3.67 -62.58c0.85,-34.43 3.58,-67.07 8.71,-100.06l0 -217.79c0,-120.3 21.92,-230.53 76.25,-339.26 89.18,-178.52 242.12,-309.67 427.59,-375.66 89.15,-34.72 180.41,-49.27 278.24,-49.27l49.13 0 13.35 -1.33c31.41,-3.15 58.3,-3.9 89.77,-2.6l107.82 4.49c8.02,0.32 14.84,0.74 22.77,1.36l7.24 0.55 30.59 -2.53 28.03 -4.68c21.86,-3.67 40.63,-5.84 62.75,-7.31l67.35 -4.48c14.78,-1 27.48,-1.39 42.29,-1.39 46.02,0 89.89,4.06 133.93,10.88 50.15,-7.44 96.3,-8.55 148.55,-3.8l98.86 8.99c16.92,1.56 32.67,3.57 48.23,6.14 26.66,-3.44 53.39,-5.49 80.09,-6.17 39.69,-7.89 80.12,-11.59 123.77,-11.59l35.95 0c9,0 18.03,0 26.99,0 11.85,0 21.92,0.25 33.71,0.94l85.38 4.51c16.89,0.85 31.83,2.18 47.71,4.26 10.07,-0.49 20.01,-0.72 30.85,-0.72 38.33,0 75.19,2.83 111.95,7.73l-14.74 -6.56c-39.23,-3.96 -74.24,-10.94 -113.38,-22.47l-113.47 -33.36c-68.99,-16.59 -131.57,-39.2 -192.43,-72.62l-120.03 -45.72 -92.5 -35.57c-31.83,-12.24 -58.1,-24.71 -87.62,-41.63l-99.58 -56.9c-4.15,-2.37 -7.66,-4.45 -11.75,-6.89 -65.54,-39.29 -120.66,-76.64 -172.03,-123.05l-61.16 -35.47c-32.99,-19.06 -59.69,-37.73 -88.95,-62.12l-42.64 -35.57c-1.17,-0.94 -2.31,-1.91 -3.38,-2.82 -26.37,-19.81 -50.99,-40.7 -74.76,-64.53 -4.84,-4.78 -8.84,-8.87 -13.48,-13.81l-107.31 -114.02 -35.95 -35.99c-8.67,-8.67 -15.88,-16.3 -24.03,-25.43l-109.32 -122.11 -30.27 -30.3c-25.2,-25.24 -44.98,-48.46 -65.86,-77.39l-82.26 -113.93c-29.46,-26.54 -55.8,-55.8 -81.46,-89.96 -42.41,-56.42 -78.75,-112.93 -110.35,-176.1l-21.8 -43.61c-43.64,-61.42 -80.21,-122.86 -109.8,-194.34l-24.42 -57.07c-31.8,-56.18 -58.14,-113.31 -78.89,-172.55 -25.95,-41.4 -46.18,-85.22 -62.84,-135.1l-15.33 -45.96c-21.83,-53.22 -37.19,-106.81 -45.6,-162.44l-17.73 -88.86c-35.82,-97.85 -58.14,-182.36 -60.6,-290.44 -21.89,-89.25 -28.65,-178.72 -28.65,-275.77l0 -53.06c-5.81,-74.54 -2.37,-148.23 9.81,-221.07 -6.33,-62.75 -3.18,-120.92 9.74,-185.28l4.55 -22.84 3.18 -74.14 -3.73 -45.14c-4.32,-51.74 -2.8,-96.27 4.87,-147.58l19.03 -126.59 3.77 -38.55c4.64,-71.68 19.94,-139.17 45.3,-206.53l18.39 -64.27c23.15,-87.39 57.25,-163.91 106.23,-239.64l25.07 -71.88 21.3 -64.01c11.37,-34.03 23.39,-62.29 40.05,-94.08l65.28 -124.65 24.81 -59.56c11.95,-28.68 23.84,-52.45 39.69,-79.21l88.14 -149.11 31.4 -56.6c30.53,-55.05 63.3,-98.34 107.96,-142.74 0.13,-0.07 0.13,-0.13 0.16,-0.16l54.76 -69.67c3.93,-4.96 7.3,-9.19 11.4,-14.09l9.45 -11.3c37.83,-54.21 81.29,-100.32 132.89,-148.94 8.38,-8.28 16.18,-15.56 25.37,-23.61l106.03 -93.57 85.52 -85.58c9.25,-9.19 17.34,-16.85 27.08,-25.52l61.25 -54.43 71.13 -63.98c24,-21.67 45.82,-38.55 72.71,-56.51l47.29 -31.54c75.41,-55.89 158.85,-100.68 246.47,-134.1 65.8,-59.17 140.27,-108.73 219.87,-152.96 27.02,-15.01 51.99,-26.76 79.11,-37.22 38.68,-17.8 78.37,-32.12 122.34,-46.22 22.05,-7.37 40.08,-12.27 62.71,-17.34l95.84 -21.24 75.42 -25.17c30.2,-10.03 56.51,-16.79 87.75,-22.47l51.05 -9.29 72.95 -19.91c122.14,-53.26 254.65,-80.7 388.42,-80.7l46.57 0 39.53 -3.93c1.95,-0.2 3.63,-0.36 5.52,-0.52l234.61 -21.31c20.23,-1.88 37.54,-2.66 57.94,-2.66l146.34 0 33.36 -5.56c54.75,-9.12 102.43,-11.07 157.77,-6.46l170.7 14.19c13.25,1.14 24.45,2.37 37.51,4.29l21.17 3.02c74.38,5.59 147.87,21.11 218.61,44.72 4.44,1.5 8.18,2.8 12.53,4.32l99.58 35.56c15.78,5.69 29.1,10.98 44.42,17.83l16.37 7.25 33.97 8.86 10.56 0c72.03,0 133.58,10.01 201.91,32.77l149.33 49.79c0.91,0.29 1.82,0.62 2.66,0.91 55.02,15.98 106.27,36.53 155.79,64.04l145.73 66.19c23.15,10.52 42.35,20.59 64.14,33.71l45.43 27.28c31.41,16.7 61.48,36.05 90.03,57.84l8.25 5.91 63 24.23c31.73,12.18 57.91,24.62 87.4,41.51l49.82 28.42c7.7,4.41 14.16,8.24 21.66,12.95 107.96,67.43 201.85,155.41 277.29,257.42l14.81 13.64c60.63,50.89 103.83,103.53 150.79,166.96l34 27.61c29.46,23.96 52.84,46.5 77.88,75.12l25.73 29.35 51.18 46.58c7.89,7.17 14.48,13.41 21.99,21.01 11.23,11.24 21.98,22.54 32.34,33.97 1.59,-5.36 3.35,-10.72 5.13,-16.14 18.32,-57.91 36.61,-110.03 64.05,-164.92 3.02,-6.04 5.68,-11.14 8.86,-17.11 146.9,-272.84 425.91,-454.03 735.93,-463.42l218.18 -19.22c19.65,-1.76 36.47,-2.51 56.16,-2.51 21.3,0 42.64,0 64.01,0 26.17,0 48.52,1.34 74.5,4.36l55.37 6.49c83.79,-9.22 164.6,-9.74 252.71,5 7.01,1.21 13.08,2.31 20.1,3.71l2.34 0.45 1.2 -0.16c58.26,-7.8 108.83,-7.86 167.13,-0.29l141.24 18.44c68.36,5.62 132.5,20.56 199.34,42.42 278.17,88.37 468.29,296.35 559.39,569.29 27.8,83.33 38.09,163.19 39.72,248.64l3.47 52.78 7.79 42.6c6.01,33.33 9.33,63.92 10.2,95.42 51.09,2.6 96.07,10.17 143.84,24.2 110.23,23.06 213.34,63.68 309.74,123.99l35.79 20.47c124.06,70.89 216.26,174.1 269.46,295.86l57.9 -50.21c68.01,-63.56 140.08,-110.36 223.74,-152.67l20.94 -16.05c115.56,-92.43 213.41,-125.59 351.37,-165.01 10.14,-2.89 18.87,-5.17 29.17,-7.57l34.65 -8.18c83.95,-38.46 165.41,-56.09 261.5,-69.86 14.26,-2.57 27.61,-4.45 42.68,-6.17l52.12 -5.75c95.26,-28.58 194.12,-40.79 295.77,-40.79l17.7 0c80.84,-25.33 156.02,-33.42 241.7,-26.28l34.29 2.86 41.31 -3.15c35.08,-2.73 65.12,-2.66 100.13,0.13l177.81 14.26c24.85,1.98 45.86,4.84 70.25,9.58l220.45 42.64c28.87,5.59 53.13,11.99 76.36,19.78 25.33,7.7 50.5,14.42 75.76,22.83 20.37,6.79 37.38,13.45 56.97,22.15l53.07 23.55 80.86 32.31c69.57,24.49 132.8,54.01 195.48,95.74l21.37 14.23c2.76,1.82 5.13,3.44 7.86,5.36l105.91 72.91 42.74 28.45c30.3,20.13 56.77,41.41 84.47,63.98 19.2,13.8 36.44,27.9 55.02,44.72l68.17 61.96 32.18 26.83c8.25,6.89 15.66,13.35 22.99,20.07 44.21,37.97 82.63,77.75 117.12,123.64l81.64 100.55c10.17,12.41 18.42,23.35 27.58,36.5l39.68 56.68 67.3 85.67c10.71,13.54 19.29,25.46 28.64,39.43 16.3,24.03 33.84,47.19 50.08,71.48 22.21,33.29 38.65,63.39 54.59,100.09l71.13 163.59c5.49,12.6 9.84,23.51 14.52,36.41l28.38 78.2c10.56,29 17.8,54.24 24.29,84.38l21.34 99.6c2.21,10.14 3.83,18.84 4.13,21.15 20.46,98.43 31.92,179.33 23.67,274.69l9.91 78.75c3.41,27.64 4.9,51.35 4.9,79.21l0 126.79c18.19,104.16 22.54,209.25 9.29,315.36 -3.35,26.76 -7.6,49.39 -14.13,75.54l-13.38 53.55c-19.65,117.37 -62,228.83 -122.34,330.42 8.22,44.04 12.54,89.7 12.54,136.89l0 235.07 6.59 151.86 6.36 158.95 5.2 52.32c2.24,22.11 3.15,41.05 3.15,63.29l0 149.4c0,42.77 -3.83,83.4 -10.65,124.68 -0.42,3.76 -0.91,7.63 -1.37,11.53l-3.41 27.37c-8.54,142.8 -60.24,267.39 -156.66,377.58 -117.08,133.87 -260.66,237.96 -428.18,293.37l-115.23 52.35c168.52,-15.27 320.84,30.85 454.16,137.51 90.03,72.03 175.86,160.85 235.94,260.14 67.65,109.83 98.57,228.44 102.14,356.56l3.54 57.74c0.91,13.9 1.3,25.76 1.3,39.69l0 130.27c0,56.02 -6.56,105.22 -16.4,157.9 8.06,73.63 6.63,147.87 -4.41,221.27 -0.59,43.25 -4.65,86.06 -11.37,130.78 1.1,21.21 1.04,42.48 -0.1,65.38l-4.42 89.24c-1.2,24.56 -3.76,48.56 -7.27,72.98 -0.33,2.73 -0.68,5.49 -0.97,8.22l0 26.89c0,45.69 -4.06,87.1 -11.01,129.42l-2.86 44.75c-0.94,32.67 -3.74,64.43 -8.64,95.94l0 62.35c0,27.71 -1.43,51.38 -4.87,78.92l-6.04 48.49 -2.5 50.37 0 21.79 3.7 73.89c2.4,48.19 0.03,89.51 -7.89,137.15l-2.7 16.01 -0.91 19.55 1.11 13.15c1.52,18.48 2.17,34.27 2.17,52.81l0 80.87c0,49.2 -3.34,95.09 -11.33,141.79l-1.59 14.39c-2.96,26.18 -7.15,51.61 -12.8,76.32 4.77,8.06 9.29,16.11 13.77,24.59 53.98,92.43 88.79,181.12 104.41,290.89 1.66,11.96 3.02,23.26 4,34.43 8.28,71.71 7.5,142.8 -2.24,214.57 -0.85,37.84 -4.65,71.71 -12.31,109.97l-9 44.95c-0.58,2.92 -1.04,5.46 -1.75,8.41l-13.45 62.88c-2.76,13.08 -5.49,24.22 -9.12,37.15l-22.44 80.87c-2.99,10.72 -5.79,19.84 -9.29,30.43 -5.49,16.53 -11.53,32.61 -17.83,48.75 -8.8,24.87 -18.26,46.86 -30.47,71.38l-40.37 80.71c-64.49,129.06 -155.11,231.65 -272.09,315.09 -5.75,4.16 -10.78,7.6 -16.69,11.59l-5.81 3.8c-40.92,30.27 -84.74,55.51 -132.35,77.43 -7.5,3.57 -14.84,6.88 -23.09,10.42l-31.44 13.45c-36.6,15.68 -69.04,26.24 -107.82,35.2l-116.82 26.96c-40.73,9.38 -77.29,14.35 -117.31,15.85 -33.64,3.5 -67.55,4.93 -102.53,4.93 -22.18,0 -41.14,-0.94 -63.26,-3.15l-14.13 -1.39c-62.55,-0.68 -121.95,-5.85 -183.36,-19.81l-31.7 -6.82c-50.28,-7.9 -100.16,-21.11 -147.48,-39.01l-22.47 -7.44c-42,-14.03 -76.58,-29.49 -115,-51.44l-10.23 -5.85c-105.1,-52.35 -194.87,-124.61 -271.02,-215.93 -22.02,-26.41 -40.15,-51.68 -56.61,-79.25 -19.07,-29.71 -35.86,-60.15 -50.28,-91.94 -68.59,-92.37 -117.04,-195.32 -142.21,-311.55l-5.65 -22.64c-13.38,-53.26 -19.1,-100.09 -19.1,-154.98l0 -26.95c0,-24.75 1.17,-49.27 3.25,-73.69 -9.97,-83.73 -2.47,-164.57 22.7,-250.18l18.12 -61.83c20.1,-77.36 52.03,-150.73 92.04,-219.9 -21.82,-64.79 -32.77,-134.04 -32.77,-207.53l0 -76.39c0,-33.48 2.24,-66.87 6.63,-99.96 -1.53,-17.8 -2.15,-34.13 -2.15,-52.74 0,-14.97 0,-29.98 0,-44.92 0,-5.16 0.04,-10.26 0.17,-15.23 -9.91,-52.39 -13.68,-105.03 -13.68,-160.01 0,-19.98 0.78,-38.13 2.47,-56.61l-0.16 -3.57 -0.36 -2.63c-3.31,-22.87 -5.23,-43.39 -6.01,-65.15 -2.17,-30.86 -2.79,-60.96 -1.49,-90.78 -69.5,11.56 -142.15,11.66 -215.94,-0.65l-1.62 -0.29 -11.92 0 1.52 30.72c0.17,2.41 0.23,4.71 0.36,6.95 2.63,36.31 3.02,71.68 0.78,107.05 6.69,51.96 7.53,102.98 3.67,156.05 -0.49,10.95 -1.17,21.63 -2.14,32.35l2.14 54.33c0.29,8.9 0.45,16.5 0.45,25.4l0 49.43c0,17.76 -0.58,32.93 -1.98,50.73l-2.79 35.01c4.16,37.74 5.85,75.51 5,113.24 5.72,46.71 6.04,90.1 1.14,138.91l-3.12 30.69 -3.08 55.54c-1.43,48.68 -7.34,96.42 -17.12,143.51l0.81 10.07 12.12 101c3.18,26.54 4.54,49.3 4.54,76.03l0 24.88 5.49 51.99c2.53,23.39 3.54,43.39 3.54,66.91 0,11.98 0,23.93 0,35.92l0 31.43c0,16.57 -0.55,30.66 -1.75,47.19l-9 121.3c-1.72,23.65 -4.32,43.69 -8.54,67.04l-3.12 17.08 -6.46 83.92c-2.05,26.76 -5.13,49.43 -10.43,75.7 -25.52,128.16 -86.87,248.87 -164.98,352.93 -18.38,24.46 -35.5,44.27 -56.96,65.99l-4.52 4.52c-100.51,101.42 -215.64,160.04 -356.69,181.67l-58.46 8.97c-33.65,5.16 -62.71,7.37 -96.72,7.37l-43.97 0c-86.29,11.66 -171.64,10.26 -258.19,-4.09 -0.85,-0.13 -1.66,-0.26 -2.5,-0.42 -6.04,-0.1 -11.89,-0.26 -18.35,-0.52l-68.07 -2.8 -14.26 1.14c-28.65,2.37 -53.07,2.86 -81.75,1.56l-60.01 -2.7 -19.62 1.5c-26.73,2.01 -49.56,2.43 -76.42,1.26l-103.31 -4.48c-130.88,-5.68 -241.82,-44.43 -347.83,-121.49 -181.15,-131.76 -322.98,-318.08 -348.77,-548.7 -2.46,-22.15 -3.7,-41.51 -3.89,-63.24l-1.27 -25.16c-20.23,36.14 -42.87,69.2 -68.36,102.46 -15.5,21.76 -31.34,41.21 -49.5,60.7l-23.97 33.91c-22.02,31.17 -43.06,56.15 -70.02,83.1l-26.92 26.93c-3.83,3.83 -7.6,7.63 -11.37,11.46 -11.27,11.3 -21.17,20.62 -33.16,31.15l-49.36 43.19c-52.61,53.36 -110.85,97.43 -176.32,131.31l-63.49 36.76c-30.56,17.63 -57.75,30.66 -90.68,43.32l-24.03 9.23 -34.23 17.92c-71.22,44.6 -145.79,73.08 -227.47,90.81l-77.46 20.4c-19.87,5.22 -37.09,8.89 -57.35,12.3l-25.69 4.26 -55.86 14.61c-81.16,25.99 -159.01,34.79 -243.68,34.79 -7.27,0 -13.47,-0.1 -20.68,-0.36l-115.62 -3.77 -5.26 0.26c-81.55,17.9 -165.64,22.87 -250.14,15.82 -14.58,1.04 -28.55,1.49 -44.1,1.49l-166.22 0c-20.33,0 -37.67,-0.78 -57.88,-2.6l-98.82 -8.99c-1.92,-0.2 -3.54,-0.33 -5.43,-0.55l-37.93 -3.77 -51.35 -3.96c-19.42,-1.5 -36.01,-3.54 -55.27,-6.73l-53.91 -8.96c-67.13,-11.14 -133.09,-29.94 -195.81,-56.41 -50.99,-9.52 -99.93,-24.98 -148.25,-45.47l-9.29 -3.12c-5.78,-1.88 -10.59,-3.6 -16.27,-5.68l-71.55 -25.98c-34.56,-10.23 -68.17,-23 -100.71,-38 -106.23,75.18 -229.78,120.33 -359.49,136.4l-84.96 12.15c-57.58,12.24 -114.97,16.76 -175.99,16.76 -12.38,0 -22.93,-0.3 -35.27,-1.01l-80.87 -4.48c-4.87,-0.23 -9.09,-0.52 -14,-0.91l-58.39 -4.52c-10.04,-0.78 -19.39,-1.68 -28.64,-2.82 -16.96,2.04 -34.4,3.41 -52.62,4.16l-96.06 4.06 -158.98 12.53c-12.08,0.94 -22.93,1.53 -34.2,1.82 -79.73,4.58 -151.15,1.33 -230.13,-17.99l-6.33 1.23c-43.39,8.71 -81.19,12.44 -125.46,12.44l-134.78 0c-16.01,0 -29.62,-0.49 -45.53,-1.62l-57.62 -4.13c-40.59,5.56 -76.29,7.05 -117.6,4.97l-82.03 -4.16c-24.33,-0.81 -48.13,-2.95 -71.55,-6.2l-13.93 1.72c-27.54,3.45 -51.22,4.91 -78.95,4.91 -11.99,0 -23.97,0 -35.96,0 -22.34,0 -41.37,-0.95 -63.59,-3.19l-83.72 -8.41 -40.99 -3.73 -74.5 -5.78c-129,3.67 -256.34,-19.26 -373.55,-78.01 -35.69,-17.87 -64.76,-35.83 -96.65,-59.73 -164.4,-123.12 -256.89,-301.81 -282.23,-503.23 -0.39,-3.28 -0.74,-6.04 -1.04,-9.35l-4.48 -40.44c-1.36,-12.08 -2.27,-22.47 -2.92,-34.65l-4.51 -80.87c-0.72,-12.47 -0.98,-23.12 -0.98,-35.59 0,-45.31 2.53,-89.05 9,-132.38l0 -29.32c0,-10.49 0,-20.98 0,-31.47 0,-24.91 1.2,-46.19 3.93,-70.93l3.38 -30.34 7.5 -93.82c-65.02,18.15 -132.64,27.5 -201.29,27.05l-18.68 2.05c-2.18,0.45 -4.38,0.94 -6.62,1.39 -53.75,10.72 -109.26,15.95 -164.7,15.66 -0.61,20.2 -2.3,40.66 -4.96,62.09l-9.62 76.97 3.77 31.34 1.98 12.25c6.14,36.66 8.83,68.39 8.83,105.55 0,14.97 0,29.97 0,44.94 0,11.24 -0.26,20.86 -0.81,32.09l-4.51 89.83c-0.81,16.44 -2.08,30.47 -4.13,46.84l-4.45 35.95c-15.65,125.75 -60.63,230.32 -140.88,327.07 -43.58,53.56 -92.43,105.91 -144.75,150.73 -5.62,4.8 -10.43,8.83 -16.24,13.44 -121.24,97.11 -244.55,137.77 -396.25,156.38 -12.93,1.88 -22.21,2.86 -35.3,3.93l-53.88 4.48c-9.71,0.85 -18.61,1.37 -27.61,1.76 -63.75,4.48 -123.8,2.66 -185.8,-8.35 -28.06,0.52 -56.05,-0.52 -84.28,-2.99 -33.41,3.38 -65.01,3.96 -98.76,1.76l-50.5 5.84c-25.53,2.96 -47.38,4.19 -73.11,4.19l-134.74 0c-24.72,0 -45.73,-1.17 -70.28,-3.9 -118.38,-13.09 -229.94,-46.34 -333.15,-105.38z"/>
   <path class="fil2 str0" d="M1461.04 3717.82l-7.12 163.59 -14.22 71.12 14.22 92.5 -7.11 21.34c-14.22,42.67 -21.34,85.35 -14.22,135.13l0 85.35c0,49.79 0,106.69 21.33,156.48l7.12 7.11 0 92.49c0,49.79 21.33,85.35 35.59,128.03l7.11 28.45 28.45 142.25c0,14.22 7.12,21.33 14.23,42.67l21.34 64.05 42.67 49.78c7.11,64.01 28.45,113.8 64.01,170.7l42.68 99.58c14.22,35.56 35.56,64.01 56.9,92.46l7.11 7.11 49.79 99.61c14.22,28.45 28.45,49.78 49.78,78.23l21.34 14.23 56.9 71.12 92.5 128.03 42.67 42.67 120.91 135.17 42.68 42.68 113.8 120.91c7.11,7.11 21.33,14.22 35.56,28.45l42.71 35.56 135.13 78.24 14.23 14.22c28.45,35.56 56.9,49.79 92.46,71.13l99.57 56.93 92.47 35.56 149.39 56.9 42.67 21.34c21.34,14.22 42.68,14.22 64.02,21.34l120.91 35.56 92.46 7.11 128.06 56.9 78.23 28.45 120.92 28.45c28.44,7.11 64.01,7.11 99.57,7.11l64.01 0 177.85 21.34 78.23 0 0 0c35.56,7.11 71.13,7.11 106.69,0l35.56 0 49.79 0c21.34,0 35.56,0 64.04,-7.11l120.92 -14.23 106.68 -21.34 64.01 -7.11 85.35 -14.22 92.5 -21.34 106.68 -21.34c42.68,-7.11 78.24,-28.45 120.92,-56.9l7.11 0 106.69 -28.45c42.67,-7.11 85.35,-28.45 120.94,-56.9l14.22 -7.11 163.59 -42.67 49.79 -21.34c14.22,-7.11 28.45,-7.11 49.79,-21.34l128.02 -71.16 85.38 -49.78 120.91 -92.46 49.79 -71.13 135.14 -85.35 49.78 -42.67c14.23,-14.23 28.45,-21.34 42.68,-42.68l85.38 -113.83 28.45 -64.01 92.46 -113.8 56.9 -99.58 156.48 -199.18 64.01 -120.91 21.34 -49.79c7.11,-21.33 14.22,-35.56 21.37,-64.01l35.56 -142.25 14.22 -92.49 49.79 -142.25 7.11 -14.23c14.23,-35.56 28.45,-71.12 28.45,-106.68l14.23 -128.06 14.22 -71.12c7.12,-21.34 7.12,-35.57 7.12,-56.9l7.11 -142.25 -8.21 -49.23 128.34 5.58c42.64,14.22 85.35,21.34 128.06,14.22l104.13 -11.57c16.84,2.3 34.59,4.12 53.09,5.44l28.45 0 85.38 64.01 21.34 149.36 35.56 177.84 -7.11 184.93 0 113.8 -14.23 149.39 -7.11 64.01 7.11 170.7 -7.11 71.13c0,28.45 0,42.67 0,71.12l7.11 64.05 7.11 85.34 21.34 177.82 21.34 92.46 28.45 142.28c7.11,28.45 14.22,49.79 21.34,71.12l35.56 78.24c21.34,42.68 49.79,85.35 85.35,120.91l7.11 14.23 106.69 128.02 14.22 21.37c28.48,28.45 56.93,49.79 99.61,71.13l113.8 49.78 163.58 85.35 71.13 28.45 85.38 35.57c35.56,14.22 64.01,21.33 99.58,21.33l49.78 0 163.59 28.45 71.12 -7.11 92.5 7.11 92.46 0c35.56,7.11 85.35,14.23 128.02,7.11l99.58 -7.11 92.46 -7.11 184.96 -49.79 85.35 -14.22 135.13 -21.34c21.34,-7.11 35.57,0 56.9,-14.22 42.71,-14.23 85.38,-56.9 128.06,-128.03l7.11 -35.56c7.11,-28.45 0,-71.16 -7.11,-99.61l-21.34 -149.36 7.11 -35.56c0,-28.45 0,-56.9 0,-85.35l-14.22 -128.03 7.11 -64.04c7.11,-28.45 7.11,-42.67 7.11,-71.12l0 -142.25 -7.11 -49.79c0,-21.34 -7.11,-35.56 -7.11,-56.9l0 -42.68c-49.79,-35.56 -99.61,-49.78 -163.62,-35.56l-170.7 49.79 -14.22 -7.11c-42.68,-21.34 -92.47,-28.45 -142.25,-28.45l-7.11 0 -106.72 -21.34 -78.24 -21.34 -128.03 -78.27 -14.22 -78.23 -28.45 -78.24 0 0c0,-56.9 -7.11,-120.91 -35.56,-170.7l0 -163.62 -7.11 -92.46 0 -177.81 -28.45 -85.35 0 -170.73 7.11 -85.35 99.57 -92.46 21.34 7.11c42.67,14.22 99.57,21.34 142.25,14.22l99.61 -7.11 92.46 -28.45 163.58 -21.34c56.9,0 120.92,-21.33 192.04,-71.12l0 0 14.23 -64.05c7.14,-28.45 14.25,-42.67 14.25,-71.12l0 -128.02 -7.11 -92.47 -14.26 -163.58 7.12 -99.61 -7.12 -142.25 0 -64.01c0,-7.11 7.12,-14.23 7.12,-21.34l7.14 -78.24 -49.82 -28.45c-42.67,-28.45 -85.35,-42.67 -135.14,-49.78l-21.33 -7.15 -163.59 -7.11c-42.67,-14.22 -85.35,-21.34 -128.06,-14.22l-128.02 14.22 -85.35 0 -106.69 -99.57 -28.45 -64.02 14.23 -199.15 7.11 -64.01c7.11,-21.33 7.11,-35.59 7.11,-64.04l7.12 -120.91 -14.23 -78.24 -7.11 -106.69c0,-21.33 0,-49.78 -7.11,-71.12 -21.34,-64.01 -56.9,-135.17 -149.4,-163.62 -21.34,-7.11 -42.67,-14.23 -64.01,-14.23l-163.59 -21.33 -106.68 14.22 -106.72 -21.34c-42.68,-7.11 -85.35,0 -128.03,7.12l-28.45 0 -120.91 -14.23c-21.34,0 -42.67,0 -64.01,0l-241.86 21.34c0,0 -7.11,0 -7.11,0 -64.01,0 -149.36,35.56 -199.15,128.06 -14.22,28.45 -21.34,56.9 -28.45,78.23l0 106.69c0,49.79 7.11,85.35 21.34,128.02l0 14.23 7.11 163.62 -14.22 85.35 -7.12 170.7 -21.33 85.35 -77.76 84.83 -1.29 -0.43c-42.64,-14.22 -99.58,-21.33 -142.22,-14.22l-99.57 7.11 -92.5 28.45 -163.62 21.34c-30.38,0 -62.79,6.08 -97.22,19.33 -2.8,-8.24 -5.73,-16.7 -8.65,-25.47l-35.56 -85.38 -14.26 -42.68c-14.23,-28.45 -28.45,-42.67 -49.79,-71.12l-71.12 -85.35 -28.45 -56.9c-7.12,-21.34 -14.23,-28.45 -21.34,-42.68l-99.57 -135.16 0 0c-21.34,-42.68 -42.68,-85.35 -78.24,-120.92l-78.24 -71.12 -49.82 -56.9 -113.8 -92.46 -14.22 -28.45c-21.34,-28.45 -42.68,-64.01 -71.13,-85.38l-85.35 -78.24c-28.45,-49.79 -71.12,-99.58 -128.02,-135.14l-49.82 -28.45 -92.46 -35.56 -71.13 -35.56 -49.78 -35.56c-7.12,0 -14.23,-14.23 -21.34,-14.23l-71.13 -42.67 -156.47 -71.16 -28.48 -14.23c-21.34,-14.22 -42.68,-14.22 -56.9,-21.33l-149.36 -49.79 -92.47 0 -163.61 -42.68 -64.02 -28.44 -99.57 -35.57c-21.34,-7.11 -49.79,-14.22 -78.24,-14.22l-49.79 -7.11 -170.69 -14.23 -85.39 14.23 -199.14 0 -78.24 7.11 -156.51 14.22 -71.12 7.12 -78.24 0c-56.9,0 -113.8,14.22 -163.59,42.67l-156.5 42.67 -78.24 14.23 -106.69 35.56 -64.01 14.23 -64.01 14.22c-21.34,7.11 -49.79,14.23 -71.13,28.45l-21.33 7.11c-64.05,35.6 -113.83,71.16 -135.17,106.72l-128.03 71.13 -21.33 7.11c-42.68,14.23 -85.35,35.56 -120.92,64.01l-64.01 42.68 -71.15 64.01 -64.02 56.9 -99.57 99.61 -120.91 106.68c-21.34,21.34 -49.79,42.68 -64.01,71.13l-35.57 42.67 -78.27 99.58c-7.11,14.22 -21.33,21.33 -28.45,28.45l-35.56 64.01 -92.46 156.5 -35.56 85.35 -78.24 149.37 -21.34 64.01 -56.9 163.62 -35.56 49.78c-14.22,21.34 -21.34,35.57 -28.45,64.02l-28.45 99.57c-7.14,21.34 -14.26,28.45 -14.26,49.79l-7.11 71.12 -21.34 142.28 7.12 85.35zm1507.97 640.16l-42.68 -149.36 7.11 -92.47 -21.33 -78.23c14.22,-64.05 14.22,-120.95 0,-156.51l35.56 -170.7 14.22 -64.01 56.9 -156.51 35.57 -85.35 85.35 -156.47 56.9 -42.68 56.9 -49.78 78.23 -71.13 35.56 -71.15 149.4 -85.35 71.12 -35.57 142.25 -71.12 85.35 -35.56 163.62 -28.45 78.24 -7.12 42.67 14.23c28.45,7.11 56.9,14.22 85.35,14.22l291.65 14.23 92.46 35.56 184.92 56.9 56.93 14.23 128.03 99.57 35.56 42.71 99.57 106.68 92.47 128.03 85.35 149.36 35.59 78.24 49.79 128.05 -7.12 92.47 14.23 163.58 7.11 78.24 0 85.38 0 71.13 14.23 106.68 -28.45 149.36 -14.23 78.24 -28.45 156.51 -149.39 199.15 -35.56 78.23 -142.25 113.84 -56.9 49.78 -120.95 92.46 -64.01 49.79 -170.7 64.01 -71.12 21.34 -184.96 35.56 -184.92 0 -106.69 21.34 -192.07 -35.56 -71.12 -28.45 -156.48 -85.35 -85.35 -21.34 -120.94 -92.46 -42.68 -35.56 -120.91 -135.17 -28.45 -64.01 -92.46 -149.37 -28.45 -92.46 -78.24 -163.62 -21.33 -78.23zm9232.58 -1394.14l-177.84 -14.23 -92.46 7.12 -85.35 -7.12 -85.35 28.45 -120.91 0c-56.9,0 -106.72,7.12 -149.4,28.45l-128.02 14.23c-35.57,7.11 -85.35,7.11 -120.91,28.48l-21.34 14.22 -120.95 28.45c-49.78,14.23 -92.46,21.34 -128.02,49.79l-92.46 71.13 -35.56 14.22c-28.45,14.23 -56.9,28.45 -85.35,56.9l-106.69 92.46 -64.05 56.9 -106.68 113.83 -64.01 71.13 -71.13 85.35c-21.34,28.45 -42.67,56.9 -56.9,92.46l-7.11 35.56 -92.46 149.36 -64.05 156.51 -21.34 42.68c-7.11,28.45 -14.22,49.78 -14.22,71.12l-21.34 135.14 -21.33 106.72 -14.23 156.47 -7.11 92.46 -7.11 64.01 -7.12 78.24 0 64.05c0,21.33 7.12,35.56 7.12,56.9l21.33 135.13 21.34 99.58 42.67 170.73 0 35.56c0,21.34 7.12,56.9 14.23,78.24l28.45 99.57 21.37 49.79c7.11,21.34 28.45,35.56 35.56,49.79l85.35 113.8 49.79 64.04 92.46 135.14 21.34 42.67c14.22,21.34 42.67,42.68 64.01,64.01l113.83 92.47 156.48 106.68 7.11 7.11c35.56,42.71 78.24,71.16 128.02,92.5l71.13 28.45 92.46 7.11 135.17 56.9 85.35 14.23 99.57 49.78c28.45,14.23 56.9,14.23 85.35,21.34l56.9 7.11 78.27 28.45c42.68,14.23 99.57,21.34 142.25,21.34l14.22 0 149.37 21.34 35.56 7.11c49.79,7.11 99.61,0 142.28,-14.23l71.12 14.23c21.34,7.11 49.79,0 71.13,0l64.01 0 156.48 -14.23 213.4 7.12c28.45,0 64.01,0 92.46,-7.12l35.57 -7.11 192.06 -35.56c7.12,0 21.34,-7.11 28.45,-7.11l71.13 -21.34 156.47 -71.12c64.01,-14.23 120.91,-56.9 170.7,-113.8l0 -7.12 7.11 -56.9c0,-21.37 7.12,-35.59 7.12,-56.93l0 -149.36 -7.12 -71.12 -7.11 -177.82 -7.11 -163.61 0 -92.47 0 -156.47c0,-42.68 -28.45,-85.35 -92.46,-135.17l-49.79 -7.11c-28.45,0 -71.12,7.11 -99.57,14.22l-99.58 21.34 -99.61 35.6 -184.92 42.67 -192.04 -7.11 -170.73 7.11 -85.35 7.11 -78.23 7.11 -85.35 0 -92.47 7.12 -71.15 -7.12 -149.36 -42.67 -71.13 -35.56 -135.13 -135.17 -78.24 -64.01 35.56 -56.9 99.57 -28.45 192.04 -7.12 192.07 -7.11 99.57 -14.22 184.93 7.11 35.56 7.11c21.34,7.11 49.79,14.23 71.12,14.23l92.5 0c14.22,0 42.67,0 56.9,0l64.01 -7.12 156.48 -14.22 28.44 7.11c28.45,7.11 49.79,7.11 85.35,0l128.06 -14.22 28.45 7.11c35.56,7.11 85.35,14.22 120.91,7.11l99.58 -7.11 92.46 7.11 7.11 -14.22c42.71,-49.79 78.27,-113.8 85.38,-184.96l21.34 -85.35c7.11,-56.9 0,-113.8 -14.22,-170.7l0 -7.11 0 -106.69 0 -78.23 -21.34 -170.74 7.11 -28.45c7.11,-42.67 -7.11,-78.23 -14.22,-120.91l-21.34 -99.57 -28.45 -78.27 -71.16 -163.59c-14.22,-21.33 -35.56,-49.78 -49.79,-71.12l-78.23 -99.58 -49.79 -71.12 -92.46 -113.83c-14.23,-21.34 -28.45,-28.45 -42.68,-42.68l-42.67 -35.56 -78.27 -71.12c-21.34,-14.23 -42.68,-35.57 -64.01,-49.79l-42.68 -28.45 -113.8 -78.24 -21.33 -14.22c-21.34,-14.23 -42.68,-21.34 -64.02,-28.45l-106.68 -42.68 -64.05 -28.48c-21.33,-7.11 -49.78,-14.22 -71.12,-21.34l-220.49 -42.67zm14.23 1408.36l-85.35 85.35 -78.24 21.37 -149.39 21.34 -99.58 0 -71.12 7.11 -78.24 -21.34 -85.38 0 -49.79 -64.04 28.45 -78.24 78.27 -170.7 163.59 -78.23 71.12 -21.34 99.58 7.11 142.28 64.01 71.12 49.79 42.68 177.81z"/>
   <path class="fil2 str0" d="M1510.82 11066.91m49.43 -22.48c22.45,13.48 49.4,22.48 89.83,26.96l4.52 0 130.26 0 116.79 -13.48 44.92 4.51 62.91 -8.99c40.43,8.99 71.87,13.48 103.3,4.48l85.35 13.48c18,4.51 35.96,0 53.92,0l53.91 -4.48c31.43,-4.49 62.91,-4.49 85.35,-22.48 31.43,-26.95 67.39,-71.87 67.39,-71.87l4.48 -35.92 4.51 -89.86c0,-17.96 0,-26.96 0,-44.92l-4.51 -26.95 -13.48 -112.31 4.51 -58.39 13.48 -107.83 -8.99 -53.91 17.96 -103.31c0,-4.48 4.51,-17.96 4.51,-22.47l0 -40.4 0 -98.83 -4.51 -62.91 -17.96 -116.79 4.48 -62.9 44.91 -58.4 44.95 4.48 26.96 4.52c17.96,4.48 40.4,4.48 58.39,0l67.39 -13.48 116.79 -4.51 40.43 13.47c13.48,4.52 31.44,4.52 44.92,4.52l40.43 4.48c22.44,0 40.44,-4.48 62.88,-9l40.43 -8.96 22.47 0c22.45,4.48 49.4,4.48 71.88,0l13.47 -4.51 121.31 -13.48c40.4,9 80.83,-8.96 112.3,-49.4 13.48,-31.44 17.96,-62.91 13.48,-107.82l-4.52 -49.4 0 -130.3 4.52 -49.39 8.96 -98.83c0,-22.48 0,-31.44 -4.48,-53.91l-9 -62.91c-4.48,-22.44 -4.48,-35.92 -17.95,-53.88 -26.96,-35.95 -98.83,-76.39 -98.83,-76.39l-103.31 0 -49.43 0 -98.83 -17.96 -13.48 0c-17.96,-4.48 -44.91,-8.99 -67.39,-8.99l-85.35 0 -125.78 13.48 -26.96 -8.97c-17.95,-4.51 -40.43,0 -58.39,0l-71.87 4.48 -62.91 -8.99 -53.88 -44.92 4.48 -67.39 -4.48 -103.31 4.48 -53.91 4.49 -98.83 4.51 -40.43 58.39 -53.91 49.4 -4.48 107.83 -4.49 8.99 0c26.92,4.49 62.88,8.97 89.83,4.49l44.92 -9 53.91 4.51 94.35 0 49.39 0 67.39 13.48c35.95,8.97 67.39,8.97 98.83,0l94.35 -8.99 31.43 0c13.48,0 31.44,0 44.92,-4.49l80.87 -13.47c49.43,-4.52 85.35,-18 125.78,-49.43 9,-22.48 13.48,-49.4 9,-85.35l-4.52 -49.43 -13.48 -49.4 4.52 -121.3 4.48 -62.88 13.48 -85.35c4.48,-17.99 0,-40.43 0,-58.39l-9 -94.35c0,-4.51 0,0 0,0 -4.48,-31.43 -40.4,-94.34 -98.83,-98.82 -4.48,-4.52 -8.96,-4.52 -8.96,-4.52l-80.87 -13.48c-17.96,-4.48 -40.43,0 -58.39,0l-31.44 4.52 -125.78 0 -17.99 -4.52c-22.45,-4.48 -44.92,-8.96 -67.39,-8.96l-53.88 4.48 -58.43 -8.99 -85.35 -4.49c-8.96,0 -17.96,0 -26.95,0l-35.92 0 -44.92 17.96 -9 0c-35.95,-8.96 -62.87,-8.96 -94.34,0l-112.31 4.52 -49.39 -13.48 -98.83 -9 -49.43 9 -107.82 -4.51 0 0c-22.45,-4.49 -44.92,-8.97 -67.36,-8.97l-67.39 4.48 -53.91 9 -107.83 8.96 -58.39 -4.48 -107.82 -4.48 -44.92 4.48 -80.87 0c-17.96,0 -35.92,0 -53.88,9 -31.47,8.96 -62.9,26.95 -80.86,62.87 -9,18 -9,35.96 -9,53.92l0 112.3 0 67.39 0 89.83 -4.48 31.47c-4.48,17.96 -4.48,22.44 -4.48,40.4l-4.52 76.39 9 53.91 -4.48 116.79 0 58.39 -9 62.91c-4.48,26.96 -9,62.88 0,89.83l4.48 9 4.52 103.31 4.48 58.39 -13.48 85.35c0,13.48 0,22.47 0,31.47l0 31.44 13.48 94.34 -4.48 35.92c0,18 0,31.44 0,49.43l13.47 94.35 0 53.88 -13.47 98.83 8.96 58.42 -13.48 112.31 -4.48 26.95c-4.48,17.96 -4.48,40.4 -4.48,58.4l8.96 89.83 -8.96 94.34c0,22.44 0,31.44 4.48,53.91l9 35.92 4.48 112.31 4.48 58.39 4.51 107.83 -8.99 58.39 -4.48 89.86 -4.52 58.4 -4.48 89.83 9 62.91 -9 89.83 9 53.91 -9 80.87c0,17.96 -4.48,31.44 0,53.91l4.48 26.96c4.52,26.95 17.99,53.87 35.95,67.35z"/>
   <path class="fil2 str0" d="M4111.84 11066.91m40.43 -17.96c17.96,8.96 49.43,13.47 94.35,8.96l116.79 9 49.43 4.48 89.83 8.99c8.99,0 26.95,0 35.95,0l35.92 -4.48 89.86 -8.99 26.96 4.48c13.48,4.51 22.44,8.99 35.92,8.99l89.86 4.49 62.88 -8.97 125.78 8.97 134.78 0 44.92 -8.97 121.3 -8.99 44.91 4.48 71.87 17.99c17.96,4.48 40.44,0 62.88,0l170.73 -13.48 107.79 -4.51 53.91 -17.96 103.31 17.96 58.43 4.51 80.83 4.48c18,0 35.96,0 49.43,-4.48l26.96 -4.51 94.35 -13.48c35.91,-4.48 80.83,-13.48 107.79,-53.88 13.47,-17.99 17.99,-31.47 17.99,-44.95l4.48 -76.35c0,-13.48 0,-17.96 0,-31.44l0 -35.95 -13.48 -103.31 4.48 -31.47c0,-8.96 0,-31.44 0,-40.4l-8.96 -71.91 13.48 -67.35 4.48 -98.83c0,-4.51 0,0 0,0 4.48,-44.95 -112.31,-121.3 -112.31,-121.3l-76.38 -9c-22.44,-4.48 -53.88,0 -76.35,4.52l-4.49 0 -80.86 -4.52c-22.48,0 -44.92,0 -67.39,4.52l-9 4.48 -121.27 4.48 -44.91 9 -103.35 -13.48 -26.95 -4.48c-17.96,-4.52 -44.92,-9 -62.88,-4.52l-85.35 9 -40.43 9 -107.82 -13.48 -58.4 4.48 -98.82 0 -67.39 0 -49.4 -53.91 -4.52 -58.4 9 -103.34 9 -35.92c4.48,-13.48 4.48,-35.95 4.48,-49.43l0 -76.35 -9 -53.91 49.43 -53.91 35.92 0c9,0 26.96,4.51 35.95,4.51l94.35 -9 44.91 9 40.44 4.48 85.35 9c22.44,4.48 44.91,0 67.39,-4.52l17.96 -4.48 112.3 4.48 44.92 -8.96 107.82 -9 58.4 13.48c13.47,4.48 22.47,4.48 35.95,4.48l76.35 0c9,0 17.96,0 31.44,-4.48 26.95,-8.99 67.39,-31.44 89.86,-76.38 4.48,-13.48 4.48,-22.45 4.48,-35.92l-8.99 -49.43 8.99 -103.31 9 -26.96c4.48,-26.95 4.48,-49.4 0,-80.87l-9 -62.87 0 -58.4 4.49 -98.82c0,-9 0,-26.96 -4.49,-35.95 -4.48,-40.44 -22.47,-85.35 -71.87,-107.83 -8.99,0 -13.48,-4.48 -22.47,-4.48l-26.96 -4.48c-13.48,-4.52 -35.92,-4.52 -49.4,-4.52l-76.38 4.52 -49.4 4.48 -89.86 4.48 -53.88 -8.96 -121.3 -9 -53.91 0 -130.27 4.48 -9 0c-22.47,-8.96 -49.39,-13.47 -76.35,-13.47l-67.39 0 -49.43 13.47 -58.39 0 -40.44 -49.39 9 -31.44c4.48,-13.48 4.48,-31.47 4.48,-49.43l-4.48 -31.44 4.48 -103.34 -8.96 -58.39 8.96 -40.44 44.92 -53.88 49.43 -8.99 103.31 -17.96 53.91 0 89.86 17.96 53.88 4.48 112.31 0 44.94 0 53.92 8.99c8.96,4.49 26.92,4.49 35.92,4.49l31.43 4.48 116.82 -4.48 35.92 4.48c13.48,0 35.95,-4.48 49.43,-4.48l85.35 -13.48 40.44 4.51 85.35 -8.99c13.47,0 31.43,-4.49 44.91,-9 31.44,-13.48 62.91,-35.92 76.35,-76.35 0,-9 4.52,-22.48 4.52,-31.44l4.48 -112.31 13.48 -44.94 4.48 -76.36c0,-22.47 4.51,-44.91 0,-62.91l-4.48 -17.96 -13.48 -107.82 -4.48 -116.79c0,-8.99 0,-22.47 -4.52,-35.92 -26.92,-35.95 -121.26,-89.86 -121.26,-89.86l-103.35 -9 -49.39 -8.96c-13.48,-4.51 -31.44,-4.51 -44.92,-4.51l-80.87 4.51 -44.91 0 -107.83 13.48 -44.91 -4.52 -89.87 -8.96c-13.47,0 -31.43,-4.51 -44.91,-4.51l-40.44 4.51 -22.44 0c-17.99,0 -40.43,-4.51 -58.39,0l-22.47 4.48 -49.43 4.48 -62.88 -8.96c-26.96,-4.51 -49.43,-4.51 -76.39,0l-17.96 4.48 -116.78 -8.99 -49.43 0 -107.79 4.51 -67.39 13.48 -44.92 -4.52 -53.91 4.52 -53.91 4.48 -116.79 -4.48 -17.99 -9c-26.96,-8.99 -58.4,-13.48 -89.83,-8.99l-53.91 8.99 -58.4 -4.48 -112.3 13.48c-40.44,0 -76.39,17.96 -116.79,49.4l-4.52 40.43c0,4.51 0,17.96 0,22.47l0 26.96 13.48 107.79c-8.96,26.96 -13.48,49.43 -13.48,80.87l4.52 67.39 -4.52 58.39 -4.48 94.35 0 17.96c-4.48,17.96 -4.48,26.95 -4.48,44.91l0 89.87 -8.99 58.39 0 103.31 4.48 49.43 8.99 98.83 -4.48 71.87 4.48 103.31 0 44.95 -4.48 112.3 0 53.88 -4.51 35.95c-4.48,49.43 0,94.35 13.47,116.79l-8.96 103.34 0 49.4 -8.99 125.78 4.48 62.91 -4.48 76.35c0,13.48 0,26.96 0,40.44l4.48 31.43 8.99 112.31 0 58.43 4.48 103.31 0 49.39 4.52 94.35 -4.52 58.39 4.52 103.34 -9 49.4 -8.99 112.31 -4.48 40.43c0,9 0,22.47 0,31.44l0 94.34 -4.49 17.96c-4.51,13.48 -4.51,35.96 -4.51,49.43l4.51 80.87 4.49 40.44c4.48,35.91 13.47,58.39 31.43,71.87z"/>
   <path class="fil2 str0" d="M6784.76 11066.91m1666.62 -1859.8l-44.92 -31.43c-31.47,-17.96 -67.39,-31.44 -103.34,-35.96l0 0c-22.44,-17.96 -49.4,-26.92 -80.83,-35.92l-44.95 -17.96 -58.4 -22.47 -94.34 -40.43 -44.92 -13.48 -89.83 -40.44 -44.91 -31.43 -49.43 -85.35 -4.49 -58.4 -8.99 -53.91 13.48 -53.91 31.43 -53.91 58.43 -17.96 35.92 -17.96 116.79 -4.52 35.95 0c4.48,0 17.96,0 22.47,0l44.92 0 40.43 -13.47 58.4 8.99 107.82 4.48 67.36 -4.48 98.82 31.44 148.26 31.44 58.4 22.47 89.86 26.96 22.44 8.99c4.51,4.49 13.48,4.49 22.47,8.97l44.92 8.99 35.95 -35.95 4.48 -8.96c4.49,-22.48 4.49,-40.44 0,-62.91l-13.47 -80.87 -4.49 -44.91 8.97 -121.27 4.51 -22.48c4.48,-13.47 4.48,-31.43 4.48,-49.43l4.49 -89.83 -22.45 -53.91 13.48 -94.34 0 -49.4c0,-9 0,-9 0,-13.48 -13.48,-35.95 -94.34,-116.79 -94.34,-116.79l-107.83 -31.47 -22.44 -8.96c-8.99,-4.52 -22.47,-13.48 -35.95,-17.99l-44.92 -13.45c-17.99,-4.51 -40.43,-8.99 -58.39,-8.99l-26.96 0 -94.34 0 -44.92 0 -112.3 -13.48 -44.92 0 -139.26 -13.48c-17.99,0 -40.43,0 -58.43,4.48l-22.44 4.52 -40.43 -4.52c-13.48,0 -26.96,0 -40.43,0l-85.35 9 -148.26 17.96 -58.39 4.51 -98.83 17.96 -35.92 8.96c-13.48,4.52 -26.96,9 -40.44,13.48l-67.39 26.96 -22.47 8.99c-17.96,9 -31.44,13.48 -44.91,22.48l-62.88 40.4 -35.95 35.95 -112.31 76.36 -85.35 71.9 -44.91 49.4 -76.39 80.86 -4.48 4.49c-13.48,22.47 -26.96,40.43 -35.95,67.39l-17.96 67.39 -40.44 121.3 -8.96 62.87 -17.99 112.31 -8.97 49.43 -4.51 31.44c-4.48,13.47 -4.48,35.92 -4.48,49.39l0 35.95 0 22.45c0,13.47 0,31.47 4.48,44.94l4.51 40.44c4.49,22.44 13.48,49.4 22.45,71.87l8.99 17.96 40.44 103.31 8.96 26.95c4.51,18 9,31.48 13.48,44.92l35.95 67.39 22.47 40.43c8.97,13.48 17.96,31.44 31.44,44.92l49.4 58.43 49.43 44.91 67.39 49.4c4.48,4.51 13.48,4.51 17.96,9l40.43 22.47 89.83 40.4 26.96 22.47c9,9 22.47,13.48 35.95,22.48l85.35 40.43 40.43 22.44 116.79 58.4 40.44 8.99 49.39 22.48 58.43 22.44 49.4 17.96 94.34 53.91 62.88 17.99 80.87 53.88 40.43 9 44.91 31.44 35.96 62.9 -9 103.31 -13.48 62.91 -53.91 53.88 -58.39 9 -94.35 8.99 -67.36 -4.51 -53.91 -4.48 -49.43 4.48 -49.39 -8.97 -112.31 -8.99 -35.95 -8.96c-17.96,-4.52 -40.44,-9 -62.88,-9l-67.39 -4.48 -35.95 -4.52 -112.3 -31.43 -62.88 -17.96 -85.35 -44.92 -49.43 -4.51 -80.87 -49.4 -26.95 -4.52c-17.96,-4.48 -40.4,-8.96 -53.88,4.52 -26.96,22.44 -58.43,80.83 -58.43,80.83l13.48 94.35 -4.48 53.91 -4.48 17.96c-4.52,17.99 -4.52,40.43 -4.52,62.91l4.52 76.35 0 49.43 -4.52 121.27 0 0c-8.96,31.47 -8.96,58.43 -4.48,85.38l9 76.36c-4.52,31.43 0,53.91 13.47,71.87 31.44,40.43 67.39,62.91 94.32,67.39l98.82 35.92 40.44 13.47c8.99,4.52 26.95,13.48 35.95,13.48l89.83 17.99 13.48 8.97c22.47,13.48 49.43,22.47 76.39,26.95l53.91 9 58.39 4.48 44.92 4.52 98.82 8.96 53.92 0 112.3 0 44.92 -4.48 40.43 0 4.48 4.48c40.44,4.48 71.87,0 98.83,-13.48l107.82 -4.48 139.26 4.48c17.96,0 35.96,0 49.43,-4.48l13.48 -4.48 103.31 -26.96 53.91 -8.99 85.35 -22.48c13.48,-4.48 31.44,-4.48 44.92,-13.48l13.48 -8.96 94.34 -49.43 58.4 -22.44 85.34 -49.43c13.48,-4.48 22.48,-17.96 31.44,-26.96l71.87 -62.87c4.52,-4.52 9,-9 13.48,-13.48l26.96 -26.96 53.91 -76.38 22.47 -22.44c8.97,-13.48 22.45,-26.96 31.44,-44.92l22.48 -40.43c4.48,-13.48 8.96,-18 13.47,-31.47l13.45 -44.92 17.99 -49.4c8.96,-31.47 13.48,-67.39 8.96,-107.82l0 0 9 -94.35 9 -58.39 4.48 -44.91 4.48 -58.4 4.52 -22.47c0,-13.48 0,-31.44 0,-49.4l-9 -76.39 -4.48 -22.44c0,-13.47 0,-26.95 -4.52,-40.43l-8.96 -26.96 -35.95 -89.86 -26.96 -49.4 -13.48 -35.95c-17.96,-35.92 -40.43,-71.87 -71.87,-94.31l-67.39 -71.91 -13.48 -13.47c-13.47,-17.96 -35.92,-31.44 -53.88,-44.92l-71.9 -62.88 -49.4 -35.95 -76.38 -49.4 -44.92 -22.47 -94.34 -53.91 -49.4 -26.96z"/>
   <path class="fil2 str0" d="M9385.81 11066.91m62.87 -3189.5l-35.92 35.95 -8.99 40.43c-4.49,13.48 -8.97,26.96 -8.97,40.44l-4.51 85.35 0 116.78 8.99 67.39 0 116.79 -8.99 76.39c-4.48,26.95 -4.48,58.39 8.99,85.35 9,26.95 26.96,49.39 58.4,62.87 17.96,9 35.95,13.48 53.91,9l107.86 4.48 26.95 9c22.44,8.99 44.92,13.47 71.87,13.47l121.27 0 98.83 -13.47 44.95 4.48 121.27 13.48 58.39 4.48 49.43 62.91 4.48 58.39 4.52 98.83 4.48 49.43 -4.48 98.82 4.48 53.92 0 103.31 -9 26.95c-4.48,13.48 -4.48,31.44 -4.48,49.4l0 85.38 9 44.92 4.48 116.78 -4.48 35.96c0,13.47 0,35.91 0,49.39l8.96 80.87 9 49.4 0 107.82c-13.48,31.44 -17.96,58.39 -17.96,98.83l4.48 62.91 -4.48 22.44c0,17.99 0,35.95 0,53.91l8.96 71.87 -4.48 35.95c0,13.48 -4.48,22.45 -4.48,40.44l4.48 89.83 13.48 44.91 0 107.83 -9 58.39c0,9 0,22.48 0,31.44l-4.48 98.86 8.99 53.88 -4.51 112.3 0 53.92 4.51 89.86c0,0 0,4.48 0,8.96 4.49,40.44 89.84,103.34 89.84,103.34l103.3 4.49 58.4 -4.49 98.86 4.49 53.88 -4.49 107.82 4.49 49.43 0 49.4 8.99c26.95,4.48 49.43,4.48 76.38,0l22.45 -4.51 98.82 0 58.4 -8.97 4.51 -4.51c26.96,-35.92 44.92,-71.87 49.4,-94.31l8.99 -116.82 9 -49.4 8.96 -121.3 0 -31.44c0,-9 0,-26.96 0,-35.95l-8.96 -85.35 0 -58.39 -13.48 -112.31 -4.51 -53.91 0 -112.31 4.51 -4.48c8.97,-26.95 13.48,-49.43 13.48,-71.87l4.48 -80.87 4.48 -44.91 -8.96 -53.92 0 0c8.96,-35.95 4.48,-71.87 -4.51,-107.82l8.99 -112.3 0 -49.4 -4.48 -112.31 4.48 -26.95c0,-17.99 4.48,-31.47 0,-53.91l-13.48 -76.39 9 -26.96c4.48,-22.44 0,-31.43 0,-53.88l-4.51 -89.86 -17.96 -53.91 13.47 -85.35 9 -40.43c4.48,-17.96 4.48,-26.96 4.48,-44.92l0 -76.35 4.48 -18c4.52,-26.92 9,-40.4 4.52,-67.35l-9 -71.87 0 -62.91 62.88 -53.91 49.43 -26.96 112.3 9 44.92 4.48 94.34 -8.97 40.44 0c13.48,0 26.95,4.49 40.43,0l76.36 -13.47 175.21 0 53.88 8.96 8.99 -13.48c22.48,-35.92 35.96,-62.87 40.44,-103.31l8.99 -130.26 -4.51 -107.83 4.51 -22.47c4.49,-22.44 8.97,-49.4 8.97,-71.87l-4.48 -76.35 4.48 -94.35c0,-22.47 0,-35.95 -4.48,-53.91 -9,-31.44 -26.96,-62.88 -58.4,-89.83 -17.99,-18 -35.95,-26.96 -53.91,-26.96l-287.52 0 -4.48 0c-22.47,-4.51 -44.92,-9 -71.87,-4.51l-62.91 4.51 -58.39 0 -103.31 13.48 -62.91 -4.52 -103.31 -8.96c-9,0 -22.47,-4.51 -31.44,-4.51l-26.95 4.51 -103.34 8.96 -44.92 -8.96 -98.83 -4.51c-8.96,0 -26.95,4.51 -35.92,4.51l-31.47 4.48 -49.39 9 -67.39 -4.52 -17.96 0c-13.48,-4.48 -35.96,-4.48 -49.43,-4.48l-89.84 4.48 -44.91 0 -116.82 4.52 -49.4 -4.52 -112.3 -4.48 -49.43 13.48 -94.35 -9 -31.44 -4.48c-17.96,-4.48 -35.92,-4.48 -53.91,-4.48l-67.36 4.48 -53.91 4.48 -94.34 0 -67.39 4.52 -89.83 -4.52c-4.52,0 -13.51,0 -22.51,0 -31.44,4.52 -58.39,18 -80.87,40.44z"/>
   <path class="fil2 str0" d="M12588.78 11066.91m813.1 -1073.66l31.43 -26.96 4.52 -40.4c4.48,-17.99 4.48,-26.95 4.48,-44.95l0 -80.83 -4.48 -53.91 4.48 -98.83 9 -53.91 -4.52 -89.86 0 -53.88 4.52 -89.87 8.96 -71.87 0 -103.31 4.48 -44.95c4.52,-13.47 4.52,-22.44 4.52,-35.92l4.48 -71.87 0 -17.99c4.48,-22.44 8.99,-35.92 8.99,-58.39l0 -76.36 4.48 -26.95c0,-9 4.49,-26.96 4.49,-35.95l4.51 -89.84 -9 -58.39 13.48 -58.39c4.48,-26.96 9,-49.43 4.48,-80.87l0 -9 4.52 -31.43c8.96,-35.96 8.96,-71.88 0,-107.83l0 -4.48 0 -103.31 8.96 -31.47c4.52,-22.44 9,-40.43 9,-58.39l0 -76.36 0 -53.91 -4.48 -71.87c0,-17.99 0,-35.95 -9,-49.43 -22.47,-40.43 -89.83,-94.35 -89.83,-94.35l-116.82 13.48 -26.96 -4.48c-8.96,0 -26.95,-4.48 -35.92,-4.48l-89.86 4.48 -4.48 0c-22.48,-9 -53.91,-13.48 -80.87,-13.48l-67.39 0 -125.78 4.48 -49.4 -4.48 -62.91 0c-17.96,0 -44.91,0 -62.87,9 -26.96,13.48 -58.4,40.43 -76.36,89.83 -4.51,13.48 -8.99,26.96 -8.99,35.95l-4.48 112.31 4.48 49.39 8.99 116.82 17.96 121.27 -4.51 40.44c0,13.48 -4.48,22.47 -4.48,35.95l4.48 89.83 13.48 53.91 4.51 103.31 0 9c-4.51,31.44 -8.99,58.39 -4.51,85.35l8.99 58.39 9 58.39 8.96 89.87 0 44.91 -4.48 103.31 17.96 53.91 -13.48 71.88c-4.48,13.47 0,31.47 0,49.43l4.52 31.43 4.48 89.87 -4.48 31.44c0,13.47 0,35.92 4.48,49.39l17.96 85.35 -8.96 40.44c0,17.99 0,31.47 0,44.94l8.96 89.84 -4.48 13.47c-4.48,13.48 -9,31.44 -9,49.4l0 76.39 4.52 4.48c8.96,26.95 22.44,49.43 40.43,67.39 35.92,26.95 67.36,44.91 94.31,44.91l116.82 9 44.92 -13.48 112.3 9 31.44 4.48c17.96,0 35.95,0 53.91,0l143.75 -17.96c26.95,-4.51 49.43,-13.48 67.39,-31.47zm-790.62 516.61l-22.48 76.39 13.48 53.91 -4.48 17.96c-4.52,22.44 -9,49.4 -9,71.87l0 26.96 9 35.92c8.96,49.43 35.92,80.86 62.87,107.82l35.96 76.39c4.48,13.47 13.47,22.44 17.96,31.43 22.47,26.96 44.91,44.92 76.35,58.4l31.47 17.96 40.43 13.47c8.97,4.52 26.93,9 35.92,9l62.91 13.48c17.96,4.48 40.4,4.48 58.39,4.48l17.96 0 44.92 4.48c17.99,0 35.95,0 53.91,-4.48l22.47 0 116.79 -26.96 31.44 -13.47c9,-4.49 22.47,-8.97 31.47,-17.96l26.92 -17.96c31.47,-22.48 53.92,-44.92 71.91,-80.87l26.92 -53.91 13.48 -26.96c4.51,-13.48 8.99,-22.44 13.48,-35.92l22.47 -80.87 13.48 -62.9 8.99 -44.92 0 -49.4 4.49 -13.47c4.48,-26.96 4.48,-49.43 0,-76.39l0 -4.48c-4.49,-31.44 -17.96,-49.43 -31.44,-71.87l-4.52 -9 -26.95 -40.43c-17.96,-22.45 -44.92,-44.92 -67.36,-62.88l-8.99 -4.51 -76.36 -53.88 -17.99 -9c-22.44,-17.96 -53.91,-31.44 -80.84,-35.95l-22.47 -4.48c-26.96,-4.48 -58.39,-9 -85.35,-4.48l-13.48 4.48 -53.91 4.48 -49.43 9 -40.4 4.48 -103.34 17.99c-26.96,4.48 -58.4,13.48 -98.83,44.91l-8.96 8.97c-13.48,8.99 -22.48,17.99 -31.47,31.47l-62.88 71.87 -13.48 17.96c-13.47,22.47 -26.95,49.43 -31.43,71.87z"/>
  </g>
 </g>
</svg>
