<?xml version="1.0" encoding="UTF-8"?>
<!DOCTYPE svg PUBLIC "-//W3C//DTD SVG 1.1//EN" "http://www.w3.org/Graphics/SVG/1.1/DTD/svg11.dtd">
<!-- Creator: CorelDRAW 2017 -->
<svg xmlns="http://www.w3.org/2000/svg" xml:space="preserve" width="40mm" height="20mm" version="1.1" style="shape-rendering:geometricPrecision; text-rendering:geometricPrecision; image-rendering:optimizeQuality; fill-rule:evenodd; clip-rule:evenodd"
viewBox="0 0 4000 2000"
 xmlns:xlink="http://www.w3.org/1999/xlink">
 <defs>
  <style type="text/css">
   <![CDATA[
    .fil15 {fill:#2B2A29}
    .fil2 {fill:#010101}
    .fil14 {fill:#020202}
    .fil0 {fill:#040404}
    .fil7 {fill:#050505}
    .fil6 {fill:#060606}
    .fil9 {fill:#080808}
    .fil10 {fill:#090906}
    .fil12 {fill:#0A0A09}
    .fil11 {fill:#0C0C0A}
    .fil8 {fill:#888B8A}
    .fil3 {fill:#CD151A}
    .fil13 {fill:#F1EE0F}
    .fil4 {fill:#F8F303}
    .fil5 {fill:#FDFDFD}
    .fil1 {fill:#FEFEFE}
    .fil16 {fill:#2B2A29;fill-rule:nonzero}
   ]]>
  </style>
 </defs>
 <g id="Vrstva_x0020_1">
  <metadata id="CorelCorpID_0Corel-Layer"/>
  <g id="_2239435660976">
   <g>
    <path class="fil0" d="M1235.87 890.37c-133.33,33.64 -157.14,38.13 -301.58,38.13 -74.6,0 -157.13,-6.73 -230.14,-26.91 -17.46,-4.49 -52.38,-15.7 -66.67,-17.94 -4.76,112.12 23.81,291.53 50.79,399.17 65.08,264.63 407.92,287.05 493.63,4.49 23.81,-76.25 65.08,-336.39 53.97,-396.94z"/>
    <path class="fil1" d="M853.21 1461.13c22.03,8.51 45.37,13.61 69.31,14.93 2.87,0.16 5.74,0.26 8.61,0.31l1.58 -260.6c-144.44,6.72 -122.22,-33.64 -153.96,-20.19 -12.7,4.49 -19.05,6.73 -33.34,2.24 -17.46,-4.48 -34.91,-22.42 -33.33,-42.6 0,-20.19 15.87,-38.13 31.75,-42.61 47.61,-17.94 133.32,47.09 188.88,29.15l1.58 -199.37c-26.57,0 -53.72,-0.81 -80.94,-2.7 0.1,15.91 1.72,110.54 -1.41,155.38l-50.97 -5.11c-39.46,-4.29 -123.89,-20.87 -138.16,-22.32 0.66,5.08 1.34,10.16 2.04,15.24 6.29,45.65 14,91.87 23.48,137.43 18.99,5.15 115.07,26.31 165.18,31.74 1.31,16.49 -0.4,173.18 -0.3,209.08z"/>
    <path class="fil2" d="M1278.33 692.74c-25.39,-17.94 -82.14,-51.29 -112.3,-64.75 -63.49,-33.64 -157.14,-43.45 -239.67,-41.21 -92.06,2.25 -160.31,9.82 -234.91,43.46 -33.33,15.69 -58.73,33.63 -88.89,51.57l-82.53 53.83c23.41,-7.29 62.83,-21.8 88.88,-29.16 31.75,-8.97 63.49,-17.94 98.41,-24.67 84.12,-13.45 126.98,-24.66 219.04,-24.66 120.63,0 250.78,24.66 366.65,60.55 24.47,8.11 38.96,15.72 60.31,22.42 -23.89,-16.88 -50.4,-31.03 -74.99,-47.38z"/>
    <path class="fil3" d="M662.81 1067.64c14.27,1.45 98.7,18.03 138.16,22.32l50.97 5.11c3.13,-44.84 1.51,-139.47 1.41,-155.38 -51.84,-3.61 -103.92,-11.17 -152.66,-24.65 -10.54,-2.71 -21.04,-5.91 -31.5,-8.93 -5.72,-1.66 -12.01,-3.58 -18.29,-5.28 -0.37,25.42 0.81,51.06 2.62,76.3 2.16,30.23 5.38,60.44 9.29,90.51z"/>
    <path class="fil4" d="M1027.91 941.07l-4.57 154.76c46.5,-0.62 144.75,-19.32 186.02,-30.54 2.76,-10.3 10.47,-78.76 11.75,-93.75 1.35,-15.91 2.43,-31.98 2.67,-47.95 0.07,-4.75 0.11,-9.93 -0.07,-15.09 -3.49,0.61 -6.86,1.22 -10.12,1.84 -25.73,6.49 -51.76,12.87 -77.85,18.04 -13.63,3.02 -28.22,5.66 -46.37,7.66 -20.28,2.59 -40.84,4.12 -61.46,5.03z"/>
    <path class="fil2" d="M764.46 596.6c122.22,-26.92 258.72,-24.67 350.78,4.48 -36.51,-91.94 -73.01,-121.1 -174.6,-121.1 -42.85,-2.24 -88.88,2.24 -119.04,24.67 -25.39,15.7 -46.03,53.82 -57.14,91.95z"/>
    <path class="fil3" d="M853.21 1461.13c-0.1,-35.9 1.61,-192.59 0.3,-209.08 -50.11,-5.43 -146.19,-26.59 -165.18,-31.74 4.13,19.88 8.6,39.65 13.43,59.18 13.7,55.4 41.75,105.92 85.79,142.84 19.76,16.56 41.94,29.65 65.66,38.8z"/>
    <path class="fil4" d="M1023.18 1256.92l-1.58 202.06c15.95,-6.68 31.2,-15.22 45.46,-25.53 50.78,-36.66 83.47,-90.96 101.55,-150.19 4.22,-13.8 8.73,-32.07 11.93,-46.57 -52.53,8.26 -83.84,18.02 -157.36,20.23z"/>
    <path class="fil0" d="M504.16 749.09l4.76 17.94c33.33,-8.97 69.84,-20.18 99.99,-29.15 114.28,-33.64 217.45,-49.34 341.26,-49.34 114.28,2.24 273,26.91 380.93,71.76 31.75,15.7 34.92,15.7 39.68,-2.24 0,0 -1.58,-2.24 -1.58,-2.24 0,0 -3.18,-4.49 -19.05,-11.21 -128.57,-51.58 -322.21,-80.74 -409.51,-80.74 -104.75,-8.97 -336.49,38.13 -436.48,85.22z"/>
    <path class="fil5" d="M937.47 1146.25l0 76.24c92.06,13.46 215.86,-2.24 234.91,-112.13 -36.51,13.46 -30.16,17.95 -104.76,31.4 -46.03,6.73 -84.12,8.97 -130.15,4.49z"/>
    <path class="fil0" d="M668.84 570.39c-10.96,-8.2 -29.53,-8.43 -42.47,-2.95 -15.87,6.73 -30.75,20.98 -40.26,29.95 -19.06,17.95 -23.64,33.11 -57.08,49.08 -14.04,6.69 -24.33,6.49 -30.96,4.15 0.25,19.57 30.92,59.96 88.62,8.77 24.38,-22.97 27.75,-42.09 47.63,-56.56 7.19,-5.24 14.8,-10.74 27.47,-13.29 6.15,-1.24 13.07,-1.17 21.72,1.56 -4.24,-8.99 -6.44,-14.55 -14.67,-20.71z"/>
    <path class="fil0" d="M1193.01 592.11c52.38,4.49 65.08,35.88 88.89,65.04 11.11,11.21 25.39,26.91 47.61,31.39 26.99,4.49 41.27,-11.21 47.62,-31.39 -15.87,-2.25 -38.09,13.45 -85.71,-58.31 -7.94,-11.21 -25.39,-24.67 -47.62,-26.91 -20.63,-2.25 -44.44,6.73 -50.79,20.18z"/>
    <path class="fil6" d="M580.34 1087.72c-50.79,20.18 -20.63,89.7 28.57,74.01 44.45,-15.7 23.81,-96.44 -28.57,-74.01z"/>
    <path class="fil2" d="M1218.41 1280.58c-53.97,13.46 -31.75,89.71 17.46,76.25 49.2,-13.46 30.16,-87.46 -17.46,-76.25z"/>
    <path class="fil0" d="M1258.09 1087.72c-49.2,17.94 -19.05,91.95 28.57,71.76 44.44,-15.69 22.22,-91.94 -28.57,-71.76z"/>
    <path class="fil0" d="M1321.58 1285.07c-53.97,13.45 -30.16,87.46 20.63,74 46.03,-13.45 28.57,-87.46 -20.63,-74z"/>
    <path class="fil0" d="M1237.46 1419.62c-7.94,15.7 -12.7,35.88 -7.94,58.31 3.17,20.18 19.05,31.4 31.74,35.88 15.88,4.49 25.4,2.24 39.68,-2.24 -7.93,-17.94 -30.15,-22.43 -36.5,-65.04 -6.35,-35.88 11.11,-51.58 -12.7,-82.97 -1.59,15.7 -1.59,24.67 -14.28,56.06z"/>
    <path class="fil0" d="M1162.86 619.02c23.8,6.73 58.72,31.4 79.36,42.61 22.22,13.46 57.14,47.09 87.29,35.88 -79.36,-35.88 -65.07,-80.73 -114.28,-94.19 -17.46,-6.72 -38.09,0 -52.37,15.7z"/>
    <path class="fil7" d="M1134.29 537.06c-46.03,24.67 -11.12,87.46 33.33,67.28 44.44,-17.94 15.87,-91.95 -33.33,-67.28z"/>
    <path class="fil0" d="M716.84 532.57c-52.37,13.46 -31.74,85.22 17.46,74.01 17.46,-4.49 31.75,-20.18 26.99,-44.85 -3.18,-17.94 -23.81,-33.64 -44.45,-29.16z"/>
    <path class="fil0" d="M548.6 690.78c28.57,8.97 63.49,-29.15 109.52,-53.82 19.04,-11.21 34.92,-15.7 47.61,-22.42 -31.74,-31.4 -60.31,-20.19 -87.29,17.94 -19.05,24.67 -39.68,49.33 -69.84,58.3z"/>
    <g>
     <path class="fil0" d="M1331.74 1369.38c16.3,34.94 -3.75,50.81 0.95,95.09 3.17,24.67 36.51,60.55 79.36,44.86 -6.35,4.48 -31.74,-13.46 -38.09,-35.89 -6.35,-26.91 1.58,-56.06 0,-74 -1.59,-15.7 -7.94,-29.15 -15.87,-38.13l-0.12 0.03c-3.84,2.52 -8.26,4.59 -13.32,6.07l-0.22 0.06c-4.41,1.16 -8.64,1.77 -12.69,1.91z"/>
     <path class="fil7" d="M1354.91 1511.57c-31.74,-26.91 -36.51,-58.31 -26.98,-91.95 4.32,-18.3 3.41,-38.46 -2.72,-50.41 -5.79,-0.55 -11.12,-2.12 -15.9,-4.47 -39.76,41.07 -22,137.94 45.6,146.83z"/>
     <path class="fil6" d="M1453.32 1486.9c-15.87,-2.24 -39.68,-4.49 -52.38,-58.31 -4.68,-26.42 -6.29,-59.33 -37.9,-71.13 -0.26,0.23 -0.51,0.47 -0.77,0.69 33.43,43.8 10.18,57.47 18.04,106.32 1.58,13.46 15.87,31.4 26.98,38.13 20.63,11.21 36.51,2.24 46.03,-15.7z"/>
    </g>
    <path class="fil6" d="M488.28 603.32c-12.69,35.88 7.94,47.1 33.34,38.13 15.87,-4.49 34.91,-20.19 53.96,-42.61 12.7,-15.7 17.46,-17.94 34.92,-31.4 -50.79,-2.24 -60.31,49.34 -122.22,35.88z"/>
    <path class="fil7" d="M1388.24 610.05c-11.11,0 -23.81,13.46 -60.31,-13.45 -12.7,-8.97 -30.16,-24.67 -53.97,-22.43 14.29,8.97 39.68,44.85 53.97,58.31 17.46,17.94 63.49,33.64 60.31,-22.43z"/>
    <path class="fil6" d="M791.44 704.24c-1.58,20.18 9.53,31.4 23.81,38.12 15.87,6.73 26.99,-2.24 44.44,15.7 1.59,-47.09 -19.04,-69.52 -68.25,-53.82z"/>
    <path class="fil7" d="M1016.83 758.06c6.35,-6.73 20.63,-8.97 30.16,-8.97 3.17,0 6.35,-4.48 7.93,-4.48 9.53,-4.49 20.64,-22.43 20.64,-38.13 -38.1,-22.42 -60.32,13.46 -58.73,51.58z"/>
    <path class="fil6" d="M575.58 991.29c-1.59,-42.61 -19.05,-44.85 -34.92,-56.06 -9.52,-6.73 -7.93,-8.98 -15.87,-15.7 -23.81,35.88 6.35,62.79 50.79,71.76z"/>
    <path class="fil6" d="M854.93 838.79c34.92,-47.09 3.18,-89.7 -28.57,-82.97 -6.35,38.12 11.11,24.67 25.4,69.52l3.17 13.45z"/>
    <path class="fil8" d="M948.58 1157.46l0 53.82c7.94,-13.45 7.94,-20.18 9.52,-38.12 69.84,-2.25 161.9,-17.94 190.47,-42.61 -30.16,8.97 -30.16,13.45 -88.88,22.42 -46.03,6.73 -71.43,6.73 -111.11,4.49z"/>
    <path class="fil6" d="M1294.6 993.53c12.69,-2.24 36.5,-13.45 44.44,-20.18 12.7,-11.21 12.7,-31.4 6.35,-51.58l-31.75 26.91c-12.7,11.21 -19.04,22.43 -19.04,44.85z"/>
    <path class="fil6" d="M599.39 1054.08c-1.59,-44.85 -19.05,-56.06 -57.14,-65.03 -4.76,24.67 7.94,38.12 22.22,47.09 11.11,4.49 23.81,6.73 34.92,17.94z"/>
    <path class="fil9" d="M1310.47 939.71c9.52,-2.24 28.57,-22.43 33.33,-29.15 9.52,-20.19 -7.94,-42.61 -14.29,-51.58 -3.17,8.97 -1.58,8.97 -7.93,17.94 -12.7,22.42 -22.22,24.67 -11.11,62.79z"/>
    <path class="fil6" d="M559.71 939.71c12.7,-29.15 3.17,-42.61 -14.29,-74 -30.15,11.21 -26.98,56.06 14.29,74z"/>
    <path class="fil7" d="M1304.12 888.13c26.98,-24.67 22.22,-65.03 -19.05,-71.76 -1.59,35.88 -4.76,56.06 19.05,71.76z"/>
    <path class="fil6" d="M1283.48 1045.11c11.12,-6.73 25.4,-11.21 33.34,-11.21 11.11,-6.73 20.63,-26.91 17.46,-47.1l-36.51 13.46c-12.7,8.97 -15.87,24.67 -14.29,44.85z"/>
    <path class="fil10" d="M1135.87 820.85c7.94,22.43 41.27,40.37 66.67,13.46 -12.7,-31.4 -41.27,-33.64 -66.67,-13.46z"/>
    <path class="fil9" d="M566.06 888.13c25.39,-11.21 15.87,-42.61 15.87,-74 -34.92,11.21 -44.44,44.85 -15.87,74z"/>
    <path class="fil7" d="M1015.24 823.1c11.11,-22.43 6.35,-17.94 22.22,-29.16 11.12,-8.97 14.29,-17.94 9.53,-35.88 -38.1,-4.48 -58.73,42.61 -31.75,65.04z"/>
    <path class="fil0" d="M1054.92 863.46c0,-29.15 11.11,-44.85 -12.69,-62.79 -30.16,11.21 -28.57,60.55 12.69,62.79z"/>
    <path class="fil0" d="M626.37 827.58c14.29,6.73 20.64,6.73 34.92,-2.24 3.18,-2.24 22.22,-15.7 25.4,-20.18 -19.05,-26.92 -58.73,-17.94 -60.32,22.42z"/>
    <path class="fil7" d="M667.64 832.07c11.11,11.21 28.57,13.45 38.09,11.21 7.94,-8.97 14.29,-11.21 28.57,-20.18 -19.04,-22.43 -57.14,-15.7 -66.66,8.97z"/>
    <path class="fil7" d="M1188.25 798.43c6.35,17.94 28.57,47.09 55.55,35.88 -4.76,-11.21 -7.93,-31.4 -15.87,-40.37 -12.7,-11.21 -28.57,0 -39.68,4.49z"/>
    <path class="fil7" d="M807.32 863.46c39.68,2.25 53.96,-31.39 28.57,-58.3 -25.4,6.72 -22.22,31.39 -28.57,58.3z"/>
    <path class="fil6" d="M1275.55 852.25c6.35,-40.37 4.76,-62.79 -39.68,-58.31 12.7,24.67 11.11,56.07 39.68,58.31z"/>
    <path class="fil6" d="M710.5 850.01c20.63,31.39 60.31,0 66.66,-15.7 -22.22,-17.94 -53.97,0 -66.66,15.7z"/>
    <path class="fil6" d="M1305.9 1089.68c9.46,-13.33 18.8,-24.54 10.92,-46.81 -25.85,0 -38.59,12.34 -47.99,33.09 15.58,-1.96 28.31,3.97 37.07,13.72z"/>
    <path class="fil0" d="M588.28 852.25c17.46,-2.24 30.16,-13.46 31.74,-26.91 0,-8.97 3.18,-17.94 11.11,-29.15 -14.28,-2.25 -26.98,0 -34.91,8.97 -11.12,8.97 -7.94,29.15 -7.94,47.09z"/>
    <path class="fil7" d="M1062.86 865.71c20.63,11.21 23.81,6.72 44.44,0 -6.35,-6.73 -11.11,-15.7 -14.28,-24.67 -6.35,-8.97 -11.11,-13.46 -26.99,-11.22 -4.76,15.7 -4.76,22.43 -3.17,35.89z"/>
    <path class="fil7" d="M1096.19 832.07c9.53,24.66 28.57,44.85 58.73,20.18 -17.46,-8.97 -19.05,-17.94 -26.98,-22.43 -7.94,-4.48 -20.64,-2.24 -31.75,2.25z"/>
    <path class="fil11" d="M1313.64 1246.94c4.76,-31.39 -4.76,-44.85 -34.92,-47.09 -3.17,31.4 4.76,44.85 34.92,47.09z"/>
    <path class="fil10" d="M618.44 1249.19c23.8,-13.46 30.15,-38.13 15.87,-62.8 -25.4,22.43 -25.4,26.91 -15.87,62.8z"/>
    <path class="fil6" d="M756.53 865.71c14.28,15.69 47.61,11.21 50.79,-33.64 -23.81,0 -38.1,20.18 -50.79,33.64z"/>
    <path class="fil0" d="M1259.68 1195.36c-9.53,2.25 -22.22,8.97 -26.99,15.7 -4.76,4.49 -17.46,49.34 7.94,31.4 17.46,-8.97 20.63,-26.91 19.05,-47.1z"/>
    <path class="fil11" d="M607.18 1076.16c-6.44,-15.59 -22.25,-31.03 -45.88,-28.81 -3.12,17.61 -1.65,22.26 5.9,37.25 2.92,-1.8 6.15,-3.44 9.73,-4.86 9.93,-4.25 20.4,-5.82 30.25,-3.58z"/>
    <path class="fil6" d="M573.99 1253.67c11.11,-22.42 14.29,-33.64 -4.76,-53.82l-6.35 -4.49c-19.04,22.43 -4.76,47.1 11.11,58.31z"/>
    <path class="fil6" d="M564.73 1279.83c5.91,-17.5 -0.46,-28.59 -14.54,-41.86 -7.9,8.93 -14.23,15.64 -14.29,33.38 4.67,0.09 9.63,0.88 14.86,2.52 5.3,1.54 9.93,3.56 13.97,5.96z"/>
    <path class="fil9" d="M598.56 1172.58c4.01,10.59 4.09,21.17 5.59,31.75 7.94,-2.24 11.11,-4.48 19.05,-15.69 9.28,-10.93 8.01,-17.6 6.47,-30.38 -4.67,5.06 -10.65,9.1 -17.87,11.65l-0.25 0.09c-4.47,1.43 -8.81,2.26 -12.99,2.58z"/>
    <path class="fil6" d="M653.35 1273.13c-0.08,-8.49 -1.62,-12.91 -3.17,-19.46l-6.35 -15.7c0,0 0,0 0,-2.24 -14.98,12.71 -22.89,21.41 -21.06,39.34 8.63,-3.96 18.97,-5.09 30.58,-1.94z"/>
    <path class="fil12" d="M1332.38 1274.72c-4.92,-21.05 -16.03,-21.1 -37.78,-23.29 -1.54,10.86 -1.59,23.82 4.17,34.81 5.39,-4.15 12.18,-7.47 20.52,-9.55 4.59,-1.25 8.96,-1.88 13.09,-1.97z"/>
    <path class="fil6" d="M1273.65 1171.51c-7.24,19.55 6.94,26.07 27.29,23.85 1.39,-15.59 0.36,-26.11 -3.06,-31.53 -2.46,1.43 -5.14,2.7 -8.08,3.75 -5.31,2.23 -10.75,3.55 -16.15,3.93z"/>
    <path class="fil6" d="M583.52 1204.33l7.93 -11.21c4.77,-8.97 3.18,-8.97 3.18,-20.18l-1.26 -0.21c-9.81,-0.23 -18.56,-3.35 -25.82,-8.33 -4.53,19.94 4.94,33.26 15.97,39.93z"/>
    <path class="fil6" d="M1235.87 1195.36c15.64,-2.2 26.66,-8.77 30.01,-23.99 -7.69,-0.82 -15.13,-3.71 -21.83,-8.84 -1.2,-0.92 -2.35,-1.9 -3.45,-2.92 -4.74,17.8 -6.32,15.62 -4.73,35.75z"/>
    <path class="fil13" d="M883.5 1166.43c-15.87,8.97 -3.17,31.4 14.29,24.67 15.87,-8.97 4.76,-35.88 -14.29,-24.67z"/>
    <g>
     <g>
      <path class="fil14" d="M1211.9 1365.4c-3.79,41.29 -30,59.26 -30,96.83 0,40.37 39.68,58.31 77.78,58.31 -25.4,-8.97 -44.45,-29.16 -38.1,-69.52 3.16,-26.76 22,-51.29 25.34,-89.04 -2.74,1.3 -5.67,2.38 -8.76,3.22 -9.7,2.66 -18.53,2.45 -26.26,0.2z"/>
      <path class="fil0" d="M1189.84 1507.08c-31.75,-49.33 -4.76,-82.97 11.11,-118.85 4.63,-9.82 5.04,-19.64 4.92,-25.1 -5.52,-2.58 -10.34,-6.28 -14.33,-10.73l-0.12 -0.06c-19.04,11.22 -36.5,42.61 -38.09,76.25 -1.59,31.4 17.46,69.52 36.51,78.49z"/>
     </g>
     <path class="fil6" d="M1249.41 1276.27c3.91,-10.02 3.82,-16.72 2.33,-29.33 -16.69,4.29 -27.58,8.58 -32.67,24.62 10.62,-1.99 21.2,-0.51 30.34,4.71z"/>
    </g>
    <polygon class="fil15" points="669.23,1502.6 667.64,1502.6 662.88,1507.08 "/>
    <path class="fil13" d="M819.71 1155.86c-15.87,8.97 -3.17,31.39 14.29,24.67 15.87,-8.97 4.76,-35.89 -14.29,-24.67z"/>
    <path class="fil13" d="M749 1143.46c-15.88,8.97 -3.18,31.4 14.28,24.67 15.87,-8.97 4.76,-35.88 -14.28,-24.67z"/>
    <path class="fil15" d="M651.61 1281.65c53.41,15.49 28.31,90.84 -20.34,75.52 -48.66,-15.31 -26.82,-88.54 20.34,-75.52z"/>
    <path class="fil15" d="M548.34 1282.21c53.42,15.49 26.82,88.54 -23.43,73.17 -45.48,-15.2 -25.23,-88.49 23.43,-73.17z"/>
    <path class="fil15" d="M627.29 1419.86c7.34,15.99 11.33,36.34 5.72,58.57 -3.94,20.05 -20.23,30.65 -33.08,34.65 -16.04,3.88 -25.47,1.27 -39.57,-3.75 8.61,-17.63 30.99,-21.26 38.95,-63.6 7.71,-35.62 -9.14,-51.97 15.84,-82.44 0.99,15.75 0.65,24.72 12.14,56.57z"/>
    <g>
     <path class="fil15" d="M534.99 1366.08c-17.62,34.29 1.82,50.91 -4.56,94.98 -4.11,24.53 -38.78,59.12 -81.01,41.81 6.17,4.72 32.23,-12.24 39.43,-34.41 7.36,-26.65 0.54,-56.08 2.81,-73.95 2.18,-15.63 9.04,-28.83 17.31,-37.5l0.11 0.04c3.74,2.66 8.08,4.89 13.08,6.56l0.21 0.07c4.37,1.33 8.58,2.1 12.62,2.4z"/>
     <path class="fil15" d="M506.43 1507.28c32.75,-25.69 38.7,-56.88 30.46,-90.86 -3.62,-18.45 -1.95,-38.55 4.62,-50.27 5.81,-0.33 11.2,-1.69 16.06,-3.86 38.18,42.55 16.75,138.68 -51.14,144.99z"/>
     <path class="fil15" d="M409.03 1478.89c15.95,-1.64 39.82,-2.97 54.56,-56.27 5.67,-26.23 8.54,-59.05 40.57,-69.64 0.25,0.24 0.49,0.48 0.74,0.71 -35.06,42.5 -12.35,57.05 -22.06,105.57 -2.09,13.38 -17.05,30.77 -28.41,37.07 -21.04,10.42 -36.56,0.85 -45.4,-17.44z"/>
    </g>
    <g>
     <path class="fil15" d="M654.89 1366.65c2.22,41.41 27.73,60.36 26.3,97.9 -1.53,40.34 -41.87,56.76 -79.93,55.31 25.71,-8 45.51,-27.44 40.7,-68.02 -2.13,-26.86 -20.03,-52.09 -21.93,-89.94 2.69,1.4 5.57,2.59 8.63,3.56 9.59,3.02 18.42,3.15 26.23,1.19z"/>
     <path class="fil15" d="M671.56 1509.07c33.59,-48.1 7.91,-82.74 -6.59,-119.2 -4.26,-9.98 -4.29,-19.81 -3.97,-25.26 5.62,-2.37 10.57,-5.88 14.73,-10.18l0.12 -0.05c18.6,11.93 34.86,43.97 35.17,77.64 0.39,31.43 -20.09,68.81 -39.46,77.05z"/>
    </g>
   </g>
   <path class="fil16" d="M1701.55 553.86c-1.41,-0.81 -2.6,-1.01 -3.81,0l-22.6 15.2 -23 -15.2c-1.2,-1.01 -2.4,-0.81 -3.6,0l-7.6 3.79c-1.79,0.8 -1.99,2 -0.8,3.4l20 27.81c0.6,1.19 1.41,1.99 4.21,1.99l21.19 0c2.8,0 3.61,-0.8 4.41,-1.99l19.8 -27.81c1.19,-1.4 0.99,-2.6 -0.6,-3.4l-7.6 -3.79zm-21.8 43.4c-19.01,0 -39.01,0.79 -58.62,2.4 -2.38,0.19 -2.99,0.79 -2.99,2.79l0 149.42c0,2.6 0.61,3.19 2.99,3.19l31.01 0c2.4,0 3,-0.59 3,-3.19l0 -52.6 12.8 0 32.6 51.39c2.01,3 3.41,4.4 8,4.4l31.21 0c3,0 4.01,-1.8 2.4,-4l-34.01 -54.2c21.81,-4.8 29.61,-17.6 29.61,-47 0,-39.41 -14.81,-52.6 -58,-52.6zm-4.01 32.2c19.21,0 24.4,5.2 24.4,21.59 0,16.61 -5.19,20.61 -24.4,20.61l-20.6 0 0 -42.2 20.6 0zm103.42 -76.21c-1.21,0 -2.01,0.39 -2.4,1.2l-14.61 27.01c-0.59,0.99 -0.4,2.19 0.6,2.8l11.01 6.19c1.19,0.6 1.8,0.8 2.8,0l38.39 -31.39c0.4,-0.42 1.01,-1.41 1.01,-2.4l0 -1.41c0,-1.39 -0.81,-2 -2,-2l-34.8 0zm-16.21 45.2c-1.99,0 -3,1.21 -3,3.21l0 150.01c0,2.4 1.01,3.39 3,3.39l31.01 0c2,0 3,-0.99 3,-3.39l0 -150.01c0,-2 -1,-3.21 -3,-3.21l-31.01 0zm194.22 -0.2c-7.21,0 -10.2,1.6 -12.8,8l-34.01 89.61 -34.01 -89.4c-2.39,-6.41 -5.6,-8.01 -12.8,-8.01l-28.4 0c-2,0 -2.4,1.4 -2.6,3.21l-15.2 150.01c-0.19,2.4 1,3.39 3,3.39l31 0c2,0 2.81,-0.99 3.01,-3.39l8.79 -87.21 32.21 82.61c0.79,2.2 2.4,3.19 4.4,3.19l21.39 0c2.01,0 3.41,-0.99 4.41,-3.19l32.2 -82.61 8.6 87.21c0.21,2.4 1.01,3.39 3.01,3.39l31 0c2,0 3.19,-0.99 2.99,-3.39l-15.2 -150.01c-0.2,-2 -0.4,-3.41 -2.4,-3.41l-28.59 0zm120 -0.99c-39,0 -57.8,10.79 -57.8,40l0 4.4c0,27.21 9.19,37.8 26.2,43.8l34.6 12.6c9.6,3.41 13.99,6.4 13.99,14l0 2.01c0,6.79 -5,9.8 -14.19,9.8l-57.8 0c-3.01,0 -4.2,1.19 -4.2,4.19l0 18c0,3.01 0.99,4.4 3.79,5 19.8,3.61 35.61,5 49.8,5 37.82,0 60.01,-11 60.01,-40.2l0 -5.2c0,-27.01 -10.4,-35.4 -30,-42.8l-34.6 -12.8c-7.2,-2.8 -10.21,-7.01 -10.21,-12.6l0 -2.4c0,-7.01 5.21,-10.6 14.8,-10.6l48.61 0c2.8,0 4,-1.01 4,-4.01l0 -19.4c0,-2.19 -1,-3.2 -4,-4.19 -15,-3.21 -26.4,-4.6 -43,-4.6zm160.61 1.19c-1.8,0 -3.19,0.81 -4.2,2l-46 65.01 0 -63.8c0,-2 -0.99,-3.21 -3,-3.21l-31.01 0c-1.99,0 -3,1.21 -3,3.21l0 150.21c0,2.2 1.01,3.19 3,3.19l31.01 0c2.01,0 3,-0.99 3,-3.19l0 -73.22 50 74.21c0.8,1.41 2.4,2.2 4.41,2.2l34.2 0c5.4,0 5.2,-2.79 3.4,-5.39l-54.21 -79.41 48.41 -68c1.4,-2.21 1.79,-3.81 -1.8,-3.81l-34.21 0zm116.22 -1.19c-52.01,0 -66.61,18.19 -66.61,79.6 0,61 14.6,79.2 66.61,79.2 52,0 66.81,-18.2 66.81,-79.2 0,-61.41 -14.81,-79.6 -66.81,-79.6zm0 32.2c24.2,0 29.21,11.59 29.21,47.4 0,35.4 -5.01,47.01 -29.21,47.01 -24.01,0 -29.21,-11.61 -29.21,-47.01 0,-35.81 5.2,-47.4 29.21,-47.4zm175.61 -31.01c-1.81,0 -3.2,0.81 -4.21,2l-45.99 65.01 0 -63.8c0,-2 -1,-3.21 -3,-3.21l-31.01 0c-1.99,0 -3,1.21 -3,3.21l0 150.21c0,2.2 1.01,3.19 3,3.19l31.01 0c2,0 3,-0.99 3,-3.19l0 -73.22 50 74.21c0.79,1.41 2.4,2.2 4.4,2.2l34.21 0c5.4,0 5.2,-2.79 3.39,-5.39l-54.2 -79.41 48.41 -68c1.39,-2.21 1.79,-3.81 -1.81,-3.81l-34.2 0zm113.81 -1.19c-25.6,0 -30,1.8 -36.19,24.2l-35.82 130.41c-0.39,2.2 0.6,3.19 2.6,3.19l30.62 0c1.79,0 1.99,-0.99 2.6,-3.19l11.19 -40.4 50.2 0 10.8 40.4c0.61,2.2 1.01,3.19 2.81,3.19l30.6 0c2,0 3,-0.99 2.6,-3.19l-35.6 -130.41c-6.21,-22.2 -10.41,-24.2 -36.41,-24.2zm-0.2 30.79c2.6,0 2.8,0.6 3.6,3.2l13.61 50 -33.81 0 13.41 -50c0.79,-2.6 0.99,-3.2 3.19,-3.2zm79.2 -29.6c-1.99,0 -3,1.01 -3,3.01l0 26.2c0,2 1.01,2.99 3,2.99l40 0 0 121.22c0,2.2 1.01,3.19 3.01,3.19l31 0c2,0 3,-0.99 3,-3.19l0 -121.22 40.2 0c2,0 3.21,-0.99 3.21,-2.99l0 -26.2c0,-2 -1.21,-3.01 -3.21,-3.01l-117.21 0zm198.62 -1.19c-52,0 -66.61,18.19 -66.61,79.6 0,61 14.61,79.2 66.61,79.2 52.01,0 66.81,-18.2 66.81,-79.2 0,-61.41 -14.8,-79.6 -66.81,-79.6zm0 32.2c24.21,0 29.21,11.59 29.21,47.4 0,35.4 -5,47.01 -29.21,47.01 -24.01,0 -29.2,-11.61 -29.2,-47.01 0,-35.81 5.19,-47.4 29.2,-47.4zm91.4 -31.01c-1.99,0 -3,1.21 -3,3.21l0 150.21c0,2.2 1.01,3.19 3,3.19l96.21 0c2.01,0 3,-0.99 3,-2.99l0 -26.21c0,-1.99 -0.99,-3 -3,-3l-62.2 0 0 -121.2c0,-2 -1,-3.21 -3,-3.21l-31.01 0zm118.6 0c-1.99,0 -2.99,1.21 -2.99,3.21l0 150.01c0,2.4 1,3.39 2.99,3.39l31.01 0c2.01,0 3,-0.99 3,-3.39l0 -150.01c0,-2 -0.99,-3.21 -3,-3.21l-31.01 0zm121.62 -1.19c-52.21,0 -66.02,17.79 -66.02,79.21 0,61.39 13.81,79.59 66.02,79.59 19.6,0 30.6,-1.19 40.4,-3.59 3.39,-0.8 5.2,-2.21 5.2,-6.21l0 -19.39c0,-2.01 -1,-3 -3,-3l-42.6 0c-24.21,0 -28.61,-11.61 -28.61,-47.4 0,-35.82 4.4,-47.01 28.61,-47.01l42.6 0c2,0 3,-1.01 3,-3l0 -19.4c0,-4.01 -1.81,-5.2 -5.2,-6.21 -9.8,-2.2 -20.8,-3.59 -40.4,-3.59zm152.41 1.19c-1.81,0 -3.2,0.81 -4.21,2l-45.99 65.01 0 -63.8c0,-2 -1,-3.21 -3,-3.21l-31.01 0c-1.99,0 -3,1.21 -3,3.21l0 150.21c0,2.2 1.01,3.19 3,3.19l31.01 0c2,0 3,-0.99 3,-3.19l0 -73.22 50 74.21c0.79,1.41 2.4,2.2 4.4,2.2l34.21 0c5.4,0 5.2,-2.79 3.4,-5.39l-54.21 -79.41 48.41 -68c1.39,-2.21 1.79,-3.81 -1.8,-3.81l-34.21 0zm115.62 -45.2c-1.21,0 -2.01,0.39 -2.4,1.2l-14.61 27.01c-0.59,0.99 -0.39,2.19 0.6,2.8l11.01 6.19c0.99,0.6 1.79,0.8 2.8,0l38.4 -31.39c0.39,-0.42 0.99,-1.41 0.99,-2.4l0 -1.41c0,-1.39 -0.8,-2 -1.99,-2l-34.8 0zm-1.81 44.01c-25.6,0 -30,1.8 -36.19,24.2l-35.81 130.41c-0.4,2.2 0.59,3.19 2.59,3.19l30.62 0c1.79,0 1.99,-0.99 2.6,-3.19l11.19 -40.4 50.2 0 10.8 40.4c0.61,2.2 1.01,3.19 2.81,3.19l30.6 0c2,0 3,-0.99 2.6,-3.19l-35.6 -130.41c-6.21,-22.2 -10.41,-24.2 -36.41,-24.2zm-0.2 30.79c2.6,0 2.8,0.6 3.6,3.2l13.61 50 -33.81 0 13.41 -50c0.79,-2.6 0.99,-3.2 3.19,-3.2zm-1897.55 210.42c-1.99,0 -2.99,1.2 -2.99,3.21l0 150.21c0,2.2 1,3.19 2.99,3.19l31.01 0c2.01,0 3,-0.99 3,-3.19l0 -59.21 58.4 0c2,0 3.21,-1 3.21,-3l0 -24.6c0,-2.01 -1.21,-3 -3.21,-3l-58.4 0 0 -31.41 64.21 0c2,0 3.2,-0.99 3.2,-3l0 -26.19c0,-2.01 -1.2,-3.01 -3.2,-3.01l-98.22 0zm178.82 -1.2c-25.6,0 -30,1.81 -36.19,24.21l-35.82 130.41c-0.39,2.2 0.6,3.19 2.6,3.19l30.62 0c1.79,0 1.99,-0.99 2.6,-3.19l11.19 -40.4 50.2 0 10.8 40.4c0.61,2.2 1.01,3.19 2.81,3.19l30.6 0c2,0 3,-0.99 2.6,-3.19l-35.6 -130.41c-6.21,-22.2 -10.41,-24.21 -36.41,-24.21zm-0.2 30.8c2.6,0 2.8,0.6 3.6,3.2l13.61 50 -33.81 0 13.41 -50c0.79,-2.6 0.99,-3.2 3.19,-3.2zm147.81 -30.8c-19,0 -39.01,0.8 -58.61,2.4 -2.39,0.2 -3,0.8 -3,2.8l0 149.42c0,2.6 0.61,3.19 3,3.19l31.01 0c2.4,0 3,-0.59 3,-3.19l0 -52.61 12.8 0 32.6 51.4c2,3 3.41,4.4 8,4.4l31.21 0c2.99,0 4,-1.8 2.4,-4l-34.01 -54.2c21.81,-4.8 29.6,-17.6 29.6,-47 0,-39.41 -14.8,-52.61 -58,-52.61zm-4 32.21c19.2,0 24.4,5.2 24.4,21.59 0,16.61 -5.2,20.61 -24.4,20.61l-20.6 0 0 -42.2 20.6 0zm182.62 -31.01c-2,0 -3.01,1.2 -3.01,3.21l0 84.59 -56.59 -80.8c-3.41,-5 -4.61,-7 -13,-7l-22.82 0c-1.98,0 -2.99,1.2 -2.99,3.21l0 150.01c0,2.4 1.01,3.39 2.99,3.39l31.02 0c2,0 2.99,-0.99 2.99,-3.39l0 -87.01 59.01 84.61c3,4.19 5.8,5.79 11.59,5.79l21.81 0c2,0 3,-0.99 3,-3.39l0 -150.01c0,-2.01 -1,-3.21 -3,-3.21l-31 0zm122.21 -1.2c-52,0 -66.61,18.2 -66.61,79.61 0,61 14.61,79.2 66.61,79.2 52.01,0 66.81,-18.2 66.81,-79.2 0,-61.41 -14.8,-79.61 -66.81,-79.61zm0 32.21c24.21,0 29.21,11.59 29.21,47.4 0,35.4 -5,47.01 -29.21,47.01 -24,0 -29.2,-11.61 -29.2,-47.01 0,-35.81 5.2,-47.4 29.2,-47.4zm141.82 -32.21c-39.01,0 -57.8,10.8 -57.8,40.01l0 4.4c0,27.2 9.19,37.8 26.19,43.8l34.61 12.6c9.6,3.4 13.99,6.4 13.99,14l0 2.01c0,6.79 -5,9.8 -14.19,9.8l-57.81 0c-3.01,0 -4.2,1.19 -4.2,4.19l0 18c0,3.01 0.99,4.4 3.79,5 19.81,3.6 35.62,5 49.81,5 37.81,0 60,-11 60,-40.21l0 -5.19c0,-27.01 -10.4,-35.4 -30,-42.81l-34.59 -12.79c-7.2,-2.8 -10.22,-7.01 -10.22,-12.61l0 -2.4c0,-7 5.22,-10.59 14.81,-10.59l48.61 0c2.8,0 3.99,-1.01 3.99,-4.01l0 -19.4c0,-2.19 -0.99,-3.2 -3.99,-4.19 -15,-3.22 -26.41,-4.61 -43,-4.61zm66.4 1.2c-1.99,0 -3,1 -3,3.01l0 26.19c0,2.01 1.01,3 3,3l40 0 0 121.22c0,2.2 1.01,3.19 3.01,3.19l31 0c2,0 2.99,-0.99 2.99,-3.19l0 -121.22 40.21 0c2,0 3.21,-0.99 3.21,-3l0 -26.19c0,-2.01 -1.21,-3.01 -3.21,-3.01l-117.21 0zm-776.31 240.43c-26.58,0 -31.14,1.86 -37.57,25.11l-37.17 135.35c-0.41,2.29 0.63,3.33 2.7,3.33l31.77 0c1.86,0 2.07,-1.04 2.7,-3.33l11.62 -41.93 52.1 0 11.21 41.93c0.63,2.29 1.04,3.33 2.91,3.33l31.77 0c2.07,0 3.11,-1.04 2.69,-3.33l-36.94 -135.35c-6.44,-23.04 -10.8,-25.11 -37.79,-25.11zm-0.21 31.96c2.7,0 2.91,0.62 3.73,3.32l14.12 51.89 -35.08 0 13.9 -51.89c0.84,-2.7 1.05,-3.32 3.33,-3.32zm153.42 -31.96c-19.73,0 -40.49,0.82 -60.83,2.48 -2.5,0.21 -3.11,0.83 -3.11,2.91l0 155.07c0,2.7 0.61,3.33 3.11,3.33l32.17 0c2.49,0 3.11,-0.63 3.11,-3.33l0 -54.59 13.29 0 33.83 53.34c2.09,3.13 3.54,4.58 8.32,4.58l32.38 0c3.11,0 4.15,-1.88 2.49,-4.15l-35.29 -56.27c22.63,-4.97 30.73,-18.27 30.73,-48.78 0,-40.9 -15.37,-54.59 -60.2,-54.59zm-4.17 33.41c19.93,0 25.33,5.39 25.33,22.43 0,17.23 -5.4,21.38 -25.33,21.38l-21.38 0 0 -43.81 21.38 0zm150.92 -33.41c-54.18,0 -68.5,18.46 -68.5,82.2 0,63.73 14.32,82.62 68.5,82.62 20.36,0 31.77,-1.25 41.94,-3.73 3.54,-0.83 5.4,-2.29 5.4,-6.44l0 -20.14c0,-2.08 -1.04,-3.11 -3.11,-3.11l-44.23 0c-25.11,0 -29.67,-12.04 -29.67,-49.2 0,-37.16 4.56,-48.79 29.67,-48.79l44.23 0c2.07,0 3.11,-1.04 3.11,-3.11l0 -20.13c0,-4.17 -1.86,-5.4 -5.4,-6.44 -10.17,-2.29 -21.58,-3.73 -41.94,-3.73zm70.8 1.23c-2.07,0 -3.11,1.25 -3.11,3.33l0 155.7c0,2.49 1.04,3.53 3.11,3.53l32.18 0c2.07,0 3.11,-1.04 3.11,-3.53l0 -155.7c0,-2.08 -1.04,-3.33 -3.11,-3.33l-32.18 0zm127.47 -1.23c-21.18,0 -41.31,0.82 -61.65,2.48 -2.5,0.21 -3.11,0.83 -3.11,2.91l0 154.45c0,1.87 0.61,2.28 3.11,2.5 20.34,1.66 40.47,2.48 61.65,2.48 49.82,0 68.71,-24.29 68.71,-81.99 0,-58.34 -18.89,-82.83 -68.71,-82.83zm-0.62 33.41c22.43,0 30.52,14.96 30.52,49.42 0,34.03 -7.89,48.57 -29.9,48.57l-26.36 0 0 -97.99 25.74 0zm173.13 -78.47c-1.45,-0.83 -2.7,-1.04 -3.93,0l-23.47 15.78 -23.86 -15.78c-1.25,-1.04 -2.5,-0.83 -3.74,0l-7.9 3.94c-1.86,0.83 -2.07,2.08 -0.82,3.53l20.75 28.86c0.63,1.24 1.46,2.08 4.36,2.08l22.01 0c2.91,0 3.73,-0.84 4.57,-2.08l20.56 -28.86c1.23,-1.45 1.03,-2.7 -0.63,-3.53l-7.9 -3.94zm-78.67 46.29c-2.07,0 -3.11,1.25 -3.11,3.33l0 155.9c0,2.29 1.04,3.33 3.11,3.33l107.54 0c2.07,0 3.32,-1.04 3.32,-3.12l0 -27.2c0,-2.07 -1.25,-3.11 -3.32,-3.11l-72.25 0 0 -31.35 66.23 0c2.07,0 3.32,-1.04 3.32,-3.11l0 -25.74c0,-2.08 -1.25,-3.11 -3.32,-3.11l-66.23 0 0 -32.39 72.25 0c2.07,0 3.32,-1.04 3.32,-3.11l0 -27.21c0,-2.07 -1.25,-3.11 -3.32,-3.11l-107.54 0zm224.21 0c-1.86,0 -3.32,0.84 -4.36,2.08l-47.75 67.47 0 -66.22c0,-2.08 -1.03,-3.33 -3.11,-3.33l-32.17 0c-2.08,0 -3.11,1.25 -3.11,3.33l0 155.9c0,2.29 1.03,3.33 3.11,3.33l32.17 0c2.08,0 3.11,-1.04 3.11,-3.33l0 -75.98 51.91 77.02c0.82,1.46 2.49,2.29 4.56,2.29l35.5 0c5.61,0 5.4,-2.92 3.54,-5.62l-56.27 -82.4 50.24 -70.59c1.45,-2.29 1.87,-3.95 -1.87,-3.95l-35.5 0zm118.13 -1.23c-26.58,0 -31.14,1.86 -37.57,25.11l-37.16 135.35c-0.41,2.29 0.62,3.33 2.7,3.33l31.76 0c1.86,0 2.07,-1.04 2.7,-3.33l11.62 -41.93 52.11 0 11.2 41.93c0.63,2.29 1.04,3.33 2.92,3.33l31.76 0c2.07,0 3.11,-1.04 2.7,-3.33l-36.95 -135.35c-6.44,-23.04 -10.8,-25.11 -37.79,-25.11zm-0.21 31.96c2.7,0 2.91,0.62 3.74,3.32l14.12 51.89 -35.09 0 13.91 -51.89c0.83,-2.7 1.05,-3.32 3.32,-3.32zm191.62 -30.73c-2.09,0 -3.13,1.25 -3.13,3.33l0 87.81 -58.74 -83.87c-3.53,-5.19 -4.77,-7.27 -13.49,-7.27l-23.67 0c-2.07,0 -3.11,1.25 -3.11,3.33l0 155.7c0,2.49 1.04,3.53 3.11,3.53l32.18 0c2.07,0 3.11,-1.04 3.11,-3.53l0 -90.32 61.24 87.82c3.11,4.36 6.02,6.03 12.04,6.03l22.63 0c2.08,0 3.12,-1.04 3.12,-3.53l0 -155.7c0,-2.08 -1.04,-3.33 -3.12,-3.33l-32.17 0zm118.12 -1.23c-40.47,0 -59.99,11.2 -59.99,41.5l0 4.58c0,28.22 9.54,39.23 27.19,45.46l35.92 13.08c9.96,3.52 14.54,6.65 14.54,14.53l0 2.08c0,7.06 -5.2,10.17 -14.75,10.17l-59.99 0c-3.13,0 -4.36,1.25 -4.36,4.36l0 18.68c0,3.12 1.04,4.57 3.93,5.2 20.56,3.73 36.97,5.18 51.7,5.18 39.23,0 62.28,-11.42 62.28,-41.72l0 -5.4c0,-28.02 -10.79,-36.75 -31.14,-44.43l-35.92 -13.28c-7.47,-2.92 -10.58,-7.26 -10.58,-13.09l0 -2.48c0,-7.28 5.4,-11.01 15.36,-11.01l50.44 0c2.91,0 4.16,-1.04 4.16,-4.15l0 -20.13c0,-2.29 -1.03,-3.32 -4.16,-4.36 -15.57,-3.33 -27.4,-4.77 -44.63,-4.77zm68.92 1.23c-2.07,0 -3.11,1.04 -3.11,3.11l0 27.21c0,2.07 1.04,3.11 3.11,3.11l41.53 0 0 125.8c0,2.29 1.03,3.33 3.11,3.33l32.17 0c2.08,0 3.11,-1.04 3.11,-3.33l0 -125.8 41.74 0c2.07,0 3.32,-1.04 3.32,-3.11l0 -27.21c0,-2.07 -1.25,-3.11 -3.32,-3.11l-121.66 0zm133.07 0c-2.08,0 -3.11,0.84 -2.7,3.33l34.67 135.15c5.81,23.04 10.8,25.11 37.17,25.11 26.97,0 31.96,-2.28 37.57,-25.11l34.25 -135.15c0.41,-2.49 -0.63,-3.33 -2.7,-3.33l-31.55 0c-2.07,0 -2.29,0.84 -2.91,3.33l-31.55 125.6c-0.63,2.7 -1.04,3.74 -3.33,3.74 -1.87,0 -2.28,-1.04 -2.91,-3.74l-31.55 -125.6c-0.63,-2.49 -0.82,-3.33 -2.91,-3.33l-31.55 0zm176.87 -46.92c-1.24,0 -2.07,0.43 -2.49,1.25l-15.15 28.03c-0.63,1.03 -0.41,2.28 0.62,2.91l11.42 6.44c1.25,0.62 1.86,0.82 2.9,0l39.86 -32.61c0.43,-0.41 1.04,-1.45 1.04,-2.48l0 -1.45c0,-1.46 -0.82,-2.09 -2.07,-2.09l-36.13 0zm-16.8 46.92c-2.08,0 -3.12,1.25 -3.12,3.33l0 155.7c0,2.49 1.04,3.53 3.12,3.53l32.17 0c2.07,0 3.11,-1.04 3.11,-3.53l0 -155.7c0,-2.08 -1.04,-3.33 -3.11,-3.33l-32.17 0zm-1603.71 247.89c-19.73,0 -40.49,0.82 -60.83,2.48 -2.5,0.22 -3.11,0.83 -3.11,2.92l0 155.06c0,2.7 0.61,3.33 3.11,3.33l32.17 0c2.49,0 3.12,-0.63 3.12,-3.33l0 -54.59 25.54 0c44.83,0 60.2,-9.97 60.2,-51.28 0,-40.9 -15.37,-54.59 -60.2,-54.59zm-4.17 33.41c19.93,0 25.33,5.4 25.33,22.43 0,17.23 -5.4,21.38 -25.33,21.38l-21.37 0 0 -43.81 21.37 0zm144.92 -33.41c-26.58,0 -31.14,1.86 -37.58,25.11l-37.16 135.35c-0.41,2.29 0.62,3.33 2.7,3.33l31.76 0c1.86,0 2.08,-1.04 2.7,-3.33l11.62 -41.93 52.11 0 11.21 41.93c0.62,2.29 1.03,3.33 2.91,3.33l31.76 0c2.08,0 3.11,-1.04 2.7,-3.33l-36.95 -135.35c-6.43,-23.04 -10.79,-25.11 -37.78,-25.11zm-0.22 31.96c2.7,0 2.91,0.63 3.74,3.33l14.12 51.89 -35.09 0 13.91 -51.89c0.84,-2.7 1.05,-3.33 3.32,-3.33zm153.42 -31.96c-19.73,0 -40.48,0.82 -60.83,2.48 -2.5,0.22 -3.11,0.83 -3.11,2.92l0 155.06c0,2.7 0.61,3.33 3.11,3.33l32.18 0c2.49,0 3.11,-0.63 3.11,-3.33l0 -54.59 13.28 0 33.84 53.34c2.09,3.13 3.54,4.58 8.31,4.58l32.39 0c3.11,0 4.15,-1.88 2.49,-4.15l-35.29 -56.27c22.63,-4.97 30.73,-18.27 30.73,-48.78 0,-40.9 -15.37,-54.59 -60.21,-54.59zm-4.16 33.41c19.93,0 25.33,5.4 25.33,22.43 0,17.23 -5.4,21.38 -25.33,21.38l-21.38 0 0 -43.81 21.38 0zm152.17 -33.41c-21.18,0 -41.31,0.82 -61.65,2.48 -2.5,0.22 -3.11,0.83 -3.11,2.92l0 154.44c0,1.87 0.61,2.29 3.11,2.5 20.34,1.66 40.47,2.49 61.65,2.49 49.82,0 68.71,-24.3 68.71,-82 0,-58.34 -18.89,-82.83 -68.71,-82.83zm-0.62 33.41c22.43,0 30.52,14.96 30.52,49.42 0,34.04 -7.9,48.57 -29.9,48.57l-26.37 0 0 -97.99 25.75 0zm189.75 -32.18c-2.09,0 -3.12,0.84 -3.12,3.12l0 78.27c0,39.02 -5.81,48.78 -29.07,48.78 -23.45,0 -29.26,-9.76 -29.26,-48.78l0 -78.27c0,-2.28 -1.04,-3.12 -3.11,-3.12l-32.19 0c-2.08,0 -3.11,0.84 -3.11,3.12l0 78.27c0,65.81 13.49,82.21 67.67,82.21 53.98,0 67.48,-16.4 67.48,-82.21l0 -78.27c0,-2.28 -0.84,-3.12 -3.11,-3.12l-32.18 0zm124.76 -1.23c-19.72,0 -40.06,0.82 -60.41,2.48 -2.5,0.22 -3.11,0.83 -3.11,2.92l0 154.03c0,2.07 0.61,2.7 3.11,2.91 20.35,1.66 44.84,2.49 64.36,2.49 42.14,0 58.54,-11.43 58.54,-44.85 0,-24.08 -7.26,-35.07 -29.27,-37.15l0 -0.62c18.9,-3.13 25.74,-13.3 25.74,-37.17 0,-33.01 -16.4,-45.04 -58.96,-45.04zm-4.15 33.41c17.44,0 24.08,4.36 24.08,18.07 0,13.91 -6.64,17.43 -25.94,17.43l-19.11 0 0 -35.5 20.97 0zm4.77 62.29c16,0 22.84,4.56 22.84,18.47 0,13.08 -6.43,17.23 -23.04,17.23l-25.54 0 0 -35.7 25.74 0zm86.16 -94.47c-2.08,0 -3.11,1.25 -3.11,3.33l0 155.71c0,2.48 1.03,3.52 3.11,3.52l32.17 0c2.08,0 3.11,-1.04 3.11,-3.52l0 -155.71c0,-2.08 -1.03,-3.33 -3.11,-3.33l-32.17 0zm126.21 -1.23c-54.18,0 -68.49,18.47 -68.49,82.21 0,63.72 14.31,82.62 68.49,82.62 20.36,0 31.77,-1.25 41.94,-3.74 3.54,-0.82 5.4,-2.29 5.4,-6.44l0 -20.14c0,-2.07 -1.04,-3.11 -3.11,-3.11l-44.23 0c-25.11,0 -29.67,-12.03 -29.67,-49.19 0,-37.17 4.56,-48.8 29.67,-48.8l44.23 0c2.07,0 3.11,-1.04 3.11,-3.11l0 -20.13c0,-4.16 -1.86,-5.4 -5.4,-6.44 -10.17,-2.28 -21.58,-3.73 -41.94,-3.73zm70.8 1.23c-2.07,0 -3.11,1.25 -3.11,3.33l0 155.9c0,2.29 1.04,3.33 3.11,3.33l107.54 0c2.08,0 3.33,-1.04 3.33,-3.11l0 -27.21c0,-2.07 -1.25,-3.11 -3.33,-3.11l-72.25 0 0 -31.35 66.23 0c2.07,0 3.32,-1.04 3.32,-3.11l0 -25.74c0,-2.07 -1.25,-3.11 -3.32,-3.11l-66.23 0 0 -32.39 72.25 0c2.08,0 3.33,-1.04 3.33,-3.11l0 -27.2c0,-2.08 -1.25,-3.12 -3.33,-3.12l-107.54 0z"/>
  </g>
 </g>
</svg>
