<?xml version="1.0" encoding="UTF-8"?>
<!DOCTYPE svg PUBLIC "-//W3C//DTD SVG 1.1//EN" "http://www.w3.org/Graphics/SVG/1.1/DTD/svg11.dtd">
<!-- Creator: CorelDRAW 2017 -->
<svg xmlns="http://www.w3.org/2000/svg" xml:space="preserve" width="55mm" height="50mm" version="1.1" style="shape-rendering:geometricPrecision; text-rendering:geometricPrecision; image-rendering:optimizeQuality; fill-rule:evenodd; clip-rule:evenodd"
viewBox="0 0 5500 5000"
 xmlns:xlink="http://www.w3.org/1999/xlink">
 <defs>
  <style type="text/css">
   <![CDATA[
    .str0 {stroke:#FEFEFE;stroke-width:7.62;stroke-miterlimit:22.9256}
    .fil1 {fill:#882234}
    .fil0 {fill:#5BB1CA}
    .fil2 {fill:#FEFEFE;fill-rule:nonzero}
   ]]>
  </style>
 </defs>
 <g id="Vrstva_x0020_1">
  <metadata id="CorelCorpID_0Corel-Layer"/>
  <g id="_2074819724624">
   <path class="fil0" d="M398.61 4617.84c-13.2,-7.36 -26.14,-15.44 -38.77,-24.25 -9.72,-6.76 -19.1,-13.86 -28.15,-21.25 -93.05,-75.85 -154.55,-184.29 -174.4,-302.64l-1.1 -6.61c-7.1,-40.19 -9.01,-80.06 -6.29,-120.69 0,-0.02 0.01,-0.02 0.01,-0.03 -1.02,-17.37 -0.94,-34.57 0.21,-52.56 -1.04,-16.55 -1.07,-32.9 -0.17,-50.76l1.62 -32.2c0.21,-4.21 0.43,-7.79 0.76,-11.99l1.15 -14.84 1.29 -26.09c0.31,-6.09 0.7,-11.82 1.19,-17.48l-0.39 -4.95c-0.46,-5.98 -0.76,-11.08 -1.01,-17.07l-0.1 -2.82c-4.64,-29.2 -6.69,-57.75 -6.69,-87.85 0,-11.65 0.36,-21.97 1.17,-32.96 -0.81,-10.97 -1.17,-21.38 -1.17,-33.04 0,-26.22 1.46,-51.74 4.84,-77.17 -0.66,-19.45 0.03,-38.73 2.08,-58.9 -1.44,-14.57 -2.09,-28.63 -2.09,-44.25 0,-3.35 0,-6.7 0,-10.05 -2.24,-18.33 -3.22,-35.14 -3.22,-54.35l0 -11.26c0,-3.76 0,-7.52 0,-11.28 0,-15.03 0.6,-28.74 1.93,-42.63 -5.6,-45.62 -4.8,-91.61 1.47,-137.91 0.04,-1.43 0.1,-2.88 0.16,-4.41l0 -0.3c-2.27,-23.09 -2.61,-45.4 -1.16,-70.12l1.12 -19.13c0.46,-13.71 1.41,-27.18 2.92,-40.58l0 -63.24c0,-78.64 16.09,-153.04 51.45,-223.82 55.94,-111.95 150.55,-196.84 265.36,-241.99 -17.54,-17.66 -31.46,-34.06 -46.12,-54.36l-17.35 -24.03c-13.52,-13.9 -26.28,-28.95 -38.8,-45.64 -23.47,-31.24 -43.74,-63.18 -61.23,-98.17l-0.73 -1.47c-20.5,-30.63 -37.99,-62.18 -52.56,-97.1l-3.89 -9.09c-10.98,-20.44 -20.72,-41.24 -29.24,-62.47 -12.85,-23.48 -23.51,-48.34 -32.66,-75.74l-3.31 -9.96c-12.36,-31.55 -21.34,-63.81 -26.77,-96.9l-2.08 -10.44c-15.21,-44.56 -24.93,-88.39 -28.27,-135.49 -8.2,-41.77 -11.5,-84.27 -11.5,-129.03l0 -11.3c-1.9,-31.74 -1.04,-63.35 2.48,-94.71 -1.07,-30.36 1.15,-59.98 6.67,-91.4 -3,-36.73 -1.91,-68.48 3.57,-105.01l5.97 -39.75 0.47 -4.89c3.2,-43.02 12.11,-84.7 26.5,-125.37l3.81 -13.31c11.75,-43.53 28.33,-83.87 50.3,-122.45l1.14 -3.3 6.71 -20.14c8.16,-24.42 16.76,-44.67 28.7,-67.47l18.74 -35.79 5.05 -12.09c8.57,-20.57 17.1,-37.61 28.43,-56.81l30.02 -50.78 9.76 -17.58c19.33,-34.79 39.86,-63.03 66.37,-91.03l12.15 -15.45c2.25,-2.85 4.25,-5.35 6.45,-8.02 20.63,-28.12 44.05,-53.74 70.5,-78.57 5.13,-4.97 10.06,-9.53 15.72,-14.52l32.66 -28.84 25.64 -25.61c6.61,-6.62 12.42,-12.09 19.42,-18.31l20.95 -18.62 25.49 -22.93c17.21,-15.5 32.84,-27.65 52.12,-40.5l12.84 -8.57c31.18,-22.56 64.56,-41.98 99.5,-58.1 27.27,-21.05 56.56,-39.94 87.55,-57.16 17.87,-9.94 34.48,-17.88 52.27,-24.94 19.6,-8.6 39.77,-16.04 60.94,-22.76 14.66,-4.81 27.7,-8.38 43.02,-11.78l22.79 -5.06 15.8 -5.26c21.62,-7.22 40.48,-12.05 62.91,-16.12l8.53 -1.54 2.61 -0.72c67.67,-26.91 140.16,-40.8 213.38,-40.8l5.3 0 2.87 -0.29c1.4,-0.14 2.57,-0.25 3.97,-0.38l84.02 -7.64c14.51,-1.32 26.93,-1.88 41.5,-1.88l33.81 0c36.38,-5.57 68.84,-6.63 106.14,-3.52l61.17 5.09c9.45,0.79 17.49,1.71 26.87,3.05l1.09 0.16c42.47,3.91 84.37,12.91 124.88,26.43 3.15,1.05 5.84,1.99 8.98,3.1l35.68 12.75c0.4,0.14 0.8,0.28 1.2,0.43 35.37,2.92 68.53,9.95 104.28,21.88l50.64 16.87c30.93,9.3 60.48,21.22 88.87,36.12l45.35 20.61c16.58,7.54 30.33,14.77 45.96,24.13l12.28 7.37c10.19,5.63 20.19,11.66 29.97,18.06 21.09,8.29 38.99,16.89 58.97,28.3l17.84 10.19c5.51,3.15 10.16,5.93 15.54,9.3 36.47,22.79 70.2,49.51 100.7,79.52 85.71,-65.68 190.25,-105.37 301.17,-110.3l72.52 -6.4c14.07,-1.24 26.1,-1.77 40.23,-1.77 7.65,0 15.28,0 22.93,0 17.73,0 33,0.83 50.33,2.78 33.84,-2.2 67.4,-1.53 102.11,2.77 27.35,-1.53 53.68,-0.4 82.64,3.39l46.05 6c39.65,3.78 77.83,12.32 116.5,24.88 169.13,54.02 291.67,182.44 347.38,349.38 5.52,16.56 10.05,33.05 13.69,49.55 24.29,10.52 47.9,22.78 70.77,36.8l9.35 5.35c3.18,1.81 6.31,3.65 9.43,5.52 44.91,-26.29 91.54,-43.76 145.68,-58.58 5.11,-1.46 9.45,-2.63 14.14,-3.79 41.29,-16.22 83.79,-26.38 129.58,-32.86 8.25,-1.4 16.3,-2.5 25.21,-3.49l0.88 -0.09c40.2,-10.21 81.43,-15.88 123.43,-17.5 43.09,-9.92 85.19,-12.92 131.42,-9.6 23.69,-1.68 44.43,-1.56 68.41,0.37l63.72 5.11c17.77,1.42 32.83,3.48 50.33,6.87l79.02 15.28c18.43,3.57 34.27,7.58 51.63,13.13 10.7,3.12 21.29,6.21 31.89,9.75 14.58,4.87 26.79,9.61 40.84,15.85l15.09 6.71 21.08 8.44c40.97,14.81 78.97,33.32 115.8,57.85l7.65 5.09c2,1.34 3.68,2.48 5.66,3.83l37.97 26.12 12.44 8.29c15.32,10.2 29.54,20.97 43.65,32.43 11.42,8.51 22.09,17.36 33.41,27.66l20.81 18.91 7.78 6.49c4.83,4.02 9.27,7.86 13.58,11.75 25.94,22.53 49.15,46.93 69.94,73.95l27.03 33.27c7.25,8.93 13.15,16.74 19.74,26.16l10.6 15.14 20.21 25.74c7.64,9.72 13.82,18.24 18.48,25.3 6.72,9.58 13.55,18.95 20.06,28.7 15.92,23.86 27.69,45.41 39.13,71.72l25.49 58.63c3.92,9.03 7.04,16.83 10.41,26.1l10.19 28.03c7.53,20.74 12.75,38.86 17.37,60.45l7.65 35.69c0.89,4.13 1.64,7.92 2.37,11.77 9.72,45.63 14.65,89.02 13.4,133.77l1.04 8.26c2.48,19.8 3.54,36.81 3.54,56.77l0 27.75c7.38,52.63 8.23,105.8 1.54,159.13 -2.4,19.17 -5.43,35.4 -10.11,54.16l-2.9 11.56c-7.38,39.55 -19,78 -34.43,114.84 0.01,1.57 0.01,3.16 0.01,4.74l0 79.25 2.12 48.66c0.02,0.55 0.05,1.03 0.06,1.59l2.02 50.18 1.19 12.01c1.59,15.85 2.26,29.42 2.26,45.36l0 53.54c0,25.83 -2.06,51.06 -5.97,76.28 -0.03,0.33 -0.08,0.65 -0.12,0.96l-0.25 2c-5.45,77.75 -28.97,147.92 -71.01,211.75 12.45,15.93 23.99,32.52 34.46,49.72 44.42,72.24 67.06,152.1 70.15,236.48l1.07 17.39c0.62,9.97 0.89,18.47 0.89,28.45l0 46.69c0,22.96 -1.62,44.77 -4.56,66.56 1.31,29.43 0.18,58.95 -3.39,88.26 -0.59,13.43 -1.69,26.85 -3.27,40.42 -0.02,7.25 -0.23,14.66 -0.62,22.31l-1.6 32.2c-0.54,10.79 -1.44,21.47 -2.69,32.17 -0.22,22.53 -1.95,44.38 -5.04,66.19l-0.15 2.32c-0.47,12.82 -1.41,25.5 -2.83,38.11l0 7.49c0,19.88 -1.06,36.83 -3.51,56.55l-1.13 9.04 -0.1 2.03 0.95 18.88c1.42,28.25 0.53,53.21 -2.94,80.02 0.2,5.5 0.29,11.06 0.29,17.01l0 28.99c0,15.03 -0.55,29.78 -1.72,44.4 15.63,37.86 26.55,77.35 32.58,119.74 1.13,7.96 2.03,15.54 2.73,23 4.12,38.75 4.03,77.51 -0.31,116.27 -1.04,22.32 -3.71,43.28 -8.36,66.52l-3.23 16.1c-0.43,2.11 -0.8,3.92 -1.25,6.03l-4.82 22.54c-2.02,9.4 -3.98,17.36 -6.55,26.62l-8.06 28.98c-2.13,7.71 -4.13,14.23 -6.65,21.82 -2.84,8.54 -5.88,16.93 -9.12,25.3 -5.97,16.52 -12.42,31.43 -20.66,47.9l-14.41 28.87c-39.83,79.71 -96.95,145.26 -169.26,196.88 -3.55,2.53 -6.67,4.7 -10.15,7.05 -25.29,18.16 -52.29,33.76 -81,47.07 -5.02,2.38 -9.98,4.61 -15.48,6.97l-11.27 4.83c-26.24,11.23 -49.47,18.8 -77.27,25.22l-41.86 9.66c-27.3,6.29 -51.97,9.83 -78.47,11.12 -17.06,1.5 -34.25,2.19 -51.73,2.19 -14.54,0 -27.11,-0.57 -41.25,-1.86 -34.27,-0.97 -67.58,-4.65 -101.33,-12.21l-5.11 -1.1c-29.23,-5.05 -58.09,-12.75 -85.87,-22.91l-4.5 -1.5c-29.63,-9.86 -54.14,-20.78 -81.16,-36.13 -32.63,-16.83 -63.09,-36.85 -91.25,-59.88 -65.91,58.03 -140.75,92.45 -230.18,106.16l-20.93 3.21c-24.12,3.7 -44.92,5.28 -69.33,5.28l-2.49 0c-42.59,4.36 -85.17,3.63 -127.75,-2.21l-5.9 -0.24c-16.48,1.06 -31.57,1.16 -48.76,0.38l-7.97 -0.36c-16.16,1.01 -30.77,1.13 -47.51,0.4l-37.02 -1.6c-93.84,-4.07 -173.32,-31.84 -249.29,-87.08 -15.59,-11.34 -30.59,-23.36 -44.94,-36.01 -6.21,3.71 -12.52,7.28 -18.91,10.69l-19 11c-20.05,11.61 -38.12,20.42 -59.17,28.8 -42.69,24.91 -88.14,42.41 -136.47,53.4l-23.36 6.15c-13.98,3.69 -26.06,6.29 -40.22,8.68l-4.94 1.29c-49.4,15.02 -98.45,21.21 -150.2,21.21 -5.2,0 -9.64,-0.07 -14.84,-0.23l-18.44 -0.6c-35.96,5.57 -72.53,7.38 -109.15,5.47 -4.46,0.13 -9,0.19 -13.74,0.19l-59.57 0c-14.56,0 -26.98,-0.56 -41.47,-1.89l-35.42 -3.22c-1.37,-0.12 -2.52,-0.24 -3.89,-0.37l-11.08 -1.1 -15.88 -1.23c-13.97,-1.09 -25.82,-2.53 -39.63,-4.82l-19.33 -3.2c-33.9,-5.63 -67.22,-14.44 -99.41,-26.34 -15.12,-3.7 -30.04,-8.14 -44.79,-13.3 -35.61,12.82 -72.95,21.88 -111.5,27.08l-21.63 3.09c-33.3,6.41 -66.89,9.2 -101.72,9.2 -8.87,0 -16.43,-0.21 -25.29,-0.7l-28.98 -1.6c-3.52,-0.2 -6.51,-0.41 -10.01,-0.67l-14.11 -1.09c-2.89,0.17 -5.78,0.32 -8.71,0.43l-30.21 1.27 -52.78 4.17c-7.12,0.55 -13.64,0.94 -20.24,1.16 -32.72,1.78 -64.47,0.89 -96.27,-3.3 -14.05,1.32 -28.21,1.95 -43.44,1.95l-48.3 0c-11.46,0 -21.22,-0.34 -32.64,-1.16l-0.58 -0.05c-18.84,1.48 -37.17,1.65 -57.38,0.63l-27.9 -1.4c-5.11,-0.21 -10.19,-0.47 -15.26,-0.84 -10.99,0.83 -21.8,1.2 -33.67,1.2 -4.3,0 -8.59,0 -12.88,0 -16.02,0 -29.65,-0.68 -45.59,-2.27l-27.86 -2.81 -14.66 -1.34 -13.29 -1.02c-79.24,0.29 -157.24,-16.28 -229.17,-52.32 -25.55,-12.82 -46.36,-25.69 -69.25,-42.81 -14.89,-11.15 -28.96,-23.01 -42.21,-35.54 -5.58,5.2 -11.27,10.28 -17.03,15.21 -4.02,3.45 -7.49,6.32 -11.64,9.63 -75.8,60.7 -160.76,92.92 -256.32,104.46 -7.56,1.01 -14.47,1.75 -22.38,2.41l-19.33 1.6c-5.6,0.48 -10.86,0.82 -16.07,1.07 -32.85,2.14 -65.05,1.35 -97.21,-2.79 -3.49,-0.09 -6.99,-0.21 -10.48,-0.37 -9.5,0.52 -18.92,0.71 -28.44,0.58l-0.66 0.07c-18.3,2.11 -34,3.01 -52.42,3.01l-48.29 0c-17.7,0 -32.79,-0.83 -50.38,-2.77 -72.39,-8.02 -141.28,-29.15 -204.61,-64.76z"/>
   <path class="fil1" d="M509.01 4417.45c-8.21,-4.63 -16.23,-9.83 -24,-15.61 -1.13,-0.83 -2.25,-1.66 -3.34,-2.53 -53.08,-40.85 -87.72,-101.68 -98.76,-167.44l-1.29 -7.73c-4.18,-23.2 -5.01,-45.5 -3.29,-68.92 0.2,-4.64 0.54,-9.18 1.06,-14.08 -1.77,-15.75 -1.77,-30.59 -0.1,-47.17l0.47 -4.74c-1.62,-13.14 -2.02,-25.06 -1.34,-38.68l1.62 -32.21c0.12,-2.1 0.23,-3.9 0.39,-6l1.37 -17.88 1.45 -29.15c0.4,-7.87 1.06,-14.61 2.21,-22.31l-0.5 -12.28 -1.31 -16.86c-0.24,-2.99 -0.38,-5.55 -0.5,-8.55l-0.73 -18.15c-4.26,-21.66 -5.88,-41.4 -5.88,-63.4 0,-7.62 0.31,-14.13 1.04,-21.72l1.1 -11.54 -1 -9.95c-0.8,-7.97 -1.14,-14.78 -1.14,-22.79 0,-21.7 1.38,-42.23 5.49,-63.24l0.55 -4.59c-2.03,-18.51 -1.74,-35.63 0.88,-54.84l1.87 -13.67 -1.66 -11.65c-1.62,-11.26 -2.31,-20.96 -2.31,-32.33 0,-5.9 0,-11.81 0,-17.71 0,-2.47 0.03,-4.84 0.11,-7.16l-1.03 -7.19c-1.62,-11.26 -2.3,-20.96 -2.3,-32.34l0 -11.26c0,-3.76 0,-7.52 0,-11.28 0,-12.55 0.85,-23.26 2.79,-35.66l0.72 -4.49c-0.03,-0.47 -0.05,-0.96 -0.08,-1.45l-0.49 -11.55c-6.64,-34.76 -5.98,-69.65 -0.34,-105.24l0.62 -4.39 0 -4.64c0,-3.08 0.05,-5.69 0.17,-8.77l0.73 -18.72c-2.45,-16.08 -3.08,-30.49 -2.11,-47.07l1.32 -22.43c0.3,-12.33 1.29,-24.04 3.12,-35.86l0 -78.05c0,-43.11 7.86,-82.61 27.33,-121.57 31.97,-63.98 86.77,-110.98 153.24,-134.63 31.94,-12.44 64.65,-17.65 99.71,-17.65l17.6 0 4.79 -0.48c11.24,-1.13 20.88,-1.39 32.17,-0.93l38.64 1.6c2.87,0.12 5.3,0.27 8.16,0.49l2.58 0.2 10.96 -0.91 10.06 -1.68c7.83,-1.31 14.56,-2.09 22.48,-2.61l24.14 -1.61c5.3,-0.35 9.84,-0.5 15.16,-0.5 16.49,0 32.21,1.45 48,3.9 17.97,-2.67 34.51,-3.06 53.24,-1.36l35.41 3.22c6.06,0.57 11.72,1.28 17.29,2.2 9.56,-1.23 19.12,-1.96 28.69,-2.21 14.23,-2.83 28.71,-4.15 44.37,-4.15l12.88 0c3.22,0 6.45,0 9.67,0 4.25,0 7.86,0.09 12.09,0.33l30.59 1.62c6.04,0.31 11.41,0.78 17.1,1.53 3.61,-0.18 7.16,-0.26 11.05,-0.26 13.74,0 26.95,1.02 40.12,2.77l-5.29 -2.35c-14.05,-1.43 -26.6,-3.92 -40.63,-8.05l-40.67 -11.96c-24.72,-5.94 -47.15,-14.05 -68.94,-26.02l-43.03 -16.39 -33.15 -12.74c-11.39,-4.39 -20.81,-8.86 -31.4,-14.92l-35.68 -20.4c-1.49,-0.84 -2.75,-1.58 -4.2,-2.46 -23.49,-14.08 -43.25,-27.47 -61.65,-44.11l-21.93 -12.7c-11.82,-6.83 -21.39,-13.53 -31.88,-22.26l-15.28 -12.75c-0.42,-0.34 -0.82,-0.68 -1.21,-1.01 -9.44,-7.1 -18.27,-14.59 -26.79,-23.13 -1.73,-1.71 -3.15,-3.18 -4.82,-4.95l-38.46 -40.86 -12.89 -12.9c-3.11,-3.1 -5.68,-5.83 -8.62,-9.1l-39.15 -43.76 -10.86 -10.86c-9.03,-9.05 -16.12,-17.37 -23.61,-27.74l-29.48 -40.83c-10.55,-9.51 -20,-20 -29.19,-32.24 -15.19,-20.22 -28.23,-40.46 -39.53,-63.1l-7.82 -15.63c-15.65,-22.01 -28.76,-44.03 -39.35,-69.65l-8.76 -20.44c-11.38,-20.15 -20.83,-40.62 -28.26,-61.85 -9.3,-14.84 -16.54,-30.54 -22.52,-48.41l-5.49 -16.47c-7.83,-19.08 -13.34,-38.28 -16.34,-58.22l-6.38 -31.85c-12.82,-35.05 -20.82,-65.34 -21.7,-104.07 -7.86,-31.98 -10.26,-64.05 -10.26,-98.83l0 -19.01c-2.1,-26.71 -0.85,-53.13 3.52,-79.23 -2.28,-22.49 -1.15,-43.33 3.47,-66.4l1.64 -8.18 1.14 -26.58 -1.34 -16.17c-1.54,-18.54 -1.01,-34.5 1.76,-52.89l6.8 -45.37 1.37 -13.81c1.65,-25.68 7.13,-49.87 16.22,-74.01l6.59 -23.04c8.31,-31.31 20.52,-58.73 38.08,-85.87l8.97 -25.76 7.65 -22.94c4.07,-12.19 8.38,-22.33 14.35,-33.72l23.38 -44.67 8.9 -21.34c4.28,-10.28 8.54,-18.8 14.22,-28.39l31.58 -53.44 11.26 -20.27c10.95,-19.73 22.7,-35.25 38.69,-51.16 0.03,-0.02 0.05,-0.05 0.06,-0.06l19.61 -24.96c1.41,-1.78 2.63,-3.3 4.1,-5.05l3.37 -4.05c13.57,-19.43 29.15,-35.95 47.63,-53.38 3.01,-2.97 5.81,-5.57 9.09,-8.47l38 -33.52 30.66 -30.66c3.31,-3.3 6.21,-6.05 9.7,-9.15l21.94 -19.51 25.49 -22.93c8.62,-7.76 16.43,-13.82 26.07,-20.25l16.95 -11.31c27.01,-20.02 56.91,-36.08 88.31,-48.05 23.58,-21.2 50.27,-38.97 78.81,-54.82 9.67,-5.37 18.61,-9.59 28.34,-13.34 13.86,-6.37 28.09,-11.51 43.85,-16.56 7.91,-2.64 14.35,-4.4 22.48,-6.21l34.34 -7.62 27.03 -9.02c10.81,-3.59 20.24,-6.01 31.44,-8.05l18.29 -3.33 26.14 -7.13c43.78,-19.08 91.26,-28.92 139.21,-28.92l16.68 0 14.17 -1.41c0.7,-0.07 1.3,-0.13 1.98,-0.19l84.08 -7.64c7.25,-0.67 13.46,-0.95 20.75,-0.95l52.45 0 11.95 -1.99c19.62,-3.27 36.72,-3.97 56.55,-2.32l61.17 5.1c4.74,0.4 8.75,0.85 13.45,1.53l7.57 1.08c26.65,2.01 52.99,7.56 78.35,16.03 1.59,0.54 2.92,1 4.48,1.55l35.68 12.74c5.68,2.04 10.45,3.94 15.94,6.39l5.87 2.6 12.17 3.18 3.79 0c25.8,0 47.86,3.58 72.34,11.73l53.52 17.84c0.33,0.11 0.64,0.23 0.95,0.33 19.71,5.74 38.08,13.1 55.84,22.95l52.22 23.73c8.29,3.77 15.16,7.38 22.98,12.07l16.29 9.78c11.25,5.98 22.02,12.92 32.27,20.73l2.95 2.11 22.58 8.69c11.35,4.37 20.76,8.83 31.32,14.87l17.84 10.19c2.76,1.58 5.08,2.96 7.77,4.64 38.68,24.17 72.33,55.69 99.36,92.25l5.32 4.89c21.72,18.24 37.2,37.1 54.04,59.83l12.18 9.89c10.57,8.59 18.94,16.67 27.9,26.92l9.23 10.53 18.34 16.69c2.84,2.57 5.19,4.81 7.89,7.53 4.03,4.02 7.87,8.08 11.57,12.18 0.58,-1.93 1.2,-3.85 1.84,-5.8 6.58,-20.75 13.14,-39.42 22.97,-59.09 1.08,-2.17 2.03,-3.99 3.18,-6.13 52.63,-97.78 152.62,-162.71 263.73,-166.08l78.18 -6.89c7.03,-0.63 13.06,-0.9 20.12,-0.9 7.65,0 15.28,0 22.93,0 9.39,0 17.4,0.48 26.71,1.56l19.85 2.34c30.02,-3.32 58.97,-3.49 90.55,1.78 2.53,0.43 4.7,0.83 7.21,1.34l0.83 0.16 0.43 -0.06c20.89,-2.79 39.01,-2.82 59.9,-0.1l50.62 6.61c24.5,2 47.48,7.36 71.42,15.19 99.71,31.67 167.84,106.2 200.47,204.02 9.97,29.86 13.67,58.48 14.25,89.1l1.25 18.91 2.77 15.27c2.17,11.94 3.36,22.91 3.66,34.2 18.31,0.93 34.43,3.64 51.54,8.67 39.52,8.26 76.48,22.82 111.02,44.43l12.83 7.34c44.45,25.4 77.5,62.39 96.56,106.02l20.75 -17.99c24.38,-22.77 50.19,-39.54 80.17,-54.71l7.5 -5.75c41.43,-33.12 76.49,-45.01 125.93,-59.13 3.64,-1.04 6.76,-1.86 10.46,-2.72l12.4 -2.93c30.1,-13.78 59.29,-20.1 93.73,-25.03 5.1,-0.92 9.88,-1.6 15.29,-2.21l18.67 -2.07c34.14,-10.23 69.57,-14.62 105.99,-14.62l6.35 0c28.98,-9.07 55.91,-11.97 86.63,-9.41l12.27 1.02 14.82 -1.13c12.56,-0.98 23.33,-0.95 35.88,0.05l63.73 5.11c8.88,0.71 16.41,1.74 25.16,3.43l79.01 15.28c10.34,2.01 19.03,4.3 27.37,7.09 9.07,2.76 18.09,5.17 27.14,8.19 7.29,2.43 13.4,4.81 20.42,7.93l19.02 8.44 28.96 11.58c24.95,8.78 47.61,19.36 70.08,34.32l7.65 5.09c0.99,0.66 1.84,1.24 2.82,1.92l37.95 26.13 15.3 10.19c10.86,7.22 20.35,14.84 30.28,22.94 6.87,4.94 13.07,9.99 19.71,16.02l24.44 22.21 11.52 9.61c2.96,2.47 5.62,4.79 8.25,7.19 15.83,13.61 29.6,27.87 41.98,44.31l29.26 36.03c3.63,4.45 6.58,8.38 9.88,13.09l14.22 20.3 24.12 30.71c3.82,4.85 6.91,9.12 10.25,14.12 5.84,8.62 12.14,16.92 17.95,25.63 7.96,11.93 13.84,22.71 19.56,35.86l25.49 58.63c1.96,4.52 3.52,8.42 5.2,13.04l10.19 28.03c3.77,10.39 6.37,19.43 8.69,30.23l7.65 35.7c0.79,3.64 1.38,6.76 1.47,7.58 7.34,35.28 11.45,64.27 8.5,98.44l3.53 28.22c1.24,9.91 1.77,18.41 1.77,28.39l0 45.44c6.52,37.32 8.08,74.99 3.33,113 -1.2,9.6 -2.72,17.71 -5.07,27.09l-4.79 19.19c-7.05,42.05 -22.21,82 -43.84,118.41 2.94,15.77 4.48,32.14 4.48,49.05l0 84.24 2.38 54.43 2.27 56.95 1.88 18.75c0.78,7.93 1.12,14.72 1.12,22.68l0 53.54c0,15.33 -1.38,29.89 -3.83,44.68 -0.15,1.35 -0.31,2.74 -0.47,4.13l-1.24 9.82c-3.04,51.18 -21.58,95.82 -56.13,135.32 -41.95,47.96 -93.43,85.26 -153.44,105.12l-41.3 18.77c60.39,-5.47 114.97,11.05 162.74,49.27 32.28,25.82 63.04,57.65 84.57,93.23 24.24,39.36 35.31,81.86 36.6,127.78l1.28 20.69c0.31,4.98 0.44,9.23 0.44,14.22l0 46.69c0,20.07 -2.33,37.7 -5.86,56.58 2.89,26.38 2.36,52.99 -1.59,79.3 -0.21,15.51 -1.67,30.84 -4.07,46.86 0.4,7.61 0.37,15.23 -0.03,23.43l-1.59 31.98c-0.43,8.81 -1.35,17.41 -2.62,26.16 -0.1,0.98 -0.22,1.96 -0.34,2.94l0 9.64c0,16.37 -1.44,31.21 -3.95,46.38l-1.01 16.04c-0.34,11.71 -1.34,23.09 -3.09,34.38l0 22.34c0,9.94 -0.52,18.42 -1.75,28.28l-2.17 17.38 -0.91 18.05 0 7.82 1.34 26.47c0.86,17.27 0.01,32.09 -2.84,49.15l-0.96 5.74 -0.32 7.01 0.39 4.71c0.55,6.62 0.79,12.28 0.79,18.92l0 28.99c0,17.63 -1.2,34.07 -4.06,50.81l-0.58 5.16c-1.05,9.37 -2.57,18.49 -4.57,27.35 1.71,2.88 3.33,5.77 4.93,8.81 19.33,33.12 31.82,64.91 37.4,104.25 0.61,4.28 1.09,8.33 1.45,12.33 2.97,25.7 2.68,51.17 -0.82,76.9 -0.28,13.56 -1.65,25.7 -4.4,39.41l-3.22 16.1c-0.21,1.06 -0.39,1.96 -0.63,3.02l-4.82 22.53c-1,4.7 -1.98,8.68 -3.27,13.31l-8.05 28.99c-1.07,3.84 -2.07,7.11 -3.33,10.9 -1.96,5.93 -4.13,11.69 -6.39,17.47 -3.15,8.91 -6.53,16.8 -10.92,25.58l-14.45 28.92c-23.11,46.26 -55.6,83.03 -97.51,112.93 -2.08,1.48 -3.86,2.72 -6,4.14l-2.06 1.37c-14.67,10.84 -30.37,19.89 -47.45,27.75 -2.67,1.28 -5.32,2.46 -8.26,3.73l-11.28 4.83c-13.11,5.61 -24.73,9.4 -38.63,12.61l-41.86 9.65c-14.61,3.37 -27.71,5.16 -42.04,5.69 -12.07,1.25 -24.2,1.77 -36.74,1.77 -7.96,0 -14.75,-0.34 -22.68,-1.13l-5.07 -0.5c-22.4,-0.24 -43.69,-2.1 -65.7,-7.1l-11.37 -2.44c-18,-2.84 -35.89,-7.58 -52.85,-13.98l-8.05 -2.67c-15.05,-5.02 -27.45,-10.57 -41.21,-18.44l-3.67 -2.09c-37.67,-18.76 -69.83,-44.66 -97.12,-77.38 -7.89,-9.46 -14.39,-18.53 -20.29,-28.4 -6.83,-10.66 -12.84,-21.56 -18.02,-32.95 -24.58,-33.1 -41.94,-70 -50.97,-111.65l-2.02 -8.11c-4.78,-19.09 -6.85,-35.88 -6.85,-55.55l0 -9.65c0,-8.87 0.42,-17.66 1.18,-26.41 -3.58,-30.01 -0.89,-58.98 8.12,-89.65l6.51 -22.17c7.19,-27.72 18.64,-54.01 32.98,-78.8 -7.83,-23.22 -11.75,-48.03 -11.75,-74.37l0 -27.37c0,-12.01 0.81,-23.96 2.37,-35.83 -0.53,-6.38 -0.77,-12.23 -0.77,-18.9 0,-5.36 0,-10.74 0,-16.1 0,-1.84 0.02,-3.67 0.06,-5.45 -3.53,-18.78 -4.89,-37.65 -4.89,-57.34 0,-7.16 0.27,-13.67 0.88,-20.3l-0.06 -1.27 -0.13 -0.95c-1.18,-8.19 -1.86,-15.54 -2.14,-23.34 -0.77,-11.07 -1,-21.85 -0.55,-32.53 -24.9,4.14 -50.92,4.17 -77.37,-0.24l-0.59 -0.1 -4.26 0 0.55 11c0.04,0.86 0.07,1.7 0.12,2.5 0.95,13.01 1.08,25.68 0.28,38.35 2.4,18.63 2.7,36.92 1.3,55.93 -0.16,3.92 -0.41,7.76 -0.77,11.59l0.77 19.47c0.12,3.2 0.18,5.92 0.18,9.11l0 17.71c0,6.37 -0.22,11.81 -0.73,18.18l-0.99 12.55c1.49,13.52 2.11,27.05 1.8,40.59 2.05,16.72 2.15,32.28 0.4,49.77l-1.12 11 -1.1 19.9c-0.52,17.44 -2.62,34.56 -6.13,51.43l0.3 3.61 4.33 36.2c1.15,9.51 1.64,17.66 1.64,27.25l0 8.91 1.96 18.63c0.89,8.38 1.26,15.55 1.26,23.97 0,4.3 0,8.59 0,12.88l0 11.26c0,5.94 -0.19,10.99 -0.62,16.92l-3.23 43.47c-0.62,8.46 -1.54,15.65 -3.07,24.02l-1.1 6.12 -2.32 30.08c-0.74,9.58 -1.85,17.71 -3.74,27.12 -9.15,45.94 -31.14,89.19 -59.12,126.48 -6.58,8.76 -12.72,15.86 -20.43,23.65l-1.6 1.62c-36.03,36.35 -77.28,57.35 -127.84,65.11l-20.93 3.21c-12.07,1.85 -22.48,2.64 -34.68,2.64l-15.76 0c-30.93,4.17 -61.5,3.68 -92.51,-1.47 -0.32,-0.05 -0.61,-0.09 -0.91,-0.15 -2.17,-0.03 -4.25,-0.09 -6.57,-0.18l-24.4 -1.01 -5.11 0.42c-10.25,0.84 -19.02,1.02 -29.3,0.55l-21.49 -0.97 -7.03 0.54c-9.58,0.72 -17.78,0.87 -27.39,0.46l-37.02 -1.61c-46.91,-2.03 -86.66,-15.92 -124.65,-43.54 -64.93,-47.22 -115.76,-113.99 -125,-196.63 -0.88,-7.95 -1.32,-14.89 -1.4,-22.67l-0.44 -9.02c-7.25,12.96 -15.36,24.81 -24.5,36.72 -5.55,7.8 -11.24,14.77 -17.74,21.75l-8.58 12.15c-7.89,11.17 -15.44,20.13 -25.11,29.79l-9.65 9.65c-1.35,1.37 -2.72,2.74 -4.07,4.1 -4.03,4.06 -7.58,7.4 -11.89,11.17l-17.69 15.48c-18.85,19.12 -39.71,34.91 -63.18,47.05l-22.75 13.17c-10.95,6.33 -20.7,11 -32.49,15.53l-8.62 3.31 -12.25 6.42c-25.54,15.98 -52.25,26.19 -81.53,32.54l-27.76 7.31c-7.13,1.88 -13.28,3.2 -20.56,4.42l-9.19 1.53 -20.03 5.22c-29.07,9.32 -56.97,12.47 -87.33,12.47 -2.6,0 -4.81,-0.03 -7.41,-0.12l-41.42 -1.35 -1.89 0.09c-29.23,6.41 -59.37,8.2 -89.65,5.67 -5.21,0.37 -10.22,0.54 -15.8,0.54l-59.57 0c-7.28,0 -13.49,-0.29 -20.74,-0.94l-35.41 -3.22c-0.68,-0.08 -1.26,-0.12 -1.95,-0.2l-13.59 -1.35 -18.4 -1.42c-6.97,-0.54 -12.9,-1.27 -19.81,-2.41l-19.32 -3.21c-24.07,-4 -47.69,-10.74 -70.16,-20.22 -18.27,-3.41 -35.82,-8.96 -53.14,-16.29l-3.34 -1.12c-2.05,-0.68 -3.79,-1.29 -5.81,-2.03l-25.65 -9.32c-12.39,-3.67 -24.44,-8.24 -36.1,-13.62 -38.06,26.95 -82.33,43.13 -128.82,48.89l-30.44 4.35c-20.65,4.38 -41.21,6 -63.07,6 -4.45,0 -8.22,-0.1 -12.65,-0.35l-28.98 -1.61c-1.75,-0.09 -3.25,-0.19 -5,-0.32l-20.93 -1.62c-3.6,-0.29 -6.96,-0.61 -10.27,-1.01 -6.09,0.72 -12.33,1.21 -18.85,1.48l-34.43 1.46 -56.99 4.48c-4.31,0.34 -8.2,0.55 -12.25,0.66 -28.57,1.65 -54.15,0.47 -82.46,-6.45l-2.27 0.45c-15.56,3.12 -29.09,4.45 -44.96,4.45l-48.3 0c-5.74,0 -10.61,-0.18 -16.33,-0.58l-20.65 -1.48c-14.54,1.99 -27.32,2.52 -42.14,1.78l-29.38 -1.49c-8.72,-0.29 -17.25,-1.05 -25.64,-2.22l-5.01 0.62c-9.86,1.23 -18.35,1.75 -28.28,1.75 -4.3,0 -8.59,0 -12.88,0 -8.01,0 -14.83,-0.34 -22.79,-1.14l-30.02 -3.02 -14.68 -1.33 -26.69 -2.07c-46.23,1.31 -91.88,-6.91 -133.89,-27.96 -12.78,-6.4 -23.19,-12.83 -34.63,-21.4 -58.91,-44.12 -92.05,-108.16 -101.13,-180.34 -0.15,-1.17 -0.27,-2.17 -0.39,-3.36l-1.6 -14.48c-0.49,-4.34 -0.8,-8.05 -1.04,-12.42l-1.62 -28.98c-0.25,-4.47 -0.36,-8.29 -0.36,-12.76 0,-16.24 0.92,-31.91 3.23,-47.43l0 -10.52c0,-3.76 0,-7.52 0,-11.28 0,-8.92 0.43,-16.54 1.41,-25.41l1.22 -10.88 2.69 -33.61c-23.3,6.5 -47.54,9.85 -72.14,9.68l-6.68 0.75c-0.79,0.16 -1.58,0.32 -2.4,0.49 -19.26,3.84 -39.14,5.71 -59,5.61 -0.24,7.23 -0.83,14.57 -1.8,22.25l-3.44 27.59 1.35 11.23 0.73 4.38c2.19,13.15 3.15,24.51 3.15,37.84 0,5.36 0,10.74 0,16.1 0,4.03 -0.09,7.47 -0.29,11.5l-1.62 32.19c-0.29,5.9 -0.74,10.92 -1.47,16.78l-1.6 12.88c-5.62,45.07 -21.73,82.55 -50.48,117.22 -15.63,19.2 -33.12,37.96 -51.89,54.02 -2,1.72 -3.74,3.16 -5.8,4.81 -43.47,34.8 -87.65,49.38 -142.02,56.05 -4.63,0.66 -7.96,1.02 -12.64,1.41l-19.33 1.6c-3.46,0.3 -6.65,0.49 -9.87,0.63 -22.87,1.6 -44.38,0.95 -66.58,-2.99 -10.06,0.18 -20.1,-0.19 -30.2,-1.07 -11.99,1.2 -23.31,1.41 -35.4,0.62l-18.1 2.1c-9.15,1.05 -16.99,1.5 -26.2,1.5l-48.29 0c-8.86,0 -16.39,-0.42 -25.18,-1.4 -42.43,-4.69 -82.4,-16.6 -119.41,-37.76z"/>
   <path class="fil2 str0" d="M585.85 1592.55l-2.55 58.63 -5.1 25.49 5.1 33.14 -2.55 7.64c-5.09,15.3 -7.64,30.59 -5.09,48.44l0 30.58c0,17.85 0,38.24 7.64,56.08l2.55 2.55 0 33.14c0,17.84 7.65,30.59 12.75,45.88l2.55 10.2 10.19 50.98c0,5.1 2.55,7.65 5.1,15.29l7.65 22.94 15.29 17.85c2.55,22.94 10.2,40.78 22.94,61.17l15.3 35.69c5.1,12.75 12.74,22.94 20.39,33.14l2.55 2.55 17.84 35.68c5.1,10.2 10.2,17.85 17.84,28.04l7.65 5.1 20.39 25.49 33.14 45.88 15.3 15.3 43.33 48.43 15.29 15.29 40.79 43.34c2.55,2.55 7.64,5.09 12.74,10.19l15.3 12.75 48.43 28.04 5.1 5.1c10.19,12.74 20.39,17.84 33.13,25.49l35.69 20.39 33.14 12.74 53.53 20.4 15.29 7.64c7.65,5.1 15.3,5.1 22.94,7.65l43.34 12.74 33.13 2.55 45.89 20.4 28.04 10.19 43.33 10.2c10.2,2.55 22.94,2.55 35.69,2.55l22.94 0 63.72 7.64 28.04 0 0 0c12.75,2.55 25.49,2.55 38.24,0l12.74 0 17.85 0c7.64,0 12.74,0 22.94,-2.54l43.33 -5.1 38.24 -7.65 22.94 -2.55 30.59 -5.1 33.13 -7.64 38.24 -7.65c15.29,-2.55 28.04,-10.2 43.33,-20.39l2.55 0 38.24 -10.2c15.29,-2.55 30.58,-10.2 43.33,-20.39l5.1 -2.55 58.63 -15.29 17.84 -7.65c5.1,-2.55 10.2,-2.55 17.84,-7.65l45.88 -25.49 30.59 -17.84 43.34 -33.14 17.84 -25.49 48.43 -30.59 17.84 -15.29c5.1,-5.1 10.2,-7.65 15.3,-15.3l30.59 -40.78 10.19 -22.94 33.14 -40.79 20.39 -35.68 56.08 -71.38 22.94 -43.33 7.65 -17.84c2.55,-7.65 5.1,-12.75 7.65,-22.94l12.74 -50.98 5.1 -33.14 17.84 -50.98 2.55 -5.1c5.1,-12.75 10.2,-25.49 10.2,-38.24l5.1 -45.88 5.09 -25.49c2.55,-7.65 2.55,-12.74 2.55,-20.39l2.55 -50.98 -5.1 -30.59 2.55 -30.59 0 -30.59 2.55 -17.84c0,-10.2 0,-12.75 0,-22.94l-5.1 -43.34 -7.64 -30.58 0 -35.69c0,-15.29 -5.1,-30.59 -12.75,-48.43l-2.55 -7.65 -10.19 -56.08 -2.55 -12.74c0,-12.75 -5.1,-25.49 -10.2,-40.79l-12.74 -30.59 -5.1 -15.29c-5.1,-10.2 -10.2,-15.29 -17.84,-25.49l-25.49 -30.59 -10.2 -20.39c-2.55,-7.65 -5.1,-10.2 -7.65,-15.29l-35.68 -48.44 0 0c-7.65,-15.29 -15.3,-30.58 -28.04,-43.33l-28.04 -25.49 -17.85 -20.39 -40.78 -33.14 -5.1 -10.2c-7.65,-10.19 -15.29,-22.94 -25.49,-30.58l-30.59 -28.04c-10.19,-17.85 -25.49,-35.69 -45.88,-48.43l-17.84 -10.2 -33.14 -12.75 -25.49 -12.74 -17.84 -12.75c-2.55,0 -5.1,-5.09 -7.65,-5.09l-25.49 -15.3 -56.08 -25.49 -10.2 -5.1c-7.64,-5.1 -15.29,-5.1 -20.39,-7.64l-53.53 -17.85 -33.14 0 -58.62 -15.29 -22.94 -10.2 -35.69 -12.74c-7.65,-2.55 -17.84,-5.1 -28.04,-5.1l-17.84 -2.55 -61.18 -5.1 -30.59 5.1 -71.37 0 -28.04 2.55 -56.08 5.1 -25.49 2.55 -28.04 0c-20.39,0 -40.78,5.09 -58.63,15.29l-56.08 15.29 -28.03 5.1 -38.24 12.75 -22.94 5.1 -22.94 5.09c-7.65,2.55 -17.85,5.1 -25.49,10.2l-7.65 2.55c-22.94,12.74 -40.78,25.49 -48.43,38.23l-45.88 25.49 -7.65 2.55c-15.3,5.1 -30.59,12.75 -43.33,22.95l-22.95 15.29 -25.49 22.94 -22.94 20.39 -35.68 35.69 -43.34 38.23c-7.64,7.65 -17.84,15.3 -22.94,25.49l-12.74 15.3 -28.04 35.69c-2.55,5.09 -7.65,7.64 -10.2,10.19l-12.74 22.94 -33.14 56.08 -12.75 30.59 -28.04 53.53 -7.64 22.94 -20.4 58.63 -12.74 17.84c-5.1,7.65 -7.65,12.75 -10.2,22.94l-10.19 35.69c-2.55,7.65 -5.1,10.2 -5.1,17.84l-2.55 25.49 -7.65 50.98 2.55 30.59zm540.4 229.41l-15.3 -53.53 2.55 -33.13 -7.65 -28.04c5.1,-22.94 5.1,-43.34 0,-56.08l12.75 -61.18 5.1 -22.94 20.39 -56.08 12.74 -30.59 30.59 -56.07 20.4 -15.3 20.39 -17.84 28.04 -25.49 12.74 -25.49 53.53 -30.59 25.49 -12.75 50.98 -25.49 30.59 -12.74 58.63 -10.2 28.04 -2.55 15.29 5.1c10.2,2.55 20.39,5.1 30.59,5.1l104.51 5.1 33.14 12.74 66.27 20.4 20.39 5.09 45.89 35.69 12.74 15.29 35.69 38.24 33.14 45.88 30.58 53.53 12.75 28.04 17.84 45.88 -2.55 33.14 5.1 58.63 2.55 28.04 0 30.59 0 25.49 5.1 38.23 -10.2 53.53 -5.09 28.04 -10.2 56.08 -53.53 71.37 -12.75 28.04 -50.98 40.79 -20.39 17.84 -43.33 33.14 -22.94 17.84 -61.18 22.94 -25.49 7.65 -66.28 12.74 -66.27 0 -38.24 7.65 -68.82 -12.74 -25.49 -10.2 -56.08 -30.59 -30.59 -7.65 -43.33 -33.13 -15.29 -12.75 -43.34 -48.43 -10.19 -22.94 -33.14 -53.53 -10.2 -33.14 -28.04 -58.63 -7.64 -28.04zm1473.34 -96.86c10.2,12.75 38.24,20.39 73.92,22.94l10.2 0 30.59 22.94 7.64 53.53 12.75 63.73 -2.55 66.27 0 40.79 -5.1 53.53 -2.55 22.94 2.55 61.18 -2.55 25.49c0,10.19 0,15.29 0,25.49l2.55 22.94 2.55 30.59 7.65 63.72 7.64 33.14 10.2 50.98c2.55,10.2 5.1,17.84 7.65,25.49l12.74 28.04c7.65,15.29 17.85,30.59 30.59,43.33l2.55 5.1 38.24 45.88 5.09 7.65c10.2,10.2 20.4,17.84 35.69,25.49l40.78 17.84 58.63 30.59 25.49 10.2 30.59 12.74c12.75,5.1 22.94,7.65 35.69,7.65l17.84 0 58.63 10.2 25.49 -2.55 33.14 2.55 33.13 0c12.75,2.55 30.59,5.1 45.89,2.55l35.68 -2.55 33.14 -2.55 66.27 -17.84 30.59 -5.1 48.43 -7.65c7.65,-2.55 12.75,0 20.4,-5.1 15.29,-5.1 30.59,-20.39 45.88,-45.88l2.55 -12.75c2.55,-10.19 0,-25.49 -2.55,-35.68l-7.65 -53.53 2.55 -12.75c0,-10.19 0,-20.39 0,-30.59l-5.1 -45.88 2.55 -22.94c2.55,-10.2 2.55,-15.29 2.55,-25.49l0 -50.98 -2.55 -17.84c0,-7.65 -2.55,-12.75 -2.55,-20.4l0 -15.29c-17.84,-12.74 -35.68,-17.84 -58.62,-12.74l-61.18 17.84 -5.1 -2.55c-15.29,-7.65 -33.14,-10.2 -50.98,-10.2l-2.55 0 -38.23 -7.64 -28.04 -7.65 -45.89 -28.04 -5.09 -28.04 -10.2 -28.04 0 0c0,-20.39 -2.55,-43.33 -12.75,-61.18l0 -58.62 -2.54 -33.14 0 -63.73 -10.2 -30.58 0 -61.18 2.55 -30.59 35.68 -33.14 7.65 2.55c15.3,5.1 35.69,7.65 50.98,5.1l35.69 -2.55 33.14 -10.2 58.62 -7.64c20.4,0 43.34,-7.65 68.83,-25.49l0 0 5.1 -22.94c2.54,-10.2 5.09,-15.3 5.09,-25.49l0 -45.89 -2.55 -33.13 -5.09 -58.63 2.55 -35.69 -2.55 -50.98 0 -22.94c0,-2.55 2.55,-5.1 2.55,-7.65l2.54 -28.04 -17.84 -10.19c-15.29,-10.2 -30.59,-15.3 -48.43,-17.85l-7.65 -2.54 -58.62 -2.55c-15.3,-5.1 -30.59,-7.65 -45.89,-5.1l-45.88 5.1 -30.59 0 -38.23 -35.69 -10.2 -22.94 5.1 -71.37 2.55 -22.95c2.55,-7.64 2.55,-12.74 2.55,-22.94l2.55 -43.33 -5.1 -28.04 -2.55 -38.24c0,-7.64 0,-17.84 -2.55,-25.49 -7.65,-22.94 -20.39,-48.43 -53.53,-58.62 -7.65,-2.55 -15.29,-5.1 -22.94,-5.1l-58.63 -7.65 -38.23 5.1 -38.24 -7.65c-15.29,-2.55 -30.59,0 -45.88,2.55l-10.2 0 -43.33 -5.1c-7.65,0 -15.3,0 -22.94,0l-86.67 7.65c0,0 -2.55,0 -2.55,0 -22.94,0 -53.53,12.75 -71.37,45.88 -5.1,10.2 -7.65,20.4 -10.2,28.04l0 38.24c0,17.84 2.55,30.59 7.65,45.88l0 5.1 2.55 58.63 -5.1 30.58 -2.55 61.18 -7.65 30.59 -28.04 30.59 -53.53 5.1c-20.39,2.55 -35.68,12.74 -48.43,35.68l-5.1 22.94c0,5.1 -2.54,12.75 -2.54,17.85l-5.1 53.53 0 84.11 2.55 30.59 5.09 28.04 -7.64 61.18c2.55,17.84 10.19,33.14 20.39,45.88zm1835.3 -402.75l-63.73 -5.09 -33.13 2.55 -30.59 -2.55 -30.59 10.19 -43.33 0c-20.4,0 -38.24,2.55 -53.53,10.2l-45.89 5.1c-12.74,2.55 -30.59,2.55 -43.33,10.19l-7.65 5.1 -43.33 10.2c-17.84,5.1 -33.14,7.64 -45.88,17.84l-33.14 25.49 -12.75 5.1c-10.19,5.1 -20.39,10.19 -30.58,20.39l-38.24 33.14 -22.94 20.39 -38.24 40.79 -22.94 25.49 -25.49 30.58c-7.65,10.2 -15.29,20.4 -20.39,33.14l-2.55 12.75 -33.14 53.53 -22.94 56.07 -7.65 15.3c-2.54,10.19 -5.09,17.84 -5.09,25.49l-7.65 48.43 -7.65 38.24 -5.1 56.07 -2.54 33.14 -2.55 22.94 -2.55 28.04 0 22.94c0,7.65 2.55,12.75 2.55,20.4l7.64 48.43 7.65 35.68 15.29 61.18 0 12.75c0,7.64 2.55,20.39 5.1,28.04l10.2 35.68 7.65 17.85c2.55,7.64 10.19,12.74 12.74,17.84l30.59 40.78 17.84 22.94 33.14 48.44 7.65 15.29c5.1,7.65 15.29,15.29 22.94,22.94l40.78 33.14 56.08 38.23 2.55 2.55c12.75,15.3 28.04,25.49 45.88,33.14l25.49 10.2 33.14 2.55 48.43 20.39 30.59 5.1 35.69 17.84c10.19,5.1 20.39,5.1 30.59,7.65l20.39 2.55 28.04 10.19c15.29,5.1 35.68,7.65 50.98,7.65l5.1 0 53.53 7.65 12.74 2.54c17.84,2.55 35.69,0 50.98,-5.09l25.49 5.09c7.65,2.55 17.84,0 25.49,0l22.94 0 56.08 -5.09 76.47 2.55c10.2,0 22.94,0 33.14,-2.55l12.75 -2.55 68.82 -12.75c2.55,0 7.65,-2.55 10.2,-2.55l25.49 -7.64 56.07 -25.49c22.95,-5.1 43.34,-20.4 61.18,-40.79l0 -2.55 2.55 -20.39c0,-7.65 2.55,-12.75 2.55,-20.39l0 -53.53 -2.55 -25.49 -2.55 -63.73 -2.55 -58.63 0 -33.13 0 -56.08c0,-15.3 -10.19,-30.59 -33.14,-48.43l-17.84 -2.55c-10.19,0 -25.49,2.55 -35.69,5.1l-35.68 7.64 -35.69 12.75 -66.27 15.29 -68.83 -2.55 -61.17 2.55 -30.59 2.55 -28.04 2.55 -30.59 0 -33.14 2.55 -25.49 -2.55 -53.53 -15.29 -25.49 -12.75 -48.43 -48.43 -28.04 -22.94 12.75 -20.39 35.68 -10.2 68.83 -2.55 68.82 -2.55 35.69 -5.1 66.27 2.55 12.75 2.55c7.64,2.55 17.84,5.1 25.49,5.1l33.14 0c5.09,0 15.29,0 20.39,0l22.94 -2.55 56.08 -5.1 10.19 2.55c10.2,2.55 17.85,2.55 30.59,0l45.88 -5.1 10.2 2.55c12.75,2.55 30.59,5.1 43.33,2.55l35.69 -2.55 33.14 2.55 2.55 -5.1c15.29,-17.84 28.04,-40.78 30.59,-66.27l7.64 -30.59c2.55,-20.39 0,-40.78 -5.1,-61.18l0 -2.55 0 -38.23 0 -28.04 -7.64 -61.18 2.55 -10.19c2.55,-15.3 -2.55,-28.04 -5.1,-43.34l-7.65 -35.68 -10.2 -28.04 -25.49 -58.63c-5.09,-7.65 -12.74,-17.84 -17.84,-25.49l-28.04 -35.69 -17.84 -25.49 -33.14 -40.78c-5.1,-7.65 -10.19,-10.2 -15.29,-15.3l-15.3 -12.74 -28.04 -25.49c-7.64,-5.1 -15.29,-12.75 -22.94,-17.84l-15.29 -10.2 -40.79 -28.04 -7.64 -5.1c-7.65,-5.1 -15.3,-7.64 -22.94,-10.19l-38.24 -15.3 -22.94 -10.19c-7.65,-2.55 -17.84,-5.1 -25.49,-7.65l-79.02 -15.3zm5.1 504.71l-30.59 30.59 -28.04 7.65 -53.53 7.65 -35.69 0 -25.49 2.54 -28.04 -7.64 -30.59 0 -17.84 -22.94 10.2 -28.04 28.04 -61.18 58.62 -28.04 25.5 -7.65 35.68 2.55 50.98 22.94 25.49 17.85 15.3 63.72zm-3818.59 2391.1c8.05,4.83 17.71,8.05 32.2,9.66l1.61 0 46.68 0 41.86 -4.83 16.1 1.61 22.54 -3.22c14.49,3.22 25.76,4.83 37.03,1.61l30.58 4.83c6.44,1.61 12.88,0 19.32,0l19.32 -1.61c11.27,-1.61 22.54,-1.61 30.59,-8.05 11.27,-9.66 24.15,-25.76 24.15,-25.76l1.61 -12.88 1.6 -32.19c0,-6.44 0,-9.66 0,-16.1l-1.6 -9.66 -4.83 -40.25 1.61 -20.93 4.82 -38.63 -3.21 -19.32 6.43 -37.03c0,-1.61 1.61,-6.44 1.61,-8.05l0 -14.49 0 -35.41 -1.61 -22.54 -6.43 -41.86 1.61 -22.54 16.09 -20.93 16.1 1.61 9.66 1.61c6.44,1.61 14.49,1.61 20.93,0l24.15 -4.83 41.85 -1.61 14.49 4.83c4.83,1.61 11.27,1.61 16.1,1.61l14.49 1.61c8.05,0 14.49,-1.61 22.54,-3.22l14.49 -3.22 8.05 0c8.05,1.61 17.71,1.61 25.76,0l4.82 -1.61 43.47 -4.82c14.49,3.21 28.98,-3.22 40.25,-17.71 4.83,-11.27 6.44,-22.54 4.83,-38.64l-1.61 -17.71 0 -46.69 1.61 -17.7 3.22 -35.42c0,-8.05 0,-11.27 -1.61,-19.32l-3.22 -22.54c-1.61,-8.05 -1.61,-12.88 -6.44,-19.32 -9.66,-12.87 -35.42,-27.36 -35.42,-27.36l-37.03 0 -17.7 0 -35.42 -6.44 -4.83 0c-6.44,-1.61 -16.1,-3.22 -24.15,-3.22l-30.59 0 -45.07 4.83 -9.66 -3.22c-6.44,-1.61 -14.49,0 -20.93,0l-25.76 1.61 -22.54 -3.22 -19.32 -16.1 1.61 -24.15 -1.61 -37.03 1.61 -19.32 1.61 -35.41 1.61 -14.49 20.93 -19.32 17.71 -1.61 38.64 -1.61 3.22 0c9.66,1.61 22.54,3.22 32.2,1.61l16.09 -3.22 19.32 1.61 33.81 0 17.71 0 24.15 4.83c12.88,3.22 24.14,3.22 35.41,0l33.81 -3.22 11.27 0c4.83,0 11.27,0 16.1,-1.61l28.98 -4.83c17.7,-1.61 30.58,-6.44 45.07,-17.71 3.22,-8.05 4.83,-17.71 3.22,-30.58l-1.61 -17.71 -4.83 -17.71 1.61 -43.47 1.61 -22.54 4.83 -30.58c1.61,-6.44 0,-14.49 0,-20.93l-3.22 -33.81c0,-1.61 0,0 0,0 -1.61,-11.27 -14.49,-33.81 -35.41,-35.42 -1.61,-1.61 -3.22,-1.61 -3.22,-1.61l-28.98 -4.83c-6.44,-1.61 -14.49,0 -20.93,0l-11.27 1.61 -45.08 0 -6.44 -1.61c-8.04,-1.61 -16.09,-3.22 -24.14,-3.22l-19.32 1.61 -20.93 -3.22 -30.59 -1.61c-3.22,0 -6.44,0 -9.66,0l-12.88 0 -16.09 6.44 -3.22 0c-12.88,-3.22 -22.54,-3.22 -33.81,0l-40.25 1.61 -17.71 -4.83 -35.41 -3.22 -17.71 3.22 -38.64 -1.61 0 0c-8.05,-1.61 -16.1,-3.22 -24.15,-3.22l-24.15 1.61 -19.31 3.22 -38.64 3.22 -20.93 -1.61 -38.64 -1.61 -16.09 1.61 -28.98 0c-6.44,0 -12.88,0 -19.32,3.22 -11.27,3.22 -22.54,9.66 -28.98,22.54 -3.22,6.44 -3.22,12.88 -3.22,19.32l0 40.25 0 24.14 0 32.2 -1.61 11.27c-1.61,6.44 -1.61,8.05 -1.61,14.49l-1.61 27.37 3.22 19.32 -1.61 41.85 0 20.93 -3.22 22.54c-1.61,9.66 -3.22,22.54 0,32.2l1.61 3.22 1.61 37.02 1.61 20.93 -4.83 30.59c0,4.83 0,8.05 0,11.27l0 11.27 4.83 33.8 -1.61 12.88c0,6.44 0,11.27 0,17.71l4.83 33.81 0 19.32 -4.83 35.42 3.22 20.92 -4.83 40.25 -1.61 9.66c-1.61,6.44 -1.61,14.49 -1.61,20.93l3.22 32.2 -3.22 33.8c0,8.05 0,11.27 1.61,19.32l3.22 12.88 1.61 40.25 1.61 20.92 1.61 38.64 -3.22 20.93 -1.61 32.2 -1.61 20.93 -1.61 32.19 3.22 22.54 -3.22 32.2 3.22 19.32 -3.22 28.97c0,6.44 -1.61,11.27 0,19.32l1.61 9.66c1.61,9.66 6.44,19.32 12.88,24.15zm928.89 1.61c6.44,3.22 17.71,4.83 33.81,3.22l41.86 3.22 17.7 1.61 32.2 3.22c3.22,0 9.66,0 12.88,0l12.88 -1.61 32.2 -3.22 9.66 1.61c4.83,1.61 8.05,3.22 12.87,3.22l32.2 1.61 22.54 -3.22 45.08 3.22 48.29 0 16.1 -3.22 43.47 -3.22 16.1 1.61 25.75 6.44c6.44,1.61 14.49,0 22.54,0l61.18 -4.83 38.63 -1.61 19.32 -6.44 37.03 6.44 20.93 1.61 28.98 1.61c6.44,0 12.88,0 17.7,-1.61l9.66 -1.61 33.81 -4.83c12.88,-1.61 28.98,-4.83 38.64,-19.32 4.83,-6.44 6.44,-11.27 6.44,-16.1l1.61 -27.36c0,-4.83 0,-6.44 0,-11.27l0 -12.88 -4.83 -37.03 1.61 -11.27c0,-3.22 0,-11.27 0,-14.49l-3.22 -25.76 4.83 -24.14 1.61 -35.42c0,-1.61 0,0 0,0 1.61,-16.1 -40.25,-43.47 -40.25,-43.47l-27.37 -3.22c-8.05,-1.61 -19.32,0 -27.36,1.61l-1.61 0 -28.98 -1.61c-8.05,0 -16.1,0 -24.15,1.61l-3.22 1.61 -43.47 1.61 -16.1 3.22 -37.02 -4.83 -9.66 -1.61c-6.44,-1.61 -16.1,-3.22 -22.54,-1.61l-30.59 3.22 -14.49 3.22 -38.63 -4.83 -20.93 1.61 -35.42 0 -24.15 0 -17.71 -19.32 -1.6 -20.92 3.21 -37.03 3.22 -12.88c1.61,-4.83 1.61,-12.88 1.61,-17.71l0 -27.37 -3.22 -19.31 17.71 -19.32 12.88 0c3.22,0 9.66,1.61 12.88,1.61l33.81 -3.22 16.1 3.22 14.49 1.61 30.58 3.22c8.05,1.61 16.1,0 24.15,-1.61l6.44 -1.61 40.25 1.61 16.1 -3.22 38.63 -3.22 20.93 4.83c4.83,1.61 8.05,1.61 12.88,1.61l27.37 0c3.22,0 6.44,0 11.27,-1.61 9.66,-3.22 24.15,-11.27 32.19,-27.37 1.61,-4.83 1.61,-8.05 1.61,-12.88l-3.22 -17.71 3.22 -37.03 3.22 -9.65c1.61,-9.66 1.61,-17.71 0,-28.98l-3.22 -22.54 0 -20.93 1.61 -35.42c0,-3.22 0,-9.66 -1.61,-12.88 -1.61,-14.48 -8.04,-30.58 -25.75,-38.63 -3.22,0 -4.83,-1.61 -8.05,-1.61l-9.66 -1.61c-4.83,-1.61 -12.88,-1.61 -17.71,-1.61l-27.37 1.61 -17.71 1.61 -32.19 1.61 -19.32 -3.22 -43.47 -3.22 -19.32 0 -46.68 1.61 -3.22 0c-8.05,-3.22 -17.71,-4.83 -27.37,-4.83l-24.15 0 -17.71 4.83 -20.93 0 -14.48 -17.71 3.21 -11.27c1.61,-4.83 1.61,-11.27 1.61,-17.71l-1.61 -11.27 1.61 -37.02 -3.22 -20.93 3.22 -14.49 16.1 -19.32 17.71 -3.22 37.03 -6.44 19.32 0 32.19 6.44 19.32 1.61 40.25 0 16.1 0 19.32 3.22c3.22,1.61 9.66,1.61 12.88,1.61l11.27 1.61 41.85 -1.61 12.88 1.61c4.83,0 12.88,-1.61 17.71,-1.61l30.59 -4.83 14.49 1.61 30.58 -3.22c4.83,0 11.27,-1.61 16.1,-3.22 11.27,-4.83 22.54,-12.88 27.37,-27.37 0,-3.22 1.61,-8.05 1.61,-11.27l1.61 -40.24 4.83 -16.1 1.61 -27.37c0,-8.05 1.61,-16.1 0,-22.54l-1.61 -6.44 -4.83 -38.63 -1.61 -41.86c0,-3.22 0,-8.05 -1.61,-12.88 -9.66,-12.88 -43.47,-32.2 -43.47,-32.2l-37.02 -3.22 -17.71 -3.22c-4.83,-1.61 -11.27,-1.61 -16.1,-1.61l-28.98 1.61 -16.1 0 -38.63 4.83 -16.1 -1.61 -32.2 -3.22c-4.83,0 -11.27,-1.61 -16.1,-1.61l-14.49 1.61 -8.05 0c-6.44,0 -14.49,-1.61 -20.93,0l-8.05 1.61 -17.7 1.61 -22.54 -3.22c-9.66,-1.61 -17.71,-1.61 -27.37,0l-6.44 1.61 -41.86 -3.22 -17.7 0 -38.64 1.61 -24.15 4.83 -16.1 -1.61 -19.32 1.61 -19.31 1.61 -41.86 -1.61 -6.44 -3.22c-9.66,-3.22 -20.93,-4.83 -32.2,-3.22l-19.32 3.22 -20.92 -1.61 -40.25 4.83c-14.49,0 -27.37,6.44 -41.86,17.71l-1.61 14.49c0,1.61 0,6.44 0,8.05l0 9.66 4.83 38.64c-3.22,9.66 -4.83,17.7 -4.83,28.97l1.61 24.15 -1.61 20.93 -1.61 33.81 0 6.44c-1.61,6.44 -1.61,9.66 -1.61,16.1l0 32.19 -3.22 20.93 0 37.03 1.61 17.71 3.22 35.41 -1.61 25.76 1.61 37.03 0 16.1 -1.61 40.24 0 19.32 -1.61 12.88c-1.61,17.71 0,33.81 4.83,41.86l-3.22 37.03 0 17.7 -3.22 45.08 1.61 22.54 -1.61 27.37c0,4.83 0,9.66 0,14.49l1.61 11.26 3.22 40.25 0 20.93 1.61 37.03 0 17.7 1.61 33.81 -1.61 20.93 1.61 37.03 -3.22 17.71 -3.22 40.24 -1.61 14.49c0,3.22 0,8.05 0,11.27l0 33.81 -1.61 6.44c-1.61,4.83 -1.61,12.88 -1.61,17.71l1.61 28.97 1.61 14.49c1.61,12.88 4.83,20.93 11.27,25.76zm1540.65 -660.05l-16.1 -11.27c-11.27,-6.43 -24.15,-11.26 -37.03,-12.87l0 0c-8.05,-6.44 -17.71,-9.66 -28.98,-12.88l-16.09 -6.44 -20.93 -8.05 -33.81 -14.49 -16.1 -4.83 -32.2 -14.49 -16.09 -11.27 -17.71 -30.59 -1.61 -20.92 -3.22 -19.32 4.83 -19.32 11.27 -19.32 20.92 -6.44 12.88 -6.44 41.86 -1.61 12.88 0c1.61,0 6.44,0 8.05,0l16.1 0 14.49 -4.83 20.92 3.22 38.64 1.61 24.15 -1.61 35.42 11.27 53.12 11.27 20.93 8.05 32.2 9.66 8.05 3.22c1.61,1.61 4.83,1.61 8.05,3.22l16.1 3.22 12.87 -12.88 1.61 -3.22c1.61,-8.05 1.61,-14.49 0,-22.54l-4.83 -28.98 -1.61 -16.1 3.22 -43.46 1.61 -8.05c1.61,-4.83 1.61,-11.27 1.61,-17.71l1.61 -32.2 -8.05 -19.32 4.83 -33.8 0 -17.71c0,-3.22 0,-3.22 0,-4.83 -4.83,-12.88 -33.8,-41.86 -33.8,-41.86l-38.64 -11.27 -8.05 -3.22c-3.22,-1.61 -8.05,-4.83 -12.88,-6.44l-16.1 -4.83c-6.44,-1.61 -14.49,-3.22 -20.93,-3.22l-9.65 0 -33.81 0 -16.1 0 -40.25 -4.83 -16.1 0 -49.9 -4.82c-6.44,0 -14.49,0 -20.93,1.61l-8.05 1.61 -14.49 -1.61c-4.83,0 -9.66,0 -14.49,0l-30.58 3.21 -53.13 6.44 -20.93 1.61 -35.42 6.44 -12.87 3.22c-4.83,1.61 -9.66,3.22 -14.49,4.83l-24.15 9.66 -8.05 3.22c-6.44,3.22 -11.27,4.83 -16.1,8.05l-22.54 14.49 -12.88 12.88 -40.24 27.37 -30.59 25.75 -16.1 17.71 -27.37 28.98 -1.61 1.61c-4.83,8.05 -9.66,14.49 -12.88,24.15l-6.44 24.15 -14.48 43.46 -3.22 22.54 -6.44 40.25 -3.22 17.71 -1.61 11.27c-1.61,4.83 -1.61,12.88 -1.61,17.7l0 12.88 0 8.05c0,4.83 0,11.27 1.61,16.1l1.61 14.49c1.61,8.05 4.83,17.71 8.05,25.76l3.22 6.44 14.48 37.03 3.22 9.65c1.61,6.44 3.22,11.27 4.83,16.1l12.88 24.15 8.05 14.49c3.22,4.83 6.44,11.27 11.27,16.1l17.71 20.93 17.71 16.1 24.15 17.7c1.61,1.61 4.83,1.61 6.44,3.22l14.48 8.05 32.2 14.49 9.66 8.05c3.22,3.22 8.05,4.83 12.88,8.05l30.59 14.49 14.49 8.05 41.85 20.93 14.49 3.22 17.71 8.05 20.93 8.05 17.71 6.44 33.8 19.31 22.54 6.44 28.98 19.32 14.49 3.22 16.1 11.27 12.88 22.54 -3.22 37.03 -4.83 22.53 -19.32 19.32 -20.93 3.22 -33.81 3.22 -24.14 -1.61 -19.32 -1.61 -17.71 1.61 -17.71 -3.22 -40.25 -3.22 -12.88 -3.22c-6.44,-1.61 -14.48,-3.22 -22.53,-3.22l-24.15 -1.61 -12.88 -1.61 -40.25 -11.27 -22.54 -6.44 -30.58 -16.09 -17.71 -1.61 -28.98 -17.71 -9.66 -1.61c-6.44,-1.61 -14.49,-3.22 -19.32,1.61 -9.66,8.05 -20.93,28.97 -20.93,28.97l4.83 33.81 -1.61 19.32 -1.61 6.44c-1.61,6.44 -1.61,14.49 -1.61,22.54l1.61 27.37 0 17.7 -1.61 43.47 0 0c-3.22,11.27 -3.22,20.93 -1.61,30.59l3.22 27.37c-1.61,11.27 0,19.31 4.83,25.75 11.27,14.49 24.15,22.54 33.81,24.15l35.42 12.88 14.49 4.83c3.22,1.61 9.66,4.83 12.88,4.83l32.19 6.44 4.83 3.22c8.05,4.83 17.71,8.05 27.37,9.66l19.32 3.22 20.93 1.61 16.1 1.61 35.41 3.22 19.32 0 40.25 0 16.1 -1.61 14.49 0 1.61 1.61c14.48,1.61 25.75,0 35.41,-4.83l38.64 -1.61 49.91 1.61c6.44,0 12.87,0 17.7,-1.61l4.83 -1.61 37.03 -9.66 19.32 -3.22 30.59 -8.05c4.83,-1.61 11.27,-1.61 16.1,-4.83l4.83 -3.22 33.8 -17.71 20.93 -8.05 30.59 -17.71c4.83,-1.61 8.05,-6.43 11.27,-9.65l25.76 -22.54c1.61,-1.61 3.22,-3.22 4.82,-4.83l9.66 -9.66 19.32 -27.37 8.05 -8.05c3.22,-4.83 8.05,-9.66 11.27,-16.1l8.05 -14.49c1.61,-4.83 3.22,-6.44 4.83,-11.27l4.83 -16.09 6.44 -17.71c3.22,-11.27 4.83,-24.15 3.22,-38.64l0 0 3.22 -33.81 3.22 -20.92 1.61 -16.1 1.61 -20.93 1.61 -8.05c0,-4.83 0,-11.27 0,-17.71l-3.22 -27.37 -1.61 -8.05c0,-4.83 0,-9.66 -1.61,-14.49l-3.22 -9.66 -12.88 -32.19 -9.66 -17.71 -4.83 -12.88c-6.44,-12.88 -14.49,-25.76 -25.76,-33.81l-24.15 -25.76 -4.82 -4.82c-4.83,-6.44 -12.88,-11.27 -19.32,-16.1l-25.76 -22.54 -17.71 -12.88 -27.37 -17.71 -16.1 -8.05 -33.8 -19.32 -17.71 -9.66zm357.39 -476.52l-12.88 12.88 -3.22 14.49c-1.61,4.83 -3.22,9.66 -3.22,14.49l-1.61 30.59 0 41.85 3.22 24.15 0 41.86 -3.22 27.37c-1.61,9.65 -1.61,20.92 3.22,30.58 3.22,9.66 9.66,17.71 20.93,22.54 6.44,3.22 12.88,4.83 19.32,3.22l38.63 1.61 9.66 3.22c8.05,3.22 16.1,4.83 25.76,4.83l43.47 0 35.41 -4.83 16.1 1.61 43.47 4.83 20.93 1.61 17.71 22.54 1.61 20.93 1.61 35.41 1.6 17.71 -1.6 35.42 1.6 19.32 0 37.02 -3.21 9.66c-1.61,4.83 -1.61,11.27 -1.61,17.71l0 30.59 3.22 16.1 1.6 41.86 -1.6 12.87c0,4.83 0,12.88 0,17.71l3.21 28.98 3.22 17.71 0 38.64c-4.83,11.27 -6.43,20.92 -6.43,35.41l1.6 22.54 -1.6 8.05c0,6.44 0,12.88 0,19.32l3.21 25.76 -1.61 12.88c0,4.83 -1.6,8.05 -1.6,14.48l1.6 32.2 4.83 16.1 0 38.64 -3.22 20.93c0,3.22 0,8.05 0,11.27l-1.61 35.41 3.22 19.32 -1.61 40.25 0 19.32 1.61 32.19c0,0 0,1.61 0,3.22 1.61,14.49 32.2,37.03 32.2,37.03l37.03 1.61 20.93 -1.61 35.41 1.61 19.32 -1.61 38.64 1.61 17.71 0 17.71 3.22c9.66,1.61 17.71,1.61 27.36,0l8.05 -1.61 35.42 0 20.93 -3.22 1.61 -1.61c9.66,-12.88 16.1,-25.76 17.71,-33.81l3.22 -41.85 3.22 -17.71 3.22 -43.47 0 -11.27c0,-3.22 0,-9.66 0,-12.88l-3.22 -30.58 0 -20.93 -4.83 -40.25 -1.61 -19.32 0 -40.24 1.61 -1.61c3.22,-9.66 4.83,-17.71 4.83,-25.76l1.61 -28.98 1.61 -16.1 -3.22 -19.32 0 0c3.22,-12.88 1.61,-25.76 -1.61,-38.63l3.22 -40.25 0 -17.71 -1.61 -40.25 1.61 -9.66c0,-6.43 1.61,-11.26 0,-19.31l-4.83 -27.37 3.22 -9.66c1.61,-8.05 0,-11.27 0,-19.32l-1.61 -32.2 -6.44 -19.31 4.83 -30.59 3.22 -14.49c1.61,-6.44 1.61,-9.66 1.61,-16.1l0 -27.37 1.61 -6.44c1.61,-9.66 3.22,-14.49 1.61,-24.15l-3.22 -25.75 0 -22.54 22.54 -19.32 17.7 -9.66 40.25 3.22 16.1 1.61 33.81 -3.22 14.49 0c4.83,0 9.65,1.61 14.48,0l27.37 -4.83 62.79 0 19.32 3.22 3.22 -4.83c8.04,-12.88 12.87,-22.54 14.48,-37.03l3.22 -46.68 -1.61 -38.64 1.61 -8.05c1.61,-8.05 3.22,-17.71 3.22,-25.76l-1.61 -27.36 1.61 -33.81c0,-8.05 0,-12.88 -1.61,-19.32 -3.22,-11.27 -9.66,-22.54 -20.92,-32.2 -6.44,-6.44 -12.88,-9.66 -19.32,-9.66l-103.03 0 -1.61 0c-8.05,-1.61 -16.1,-3.22 -25.76,-1.61l-22.54 1.61 -20.93 0 -37.03 4.83 -22.53 -1.61 -37.03 -3.22c-3.22,0 -8.05,-1.61 -11.27,-1.61l-9.66 1.61 -37.03 3.22 -16.1 -3.22 -35.41 -1.61c-3.22,0 -9.66,1.61 -12.88,1.61l-11.27 1.61 -17.71 3.22 -24.15 -1.61 -6.44 0c-4.83,-1.61 -12.88,-1.61 -17.7,-1.61l-32.2 1.61 -16.1 0 -41.86 1.61 -17.71 -1.61 -40.24 -1.61 -17.71 4.83 -33.81 -3.22 -11.27 -1.61c-6.44,-1.61 -12.88,-1.61 -19.32,-1.61l-24.14 1.61 -19.32 1.61 -33.81 0 -24.15 1.61 -32.2 -1.61c-1.61,0 -4.83,0 -8.04,0 -11.27,1.61 -20.93,6.44 -28.98,14.49zm1416.69 758.25l11.27 -9.66 1.6 -14.49c1.61,-6.44 1.61,-9.66 1.61,-16.1l0 -28.97 -1.61 -19.32 1.61 -35.42 3.22 -19.32 -1.61 -32.19 0 -19.32 1.61 -32.2 3.22 -25.76 0 -37.03 1.61 -16.09c1.61,-4.83 1.61,-8.05 1.61,-12.88l1.61 -25.76 0 -6.44c1.61,-8.05 3.22,-12.88 3.22,-20.93l0 -27.37 1.61 -9.66c0,-3.22 1.61,-9.66 1.61,-12.87l1.61 -32.2 -3.22 -20.93 4.83 -20.93c1.61,-9.66 3.22,-17.71 1.61,-28.98l0 -3.22 1.61 -11.27c3.22,-12.87 3.22,-25.75 0,-38.63l0 -1.61 0 -37.03 3.22 -11.27c1.61,-8.05 3.22,-14.49 3.22,-20.93l0 -27.36 0 -19.32 -1.61 -25.76c0,-6.44 0,-12.88 -3.22,-17.71 -8.05,-14.49 -32.19,-33.81 -32.19,-33.81l-41.86 4.83 -9.66 -1.61c-3.22,0 -9.66,-1.61 -12.88,-1.61l-32.2 1.61 -1.61 0c-8.05,-3.22 -19.32,-4.83 -28.97,-4.83l-24.15 0 -45.08 1.61 -17.71 -1.61 -22.54 0c-6.44,0 -16.09,0 -22.53,3.22 -9.66,4.83 -20.93,14.49 -27.37,32.2 -1.61,4.83 -3.22,9.66 -3.22,12.88l-1.61 40.25 1.61 17.71 3.22 41.85 6.44 43.47 -1.61 14.49c0,4.83 -1.61,8.05 -1.61,12.88l1.61 32.19 4.83 19.32 1.61 37.03 0 3.22c-1.61,11.27 -3.22,20.93 -1.61,30.59l3.22 20.92 3.22 20.93 3.22 32.2 0 16.1 -1.61 37.03 6.44 19.31 -4.83 25.76c-1.61,4.83 0,11.27 0,17.71l1.61 11.27 1.61 32.2 -1.61 11.27c0,4.83 0,12.88 1.61,17.7l6.44 30.59 -3.22 14.49c0,6.44 0,11.27 0,16.1l3.22 32.2 -1.61 4.83c-1.61,4.83 -3.22,11.27 -3.22,17.71l0 27.36 1.61 1.61c3.22,9.66 8.05,17.71 14.49,24.15 12.87,9.66 24.14,16.1 33.8,16.1l41.86 3.22 16.1 -4.83 40.24 3.22 11.27 1.61c6.44,0 12.88,0 19.32,0l51.52 -6.44c9.66,-1.61 17.71,-4.83 24.15,-11.27zm-283.34 185.14l-8.05 27.36 4.83 19.32 -1.61 6.44c-1.61,8.05 -3.22,17.71 -3.22,25.76l0 9.66 3.22 12.88c3.22,17.71 12.88,28.98 22.54,38.63l12.88 27.37c1.61,4.83 4.83,8.05 6.44,11.27 8.05,9.66 16.09,16.1 27.36,20.93l11.27 6.44 14.49 4.83c3.22,1.61 9.66,3.22 12.88,3.22l22.54 4.83c6.44,1.61 14.49,1.61 20.93,1.61l6.44 0 16.1 1.61c6.43,0 12.87,0 19.31,-1.61l8.05 0 41.86 -9.66 11.27 -4.83c3.22,-1.61 8.05,-3.22 11.27,-6.44l9.66 -6.44c11.27,-8.05 19.32,-16.1 25.75,-28.98l9.66 -19.32 4.83 -9.65c1.61,-4.83 3.22,-8.05 4.83,-12.88l8.05 -28.98 4.83 -22.54 3.22 -16.1 0 -17.71 1.61 -4.83c1.61,-9.66 1.61,-17.71 0,-27.36l0 -1.61c-1.61,-11.27 -6.44,-17.71 -11.27,-25.76l-1.61 -3.22 -9.66 -14.49c-6.44,-8.05 -16.09,-16.1 -24.14,-22.54l-3.22 -1.61 -27.37 -19.32 -6.44 -3.22c-8.05,-6.44 -19.32,-11.27 -28.98,-12.88l-8.05 -1.61c-9.66,-1.61 -20.93,-3.22 -30.59,-1.61l-4.83 1.61 -19.31 1.61 -17.71 3.22 -14.49 1.61 -37.03 6.44c-9.66,1.61 -20.93,4.83 -35.42,16.1l-3.22 3.22c-4.82,3.22 -8.04,6.44 -11.26,11.27l-22.54 25.76 -4.83 6.44c-4.83,8.05 -9.66,17.71 -11.27,25.76z"/>
   <path class="fil2" d="M2719.68 1325.29l-18.42 17.1 -7.64 -2.54c-15.3,-5.1 -35.69,-7.65 -50.99,-5.1l-35.68 2.55 -33.14 10.19 -58.63 7.66c-20.39,0 -43.33,7.64 -68.82,25.48l0 0 -5.1 22.94c-2.55,10.2 -5.1,15.3 -5.1,25.49l0 45.89 2.55 33.13 5.1 58.63 -2.55 35.68 2.55 50.99 0 22.94c0,2.55 -2.55,5.1 -2.55,7.64l-2.55 28.05 17.84 10.2c15.3,10.19 30.59,15.29 48.43,17.84l7.65 2.55 58.63 2.54c15.29,5.1 30.59,7.65 45.88,5.1l45.89 -5.1 30.59 0 26.06 24.33 0 -444.18z"/>
  </g>
 </g>
</svg>
