<?xml version="1.0" encoding="UTF-8"?>
<!DOCTYPE svg PUBLIC "-//W3C//DTD SVG 1.1//EN" "http://www.w3.org/Graphics/SVG/1.1/DTD/svg11.dtd">
<!-- Creator: CorelDRAW 2017 -->
<svg xmlns="http://www.w3.org/2000/svg" xml:space="preserve" width="150mm" height="43mm" version="1.1" style="shape-rendering:geometricPrecision; text-rendering:geometricPrecision; image-rendering:optimizeQuality; fill-rule:evenodd; clip-rule:evenodd"
viewBox="0 0 15000 4300"
 xmlns:xlink="http://www.w3.org/1999/xlink">
 <defs>
  <style type="text/css">
   <![CDATA[
    .fil0 {fill:#7F222B}
   ]]>
  </style>
 </defs>
 <g id="Vrstva_x0020_1">
  <metadata id="CorelCorpID_0Corel-Layer"/>
  <path class="fil0" d="M1401.38 4101.91l12754.98 0c326.53,0 593.64,-267.13 593.64,-593.68l0 -2716.46c0,-326.55 -267.11,-593.68 -593.64,-593.68l-12754.98 0c-326.53,0 -593.68,267.13 -593.68,593.68l0 800.53c-307.98,0 -557.7,249.73 -557.7,557.7 0,307.97 249.72,557.7 557.7,557.7l0 800.53c0,326.55 267.15,593.68 593.68,593.68zm-872.55 -1951.91c0,-153.98 124.87,-278.85 278.87,-278.85 153.99,0 278.86,124.87 278.86,278.85 0,153.98 -124.87,278.85 -278.86,278.85 -154,0 -278.87,-124.87 -278.87,-278.85z"/>
 </g>
</svg>
