<?xml version="1.0" encoding="UTF-8"?>
<!DOCTYPE svg PUBLIC "-//W3C//DTD SVG 1.1//EN" "http://www.w3.org/Graphics/SVG/1.1/DTD/svg11.dtd">
<!-- Creator: CorelDRAW 2017 -->
<svg xmlns="http://www.w3.org/2000/svg" xml:space="preserve" width="150mm" height="43mm" version="1.1" style="shape-rendering:geometricPrecision; text-rendering:geometricPrecision; image-rendering:optimizeQuality; fill-rule:evenodd; clip-rule:evenodd"
viewBox="0 0 15000 4300"
 xmlns:xlink="http://www.w3.org/1999/xlink">
 <defs>
  <style type="text/css">
   <![CDATA[
    .fil0 {fill:#22B6D3}
   ]]>
  </style>
 </defs>
 <g id="Vrstva_x0020_1">
  <metadata id="CorelCorpID_0Corel-Layer"/>
  <path class="fil0" d="M13598.62 4101.9l-12754.97 0c-326.51,0 -593.65,-267.13 -593.65,-593.68l0 -2716.45c0,-326.56 267.14,-593.68 593.65,-593.68l12754.97 0c326.53,0 593.67,267.12 593.67,593.68l0 800.52c307.95,0 557.7,249.74 557.7,557.7 0,307.97 -249.75,557.71 -557.7,557.71l0 800.52c0,326.55 -267.14,593.68 -593.67,593.68zm872.51 -1951.91c0,-153.98 -124.87,-278.85 -278.84,-278.85 -153.98,0 -278.85,124.87 -278.85,278.85 0,153.99 124.87,278.85 278.85,278.85 153.97,0 278.84,-124.86 278.84,-278.85z"/>
 </g>
</svg>
