<?xml version="1.0" encoding="UTF-8"?>
<!DOCTYPE svg PUBLIC "-//W3C//DTD SVG 1.1//EN" "http://www.w3.org/Graphics/SVG/1.1/DTD/svg11.dtd">
<!-- Creator: CorelDRAW 2017 -->
<svg xmlns="http://www.w3.org/2000/svg" xml:space="preserve" width="168mm" height="232mm" version="1.1" style="shape-rendering:geometricPrecision; text-rendering:geometricPrecision; image-rendering:optimizeQuality; fill-rule:evenodd; clip-rule:evenodd"
viewBox="0 0 16800 23200"
 xmlns:xlink="http://www.w3.org/1999/xlink">
 <defs>
  <style type="text/css">
   <![CDATA[
    .fil1 {fill:#2B2A29}
    .fil0 {fill:#B42322}
   ]]>
  </style>
 </defs>
 <g id="Vrstva_x0020_1">
  <metadata id="CorelCorpID_0Corel-Layer"/>
  <path class="fil0" d="M8354.58 2970.17c0,-25.07 20.35,-45.41 45.41,-45.41 25.08,0 45.41,20.34 45.41,45.41 0,25.07 -20.33,45.41 -45.41,45.41 -25.06,0 -45.41,-20.34 -45.41,-45.41z"/>
  <path class="fil0" d="M8354.58 3121.4c0,-25.08 20.35,-45.41 45.41,-45.41 25.08,0 45.41,20.33 45.41,45.41 0,25.07 -20.33,45.4 -45.41,45.4 -25.06,0 -45.41,-20.33 -45.41,-45.4z"/>
  <path class="fil0" d="M8354.58 3272.62c0,-25.07 20.35,-45.4 45.41,-45.4 25.08,0 45.41,20.33 45.41,45.4 0,25.08 -20.33,45.41 -45.41,45.41 -25.06,0 -45.41,-20.33 -45.41,-45.41z"/>
  <path class="fil0" d="M8354.58 3423.85c0,-25.07 20.35,-45.41 45.41,-45.41 25.08,0 45.41,20.34 45.41,45.41 0,25.07 -20.33,45.41 -45.41,45.41 -25.06,0 -45.41,-20.34 -45.41,-45.41z"/>
  <path class="fil0" d="M8354.58 3575.08c0,-25.08 20.35,-45.41 45.41,-45.41 25.08,0 45.41,20.33 45.41,45.41 0,25.07 -20.33,45.4 -45.41,45.4 -25.06,0 -45.41,-20.33 -45.41,-45.4z"/>
  <path class="fil0" d="M8354.58 3726.3c0,-25.07 20.35,-45.4 45.41,-45.4 25.08,0 45.41,20.33 45.41,45.4 0,25.08 -20.33,45.41 -45.41,45.41 -25.06,0 -45.41,-20.33 -45.41,-45.41z"/>
  <path class="fil0" d="M8505.82 5692.26c0,-25.08 20.32,-45.41 45.41,-45.41 25.06,0 45.4,20.33 45.4,45.41 0,25.07 -20.34,45.4 -45.4,45.4 -25.09,0 -45.41,-20.33 -45.41,-45.4z"/>
  <path class="fil0" d="M8657.05 5692.26c0,-25.08 20.33,-45.41 45.39,-45.41 25.08,0 45.41,20.33 45.41,45.41 0,25.07 -20.33,45.4 -45.41,45.4 -25.06,0 -45.39,-20.33 -45.39,-45.4z"/>
  <path class="fil0" d="M8354.58 6145.94c0,-25.08 20.35,-45.41 45.41,-45.41 25.08,0 45.41,20.33 45.41,45.41 0,25.07 -20.33,45.4 -45.41,45.4 -25.06,0 -45.41,-20.33 -45.41,-45.4z"/>
  <path class="fil0" d="M8354.58 6297.17c0,-25.08 20.35,-45.41 45.41,-45.41 25.08,0 45.41,20.33 45.41,45.41 0,25.07 -20.33,45.4 -45.41,45.4 -25.06,0 -45.41,-20.33 -45.41,-45.4z"/>
  <path class="fil0" d="M8354.58 6448.39c0,-25.07 20.35,-45.4 45.41,-45.4 25.08,0 45.41,20.33 45.41,45.4 0,25.08 -20.33,45.41 -45.41,45.41 -25.06,0 -45.41,-20.33 -45.41,-45.41z"/>
  <path class="fil0" d="M8354.58 6599.62c0,-25.07 20.35,-45.41 45.41,-45.41 25.08,0 45.41,20.34 45.41,45.41 0,25.07 -20.33,45.41 -45.41,45.41 -25.06,0 -45.41,-20.34 -45.41,-45.41z"/>
  <path class="fil0" d="M8354.58 6750.85c0,-25.08 20.35,-45.41 45.41,-45.41 25.08,0 45.41,20.33 45.41,45.41 0,25.07 -20.33,45.4 -45.41,45.4 -25.06,0 -45.41,-20.33 -45.41,-45.4z"/>
  <path class="fil0" d="M8354.58 6902.07c0,-25.07 20.35,-45.4 45.41,-45.4 25.08,0 45.41,20.33 45.41,45.4 0,25.08 -20.33,45.41 -45.41,45.41 -25.06,0 -45.41,-20.33 -45.41,-45.41z"/>
  <path class="fil0" d="M8354.58 7053.3c0,-25.07 20.35,-45.41 45.41,-45.41 25.08,0 45.41,20.34 45.41,45.41 0,25.07 -20.33,45.41 -45.41,45.41 -25.06,0 -45.41,-20.34 -45.41,-45.41z"/>
  <path class="fil0" d="M8354.58 7204.53c0,-25.08 20.35,-45.41 45.41,-45.41 25.08,0 45.41,20.33 45.41,45.41 0,25.07 -20.33,45.4 -45.41,45.4 -25.06,0 -45.41,-20.33 -45.41,-45.4z"/>
  <path class="fil0" d="M8354.58 7355.75c0,-25.07 20.35,-45.4 45.41,-45.4 25.08,0 45.41,20.33 45.41,45.4 0,25.08 -20.33,45.41 -45.41,45.41 -25.06,0 -45.41,-20.33 -45.41,-45.41z"/>
  <path class="fil0" d="M8354.58 7506.98c0,-25.07 20.35,-45.4 45.41,-45.4 25.08,0 45.41,20.33 45.41,45.4 0,25.08 -20.33,45.41 -45.41,45.41 -25.06,0 -45.41,-20.33 -45.41,-45.41z"/>
  <path class="fil0" d="M8354.58 7658.21c0,-25.07 20.35,-45.41 45.41,-45.41 25.08,0 45.41,20.34 45.41,45.41 0,25.07 -20.33,45.4 -45.41,45.4 -25.06,0 -45.41,-20.33 -45.41,-45.4z"/>
  <path class="fil0" d="M8354.58 7809.44c0,-25.08 20.35,-45.41 45.41,-45.41 25.08,0 45.41,20.33 45.41,45.41 0,25.07 -20.33,45.4 -45.41,45.4 -25.06,0 -45.41,-20.33 -45.41,-45.4z"/>
  <path class="fil0" d="M8808.26 7960.66c0,-25.07 20.34,-45.4 45.41,-45.4 25.08,0 45.42,20.33 45.42,45.4 0,25.08 -20.34,45.41 -45.42,45.41 -25.07,0 -45.41,-20.33 -45.41,-45.41z"/>
  <path class="fil0" d="M8808.26 9019.25c0,-25.07 20.34,-45.4 45.41,-45.4 25.08,0 45.42,20.33 45.42,45.4 0,25.08 -20.34,45.41 -45.42,45.41 -25.07,0 -45.41,-20.33 -45.41,-45.41z"/>
  <path class="fil0" d="M8808.26 18244.1c0,-25.07 20.34,-45.4 45.41,-45.4 25.08,0 45.42,20.33 45.42,45.4 0,25.08 -20.34,45.41 -45.42,45.41 -25.07,0 -45.41,-20.33 -45.41,-45.41z"/>
  <path class="fil0" d="M8657.05 7960.66c0,-25.07 20.33,-45.4 45.39,-45.4 25.08,0 45.41,20.33 45.41,45.4 0,25.08 -20.33,45.41 -45.41,45.41 -25.06,0 -45.39,-20.33 -45.39,-45.41z"/>
  <path class="fil0" d="M8657.05 9019.25c0,-25.07 20.33,-45.4 45.39,-45.4 25.08,0 45.41,20.33 45.41,45.4 0,25.08 -20.33,45.41 -45.41,45.41 -25.06,0 -45.39,-20.33 -45.39,-45.41z"/>
  <path class="fil0" d="M8657.05 18244.1c0,-25.07 20.33,-45.4 45.39,-45.4 25.08,0 45.41,20.33 45.41,45.4 0,25.08 -20.33,45.41 -45.41,45.41 -25.06,0 -45.39,-20.33 -45.39,-45.41z"/>
  <path class="fil0" d="M8505.82 7960.66c0,-25.07 20.32,-45.4 45.41,-45.4 25.06,0 45.4,20.33 45.4,45.4 0,25.08 -20.34,45.41 -45.4,45.41 -25.09,0 -45.41,-20.33 -45.41,-45.41z"/>
  <path class="fil0" d="M8505.82 9019.25c0,-25.07 20.32,-45.4 45.41,-45.4 25.06,0 45.4,20.33 45.4,45.4 0,25.08 -20.34,45.41 -45.4,45.41 -25.09,0 -45.41,-20.33 -45.41,-45.41z"/>
  <path class="fil0" d="M8505.82 18244.1c0,-25.07 20.32,-45.4 45.41,-45.4 25.06,0 45.4,20.33 45.4,45.4 0,25.08 -20.34,45.41 -45.4,45.41 -25.09,0 -45.41,-20.33 -45.41,-45.41z"/>
  <path class="fil0" d="M8354.58 7960.66c0,-25.07 20.35,-45.4 45.41,-45.4 25.08,0 45.41,20.33 45.41,45.4 0,25.08 -20.33,45.41 -45.41,45.41 -25.06,0 -45.41,-20.33 -45.41,-45.41z"/>
  <path class="fil0" d="M8354.58 9019.25c0,-25.07 20.35,-45.4 45.41,-45.4 25.08,0 45.41,20.33 45.41,45.4 0,25.08 -20.33,45.41 -45.41,45.41 -25.06,0 -45.41,-20.33 -45.41,-45.41z"/>
  <path class="fil0" d="M8354.58 18244.1c0,-25.07 20.35,-45.4 45.41,-45.4 25.08,0 45.41,20.33 45.41,45.4 0,25.08 -20.33,45.41 -45.41,45.41 -25.06,0 -45.41,-20.33 -45.41,-45.41z"/>
  <path class="fil0" d="M8203.37 7960.66c0,-25.07 20.32,-45.4 45.4,-45.4 25.07,0 45.4,20.33 45.4,45.4 0,25.08 -20.33,45.41 -45.4,45.41 -25.08,0 -45.4,-20.33 -45.4,-45.41z"/>
  <path class="fil0" d="M8203.37 9019.25c0,-25.07 20.32,-45.4 45.4,-45.4 25.07,0 45.4,20.33 45.4,45.4 0,25.08 -20.33,45.41 -45.4,45.41 -25.08,0 -45.4,-20.33 -45.4,-45.41z"/>
  <path class="fil0" d="M8203.37 18244.1c0,-25.07 20.32,-45.4 45.4,-45.4 25.07,0 45.4,20.33 45.4,45.4 0,25.08 -20.33,45.41 -45.4,45.41 -25.08,0 -45.4,-20.33 -45.4,-45.41z"/>
  <path class="fil0" d="M8052.13 7960.66c0,-25.07 20.33,-45.4 45.41,-45.4 25.08,0 45.41,20.33 45.41,45.4 0,25.08 -20.33,45.41 -45.41,45.41 -25.08,0 -45.41,-20.33 -45.41,-45.41z"/>
  <path class="fil0" d="M8052.13 9019.25c0,-25.07 20.33,-45.4 45.41,-45.4 25.08,0 45.41,20.33 45.41,45.4 0,25.08 -20.33,45.41 -45.41,45.41 -25.08,0 -45.41,-20.33 -45.41,-45.41z"/>
  <path class="fil0" d="M8052.13 18244.1c0,-25.07 20.33,-45.4 45.41,-45.4 25.08,0 45.41,20.33 45.41,45.4 0,25.08 -20.33,45.41 -45.41,45.41 -25.08,0 -45.41,-20.33 -45.41,-45.41z"/>
  <path class="fil0" d="M7900.91 7960.66c0,-25.07 20.33,-45.4 45.4,-45.4 25.08,0 45.4,20.33 45.4,45.4 0,25.08 -20.32,45.41 -45.4,45.41 -25.07,0 -45.4,-20.33 -45.4,-45.41z"/>
  <path class="fil0" d="M7900.91 9019.25c0,-25.07 20.33,-45.4 45.4,-45.4 25.08,0 45.4,20.33 45.4,45.4 0,25.08 -20.32,45.41 -45.4,45.41 -25.07,0 -45.4,-20.33 -45.4,-45.41z"/>
  <path class="fil0" d="M7900.91 18244.1c0,-25.07 20.33,-45.4 45.4,-45.4 25.08,0 45.4,20.33 45.4,45.4 0,25.08 -20.32,45.41 -45.4,45.41 -25.07,0 -45.4,-20.33 -45.4,-45.41z"/>
  <path class="fil0" d="M7749.69 7960.66c0,-25.07 20.33,-45.4 45.41,-45.4 25.06,0 45.41,20.33 45.41,45.4 0,25.08 -20.35,45.41 -45.41,45.41 -25.08,0 -45.41,-20.33 -45.41,-45.41z"/>
  <path class="fil0" d="M7749.69 9019.25c0,-25.07 20.33,-45.4 45.41,-45.4 25.06,0 45.41,20.33 45.41,45.4 0,25.08 -20.35,45.41 -45.41,45.41 -25.08,0 -45.41,-20.33 -45.41,-45.41z"/>
  <path class="fil0" d="M7749.69 18244.1c0,-25.07 20.33,-45.4 45.41,-45.4 25.06,0 45.41,20.33 45.41,45.4 0,25.08 -20.35,45.41 -45.41,45.41 -25.08,0 -45.41,-20.33 -45.41,-45.41z"/>
  <path class="fil0" d="M7598.46 7960.66c0,-25.07 20.34,-45.4 45.4,-45.4 25.09,0 45.42,20.33 45.42,45.4 0,25.08 -20.33,45.41 -45.42,45.41 -25.06,0 -45.4,-20.33 -45.4,-45.41z"/>
  <path class="fil0" d="M7598.46 9019.25c0,-25.07 20.34,-45.4 45.4,-45.4 25.09,0 45.42,20.33 45.42,45.4 0,25.08 -20.33,45.41 -45.42,45.41 -25.06,0 -45.4,-20.33 -45.4,-45.41z"/>
  <path class="fil0" d="M7598.46 18244.1c0,-25.07 20.34,-45.4 45.4,-45.4 25.09,0 45.42,20.33 45.42,45.4 0,25.08 -20.33,45.41 -45.42,45.41 -25.06,0 -45.4,-20.33 -45.4,-45.41z"/>
  <path class="fil0" d="M7447.24 7960.66c0,-25.07 20.33,-45.4 45.41,-45.4 25.06,0 45.39,20.33 45.39,45.4 0,25.08 -20.33,45.41 -45.39,45.41 -25.08,0 -45.41,-20.33 -45.41,-45.41z"/>
  <path class="fil0" d="M7447.24 9019.25c0,-25.07 20.33,-45.4 45.41,-45.4 25.06,0 45.39,20.33 45.39,45.4 0,25.08 -20.33,45.41 -45.39,45.41 -25.08,0 -45.41,-20.33 -45.41,-45.41z"/>
  <path class="fil0" d="M7447.24 18244.1c0,-25.07 20.33,-45.4 45.41,-45.4 25.06,0 45.39,20.33 45.39,45.4 0,25.08 -20.33,45.41 -45.39,45.41 -25.08,0 -45.41,-20.33 -45.41,-45.41z"/>
  <path class="fil0" d="M7296 7960.66c0,-25.07 20.34,-45.4 45.42,-45.4 25.07,0 45.41,20.33 45.41,45.4 0,25.08 -20.34,45.41 -45.41,45.41 -25.08,0 -45.42,-20.33 -45.42,-45.41z"/>
  <path class="fil0" d="M7296 9019.25c0,-25.07 20.34,-45.4 45.42,-45.4 25.07,0 45.41,20.33 45.41,45.4 0,25.08 -20.34,45.41 -45.41,45.41 -25.08,0 -45.42,-20.33 -45.42,-45.41z"/>
  <path class="fil0" d="M7296 18244.1c0,-25.07 20.34,-45.4 45.42,-45.4 25.07,0 45.41,20.33 45.41,45.4 0,25.08 -20.34,45.41 -45.41,45.41 -25.08,0 -45.42,-20.33 -45.42,-45.41z"/>
  <path class="fil0" d="M7144.79 7960.66c0,-25.07 20.33,-45.4 45.39,-45.4 25.08,0 45.41,20.33 45.41,45.4 0,25.08 -20.33,45.41 -45.41,45.41 -25.06,0 -45.39,-20.33 -45.39,-45.41z"/>
  <path class="fil0" d="M7144.79 9019.25c0,-25.07 20.33,-45.4 45.39,-45.4 25.08,0 45.41,20.33 45.41,45.4 0,25.08 -20.33,45.41 -45.41,45.41 -25.06,0 -45.39,-20.33 -45.39,-45.41z"/>
  <path class="fil0" d="M7144.79 18244.1c0,-25.07 20.33,-45.4 45.39,-45.4 25.08,0 45.41,20.33 45.41,45.4 0,25.08 -20.33,45.41 -45.41,45.41 -25.06,0 -45.39,-20.33 -45.39,-45.41z"/>
  <path class="fil0" d="M6993.56 7960.66c0,-25.07 20.32,-45.4 45.4,-45.4 25.07,0 45.41,20.33 45.41,45.4 0,25.08 -20.34,45.41 -45.41,45.41 -25.08,0 -45.4,-20.33 -45.4,-45.41z"/>
  <path class="fil0" d="M6993.56 9019.25c0,-25.07 20.32,-45.4 45.4,-45.4 25.07,0 45.41,20.33 45.41,45.4 0,25.08 -20.34,45.41 -45.41,45.41 -25.08,0 -45.4,-20.33 -45.4,-45.41z"/>
  <path class="fil0" d="M6993.56 18244.1c0,-25.07 20.32,-45.4 45.4,-45.4 25.07,0 45.41,20.33 45.41,45.4 0,25.08 -20.34,45.41 -45.41,45.41 -25.08,0 -45.4,-20.33 -45.4,-45.41z"/>
  <path class="fil0" d="M6842.32 7960.66c0,-25.07 20.33,-45.4 45.41,-45.4 25.08,0 45.41,20.33 45.41,45.4 0,25.08 -20.33,45.41 -45.41,45.41 -25.08,0 -45.41,-20.33 -45.41,-45.41z"/>
  <path class="fil0" d="M6842.32 9019.25c0,-25.07 20.33,-45.4 45.41,-45.4 25.08,0 45.41,20.33 45.41,45.4 0,25.08 -20.33,45.41 -45.41,45.41 -25.08,0 -45.41,-20.33 -45.41,-45.41z"/>
  <path class="fil0" d="M6842.32 18244.1c0,-25.07 20.33,-45.4 45.41,-45.4 25.08,0 45.41,20.33 45.41,45.4 0,25.08 -20.33,45.41 -45.41,45.41 -25.08,0 -45.41,-20.33 -45.41,-45.41z"/>
  <path class="fil0" d="M6691.1 7960.66c0,-25.07 20.34,-45.4 45.41,-45.4 25.06,0 45.4,20.33 45.4,45.4 0,25.08 -20.34,45.41 -45.4,45.41 -25.07,0 -45.41,-20.33 -45.41,-45.41z"/>
  <path class="fil0" d="M6691.1 9019.25c0,-25.07 20.34,-45.4 45.41,-45.4 25.06,0 45.4,20.33 45.4,45.4 0,25.08 -20.34,45.41 -45.4,45.41 -25.07,0 -45.41,-20.33 -45.41,-45.41z"/>
  <path class="fil0" d="M6691.1 18244.1c0,-25.07 20.34,-45.4 45.41,-45.4 25.06,0 45.4,20.33 45.4,45.4 0,25.08 -20.34,45.41 -45.4,45.41 -25.07,0 -45.41,-20.33 -45.41,-45.41z"/>
  <path class="fil0" d="M6539.87 7960.66c0,-25.07 20.33,-45.4 45.41,-45.4 25.08,0 45.41,20.33 45.41,45.4 0,25.08 -20.33,45.41 -45.41,45.41 -25.08,0 -45.41,-20.33 -45.41,-45.41z"/>
  <path class="fil0" d="M6539.87 9019.25c0,-25.07 20.33,-45.4 45.41,-45.4 25.08,0 45.41,20.33 45.41,45.4 0,25.08 -20.33,45.41 -45.41,45.41 -25.08,0 -45.41,-20.33 -45.41,-45.41z"/>
  <path class="fil0" d="M6539.87 18244.1c0,-25.07 20.33,-45.4 45.41,-45.4 25.08,0 45.41,20.33 45.41,45.4 0,25.08 -20.33,45.41 -45.41,45.41 -25.08,0 -45.41,-20.33 -45.41,-45.41z"/>
  <path class="fil0" d="M6388.65 7960.66c0,-25.07 20.33,-45.4 45.4,-45.4 25.08,0 45.4,20.33 45.4,45.4 0,25.08 -20.32,45.41 -45.4,45.41 -25.07,0 -45.4,-20.33 -45.4,-45.41z"/>
  <path class="fil0" d="M6388.65 9019.25c0,-25.07 20.33,-45.4 45.4,-45.4 25.08,0 45.4,20.33 45.4,45.4 0,25.08 -20.32,45.41 -45.4,45.41 -25.07,0 -45.4,-20.33 -45.4,-45.41z"/>
  <path class="fil0" d="M6388.65 18244.1c0,-25.07 20.33,-45.4 45.4,-45.4 25.08,0 45.4,20.33 45.4,45.4 0,25.08 -20.32,45.41 -45.4,45.41 -25.07,0 -45.4,-20.33 -45.4,-45.41z"/>
  <path class="fil0" d="M6237.42 7960.66c0,-25.07 20.33,-45.4 45.41,-45.4 25.06,0 45.41,20.33 45.41,45.4 0,25.08 -20.35,45.41 -45.41,45.41 -25.08,0 -45.41,-20.33 -45.41,-45.41z"/>
  <path class="fil0" d="M6237.42 9019.25c0,-25.07 20.33,-45.4 45.41,-45.4 25.06,0 45.41,20.33 45.41,45.4 0,25.08 -20.35,45.41 -45.41,45.41 -25.08,0 -45.41,-20.33 -45.41,-45.41z"/>
  <path class="fil0" d="M6237.42 18244.1c0,-25.07 20.33,-45.4 45.41,-45.4 25.06,0 45.41,20.33 45.41,45.4 0,25.08 -20.35,45.41 -45.41,45.41 -25.08,0 -45.41,-20.33 -45.41,-45.41z"/>
  <path class="fil0" d="M6086.19 7960.66c0,-25.07 20.34,-45.4 45.4,-45.4 25.09,0 45.42,20.33 45.42,45.4 0,25.08 -20.33,45.41 -45.42,45.41 -25.06,0 -45.4,-20.33 -45.4,-45.41z"/>
  <path class="fil0" d="M6086.19 9019.25c0,-25.07 20.34,-45.4 45.4,-45.4 25.09,0 45.42,20.33 45.42,45.4 0,25.08 -20.33,45.41 -45.42,45.41 -25.06,0 -45.4,-20.33 -45.4,-45.41z"/>
  <path class="fil0" d="M6086.19 18244.1c0,-25.07 20.34,-45.4 45.4,-45.4 25.09,0 45.42,20.33 45.42,45.4 0,25.08 -20.33,45.41 -45.42,45.41 -25.06,0 -45.4,-20.33 -45.4,-45.41z"/>
  <path class="fil0" d="M5934.97 7960.66c0,-25.07 20.33,-45.4 45.41,-45.4 25.06,0 45.39,20.33 45.39,45.4 0,25.08 -20.33,45.41 -45.39,45.41 -25.08,0 -45.41,-20.33 -45.41,-45.41z"/>
  <path class="fil0" d="M5934.97 9019.25c0,-25.07 20.33,-45.4 45.41,-45.4 25.06,0 45.39,20.33 45.39,45.4 0,25.08 -20.33,45.41 -45.39,45.41 -25.08,0 -45.41,-20.33 -45.41,-45.41z"/>
  <path class="fil0" d="M5934.97 18244.1c0,-25.07 20.33,-45.4 45.41,-45.4 25.06,0 45.39,20.33 45.39,45.4 0,25.08 -20.33,45.41 -45.39,45.41 -25.08,0 -45.41,-20.33 -45.41,-45.41z"/>
  <path class="fil0" d="M5783.73 7960.66c0,-25.07 20.33,-45.4 45.42,-45.4 25.06,0 45.4,20.33 45.4,45.4 0,25.08 -20.34,45.41 -45.4,45.41 -25.09,0 -45.42,-20.33 -45.42,-45.41z"/>
  <path class="fil0" d="M5783.73 9019.25c0,-25.07 20.33,-45.4 45.42,-45.4 25.06,0 45.4,20.33 45.4,45.4 0,25.08 -20.34,45.41 -45.4,45.41 -25.09,0 -45.42,-20.33 -45.42,-45.41z"/>
  <path class="fil0" d="M5783.73 18244.1c0,-25.07 20.33,-45.4 45.42,-45.4 25.06,0 45.4,20.33 45.4,45.4 0,25.08 -20.34,45.41 -45.4,45.41 -25.09,0 -45.42,-20.33 -45.42,-45.41z"/>
  <path class="fil0" d="M5632.5 7960.66c0,-25.07 20.35,-45.4 45.41,-45.4 25.08,0 45.41,20.33 45.41,45.4 0,25.08 -20.33,45.41 -45.41,45.41 -25.06,0 -45.41,-20.33 -45.41,-45.41z"/>
  <path class="fil0" d="M5632.5 9019.25c0,-25.07 20.35,-45.4 45.41,-45.4 25.08,0 45.41,20.33 45.41,45.4 0,25.08 -20.33,45.41 -45.41,45.41 -25.06,0 -45.41,-20.33 -45.41,-45.41z"/>
  <path class="fil0" d="M5632.5 18244.1c0,-25.07 20.35,-45.4 45.41,-45.4 25.08,0 45.41,20.33 45.41,45.4 0,25.08 -20.33,45.41 -45.41,45.41 -25.06,0 -45.41,-20.33 -45.41,-45.41z"/>
  <path class="fil0" d="M5481.29 7960.66c0,-25.07 20.32,-45.4 45.4,-45.4 25.07,0 45.4,20.33 45.4,45.4 0,25.08 -20.33,45.41 -45.4,45.41 -25.08,0 -45.4,-20.33 -45.4,-45.41z"/>
  <path class="fil0" d="M5481.29 9019.25c0,-25.07 20.32,-45.4 45.4,-45.4 25.07,0 45.4,20.33 45.4,45.4 0,25.08 -20.33,45.41 -45.4,45.41 -25.08,0 -45.4,-20.33 -45.4,-45.41z"/>
  <path class="fil0" d="M5481.29 18244.1c0,-25.07 20.32,-45.4 45.4,-45.4 25.07,0 45.4,20.33 45.4,45.4 0,25.08 -20.33,45.41 -45.4,45.41 -25.08,0 -45.4,-20.33 -45.4,-45.41z"/>
  <path class="fil0" d="M5330.05 7960.66c0,-25.07 20.33,-45.4 45.41,-45.4 25.08,0 45.41,20.33 45.41,45.4 0,25.08 -20.33,45.41 -45.41,45.41 -25.08,0 -45.41,-20.33 -45.41,-45.41z"/>
  <path class="fil0" d="M5330.05 9019.25c0,-25.07 20.33,-45.4 45.41,-45.4 25.08,0 45.41,20.33 45.41,45.4 0,25.08 -20.33,45.41 -45.41,45.41 -25.08,0 -45.41,-20.33 -45.41,-45.41z"/>
  <path class="fil0" d="M5330.05 18244.1c0,-25.07 20.33,-45.4 45.41,-45.4 25.08,0 45.41,20.33 45.41,45.4 0,25.08 -20.33,45.41 -45.41,45.41 -25.08,0 -45.41,-20.33 -45.41,-45.41z"/>
  <path class="fil0" d="M5178.83 7960.66c0,-25.07 20.34,-45.4 45.4,-45.4 25.07,0 45.41,20.33 45.41,45.4 0,25.08 -20.34,45.41 -45.41,45.41 -25.06,0 -45.4,-20.33 -45.4,-45.41z"/>
  <path class="fil0" d="M5178.83 9019.25c0,-25.07 20.34,-45.4 45.4,-45.4 25.07,0 45.41,20.33 45.41,45.4 0,25.08 -20.34,45.41 -45.41,45.41 -25.06,0 -45.4,-20.33 -45.4,-45.41z"/>
  <path class="fil0" d="M5178.83 18244.1c0,-25.07 20.34,-45.4 45.4,-45.4 25.07,0 45.41,20.33 45.41,45.4 0,25.08 -20.34,45.41 -45.41,45.41 -25.06,0 -45.4,-20.33 -45.4,-45.41z"/>
  <path class="fil0" d="M5027.6 7960.66c0,-25.07 20.33,-45.4 45.41,-45.4 25.08,0 45.41,20.33 45.41,45.4 0,25.08 -20.33,45.41 -45.41,45.41 -25.08,0 -45.41,-20.33 -45.41,-45.41z"/>
  <path class="fil0" d="M5027.6 9019.25c0,-25.07 20.33,-45.4 45.41,-45.4 25.08,0 45.41,20.33 45.41,45.4 0,25.08 -20.33,45.41 -45.41,45.41 -25.08,0 -45.41,-20.33 -45.41,-45.41z"/>
  <path class="fil0" d="M5027.6 18244.1c0,-25.07 20.33,-45.4 45.41,-45.4 25.08,0 45.41,20.33 45.41,45.4 0,25.08 -20.33,45.41 -45.41,45.41 -25.08,0 -45.41,-20.33 -45.41,-45.41z"/>
  <path class="fil0" d="M4876.37 7960.66c0,-25.07 20.34,-45.4 45.41,-45.4 25.08,0 45.4,20.33 45.4,45.4 0,25.08 -20.32,45.41 -45.4,45.41 -25.07,0 -45.41,-20.33 -45.41,-45.41z"/>
  <path class="fil0" d="M4876.37 9019.25c0,-25.07 20.34,-45.4 45.41,-45.4 25.08,0 45.4,20.33 45.4,45.4 0,25.08 -20.32,45.41 -45.4,45.41 -25.07,0 -45.41,-20.33 -45.41,-45.41z"/>
  <path class="fil0" d="M4876.37 18244.1c0,-25.07 20.34,-45.4 45.41,-45.4 25.08,0 45.4,20.33 45.4,45.4 0,25.08 -20.32,45.41 -45.4,45.41 -25.07,0 -45.41,-20.33 -45.41,-45.41z"/>
  <path class="fil0" d="M4725.15 7960.66c0,-25.07 20.33,-45.4 45.41,-45.4 25.06,0 45.39,20.33 45.39,45.4 0,25.08 -20.33,45.41 -45.39,45.41 -25.08,0 -45.41,-20.33 -45.41,-45.41z"/>
  <path class="fil0" d="M4725.15 9019.25c0,-25.07 20.33,-45.4 45.41,-45.4 25.06,0 45.39,20.33 45.39,45.4 0,25.08 -20.33,45.41 -45.39,45.41 -25.08,0 -45.41,-20.33 -45.41,-45.41z"/>
  <path class="fil0" d="M4725.15 18244.1c0,-25.07 20.33,-45.4 45.41,-45.4 25.06,0 45.39,20.33 45.39,45.4 0,25.08 -20.33,45.41 -45.39,45.41 -25.08,0 -45.41,-20.33 -45.41,-45.41z"/>
  <path class="fil0" d="M4573.92 7960.66c0,-25.07 20.33,-45.4 45.4,-45.4 25.08,0 45.42,20.33 45.42,45.4 0,25.08 -20.34,45.41 -45.42,45.41 -25.07,0 -45.4,-20.33 -45.4,-45.41z"/>
  <path class="fil0" d="M4573.92 9019.25c0,-25.07 20.33,-45.4 45.4,-45.4 25.08,0 45.42,20.33 45.42,45.4 0,25.08 -20.34,45.41 -45.42,45.41 -25.07,0 -45.4,-20.33 -45.4,-45.41z"/>
  <path class="fil0" d="M4573.92 18244.1c0,-25.07 20.33,-45.4 45.4,-45.4 25.08,0 45.42,20.33 45.42,45.4 0,25.08 -20.34,45.41 -45.42,45.41 -25.07,0 -45.4,-20.33 -45.4,-45.41z"/>
  <path class="fil0" d="M4422.7 7960.66c0,-25.07 20.33,-45.4 45.39,-45.4 25.08,0 45.41,20.33 45.41,45.4 0,25.08 -20.33,45.41 -45.41,45.41 -25.06,0 -45.39,-20.33 -45.39,-45.41z"/>
  <path class="fil0" d="M4422.7 9019.25c0,-25.07 20.33,-45.4 45.39,-45.4 25.08,0 45.41,20.33 45.41,45.4 0,25.08 -20.33,45.41 -45.41,45.41 -25.06,0 -45.39,-20.33 -45.39,-45.41z"/>
  <path class="fil0" d="M4422.7 18244.1c0,-25.07 20.33,-45.4 45.39,-45.4 25.08,0 45.41,20.33 45.41,45.4 0,25.08 -20.33,45.41 -45.41,45.41 -25.06,0 -45.39,-20.33 -45.39,-45.41z"/>
  <path class="fil0" d="M4271.46 7960.66c0,-25.07 20.33,-45.4 45.42,-45.4 25.06,0 45.4,20.33 45.4,45.4 0,25.08 -20.34,45.41 -45.4,45.41 -25.09,0 -45.42,-20.33 -45.42,-45.41z"/>
  <path class="fil0" d="M4271.46 9019.25c0,-25.07 20.33,-45.4 45.42,-45.4 25.06,0 45.4,20.33 45.4,45.4 0,25.08 -20.34,45.41 -45.4,45.41 -25.09,0 -45.42,-20.33 -45.42,-45.41z"/>
  <path class="fil0" d="M4271.46 18244.1c0,-25.07 20.33,-45.4 45.42,-45.4 25.06,0 45.4,20.33 45.4,45.4 0,25.08 -20.34,45.41 -45.4,45.41 -25.09,0 -45.42,-20.33 -45.42,-45.41z"/>
  <path class="fil0" d="M4120.23 7960.66c0,-25.07 20.35,-45.4 45.41,-45.4 25.08,0 45.41,20.33 45.41,45.4 0,25.08 -20.33,45.41 -45.41,45.41 -25.06,0 -45.41,-20.33 -45.41,-45.41z"/>
  <path class="fil0" d="M4120.23 9019.25c0,-25.07 20.35,-45.4 45.41,-45.4 25.08,0 45.41,20.33 45.41,45.4 0,25.08 -20.33,45.41 -45.41,45.41 -25.06,0 -45.41,-20.33 -45.41,-45.41z"/>
  <path class="fil0" d="M4120.23 18244.1c0,-25.07 20.35,-45.4 45.41,-45.4 25.08,0 45.41,20.33 45.41,45.4 0,25.08 -20.33,45.41 -45.41,45.41 -25.06,0 -45.41,-20.33 -45.41,-45.41z"/>
  <path class="fil0" d="M3969.02 7960.66c0,-25.07 20.32,-45.4 45.4,-45.4 25.07,0 45.4,20.33 45.4,45.4 0,25.08 -20.33,45.41 -45.4,45.41 -25.08,0 -45.4,-20.33 -45.4,-45.41z"/>
  <path class="fil0" d="M3969.02 9019.25c0,-25.07 20.32,-45.4 45.4,-45.4 25.07,0 45.4,20.33 45.4,45.4 0,25.08 -20.33,45.41 -45.4,45.41 -25.08,0 -45.4,-20.33 -45.4,-45.41z"/>
  <path class="fil0" d="M3969.02 18244.1c0,-25.07 20.32,-45.4 45.4,-45.4 25.07,0 45.4,20.33 45.4,45.4 0,25.08 -20.33,45.41 -45.4,45.41 -25.08,0 -45.4,-20.33 -45.4,-45.41z"/>
  <path class="fil0" d="M3817.78 7960.66c0,-25.07 20.33,-45.4 45.41,-45.4 25.08,0 45.41,20.33 45.41,45.4 0,25.08 -20.33,45.41 -45.41,45.41 -25.08,0 -45.41,-20.33 -45.41,-45.41z"/>
  <path class="fil0" d="M3817.78 9019.25c0,-25.07 20.33,-45.4 45.41,-45.4 25.08,0 45.41,20.33 45.41,45.4 0,25.08 -20.33,45.41 -45.41,45.41 -25.08,0 -45.41,-20.33 -45.41,-45.41z"/>
  <path class="fil0" d="M3817.78 18244.1c0,-25.07 20.33,-45.4 45.41,-45.4 25.08,0 45.41,20.33 45.41,45.4 0,25.08 -20.33,45.41 -45.41,45.41 -25.08,0 -45.41,-20.33 -45.41,-45.41z"/>
  <path class="fil0" d="M3666.56 7960.66c0,-25.07 20.33,-45.4 45.4,-45.4 25.08,0 45.4,20.33 45.4,45.4 0,25.08 -20.32,45.41 -45.4,45.41 -25.07,0 -45.4,-20.33 -45.4,-45.41z"/>
  <path class="fil0" d="M3666.56 9019.25c0,-25.07 20.33,-45.4 45.4,-45.4 25.08,0 45.4,20.33 45.4,45.4 0,25.08 -20.32,45.41 -45.4,45.41 -25.07,0 -45.4,-20.33 -45.4,-45.41z"/>
  <path class="fil0" d="M3666.56 18244.1c0,-25.07 20.33,-45.4 45.4,-45.4 25.08,0 45.4,20.33 45.4,45.4 0,25.08 -20.32,45.41 -45.4,45.41 -25.07,0 -45.4,-20.33 -45.4,-45.41z"/>
  <path class="fil0" d="M3515.33 7960.66c0,-25.07 20.33,-45.4 45.41,-45.4 25.06,0 45.41,20.33 45.41,45.4 0,25.08 -20.35,45.41 -45.41,45.41 -25.08,0 -45.41,-20.33 -45.41,-45.41z"/>
  <path class="fil0" d="M3515.33 9019.25c0,-25.07 20.33,-45.4 45.41,-45.4 25.06,0 45.41,20.33 45.41,45.4 0,25.08 -20.35,45.41 -45.41,45.41 -25.08,0 -45.41,-20.33 -45.41,-45.41z"/>
  <path class="fil0" d="M3515.33 18244.1c0,-25.07 20.33,-45.4 45.41,-45.4 25.06,0 45.41,20.33 45.41,45.4 0,25.08 -20.35,45.41 -45.41,45.41 -25.08,0 -45.41,-20.33 -45.41,-45.41z"/>
  <path class="fil0" d="M3364.1 7960.66c0,-25.07 20.34,-45.4 45.4,-45.4 25.09,0 45.41,20.33 45.41,45.4 0,25.08 -20.32,45.41 -45.41,45.41 -25.06,0 -45.4,-20.33 -45.4,-45.41z"/>
  <path class="fil0" d="M3364.1 9019.25c0,-25.07 20.34,-45.4 45.4,-45.4 25.09,0 45.41,20.33 45.41,45.4 0,25.08 -20.32,45.41 -45.41,45.41 -25.06,0 -45.4,-20.33 -45.4,-45.41z"/>
  <path class="fil0" d="M3364.1 18244.1c0,-25.07 20.34,-45.4 45.4,-45.4 25.09,0 45.41,20.33 45.41,45.4 0,25.08 -20.32,45.41 -45.41,45.41 -25.06,0 -45.4,-20.33 -45.4,-45.41z"/>
  <path class="fil0" d="M3212.88 7960.66c0,-25.07 20.33,-45.4 45.41,-45.4 25.06,0 45.39,20.33 45.39,45.4 0,25.08 -20.33,45.41 -45.39,45.41 -25.08,0 -45.41,-20.33 -45.41,-45.41z"/>
  <path class="fil0" d="M3212.88 9019.25c0,-25.07 20.33,-45.4 45.41,-45.4 25.06,0 45.39,20.33 45.39,45.4 0,25.08 -20.33,45.41 -45.39,45.41 -25.08,0 -45.41,-20.33 -45.41,-45.41z"/>
  <path class="fil0" d="M3212.88 18244.1c0,-25.07 20.33,-45.4 45.41,-45.4 25.06,0 45.39,20.33 45.39,45.4 0,25.08 -20.33,45.41 -45.39,45.41 -25.08,0 -45.41,-20.33 -45.41,-45.41z"/>
  <path class="fil0" d="M3061.64 7960.66c0,-25.07 20.34,-45.4 45.42,-45.4 25.07,0 45.41,20.33 45.41,45.4 0,25.08 -20.34,45.41 -45.41,45.41 -25.08,0 -45.42,-20.33 -45.42,-45.41z"/>
  <path class="fil0" d="M3061.64 9019.25c0,-25.07 20.34,-45.4 45.42,-45.4 25.07,0 45.41,20.33 45.41,45.4 0,25.08 -20.34,45.41 -45.41,45.41 -25.08,0 -45.42,-20.33 -45.42,-45.41z"/>
  <path class="fil0" d="M3061.64 18244.1c0,-25.07 20.34,-45.4 45.42,-45.4 25.07,0 45.41,20.33 45.41,45.4 0,25.08 -20.34,45.41 -45.41,45.41 -25.08,0 -45.42,-20.33 -45.42,-45.41z"/>
  <path class="fil0" d="M2910.43 7960.66c0,-25.07 20.33,-45.4 45.39,-45.4 25.08,0 45.41,20.33 45.41,45.4 0,25.08 -20.33,45.41 -45.41,45.41 -25.06,0 -45.39,-20.33 -45.39,-45.41z"/>
  <path class="fil0" d="M2910.43 9019.25c0,-25.07 20.33,-45.4 45.39,-45.4 25.08,0 45.41,20.33 45.41,45.4 0,25.08 -20.33,45.41 -45.41,45.41 -25.06,0 -45.39,-20.33 -45.39,-45.41z"/>
  <path class="fil0" d="M2910.43 18244.1c0,-25.07 20.33,-45.4 45.39,-45.4 25.08,0 45.41,20.33 45.41,45.4 0,25.08 -20.33,45.41 -45.41,45.41 -25.06,0 -45.39,-20.33 -45.39,-45.41z"/>
  <path class="fil0" d="M2759.2 7960.66c0,-25.07 20.32,-45.4 45.41,-45.4 25.06,0 45.4,20.33 45.4,45.4 0,25.08 -20.34,45.41 -45.4,45.41 -25.09,0 -45.41,-20.33 -45.41,-45.41z"/>
  <path class="fil0" d="M2759.2 9019.25c0,-25.07 20.32,-45.4 45.41,-45.4 25.06,0 45.4,20.33 45.4,45.4 0,25.08 -20.34,45.41 -45.4,45.41 -25.09,0 -45.41,-20.33 -45.41,-45.41z"/>
  <path class="fil0" d="M2759.2 18244.1c0,-25.07 20.32,-45.4 45.41,-45.4 25.06,0 45.4,20.33 45.4,45.4 0,25.08 -20.34,45.41 -45.4,45.41 -25.09,0 -45.41,-20.33 -45.41,-45.41z"/>
  <path class="fil0" d="M2607.96 7960.66c0,-25.07 20.35,-45.4 45.41,-45.4 25.08,0 45.41,20.33 45.41,45.4 0,25.08 -20.33,45.41 -45.41,45.41 -25.06,0 -45.41,-20.33 -45.41,-45.41z"/>
  <path class="fil0" d="M2607.96 9019.25c0,-25.07 20.35,-45.4 45.41,-45.4 25.08,0 45.41,20.33 45.41,45.4 0,25.08 -20.33,45.41 -45.41,45.41 -25.06,0 -45.41,-20.33 -45.41,-45.41z"/>
  <path class="fil0" d="M1700.61 18244.1c0,-25.07 20.33,-45.4 45.41,-45.4 25.06,0 45.39,20.33 45.39,45.4 0,25.08 -20.33,45.41 -45.39,45.41 -25.08,0 -45.41,-20.33 -45.41,-45.41z"/>
  <path class="fil0" d="M1851.83 18244.1c0,-25.07 20.34,-45.4 45.4,-45.4 25.09,0 45.42,20.33 45.42,45.4 0,25.08 -20.33,45.41 -45.42,45.41 -25.06,0 -45.4,-20.33 -45.4,-45.41z"/>
  <path class="fil0" d="M2003.06 18244.1c0,-25.07 20.33,-45.4 45.41,-45.4 25.06,0 45.41,20.33 45.41,45.4 0,25.08 -20.35,45.41 -45.41,45.41 -25.08,0 -45.41,-20.33 -45.41,-45.41z"/>
  <path class="fil0" d="M2154.29 18244.1c0,-25.07 20.33,-45.4 45.4,-45.4 25.08,0 45.4,20.33 45.4,45.4 0,25.08 -20.32,45.41 -45.4,45.41 -25.07,0 -45.4,-20.33 -45.4,-45.41z"/>
  <path class="fil0" d="M2305.51 18244.1c0,-25.07 20.33,-45.4 45.41,-45.4 25.08,0 45.41,20.33 45.41,45.4 0,25.08 -20.33,45.41 -45.41,45.41 -25.08,0 -45.41,-20.33 -45.41,-45.41z"/>
  <path class="fil0" d="M2456.75 18244.1c0,-25.07 20.32,-45.4 45.4,-45.4 25.06,0 45.4,20.33 45.4,45.4 0,25.08 -20.34,45.41 -45.4,45.41 -25.08,0 -45.4,-20.33 -45.4,-45.41z"/>
  <path class="fil0" d="M2607.96 18244.1c0,-25.07 20.35,-45.4 45.41,-45.4 25.08,0 45.41,20.33 45.41,45.4 0,25.08 -20.33,45.41 -45.41,45.41 -25.06,0 -45.41,-20.33 -45.41,-45.41z"/>
  <path class="fil0" d="M1549.37 7960.66c0,-25.07 20.34,-45.4 45.42,-45.4 25.06,0 45.4,20.33 45.4,45.4 0,25.08 -20.34,45.41 -45.4,45.41 -25.08,0 -45.42,-20.33 -45.42,-45.41z"/>
  <path class="fil0" d="M1700.61 7960.66c0,-25.07 20.33,-45.4 45.41,-45.4 25.06,0 45.39,20.33 45.39,45.4 0,25.08 -20.33,45.41 -45.39,45.41 -25.08,0 -45.41,-20.33 -45.41,-45.41z"/>
  <path class="fil0" d="M1851.83 7960.66c0,-25.07 20.34,-45.4 45.4,-45.4 25.09,0 45.42,20.33 45.42,45.4 0,25.08 -20.33,45.41 -45.42,45.41 -25.06,0 -45.4,-20.33 -45.4,-45.41z"/>
  <path class="fil0" d="M2003.06 7960.66c0,-25.07 20.33,-45.4 45.41,-45.4 25.06,0 45.41,20.33 45.41,45.4 0,25.08 -20.35,45.41 -45.41,45.41 -25.08,0 -45.41,-20.33 -45.41,-45.41z"/>
  <path class="fil0" d="M2154.29 7960.66c0,-25.07 20.33,-45.4 45.4,-45.4 25.08,0 45.4,20.33 45.4,45.4 0,25.08 -20.32,45.41 -45.4,45.41 -25.07,0 -45.4,-20.33 -45.4,-45.41z"/>
  <path class="fil0" d="M2305.51 7960.66c0,-25.07 20.33,-45.4 45.41,-45.4 25.08,0 45.41,20.33 45.41,45.4 0,25.08 -20.33,45.41 -45.41,45.41 -25.08,0 -45.41,-20.33 -45.41,-45.41z"/>
  <path class="fil0" d="M2456.75 7960.66c0,-25.07 20.32,-45.4 45.4,-45.4 25.06,0 45.4,20.33 45.4,45.4 0,25.08 -20.34,45.41 -45.4,45.41 -25.08,0 -45.4,-20.33 -45.4,-45.41z"/>
  <path class="fil0" d="M1549.37 9019.25c0,-25.07 20.34,-45.4 45.42,-45.4 25.06,0 45.4,20.33 45.4,45.4 0,25.08 -20.34,45.41 -45.4,45.41 -25.08,0 -45.42,-20.33 -45.42,-45.41z"/>
  <path class="fil0" d="M1700.61 9019.25c0,-25.07 20.33,-45.4 45.41,-45.4 25.06,0 45.39,20.33 45.39,45.4 0,25.08 -20.33,45.41 -45.39,45.41 -25.08,0 -45.41,-20.33 -45.41,-45.41z"/>
  <path class="fil0" d="M1851.83 9019.25c0,-25.07 20.34,-45.4 45.4,-45.4 25.09,0 45.42,20.33 45.42,45.4 0,25.08 -20.33,45.41 -45.42,45.41 -25.06,0 -45.4,-20.33 -45.4,-45.41z"/>
  <path class="fil0" d="M2003.06 9019.25c0,-25.07 20.33,-45.4 45.41,-45.4 25.06,0 45.41,20.33 45.41,45.4 0,25.08 -20.35,45.41 -45.41,45.41 -25.08,0 -45.41,-20.33 -45.41,-45.41z"/>
  <path class="fil0" d="M2154.29 9019.25c0,-25.07 20.33,-45.4 45.4,-45.4 25.08,0 45.4,20.33 45.4,45.4 0,25.08 -20.32,45.41 -45.4,45.41 -25.07,0 -45.4,-20.33 -45.4,-45.41z"/>
  <path class="fil0" d="M2305.51 9019.25c0,-25.07 20.33,-45.4 45.41,-45.4 25.08,0 45.41,20.33 45.41,45.4 0,25.08 -20.33,45.41 -45.41,45.41 -25.08,0 -45.41,-20.33 -45.41,-45.41z"/>
  <path class="fil0" d="M2456.75 9019.25c0,-25.07 20.32,-45.4 45.4,-45.4 25.06,0 45.4,20.33 45.4,45.4 0,25.08 -20.34,45.41 -45.4,45.41 -25.08,0 -45.4,-20.33 -45.4,-45.41z"/>
  <path class="fil0" d="M1549.37 18244.1c0,-25.07 20.34,-45.4 45.42,-45.4 25.06,0 45.4,20.33 45.4,45.4 0,25.08 -20.34,45.41 -45.4,45.41 -25.08,0 -45.42,-20.33 -45.42,-45.41z"/>
  <path class="fil0" d="M1398.16 7960.66c0,-25.07 20.33,-45.4 45.39,-45.4 25.08,0 45.41,20.33 45.41,45.4 0,25.08 -20.33,45.41 -45.41,45.41 -25.06,0 -45.39,-20.33 -45.39,-45.41z"/>
  <path class="fil0" d="M1398.16 9019.25c0,-25.07 20.33,-45.4 45.39,-45.4 25.08,0 45.41,20.33 45.41,45.4 0,25.08 -20.33,45.41 -45.41,45.41 -25.06,0 -45.39,-20.33 -45.39,-45.41z"/>
  <path class="fil0" d="M1398.16 18244.1c0,-25.07 20.33,-45.4 45.39,-45.4 25.08,0 45.41,20.33 45.41,45.4 0,25.08 -20.33,45.41 -45.41,45.41 -25.06,0 -45.39,-20.33 -45.39,-45.41z"/>
  <path class="fil0" d="M1246.93 7960.66c0,-25.07 20.32,-45.4 45.4,-45.4 25.07,0 45.41,20.33 45.41,45.4 0,25.08 -20.34,45.41 -45.41,45.41 -25.08,0 -45.4,-20.33 -45.4,-45.41z"/>
  <path class="fil0" d="M1246.93 9019.25c0,-25.07 20.32,-45.4 45.4,-45.4 25.07,0 45.41,20.33 45.41,45.4 0,25.08 -20.34,45.41 -45.41,45.41 -25.08,0 -45.4,-20.33 -45.4,-45.41z"/>
  <path class="fil0" d="M1246.93 18244.1c0,-25.07 20.32,-45.4 45.4,-45.4 25.07,0 45.41,20.33 45.41,45.4 0,25.08 -20.34,45.41 -45.41,45.41 -25.08,0 -45.4,-20.33 -45.4,-45.41z"/>
  <path class="fil0" d="M1095.69 7960.66c0,-25.07 20.33,-45.4 45.41,-45.4 25.08,0 45.41,20.33 45.41,45.4 0,25.08 -20.33,45.41 -45.41,45.41 -25.08,0 -45.41,-20.33 -45.41,-45.41z"/>
  <path class="fil0" d="M1095.69 9019.25c0,-25.07 20.33,-45.4 45.41,-45.4 25.08,0 45.41,20.33 45.41,45.4 0,25.08 -20.33,45.41 -45.41,45.41 -25.08,0 -45.41,-20.33 -45.41,-45.41z"/>
  <path class="fil0" d="M1095.69 18244.1c0,-25.07 20.33,-45.4 45.41,-45.4 25.08,0 45.41,20.33 45.41,45.4 0,25.08 -20.33,45.41 -45.41,45.41 -25.08,0 -45.41,-20.33 -45.41,-45.41z"/>
  <path class="fil0" d="M944.47 7960.66c0,-25.07 20.34,-45.4 45.41,-45.4 25.06,0 45.4,20.33 45.4,45.4 0,25.08 -20.34,45.41 -45.4,45.41 -25.07,0 -45.41,-20.33 -45.41,-45.41z"/>
  <path class="fil0" d="M944.47 9019.25c0,-25.07 20.34,-45.4 45.41,-45.4 25.06,0 45.4,20.33 45.4,45.4 0,25.08 -20.34,45.41 -45.4,45.41 -25.07,0 -45.41,-20.33 -45.41,-45.41z"/>
  <path class="fil0" d="M944.47 18244.1c0,-25.07 20.34,-45.4 45.41,-45.4 25.06,0 45.4,20.33 45.4,45.4 0,25.08 -20.34,45.41 -45.4,45.41 -25.07,0 -45.41,-20.33 -45.41,-45.41z"/>
  <path class="fil0" d="M793.24 7960.66c0,-25.07 20.33,-45.4 45.41,-45.4 25.08,0 45.41,20.33 45.41,45.4 0,25.08 -20.33,45.41 -45.41,45.41 -25.08,0 -45.41,-20.33 -45.41,-45.41z"/>
  <path class="fil0" d="M793.24 9019.25c0,-25.07 20.33,-45.4 45.41,-45.4 25.08,0 45.41,20.33 45.41,45.4 0,25.08 -20.33,45.41 -45.41,45.41 -25.08,0 -45.41,-20.33 -45.41,-45.41z"/>
  <path class="fil0" d="M793.24 18244.1c0,-25.07 20.33,-45.4 45.41,-45.4 25.08,0 45.41,20.33 45.41,45.4 0,25.08 -20.33,45.41 -45.41,45.41 -25.08,0 -45.41,-20.33 -45.41,-45.41z"/>
  <path class="fil0" d="M642.01 7960.66c0,-25.07 20.34,-45.4 45.41,-45.4 25.08,0 45.4,20.33 45.4,45.4 0,25.08 -20.32,45.41 -45.4,45.41 -25.07,0 -45.41,-20.33 -45.41,-45.41z"/>
  <path class="fil0" d="M642.01 9019.25c0,-25.07 20.34,-45.4 45.41,-45.4 25.08,0 45.4,20.33 45.4,45.4 0,25.08 -20.32,45.41 -45.4,45.41 -25.07,0 -45.41,-20.33 -45.41,-45.41z"/>
  <path class="fil0" d="M642.01 18244.1c0,-25.07 20.34,-45.4 45.41,-45.4 25.08,0 45.4,20.33 45.4,45.4 0,25.08 -20.32,45.41 -45.4,45.41 -25.07,0 -45.41,-20.33 -45.41,-45.41z"/>
  <path class="fil0" d="M490.79 7960.66c0,-25.07 20.33,-45.4 45.41,-45.4 25.06,0 45.39,20.33 45.39,45.4 0,25.08 -20.33,45.41 -45.39,45.41 -25.08,0 -45.41,-20.33 -45.41,-45.41z"/>
  <path class="fil0" d="M490.79 9019.25c0,-25.07 20.33,-45.4 45.41,-45.4 25.06,0 45.39,20.33 45.39,45.4 0,25.08 -20.33,45.41 -45.39,45.41 -25.08,0 -45.41,-20.33 -45.41,-45.41z"/>
  <path class="fil0" d="M490.79 18244.1c0,-25.07 20.33,-45.4 45.41,-45.4 25.06,0 45.39,20.33 45.39,45.4 0,25.08 -20.33,45.41 -45.39,45.41 -25.08,0 -45.41,-20.33 -45.41,-45.41z"/>
  <path class="fil0" d="M8959.5 7960.66c0,-25.07 20.33,-45.4 45.41,-45.4 25.06,0 45.39,20.33 45.39,45.4 0,25.08 -20.33,45.41 -45.39,45.41 -25.08,0 -45.41,-20.33 -45.41,-45.41z"/>
  <path class="fil0" d="M8959.5 9019.25c0,-25.07 20.33,-45.4 45.41,-45.4 25.06,0 45.39,20.33 45.39,45.4 0,25.08 -20.33,45.41 -45.39,45.41 -25.08,0 -45.41,-20.33 -45.41,-45.41z"/>
  <path class="fil0" d="M8959.5 18244.1c0,-25.07 20.33,-45.4 45.41,-45.4 25.06,0 45.39,20.33 45.39,45.4 0,25.08 -20.33,45.41 -45.39,45.41 -25.08,0 -45.41,-20.33 -45.41,-45.41z"/>
  <path class="fil0" d="M9110.72 7960.66c0,-25.07 20.34,-45.4 45.4,-45.4 25.09,0 45.41,20.33 45.41,45.4 0,25.08 -20.32,45.41 -45.41,45.41 -25.06,0 -45.4,-20.33 -45.4,-45.41z"/>
  <path class="fil0" d="M9110.72 9019.25c0,-25.07 20.34,-45.4 45.4,-45.4 25.09,0 45.41,20.33 45.41,45.4 0,25.08 -20.32,45.41 -45.41,45.41 -25.06,0 -45.4,-20.33 -45.4,-45.41z"/>
  <path class="fil0" d="M9110.72 18244.1c0,-25.07 20.34,-45.4 45.4,-45.4 25.09,0 45.41,20.33 45.41,45.4 0,25.08 -20.32,45.41 -45.41,45.41 -25.06,0 -45.4,-20.33 -45.4,-45.41z"/>
  <path class="fil0" d="M9261.95 7960.66c0,-25.07 20.33,-45.4 45.41,-45.4 25.08,0 45.41,20.33 45.41,45.4 0,25.08 -20.33,45.41 -45.41,45.41 -25.08,0 -45.41,-20.33 -45.41,-45.41z"/>
  <path class="fil0" d="M9261.95 9019.25c0,-25.07 20.33,-45.4 45.41,-45.4 25.08,0 45.41,20.33 45.41,45.4 0,25.08 -20.33,45.41 -45.41,45.41 -25.08,0 -45.41,-20.33 -45.41,-45.41z"/>
  <path class="fil0" d="M9261.95 18244.1c0,-25.07 20.33,-45.4 45.41,-45.4 25.08,0 45.41,20.33 45.41,45.4 0,25.08 -20.33,45.41 -45.41,45.41 -25.08,0 -45.41,-20.33 -45.41,-45.41z"/>
  <path class="fil0" d="M9413.18 7960.66c0,-25.07 20.34,-45.4 45.4,-45.4 25.07,0 45.4,20.33 45.4,45.4 0,25.08 -20.33,45.41 -45.4,45.41 -25.06,0 -45.4,-20.33 -45.4,-45.41z"/>
  <path class="fil0" d="M9413.18 9019.25c0,-25.07 20.34,-45.4 45.4,-45.4 25.07,0 45.4,20.33 45.4,45.4 0,25.08 -20.33,45.41 -45.4,45.41 -25.06,0 -45.4,-20.33 -45.4,-45.41z"/>
  <path class="fil0" d="M9413.18 18244.1c0,-25.07 20.34,-45.4 45.4,-45.4 25.07,0 45.4,20.33 45.4,45.4 0,25.08 -20.33,45.41 -45.4,45.41 -25.06,0 -45.4,-20.33 -45.4,-45.41z"/>
  <path class="fil0" d="M9564.4 7960.66c0,-25.07 20.33,-45.4 45.41,-45.4 25.08,0 45.41,20.33 45.41,45.4 0,25.08 -20.33,45.41 -45.41,45.41 -25.08,0 -45.41,-20.33 -45.41,-45.41z"/>
  <path class="fil0" d="M9564.4 9019.25c0,-25.07 20.33,-45.4 45.41,-45.4 25.08,0 45.41,20.33 45.41,45.4 0,25.08 -20.33,45.41 -45.41,45.41 -25.08,0 -45.41,-20.33 -45.41,-45.41z"/>
  <path class="fil0" d="M9564.4 18244.1c0,-25.07 20.33,-45.4 45.41,-45.4 25.08,0 45.41,20.33 45.41,45.4 0,25.08 -20.33,45.41 -45.41,45.41 -25.08,0 -45.41,-20.33 -45.41,-45.41z"/>
  <path class="fil0" d="M9715.64 7960.66c0,-25.07 20.32,-45.4 45.4,-45.4 25.07,0 45.4,20.33 45.4,45.4 0,25.08 -20.33,45.41 -45.4,45.41 -25.08,0 -45.4,-20.33 -45.4,-45.41z"/>
  <path class="fil0" d="M9715.64 9019.25c0,-25.07 20.32,-45.4 45.4,-45.4 25.07,0 45.4,20.33 45.4,45.4 0,25.08 -20.33,45.41 -45.4,45.41 -25.08,0 -45.4,-20.33 -45.4,-45.41z"/>
  <path class="fil0" d="M9715.64 18244.1c0,-25.07 20.32,-45.4 45.4,-45.4 25.07,0 45.4,20.33 45.4,45.4 0,25.08 -20.33,45.41 -45.4,45.41 -25.08,0 -45.4,-20.33 -45.4,-45.41z"/>
  <path class="fil0" d="M9866.85 7960.66c0,-25.07 20.35,-45.4 45.41,-45.4 25.08,0 45.41,20.33 45.41,45.4 0,25.08 -20.33,45.41 -45.41,45.41 -25.06,0 -45.41,-20.33 -45.41,-45.41z"/>
  <path class="fil0" d="M9866.85 9019.25c0,-25.07 20.35,-45.4 45.41,-45.4 25.08,0 45.41,20.33 45.41,45.4 0,25.08 -20.33,45.41 -45.41,45.41 -25.06,0 -45.41,-20.33 -45.41,-45.41z"/>
  <path class="fil0" d="M9866.85 18244.1c0,-25.07 20.35,-45.4 45.41,-45.4 25.08,0 45.41,20.33 45.41,45.4 0,25.08 -20.33,45.41 -45.41,45.41 -25.06,0 -45.41,-20.33 -45.41,-45.41z"/>
  <path class="fil0" d="M10018.08 7960.66c0,-25.07 20.33,-45.4 45.42,-45.4 25.06,0 45.4,20.33 45.4,45.4 0,25.08 -20.34,45.41 -45.4,45.41 -25.09,0 -45.42,-20.33 -45.42,-45.41z"/>
  <path class="fil0" d="M10018.08 9019.25c0,-25.07 20.33,-45.4 45.42,-45.4 25.06,0 45.4,20.33 45.4,45.4 0,25.08 -20.34,45.41 -45.4,45.41 -25.09,0 -45.42,-20.33 -45.42,-45.41z"/>
  <path class="fil0" d="M10018.08 18244.1c0,-25.07 20.33,-45.4 45.42,-45.4 25.06,0 45.4,20.33 45.4,45.4 0,25.08 -20.34,45.41 -45.4,45.41 -25.09,0 -45.42,-20.33 -45.42,-45.41z"/>
  <path class="fil0" d="M10169.32 7960.66c0,-25.07 20.33,-45.4 45.39,-45.4 25.08,0 45.41,20.33 45.41,45.4 0,25.08 -20.33,45.41 -45.41,45.41 -25.06,0 -45.39,-20.33 -45.39,-45.41z"/>
  <path class="fil0" d="M10169.32 9019.25c0,-25.07 20.33,-45.4 45.39,-45.4 25.08,0 45.41,20.33 45.41,45.4 0,25.08 -20.33,45.41 -45.41,45.41 -25.06,0 -45.39,-20.33 -45.39,-45.41z"/>
  <path class="fil0" d="M10169.32 18244.1c0,-25.07 20.33,-45.4 45.39,-45.4 25.08,0 45.41,20.33 45.41,45.4 0,25.08 -20.33,45.41 -45.41,45.41 -25.06,0 -45.39,-20.33 -45.39,-45.41z"/>
  <path class="fil0" d="M10320.54 7960.66c0,-25.07 20.34,-45.4 45.4,-45.4 25.08,0 45.42,20.33 45.42,45.4 0,25.08 -20.34,45.41 -45.42,45.41 -25.06,0 -45.4,-20.33 -45.4,-45.41z"/>
  <path class="fil0" d="M10320.54 9019.25c0,-25.07 20.34,-45.4 45.4,-45.4 25.08,0 45.42,20.33 45.42,45.4 0,25.08 -20.34,45.41 -45.42,45.41 -25.06,0 -45.4,-20.33 -45.4,-45.41z"/>
  <path class="fil0" d="M10320.54 18244.1c0,-25.07 20.34,-45.4 45.4,-45.4 25.08,0 45.42,20.33 45.42,45.4 0,25.08 -20.34,45.41 -45.42,45.41 -25.06,0 -45.4,-20.33 -45.4,-45.41z"/>
  <path class="fil0" d="M10471.77 7960.66c0,-25.07 20.33,-45.4 45.41,-45.4 25.06,0 45.39,20.33 45.39,45.4 0,25.08 -20.33,45.41 -45.39,45.41 -25.08,0 -45.41,-20.33 -45.41,-45.41z"/>
  <path class="fil0" d="M10471.77 9019.25c0,-25.07 20.33,-45.4 45.41,-45.4 25.06,0 45.39,20.33 45.39,45.4 0,25.08 -20.33,45.41 -45.39,45.41 -25.08,0 -45.41,-20.33 -45.41,-45.41z"/>
  <path class="fil0" d="M10471.77 18244.1c0,-25.07 20.33,-45.4 45.41,-45.4 25.06,0 45.39,20.33 45.39,45.4 0,25.08 -20.33,45.41 -45.39,45.41 -25.08,0 -45.41,-20.33 -45.41,-45.41z"/>
  <path class="fil0" d="M10622.99 7960.66c0,-25.07 20.34,-45.4 45.41,-45.4 25.08,0 45.4,20.33 45.4,45.4 0,25.08 -20.32,45.41 -45.4,45.41 -25.07,0 -45.41,-20.33 -45.41,-45.41z"/>
  <path class="fil0" d="M10622.99 9019.25c0,-25.07 20.34,-45.4 45.41,-45.4 25.08,0 45.4,20.33 45.4,45.4 0,25.08 -20.32,45.41 -45.4,45.41 -25.07,0 -45.41,-20.33 -45.41,-45.41z"/>
  <path class="fil0" d="M10622.99 18244.1c0,-25.07 20.34,-45.4 45.41,-45.4 25.08,0 45.4,20.33 45.4,45.4 0,25.08 -20.32,45.41 -45.4,45.41 -25.07,0 -45.41,-20.33 -45.41,-45.41z"/>
  <path class="fil0" d="M10774.22 7960.66c0,-25.07 20.33,-45.4 45.41,-45.4 25.08,0 45.41,20.33 45.41,45.4 0,25.08 -20.33,45.41 -45.41,45.41 -25.08,0 -45.41,-20.33 -45.41,-45.41z"/>
  <path class="fil0" d="M10774.22 9019.25c0,-25.07 20.33,-45.4 45.41,-45.4 25.08,0 45.41,20.33 45.41,45.4 0,25.08 -20.33,45.41 -45.41,45.41 -25.08,0 -45.41,-20.33 -45.41,-45.41z"/>
  <path class="fil0" d="M10774.22 18244.1c0,-25.07 20.33,-45.4 45.41,-45.4 25.08,0 45.41,20.33 45.41,45.4 0,25.08 -20.33,45.41 -45.41,45.41 -25.08,0 -45.41,-20.33 -45.41,-45.41z"/>
  <path class="fil0" d="M10925.45 7960.66c0,-25.07 20.34,-45.4 45.41,-45.4 25.06,0 45.4,20.33 45.4,45.4 0,25.08 -20.34,45.41 -45.4,45.41 -25.07,0 -45.41,-20.33 -45.41,-45.41z"/>
  <path class="fil0" d="M10925.45 9019.25c0,-25.07 20.34,-45.4 45.41,-45.4 25.06,0 45.4,20.33 45.4,45.4 0,25.08 -20.34,45.41 -45.4,45.41 -25.07,0 -45.41,-20.33 -45.41,-45.41z"/>
  <path class="fil0" d="M10925.45 18244.1c0,-25.07 20.34,-45.4 45.41,-45.4 25.06,0 45.4,20.33 45.4,45.4 0,25.08 -20.34,45.41 -45.4,45.41 -25.07,0 -45.41,-20.33 -45.41,-45.41z"/>
  <path class="fil0" d="M11076.67 7960.66c0,-25.07 20.33,-45.4 45.41,-45.4 25.08,0 45.41,20.33 45.41,45.4 0,25.08 -20.33,45.41 -45.41,45.41 -25.08,0 -45.41,-20.33 -45.41,-45.41z"/>
  <path class="fil0" d="M11076.67 9019.25c0,-25.07 20.33,-45.4 45.41,-45.4 25.08,0 45.41,20.33 45.41,45.4 0,25.08 -20.33,45.41 -45.41,45.41 -25.08,0 -45.41,-20.33 -45.41,-45.41z"/>
  <path class="fil0" d="M11076.67 18244.1c0,-25.07 20.33,-45.4 45.41,-45.4 25.08,0 45.41,20.33 45.41,45.4 0,25.08 -20.33,45.41 -45.41,45.41 -25.08,0 -45.41,-20.33 -45.41,-45.41z"/>
  <path class="fil0" d="M11227.91 7960.66c0,-25.07 20.32,-45.4 45.4,-45.4 25.07,0 45.41,20.33 45.41,45.4 0,25.08 -20.34,45.41 -45.41,45.41 -25.08,0 -45.4,-20.33 -45.4,-45.41z"/>
  <path class="fil0" d="M11227.91 9019.25c0,-25.07 20.32,-45.4 45.4,-45.4 25.07,0 45.41,20.33 45.41,45.4 0,25.08 -20.34,45.41 -45.41,45.41 -25.08,0 -45.4,-20.33 -45.4,-45.41z"/>
  <path class="fil0" d="M11227.91 18244.1c0,-25.07 20.32,-45.4 45.4,-45.4 25.07,0 45.41,20.33 45.41,45.4 0,25.08 -20.34,45.41 -45.41,45.41 -25.08,0 -45.4,-20.33 -45.4,-45.41z"/>
  <path class="fil0" d="M11379.14 7960.66c0,-25.07 20.33,-45.4 45.39,-45.4 25.08,0 45.41,20.33 45.41,45.4 0,25.08 -20.33,45.41 -45.41,45.41 -25.06,0 -45.39,-20.33 -45.39,-45.41z"/>
  <path class="fil0" d="M11379.14 9019.25c0,-25.07 20.33,-45.4 45.39,-45.4 25.08,0 45.41,20.33 45.41,45.4 0,25.08 -20.33,45.41 -45.41,45.41 -25.06,0 -45.39,-20.33 -45.39,-45.41z"/>
  <path class="fil0" d="M11379.14 18244.1c0,-25.07 20.33,-45.4 45.39,-45.4 25.08,0 45.41,20.33 45.41,45.4 0,25.08 -20.33,45.41 -45.41,45.41 -25.06,0 -45.39,-20.33 -45.39,-45.41z"/>
  <path class="fil0" d="M11530.35 7960.66c0,-25.07 20.33,-45.4 45.42,-45.4 25.06,0 45.4,20.33 45.4,45.4 0,25.08 -20.34,45.41 -45.4,45.41 -25.09,0 -45.42,-20.33 -45.42,-45.41z"/>
  <path class="fil0" d="M11530.35 9019.25c0,-25.07 20.33,-45.4 45.42,-45.4 25.06,0 45.4,20.33 45.4,45.4 0,25.08 -20.34,45.41 -45.4,45.41 -25.09,0 -45.42,-20.33 -45.42,-45.41z"/>
  <path class="fil0" d="M11530.35 18244.1c0,-25.07 20.33,-45.4 45.42,-45.4 25.06,0 45.4,20.33 45.4,45.4 0,25.08 -20.34,45.41 -45.4,45.41 -25.09,0 -45.42,-20.33 -45.42,-45.41z"/>
  <path class="fil0" d="M11681.59 7960.66c0,-25.07 20.33,-45.4 45.41,-45.4 25.06,0 45.39,20.33 45.39,45.4 0,25.08 -20.33,45.41 -45.39,45.41 -25.08,0 -45.41,-20.33 -45.41,-45.41z"/>
  <path class="fil0" d="M11681.59 9019.25c0,-25.07 20.33,-45.4 45.41,-45.4 25.06,0 45.39,20.33 45.39,45.4 0,25.08 -20.33,45.41 -45.39,45.41 -25.08,0 -45.41,-20.33 -45.41,-45.41z"/>
  <path class="fil0" d="M11681.59 18244.1c0,-25.07 20.33,-45.4 45.41,-45.4 25.06,0 45.39,20.33 45.39,45.4 0,25.08 -20.33,45.41 -45.39,45.41 -25.08,0 -45.41,-20.33 -45.41,-45.41z"/>
  <path class="fil0" d="M11832.81 7960.66c0,-25.07 20.34,-45.4 45.4,-45.4 25.09,0 45.42,20.33 45.42,45.4 0,25.08 -20.33,45.41 -45.42,45.41 -25.06,0 -45.4,-20.33 -45.4,-45.41z"/>
  <path class="fil0" d="M11832.81 9019.25c0,-25.07 20.34,-45.4 45.4,-45.4 25.09,0 45.42,20.33 45.42,45.4 0,25.08 -20.33,45.41 -45.42,45.41 -25.06,0 -45.4,-20.33 -45.4,-45.41z"/>
  <path class="fil0" d="M11832.81 18244.1c0,-25.07 20.34,-45.4 45.4,-45.4 25.09,0 45.42,20.33 45.42,45.4 0,25.08 -20.33,45.41 -45.42,45.41 -25.06,0 -45.4,-20.33 -45.4,-45.41z"/>
  <path class="fil0" d="M11984.04 7960.66c0,-25.07 20.33,-45.4 45.41,-45.4 25.06,0 45.41,20.33 45.41,45.4 0,25.08 -20.35,45.41 -45.41,45.41 -25.08,0 -45.41,-20.33 -45.41,-45.41z"/>
  <path class="fil0" d="M11984.04 9019.25c0,-25.07 20.33,-45.4 45.41,-45.4 25.06,0 45.41,20.33 45.41,45.4 0,25.08 -20.35,45.41 -45.41,45.41 -25.08,0 -45.41,-20.33 -45.41,-45.41z"/>
  <path class="fil0" d="M11984.04 18244.1c0,-25.07 20.33,-45.4 45.41,-45.4 25.06,0 45.41,20.33 45.41,45.4 0,25.08 -20.35,45.41 -45.41,45.41 -25.08,0 -45.41,-20.33 -45.41,-45.41z"/>
  <path class="fil0" d="M12135.27 7960.66c0,-25.07 20.33,-45.4 45.4,-45.4 25.08,0 45.4,20.33 45.4,45.4 0,25.08 -20.32,45.41 -45.4,45.41 -25.07,0 -45.4,-20.33 -45.4,-45.41z"/>
  <path class="fil0" d="M12135.27 9019.25c0,-25.07 20.33,-45.4 45.4,-45.4 25.08,0 45.4,20.33 45.4,45.4 0,25.08 -20.32,45.41 -45.4,45.41 -25.07,0 -45.4,-20.33 -45.4,-45.41z"/>
  <path class="fil0" d="M12135.27 18244.1c0,-25.07 20.33,-45.4 45.4,-45.4 25.08,0 45.4,20.33 45.4,45.4 0,25.08 -20.32,45.41 -45.4,45.41 -25.07,0 -45.4,-20.33 -45.4,-45.41z"/>
  <path class="fil0" d="M12286.49 7960.66c0,-25.07 20.33,-45.4 45.41,-45.4 25.08,0 45.41,20.33 45.41,45.4 0,25.08 -20.33,45.41 -45.41,45.41 -25.08,0 -45.41,-20.33 -45.41,-45.41z"/>
  <path class="fil0" d="M12286.49 9019.25c0,-25.07 20.33,-45.4 45.41,-45.4 25.08,0 45.41,20.33 45.41,45.4 0,25.08 -20.33,45.41 -45.41,45.41 -25.08,0 -45.41,-20.33 -45.41,-45.41z"/>
  <path class="fil0" d="M12286.49 18244.1c0,-25.07 20.33,-45.4 45.41,-45.4 25.08,0 45.41,20.33 45.41,45.4 0,25.08 -20.33,45.41 -45.41,45.41 -25.08,0 -45.41,-20.33 -45.41,-45.41z"/>
  <path class="fil0" d="M12437.73 7960.66c0,-25.07 20.33,-45.4 45.4,-45.4 25.06,0 45.4,20.33 45.4,45.4 0,25.08 -20.34,45.41 -45.4,45.41 -25.07,0 -45.4,-20.33 -45.4,-45.41z"/>
  <path class="fil0" d="M12437.73 9019.25c0,-25.07 20.33,-45.4 45.4,-45.4 25.06,0 45.4,20.33 45.4,45.4 0,25.08 -20.34,45.41 -45.4,45.41 -25.07,0 -45.4,-20.33 -45.4,-45.41z"/>
  <path class="fil0" d="M12437.73 18244.1c0,-25.07 20.33,-45.4 45.4,-45.4 25.06,0 45.4,20.33 45.4,45.4 0,25.08 -20.34,45.41 -45.4,45.41 -25.07,0 -45.4,-20.33 -45.4,-45.41z"/>
  <path class="fil0" d="M12588.94 7960.66c0,-25.07 20.33,-45.4 45.41,-45.4 25.08,0 45.41,20.33 45.41,45.4 0,25.08 -20.33,45.41 -45.41,45.41 -25.08,0 -45.41,-20.33 -45.41,-45.41z"/>
  <path class="fil0" d="M12588.94 9019.25c0,-25.07 20.33,-45.4 45.41,-45.4 25.08,0 45.41,20.33 45.41,45.4 0,25.08 -20.33,45.41 -45.41,45.41 -25.08,0 -45.41,-20.33 -45.41,-45.41z"/>
  <path class="fil0" d="M12588.94 18244.1c0,-25.07 20.33,-45.4 45.41,-45.4 25.08,0 45.41,20.33 45.41,45.4 0,25.08 -20.33,45.41 -45.41,45.41 -25.08,0 -45.41,-20.33 -45.41,-45.41z"/>
  <path class="fil0" d="M12740.18 7960.66c0,-25.07 20.32,-45.4 45.41,-45.4 25.06,0 45.4,20.33 45.4,45.4 0,25.08 -20.34,45.41 -45.4,45.41 -25.09,0 -45.41,-20.33 -45.41,-45.41z"/>
  <path class="fil0" d="M12740.18 9019.25c0,-25.07 20.32,-45.4 45.41,-45.4 25.06,0 45.4,20.33 45.4,45.4 0,25.08 -20.34,45.41 -45.4,45.41 -25.09,0 -45.41,-20.33 -45.41,-45.41z"/>
  <path class="fil0" d="M12740.18 18244.1c0,-25.07 20.32,-45.4 45.41,-45.4 25.06,0 45.4,20.33 45.4,45.4 0,25.08 -20.34,45.41 -45.4,45.41 -25.09,0 -45.41,-20.33 -45.41,-45.41z"/>
  <path class="fil0" d="M12891.41 7960.66c0,-25.07 20.33,-45.4 45.39,-45.4 25.08,0 45.41,20.33 45.41,45.4 0,25.08 -20.33,45.41 -45.41,45.41 -25.06,0 -45.39,-20.33 -45.39,-45.41z"/>
  <path class="fil0" d="M12891.41 9019.25c0,-25.07 20.33,-45.4 45.39,-45.4 25.08,0 45.41,20.33 45.41,45.4 0,25.08 -20.33,45.41 -45.41,45.41 -25.06,0 -45.39,-20.33 -45.39,-45.41z"/>
  <path class="fil0" d="M12891.41 18244.1c0,-25.07 20.33,-45.4 45.39,-45.4 25.08,0 45.41,20.33 45.41,45.4 0,25.08 -20.33,45.41 -45.41,45.41 -25.06,0 -45.39,-20.33 -45.39,-45.41z"/>
  <path class="fil0" d="M13042.62 7960.66c0,-25.07 20.34,-45.4 45.42,-45.4 25.07,0 45.41,20.33 45.41,45.4 0,25.08 -20.34,45.41 -45.41,45.41 -25.08,0 -45.42,-20.33 -45.42,-45.41z"/>
  <path class="fil0" d="M13042.62 9019.25c0,-25.07 20.34,-45.4 45.42,-45.4 25.07,0 45.41,20.33 45.41,45.4 0,25.08 -20.34,45.41 -45.41,45.41 -25.08,0 -45.42,-20.33 -45.42,-45.41z"/>
  <path class="fil0" d="M13042.62 18244.1c0,-25.07 20.34,-45.4 45.42,-45.4 25.07,0 45.41,20.33 45.41,45.4 0,25.08 -20.34,45.41 -45.41,45.41 -25.08,0 -45.42,-20.33 -45.42,-45.41z"/>
  <path class="fil0" d="M13193.86 7960.66c0,-25.07 20.33,-45.4 45.41,-45.4 25.06,0 45.39,20.33 45.39,45.4 0,25.08 -20.33,45.41 -45.39,45.41 -25.08,0 -45.41,-20.33 -45.41,-45.41z"/>
  <path class="fil0" d="M13193.86 9019.25c0,-25.07 20.33,-45.4 45.41,-45.4 25.06,0 45.39,20.33 45.39,45.4 0,25.08 -20.33,45.41 -45.39,45.41 -25.08,0 -45.41,-20.33 -45.41,-45.41z"/>
  <path class="fil0" d="M13193.86 18244.1c0,-25.07 20.33,-45.4 45.41,-45.4 25.06,0 45.39,20.33 45.39,45.4 0,25.08 -20.33,45.41 -45.39,45.41 -25.08,0 -45.41,-20.33 -45.41,-45.41z"/>
  <path class="fil0" d="M13345.08 7960.66c0,-25.07 20.34,-45.4 45.4,-45.4 25.09,0 45.41,20.33 45.41,45.4 0,25.08 -20.32,45.41 -45.41,45.41 -25.06,0 -45.4,-20.33 -45.4,-45.41z"/>
  <path class="fil0" d="M13345.08 9019.25c0,-25.07 20.34,-45.4 45.4,-45.4 25.09,0 45.41,20.33 45.41,45.4 0,25.08 -20.32,45.41 -45.41,45.41 -25.06,0 -45.4,-20.33 -45.4,-45.41z"/>
  <path class="fil0" d="M13345.08 18244.1c0,-25.07 20.34,-45.4 45.4,-45.4 25.09,0 45.41,20.33 45.41,45.4 0,25.08 -20.32,45.41 -45.41,45.41 -25.06,0 -45.4,-20.33 -45.4,-45.41z"/>
  <path class="fil0" d="M13496.31 7960.66c0,-25.07 20.33,-45.4 45.41,-45.4 25.06,0 45.41,20.33 45.41,45.4 0,25.08 -20.35,45.41 -45.41,45.41 -25.08,0 -45.41,-20.33 -45.41,-45.41z"/>
  <path class="fil0" d="M13496.31 9019.25c0,-25.07 20.33,-45.4 45.41,-45.4 25.06,0 45.41,20.33 45.41,45.4 0,25.08 -20.35,45.41 -45.41,45.41 -25.08,0 -45.41,-20.33 -45.41,-45.41z"/>
  <path class="fil0" d="M13496.31 18244.1c0,-25.07 20.33,-45.4 45.41,-45.4 25.06,0 45.41,20.33 45.41,45.4 0,25.08 -20.35,45.41 -45.41,45.41 -25.08,0 -45.41,-20.33 -45.41,-45.41z"/>
  <path class="fil0" d="M13647.54 7960.66c0,-25.07 20.33,-45.4 45.4,-45.4 25.08,0 45.4,20.33 45.4,45.4 0,25.08 -20.32,45.41 -45.4,45.41 -25.07,0 -45.4,-20.33 -45.4,-45.41z"/>
  <path class="fil0" d="M13647.54 9019.25c0,-25.07 20.33,-45.4 45.4,-45.4 25.08,0 45.4,20.33 45.4,45.4 0,25.08 -20.32,45.41 -45.4,45.41 -25.07,0 -45.4,-20.33 -45.4,-45.41z"/>
  <path class="fil0" d="M13647.54 18244.1c0,-25.07 20.33,-45.4 45.4,-45.4 25.08,0 45.4,20.33 45.4,45.4 0,25.08 -20.32,45.41 -45.4,45.41 -25.07,0 -45.4,-20.33 -45.4,-45.41z"/>
  <path class="fil0" d="M13798.76 7960.66c0,-25.07 20.33,-45.4 45.41,-45.4 25.08,0 45.41,20.33 45.41,45.4 0,25.08 -20.33,45.41 -45.41,45.41 -25.08,0 -45.41,-20.33 -45.41,-45.41z"/>
  <path class="fil0" d="M13798.76 9019.25c0,-25.07 20.33,-45.4 45.41,-45.4 25.08,0 45.41,20.33 45.41,45.4 0,25.08 -20.33,45.41 -45.41,45.41 -25.08,0 -45.41,-20.33 -45.41,-45.41z"/>
  <path class="fil0" d="M13798.76 18244.1c0,-25.07 20.33,-45.4 45.41,-45.4 25.08,0 45.41,20.33 45.41,45.4 0,25.08 -20.33,45.41 -45.41,45.41 -25.08,0 -45.41,-20.33 -45.41,-45.41z"/>
  <path class="fil0" d="M13950 7960.66c0,-25.07 20.32,-45.4 45.4,-45.4 25.07,0 45.4,20.33 45.4,45.4 0,25.08 -20.33,45.41 -45.4,45.41 -25.08,0 -45.4,-20.33 -45.4,-45.41z"/>
  <path class="fil0" d="M13950 9019.25c0,-25.07 20.32,-45.4 45.4,-45.4 25.07,0 45.4,20.33 45.4,45.4 0,25.08 -20.33,45.41 -45.4,45.41 -25.08,0 -45.4,-20.33 -45.4,-45.41z"/>
  <path class="fil0" d="M13950 18244.1c0,-25.07 20.32,-45.4 45.4,-45.4 25.07,0 45.4,20.33 45.4,45.4 0,25.08 -20.33,45.41 -45.4,45.41 -25.08,0 -45.4,-20.33 -45.4,-45.41z"/>
  <path class="fil0" d="M14101.21 7960.66c0,-25.07 20.35,-45.4 45.41,-45.4 25.08,0 45.41,20.33 45.41,45.4 0,25.08 -20.33,45.41 -45.41,45.41 -25.06,0 -45.41,-20.33 -45.41,-45.41z"/>
  <path class="fil0" d="M14101.21 9019.25c0,-25.07 20.35,-45.4 45.41,-45.4 25.08,0 45.41,20.33 45.41,45.4 0,25.08 -20.33,45.41 -45.41,45.41 -25.06,0 -45.41,-20.33 -45.41,-45.41z"/>
  <path class="fil0" d="M14101.21 18244.1c0,-25.07 20.35,-45.4 45.41,-45.4 25.08,0 45.41,20.33 45.41,45.4 0,25.08 -20.33,45.41 -45.41,45.41 -25.06,0 -45.41,-20.33 -45.41,-45.41z"/>
  <path class="fil0" d="M14252.44 7960.66c0,-25.07 20.33,-45.4 45.42,-45.4 25.06,0 45.4,20.33 45.4,45.4 0,25.08 -20.34,45.41 -45.4,45.41 -25.09,0 -45.42,-20.33 -45.42,-45.41z"/>
  <path class="fil0" d="M14252.44 9019.25c0,-25.07 20.33,-45.4 45.42,-45.4 25.06,0 45.4,20.33 45.4,45.4 0,25.08 -20.34,45.41 -45.4,45.41 -25.09,0 -45.42,-20.33 -45.42,-45.41z"/>
  <path class="fil0" d="M14252.44 18244.1c0,-25.07 20.33,-45.4 45.42,-45.4 25.06,0 45.4,20.33 45.4,45.4 0,25.08 -20.34,45.41 -45.4,45.41 -25.09,0 -45.42,-20.33 -45.42,-45.41z"/>
  <path class="fil0" d="M14403.68 7960.66c0,-25.07 20.33,-45.4 45.39,-45.4 25.08,0 45.41,20.33 45.41,45.4 0,25.08 -20.33,45.41 -45.41,45.41 -25.06,0 -45.39,-20.33 -45.39,-45.41z"/>
  <path class="fil0" d="M14403.68 9019.25c0,-25.07 20.33,-45.4 45.39,-45.4 25.08,0 45.41,20.33 45.41,45.4 0,25.08 -20.33,45.41 -45.41,45.41 -25.06,0 -45.39,-20.33 -45.39,-45.41z"/>
  <path class="fil0" d="M14403.68 18244.1c0,-25.07 20.33,-45.4 45.39,-45.4 25.08,0 45.41,20.33 45.41,45.4 0,25.08 -20.33,45.41 -45.41,45.41 -25.06,0 -45.39,-20.33 -45.39,-45.41z"/>
  <path class="fil0" d="M14554.89 7960.66c0,-25.07 20.34,-45.4 45.41,-45.4 25.08,0 45.42,20.33 45.42,45.4 0,25.08 -20.34,45.41 -45.42,45.41 -25.07,0 -45.41,-20.33 -45.41,-45.41z"/>
  <path class="fil0" d="M14554.89 9019.25c0,-25.07 20.34,-45.4 45.41,-45.4 25.08,0 45.42,20.33 45.42,45.4 0,25.08 -20.34,45.41 -45.42,45.41 -25.07,0 -45.41,-20.33 -45.41,-45.41z"/>
  <path class="fil0" d="M14554.89 18244.1c0,-25.07 20.34,-45.4 45.41,-45.4 25.08,0 45.42,20.33 45.42,45.4 0,25.08 -20.34,45.41 -45.42,45.41 -25.07,0 -45.41,-20.33 -45.41,-45.41z"/>
  <path class="fil0" d="M14706.13 7960.66c0,-25.07 20.33,-45.4 45.41,-45.4 25.06,0 45.39,20.33 45.39,45.4 0,25.08 -20.33,45.41 -45.39,45.41 -25.08,0 -45.41,-20.33 -45.41,-45.41z"/>
  <path class="fil0" d="M14857.35 7960.66c0,-25.07 20.34,-45.4 45.4,-45.4 25.09,0 45.41,20.33 45.41,45.4 0,25.08 -20.32,45.41 -45.41,45.41 -25.06,0 -45.4,-20.33 -45.4,-45.41z"/>
  <path class="fil0" d="M15008.58 7960.66c0,-25.07 20.33,-45.4 45.41,-45.4 25.08,0 45.41,20.33 45.41,45.4 0,25.08 -20.33,45.41 -45.41,45.41 -25.08,0 -45.41,-20.33 -45.41,-45.41z"/>
  <path class="fil0" d="M15159.81 7960.66c0,-25.07 20.34,-45.4 45.4,-45.4 25.07,0 45.41,20.33 45.41,45.4 0,25.08 -20.34,45.41 -45.41,45.41 -25.06,0 -45.4,-20.33 -45.4,-45.41z"/>
  <path class="fil0" d="M15311.03 7960.66c0,-25.07 20.33,-45.4 45.41,-45.4 25.08,0 45.41,20.33 45.41,45.4 0,25.08 -20.33,45.41 -45.41,45.41 -25.08,0 -45.41,-20.33 -45.41,-45.41z"/>
  <path class="fil0" d="M15462.27 7960.66c0,-25.07 20.32,-45.4 45.4,-45.4 25.07,0 45.4,20.33 45.4,45.4 0,25.08 -20.33,45.41 -45.4,45.41 -25.08,0 -45.4,-20.33 -45.4,-45.41z"/>
  <path class="fil0" d="M15613.48 7960.66c0,-25.07 20.35,-45.4 45.41,-45.4 25.08,0 45.41,20.33 45.41,45.4 0,25.08 -20.33,45.41 -45.41,45.41 -25.06,0 -45.41,-20.33 -45.41,-45.41z"/>
  <path class="fil0" d="M14706.13 9019.25c0,-25.07 20.33,-45.4 45.41,-45.4 25.06,0 45.39,20.33 45.39,45.4 0,25.08 -20.33,45.41 -45.39,45.41 -25.08,0 -45.41,-20.33 -45.41,-45.41z"/>
  <path class="fil0" d="M14857.35 9019.25c0,-25.07 20.34,-45.4 45.4,-45.4 25.09,0 45.41,20.33 45.41,45.4 0,25.08 -20.32,45.41 -45.41,45.41 -25.06,0 -45.4,-20.33 -45.4,-45.41z"/>
  <path class="fil0" d="M15008.58 9019.25c0,-25.07 20.33,-45.4 45.41,-45.4 25.08,0 45.41,20.33 45.41,45.4 0,25.08 -20.33,45.41 -45.41,45.41 -25.08,0 -45.41,-20.33 -45.41,-45.41z"/>
  <path class="fil0" d="M15159.81 9019.25c0,-25.07 20.34,-45.4 45.4,-45.4 25.07,0 45.41,20.33 45.41,45.4 0,25.08 -20.34,45.41 -45.41,45.41 -25.06,0 -45.4,-20.33 -45.4,-45.41z"/>
  <path class="fil0" d="M15311.03 9019.25c0,-25.07 20.33,-45.4 45.41,-45.4 25.08,0 45.41,20.33 45.41,45.4 0,25.08 -20.33,45.41 -45.41,45.41 -25.08,0 -45.41,-20.33 -45.41,-45.41z"/>
  <path class="fil0" d="M15462.27 9019.25c0,-25.07 20.32,-45.4 45.4,-45.4 25.07,0 45.4,20.33 45.4,45.4 0,25.08 -20.33,45.41 -45.4,45.41 -25.08,0 -45.4,-20.33 -45.4,-45.41z"/>
  <path class="fil0" d="M15613.48 9019.25c0,-25.07 20.35,-45.4 45.41,-45.4 25.08,0 45.41,20.33 45.41,45.4 0,25.08 -20.33,45.41 -45.41,45.41 -25.06,0 -45.41,-20.33 -45.41,-45.41z"/>
  <path class="fil0" d="M14706.13 18244.1c0,-25.07 20.33,-45.4 45.41,-45.4 25.06,0 45.39,20.33 45.39,45.4 0,25.08 -20.33,45.41 -45.39,45.41 -25.08,0 -45.41,-20.33 -45.41,-45.41z"/>
  <path class="fil0" d="M15764.71 7960.66c0,-25.07 20.33,-45.4 45.42,-45.4 25.06,0 45.4,20.33 45.4,45.4 0,25.08 -20.34,45.41 -45.4,45.41 -25.09,0 -45.42,-20.33 -45.42,-45.41z"/>
  <path class="fil0" d="M15764.71 9019.25c0,-25.07 20.33,-45.4 45.42,-45.4 25.06,0 45.4,20.33 45.4,45.4 0,25.08 -20.34,45.41 -45.4,45.41 -25.09,0 -45.42,-20.33 -45.42,-45.41z"/>
  <path class="fil0" d="M14857.35 18244.1c0,-25.07 20.34,-45.4 45.4,-45.4 25.09,0 45.41,20.33 45.41,45.4 0,25.08 -20.32,45.41 -45.41,45.41 -25.06,0 -45.4,-20.33 -45.4,-45.41z"/>
  <path class="fil0" d="M15008.58 18244.1c0,-25.07 20.33,-45.4 45.41,-45.4 25.08,0 45.41,20.33 45.41,45.4 0,25.08 -20.33,45.41 -45.41,45.41 -25.08,0 -45.41,-20.33 -45.41,-45.41z"/>
  <path class="fil0" d="M15159.81 18244.1c0,-25.07 20.34,-45.4 45.4,-45.4 25.07,0 45.41,20.33 45.41,45.4 0,25.08 -20.34,45.41 -45.41,45.41 -25.06,0 -45.4,-20.33 -45.4,-45.41z"/>
  <path class="fil0" d="M15311.03 18244.1c0,-25.07 20.33,-45.4 45.41,-45.4 25.08,0 45.41,20.33 45.41,45.4 0,25.08 -20.33,45.41 -45.41,45.41 -25.08,0 -45.41,-20.33 -45.41,-45.41z"/>
  <path class="fil0" d="M15462.27 18244.1c0,-25.07 20.32,-45.4 45.4,-45.4 25.07,0 45.4,20.33 45.4,45.4 0,25.08 -20.33,45.41 -45.4,45.41 -25.08,0 -45.4,-20.33 -45.4,-45.41z"/>
  <path class="fil0" d="M15613.48 18244.1c0,-25.07 20.35,-45.4 45.41,-45.4 25.08,0 45.41,20.33 45.41,45.4 0,25.08 -20.33,45.41 -45.41,45.41 -25.06,0 -45.41,-20.33 -45.41,-45.41z"/>
  <path class="fil0" d="M15764.71 18244.1c0,-25.07 20.33,-45.4 45.42,-45.4 25.06,0 45.4,20.33 45.4,45.4 0,25.08 -20.34,45.41 -45.4,45.41 -25.09,0 -45.42,-20.33 -45.42,-45.41z"/>
  <path class="fil0" d="M15915.95 7960.66c0,-25.07 20.33,-45.4 45.39,-45.4 25.08,0 45.41,20.33 45.41,45.4 0,25.08 -20.33,45.41 -45.41,45.41 -25.06,0 -45.39,-20.33 -45.39,-45.41z"/>
  <path class="fil0" d="M15915.95 9019.25c0,-25.07 20.33,-45.4 45.39,-45.4 25.08,0 45.41,20.33 45.41,45.4 0,25.08 -20.33,45.41 -45.41,45.41 -25.06,0 -45.39,-20.33 -45.39,-45.41z"/>
  <path class="fil0" d="M15915.95 18244.1c0,-25.07 20.33,-45.4 45.39,-45.4 25.08,0 45.41,20.33 45.41,45.4 0,25.08 -20.33,45.41 -45.41,45.41 -25.06,0 -45.39,-20.33 -45.39,-45.41z"/>
  <path class="fil0" d="M16067.17 7960.66c0,-25.07 20.34,-45.4 45.4,-45.4 25.09,0 45.42,20.33 45.42,45.4 0,25.08 -20.33,45.41 -45.42,45.41 -25.06,0 -45.4,-20.33 -45.4,-45.41z"/>
  <path class="fil0" d="M16067.17 9019.25c0,-25.07 20.34,-45.4 45.4,-45.4 25.09,0 45.42,20.33 45.42,45.4 0,25.08 -20.33,45.41 -45.42,45.41 -25.06,0 -45.4,-20.33 -45.4,-45.41z"/>
  <path class="fil0" d="M16067.17 18244.1c0,-25.07 20.34,-45.4 45.4,-45.4 25.09,0 45.42,20.33 45.42,45.4 0,25.08 -20.33,45.41 -45.42,45.41 -25.06,0 -45.4,-20.33 -45.4,-45.41z"/>
  <path class="fil0" d="M16218.4 7960.66c0,-25.07 20.33,-45.4 45.41,-45.4 25.06,0 45.39,20.33 45.39,45.4 0,25.08 -20.33,45.41 -45.39,45.41 -25.08,0 -45.41,-20.33 -45.41,-45.41z"/>
  <path class="fil0" d="M16218.4 9019.25c0,-25.07 20.33,-45.4 45.41,-45.4 25.06,0 45.39,20.33 45.39,45.4 0,25.08 -20.33,45.41 -45.39,45.41 -25.08,0 -45.41,-20.33 -45.41,-45.41z"/>
  <path class="fil0" d="M16218.4 18244.1c0,-25.07 20.33,-45.4 45.41,-45.4 25.06,0 45.39,20.33 45.39,45.4 0,25.08 -20.33,45.41 -45.39,45.41 -25.08,0 -45.41,-20.33 -45.41,-45.41z"/>
  <path class="fil1" d="M8808.31 5692.26c0,-41.76 33.86,-75.62 75.61,-75.62 41.76,0 75.61,33.86 75.61,75.62 0,41.75 -33.85,75.61 -75.61,75.61 -41.75,0 -75.61,-33.86 -75.61,-75.61z"/>
  <path class="fil0" d="M8354.58 3877.53c0,-25.07 20.35,-45.4 45.41,-45.4 25.08,0 45.41,20.33 45.41,45.4 0,25.08 -20.33,45.41 -45.41,45.41 -25.06,0 -45.41,-20.33 -45.41,-45.41z"/>
  <path class="fil0" d="M8354.58 4028.76c0,-25.07 20.35,-45.41 45.41,-45.41 25.08,0 45.41,20.34 45.41,45.41 0,25.07 -20.33,45.4 -45.41,45.4 -25.06,0 -45.41,-20.33 -45.41,-45.4z"/>
  <path class="fil0" d="M8354.58 4179.99c0,-25.08 20.35,-45.41 45.41,-45.41 25.08,0 45.41,20.33 45.41,45.41 0,25.07 -20.33,45.4 -45.41,45.4 -25.06,0 -45.41,-20.33 -45.41,-45.4z"/>
  <path class="fil0" d="M8354.58 4331.21c0,-25.07 20.35,-45.4 45.41,-45.4 25.08,0 45.41,20.33 45.41,45.4 0,25.08 -20.33,45.41 -45.41,45.41 -25.06,0 -45.41,-20.33 -45.41,-45.41z"/>
  <path class="fil0" d="M8354.58 4482.44c0,-25.07 20.35,-45.41 45.41,-45.41 25.08,0 45.41,20.34 45.41,45.41 0,25.07 -20.33,45.41 -45.41,45.41 -25.06,0 -45.41,-20.34 -45.41,-45.41z"/>
  <path class="fil0" d="M8354.58 4633.67c0,-25.08 20.35,-45.41 45.41,-45.41 25.08,0 45.41,20.33 45.41,45.41 0,25.07 -20.33,45.4 -45.41,45.4 -25.06,0 -45.41,-20.33 -45.41,-45.4z"/>
  <path class="fil0" d="M8354.58 4784.89c0,-25.07 20.35,-45.4 45.41,-45.4 25.08,0 45.41,20.33 45.41,45.4 0,25.08 -20.33,45.41 -45.41,45.41 -25.06,0 -45.41,-20.33 -45.41,-45.41z"/>
  <path class="fil0" d="M8354.58 4936.12c0,-25.07 20.35,-45.4 45.41,-45.4 25.08,0 45.41,20.33 45.41,45.4 0,25.08 -20.33,45.41 -45.41,45.41 -25.06,0 -45.41,-20.33 -45.41,-45.41z"/>
  <path class="fil0" d="M8354.58 5087.35c0,-25.07 20.35,-45.41 45.41,-45.41 25.08,0 45.41,20.34 45.41,45.41 0,25.07 -20.33,45.4 -45.41,45.4 -25.06,0 -45.41,-20.33 -45.41,-45.4z"/>
  <path class="fil0" d="M8354.58 5238.58c0,-25.08 20.35,-45.41 45.41,-45.41 25.08,0 45.41,20.33 45.41,45.41 0,25.07 -20.33,45.4 -45.41,45.4 -25.06,0 -45.41,-20.33 -45.41,-45.4z"/>
  <path class="fil0" d="M8354.58 5389.8c0,-25.07 20.35,-45.4 45.41,-45.4 25.08,0 45.41,20.33 45.41,45.4 0,25.08 -20.33,45.41 -45.41,45.41 -25.06,0 -45.41,-20.33 -45.41,-45.41z"/>
  <path class="fil0" d="M8354.58 5541.03c0,-25.07 20.35,-45.41 45.41,-45.41 25.08,0 45.41,20.34 45.41,45.41 0,25.07 -20.33,45.41 -45.41,45.41 -25.06,0 -45.41,-20.34 -45.41,-45.41z"/>
  <path class="fil0" d="M8354.58 5692.26c0,-25.08 20.35,-45.41 45.41,-45.41 25.08,0 45.41,20.33 45.41,45.41 0,25.07 -20.33,45.4 -45.41,45.4 -25.06,0 -45.41,-20.33 -45.41,-45.4z"/>
  <path class="fil0" d="M8354.58 5843.48c0,-25.07 20.35,-45.4 45.41,-45.4 25.08,0 45.41,20.33 45.41,45.4 0,25.08 -20.33,45.41 -45.41,45.41 -25.06,0 -45.41,-20.33 -45.41,-45.41z"/>
  <path class="fil0" d="M8354.58 5994.71c0,-25.07 20.35,-45.4 45.41,-45.4 25.08,0 45.41,20.33 45.41,45.4 0,25.07 -20.33,45.41 -45.41,45.41 -25.06,0 -45.41,-20.34 -45.41,-45.41z"/>
  <path class="fil1" d="M16369.66 7960.67c0,-41.76 33.86,-75.62 75.61,-75.62 41.77,0 75.62,33.86 75.62,75.62 0,41.75 -33.85,75.61 -75.62,75.61 -41.75,0 -75.61,-33.86 -75.61,-75.61z"/>
  <path class="fil1" d="M16369.66 9019.26c0,-41.76 33.86,-75.62 75.61,-75.62 41.77,0 75.62,33.86 75.62,75.62 0,41.75 -33.85,75.61 -75.62,75.61 -41.75,0 -75.61,-33.86 -75.61,-75.61z"/>
  <path class="fil1" d="M16369.66 18244.11c0,-41.76 33.86,-75.62 75.61,-75.62 41.77,0 75.62,33.86 75.62,75.62 0,41.75 -33.85,75.61 -75.62,75.61 -41.75,0 -75.61,-33.86 -75.61,-75.61z"/>
  <path class="fil1" d="M279.11 7960.67c0,-41.76 33.86,-75.62 75.61,-75.62 41.75,0 75.61,33.86 75.61,75.62 0,41.75 -33.86,75.61 -75.61,75.61 -41.75,0 -75.61,-33.86 -75.61,-75.61z"/>
  <path class="fil1" d="M279.11 9019.26c0,-41.76 33.86,-75.62 75.61,-75.62 41.75,0 75.61,33.86 75.61,75.62 0,41.75 -33.86,75.61 -75.61,75.61 -41.75,0 -75.61,-33.86 -75.61,-75.61z"/>
  <path class="fil1" d="M279.11 18244.11c0,-41.76 33.86,-75.62 75.61,-75.62 41.75,0 75.61,33.86 75.61,75.62 0,41.75 -33.86,75.61 -75.61,75.61 -41.75,0 -75.61,-33.86 -75.61,-75.61z"/>
  <path class="fil0" d="M8354.58 2818.94c0,-25.07 20.35,-45.4 45.41,-45.4 25.08,0 45.41,20.33 45.41,45.4 0,25.08 -20.33,45.41 -45.41,45.41 -25.06,0 -45.41,-20.33 -45.41,-45.41z"/>
  <path class="fil0" d="M8203.37 4179.99c0,-25.08 20.32,-45.41 45.4,-45.41 25.07,0 45.4,20.33 45.4,45.41 0,25.07 -20.33,45.4 -45.4,45.4 -25.08,0 -45.4,-20.33 -45.4,-45.4z"/>
  <path class="fil0" d="M8203.37 6750.85c0,-25.08 20.32,-45.41 45.4,-45.41 25.07,0 45.4,20.33 45.4,45.41 0,25.07 -20.33,45.4 -45.4,45.4 -25.08,0 -45.4,-20.33 -45.4,-45.4z"/>
  <path class="fil0" d="M8052.13 4179.99c0,-25.08 20.33,-45.41 45.41,-45.41 25.08,0 45.41,20.33 45.41,45.41 0,25.07 -20.33,45.4 -45.41,45.4 -25.08,0 -45.41,-20.33 -45.41,-45.4z"/>
  <path class="fil0" d="M8052.13 6750.85c0,-25.08 20.33,-45.41 45.41,-45.41 25.08,0 45.41,20.33 45.41,45.41 0,25.07 -20.33,45.4 -45.41,45.4 -25.08,0 -45.41,-20.33 -45.41,-45.4z"/>
  <path class="fil1" d="M7840.47 4179.99c0,-41.76 33.85,-75.62 75.59,-75.62 41.77,0 75.63,33.86 75.63,75.62 0,41.75 -33.86,75.61 -75.63,75.61 -41.74,0 -75.59,-33.86 -75.59,-75.61z"/>
  <path class="fil1" d="M7840.47 6750.85c0,-41.76 33.85,-75.62 75.59,-75.62 41.77,0 75.63,33.86 75.63,75.62 0,41.75 -33.86,75.61 -75.63,75.61 -41.74,0 -75.59,-33.86 -75.59,-75.61z"/>
  <path class="fil0" d="M8354.58 2667.72c0,-25.08 20.35,-45.41 45.41,-45.41 25.08,0 45.41,20.33 45.41,45.41 0,25.07 -20.33,45.4 -45.41,45.4 -25.06,0 -45.41,-20.33 -45.41,-45.4z"/>
  <path class="fil0" d="M8354.58 2516.49c0,-25.08 20.35,-45.41 45.41,-45.41 25.08,0 45.41,20.33 45.41,45.41 0,25.07 -20.33,45.4 -45.41,45.4 -25.06,0 -45.41,-20.33 -45.41,-45.4z"/>
  <path class="fil0" d="M8354.58 2365.27c0,-25.07 20.35,-45.41 45.41,-45.41 25.08,0 45.41,20.34 45.41,45.41 0,25.06 -20.33,45.4 -45.41,45.4 -25.06,0 -45.41,-20.34 -45.41,-45.4z"/>
  <path class="fil0" d="M8354.58 2214.04c0,-25.07 20.35,-45.4 45.41,-45.4 25.08,0 45.41,20.33 45.41,45.4 0,25.08 -20.33,45.41 -45.41,45.41 -25.06,0 -45.41,-20.33 -45.41,-45.41z"/>
  <path class="fil0" d="M8354.58 2062.82c0,-25.08 20.35,-45.41 45.41,-45.41 25.08,0 45.41,20.33 45.41,45.41 0,25.07 -20.33,45.4 -45.41,45.4 -25.06,0 -45.41,-20.33 -45.41,-45.4z"/>
  <path class="fil0" d="M8354.58 1911.59c0,-25.07 20.35,-45.41 45.41,-45.41 25.08,0 45.41,20.34 45.41,45.41 0,25.07 -20.33,45.41 -45.41,45.41 -25.06,0 -45.41,-20.34 -45.41,-45.41z"/>
  <path class="fil0" d="M8354.58 1760.36c0,-25.07 20.35,-45.4 45.41,-45.4 25.08,0 45.41,20.33 45.41,45.4 0,25.08 -20.33,45.41 -45.41,45.41 -25.06,0 -45.41,-20.33 -45.41,-45.41z"/>
  <path class="fil0" d="M8354.58 1609.14c0,-25.08 20.35,-45.41 45.41,-45.41 25.08,0 45.41,20.33 45.41,45.41 0,25.07 -20.33,45.4 -45.41,45.4 -25.06,0 -45.41,-20.33 -45.41,-45.4z"/>
  <path class="fil0" d="M8354.58 1457.91c0,-25.08 20.35,-45.41 45.41,-45.41 25.08,0 45.41,20.33 45.41,45.41 0,25.07 -20.33,45.4 -45.41,45.4 -25.06,0 -45.41,-20.33 -45.41,-45.4z"/>
  <path class="fil0" d="M8354.58 1306.68c0,-25.07 20.35,-45.4 45.41,-45.4 25.08,0 45.41,20.33 45.41,45.4 0,25.07 -20.33,45.41 -45.41,45.41 -25.06,0 -45.41,-20.34 -45.41,-45.41z"/>
  <path class="fil0" d="M8505.82 1911.59c0,-25.07 20.32,-45.41 45.41,-45.41 25.06,0 45.4,20.34 45.4,45.41 0,25.07 -20.34,45.41 -45.4,45.41 -25.09,0 -45.41,-20.34 -45.41,-45.41z"/>
  <path class="fil0" d="M8657.05 1911.59c0,-25.07 20.33,-45.41 45.39,-45.41 25.08,0 45.41,20.34 45.41,45.41 0,25.07 -20.33,45.41 -45.41,45.41 -25.06,0 -45.39,-20.34 -45.39,-45.41z"/>
  <path class="fil1" d="M8808.31 1911.59c0,-41.76 33.86,-75.61 75.61,-75.61 41.76,0 75.61,33.85 75.61,75.61 0,41.75 -33.85,75.61 -75.61,75.61 -41.75,0 -75.61,-33.86 -75.61,-75.61z"/>
  <path class="fil0" d="M8354.58 1155.45c0,-25.07 20.35,-45.4 45.41,-45.4 25.08,0 45.41,20.33 45.41,45.4 0,25.08 -20.33,45.41 -45.41,45.41 -25.06,0 -45.41,-20.33 -45.41,-45.41z"/>
  <path class="fil0" d="M8354.58 1004.23c0,-25.08 20.35,-45.41 45.41,-45.41 25.08,0 45.41,20.33 45.41,45.41 0,25.07 -20.33,45.4 -45.41,45.4 -25.06,0 -45.41,-20.33 -45.41,-45.4z"/>
  <path class="fil0" d="M8354.58 853c0,-25.07 20.35,-45.41 45.41,-45.41 25.08,0 45.41,20.34 45.41,45.41 0,25.07 -20.33,45.41 -45.41,45.41 -25.06,0 -45.41,-20.34 -45.41,-45.41z"/>
  <path class="fil0" d="M8354.58 701.77c0,-25.07 20.35,-45.4 45.41,-45.4 25.08,0 45.41,20.33 45.41,45.4 0,25.08 -20.33,45.41 -45.41,45.41 -25.06,0 -45.41,-20.33 -45.41,-45.41z"/>
  <path class="fil0" d="M8354.58 550.55c0,-25.08 20.35,-45.41 45.41,-45.41 25.08,0 45.41,20.33 45.41,45.41 0,25.07 -20.33,45.4 -45.41,45.4 -25.06,0 -45.41,-20.33 -45.41,-45.4z"/>
  <path class="fil0" d="M8354.58 399.32c0,-25.07 20.35,-45.41 45.41,-45.41 25.08,0 45.41,20.34 45.41,45.41 0,25.07 -20.33,45.4 -45.41,45.4 -25.06,0 -45.41,-20.33 -45.41,-45.4z"/>
  <path class="fil0" d="M8203.37 399.32c0,-25.07 20.32,-45.41 45.4,-45.41 25.07,0 45.4,20.34 45.4,45.41 0,25.07 -20.33,45.4 -45.4,45.4 -25.08,0 -45.4,-20.33 -45.4,-45.4z"/>
  <path class="fil0" d="M8052.13 399.32c0,-25.07 20.33,-45.41 45.41,-45.41 25.08,0 45.41,20.34 45.41,45.41 0,25.07 -20.33,45.4 -45.41,45.4 -25.08,0 -45.41,-20.33 -45.41,-45.4z"/>
  <path class="fil1" d="M7840.46 399.31c0,-41.75 33.85,-75.61 75.6,-75.61 41.76,0 75.61,33.86 75.61,75.61 0,41.76 -33.85,75.62 -75.61,75.62 -41.75,0 -75.6,-33.86 -75.6,-75.62z"/>
  <path class="fil0" d="M8354.58 21419.87c0,-25.07 20.35,-45.4 45.41,-45.4 25.08,0 45.41,20.33 45.41,45.4 0,25.08 -20.33,45.41 -45.41,45.41 -25.06,0 -45.41,-20.33 -45.41,-45.41z"/>
  <path class="fil0" d="M8354.58 21268.65c0,-25.08 20.35,-45.41 45.41,-45.41 25.08,0 45.41,20.33 45.41,45.41 0,25.07 -20.33,45.4 -45.41,45.4 -25.06,0 -45.41,-20.33 -45.41,-45.4z"/>
  <path class="fil0" d="M8808.26 21117.42c0,-25.07 20.34,-45.41 45.41,-45.41 25.08,0 45.42,20.34 45.42,45.41 0,25.07 -20.34,45.41 -45.42,45.41 -25.07,0 -45.41,-20.34 -45.41,-45.41z"/>
  <path class="fil0" d="M8657.05 21117.42c0,-25.07 20.33,-45.41 45.39,-45.41 25.08,0 45.41,20.34 45.41,45.41 0,25.07 -20.33,45.41 -45.41,45.41 -25.06,0 -45.39,-20.34 -45.39,-45.41z"/>
  <path class="fil0" d="M8505.82 21117.42c0,-25.07 20.32,-45.41 45.41,-45.41 25.06,0 45.4,20.34 45.4,45.41 0,25.07 -20.34,45.41 -45.4,45.41 -25.09,0 -45.41,-20.34 -45.41,-45.41z"/>
  <path class="fil0" d="M8354.58 21117.42c0,-25.07 20.35,-45.41 45.41,-45.41 25.08,0 45.41,20.34 45.41,45.41 0,25.07 -20.33,45.41 -45.41,45.41 -25.06,0 -45.41,-20.34 -45.41,-45.41z"/>
  <path class="fil0" d="M8203.37 21117.42c0,-25.07 20.32,-45.41 45.4,-45.41 25.07,0 45.4,20.34 45.4,45.41 0,25.07 -20.33,45.41 -45.4,45.41 -25.08,0 -45.4,-20.34 -45.4,-45.41z"/>
  <path class="fil0" d="M8052.13 21117.42c0,-25.07 20.33,-45.41 45.41,-45.41 25.08,0 45.41,20.34 45.41,45.41 0,25.07 -20.33,45.41 -45.41,45.41 -25.08,0 -45.41,-20.34 -45.41,-45.41z"/>
  <path class="fil0" d="M7900.91 21117.42c0,-25.07 20.33,-45.41 45.4,-45.41 25.08,0 45.4,20.34 45.4,45.41 0,25.07 -20.32,45.41 -45.4,45.41 -25.07,0 -45.4,-20.34 -45.4,-45.41z"/>
  <path class="fil0" d="M7749.69 21117.42c0,-25.07 20.33,-45.41 45.41,-45.41 25.06,0 45.41,20.34 45.41,45.41 0,25.07 -20.35,45.41 -45.41,45.41 -25.08,0 -45.41,-20.34 -45.41,-45.41z"/>
  <path class="fil0" d="M7598.46 21117.42c0,-25.07 20.34,-45.41 45.4,-45.41 25.09,0 45.42,20.34 45.42,45.41 0,25.07 -20.33,45.41 -45.42,45.41 -25.06,0 -45.4,-20.34 -45.4,-45.41z"/>
  <path class="fil0" d="M7447.24 21117.42c0,-25.07 20.33,-45.41 45.41,-45.41 25.06,0 45.39,20.34 45.39,45.41 0,25.07 -20.33,45.41 -45.39,45.41 -25.08,0 -45.41,-20.34 -45.41,-45.41z"/>
  <path class="fil0" d="M7296 21117.42c0,-25.07 20.34,-45.41 45.42,-45.41 25.07,0 45.41,20.34 45.41,45.41 0,25.07 -20.34,45.41 -45.41,45.41 -25.08,0 -45.42,-20.34 -45.42,-45.41z"/>
  <path class="fil0" d="M7144.79 21117.42c0,-25.07 20.33,-45.41 45.39,-45.41 25.08,0 45.41,20.34 45.41,45.41 0,25.07 -20.33,45.41 -45.41,45.41 -25.06,0 -45.39,-20.34 -45.39,-45.41z"/>
  <path class="fil0" d="M6993.56 21117.42c0,-25.07 20.32,-45.41 45.4,-45.41 25.07,0 45.41,20.34 45.41,45.41 0,25.07 -20.34,45.41 -45.41,45.41 -25.08,0 -45.4,-20.34 -45.4,-45.41z"/>
  <path class="fil0" d="M6842.32 21117.42c0,-25.07 20.33,-45.41 45.41,-45.41 25.08,0 45.41,20.34 45.41,45.41 0,25.07 -20.33,45.41 -45.41,45.41 -25.08,0 -45.41,-20.34 -45.41,-45.41z"/>
  <path class="fil0" d="M6691.1 21117.42c0,-25.07 20.34,-45.41 45.41,-45.41 25.06,0 45.4,20.34 45.4,45.41 0,25.07 -20.34,45.41 -45.4,45.41 -25.07,0 -45.41,-20.34 -45.41,-45.41z"/>
  <path class="fil0" d="M6539.87 21117.42c0,-25.07 20.33,-45.41 45.41,-45.41 25.08,0 45.41,20.34 45.41,45.41 0,25.07 -20.33,45.41 -45.41,45.41 -25.08,0 -45.41,-20.34 -45.41,-45.41z"/>
  <path class="fil0" d="M6388.65 21117.42c0,-25.07 20.33,-45.41 45.4,-45.41 25.08,0 45.4,20.34 45.4,45.41 0,25.07 -20.32,45.41 -45.4,45.41 -25.07,0 -45.4,-20.34 -45.4,-45.41z"/>
  <path class="fil0" d="M6237.42 21117.42c0,-25.07 20.33,-45.41 45.41,-45.41 25.06,0 45.41,20.34 45.41,45.41 0,25.07 -20.35,45.41 -45.41,45.41 -25.08,0 -45.41,-20.34 -45.41,-45.41z"/>
  <path class="fil0" d="M6086.19 21117.42c0,-25.07 20.34,-45.41 45.4,-45.41 25.09,0 45.42,20.34 45.42,45.41 0,25.07 -20.33,45.41 -45.42,45.41 -25.06,0 -45.4,-20.34 -45.4,-45.41z"/>
  <path class="fil0" d="M5934.97 21117.42c0,-25.07 20.33,-45.41 45.41,-45.41 25.06,0 45.39,20.34 45.39,45.41 0,25.07 -20.33,45.41 -45.39,45.41 -25.08,0 -45.41,-20.34 -45.41,-45.41z"/>
  <path class="fil0" d="M5783.73 21117.42c0,-25.07 20.33,-45.41 45.42,-45.41 25.06,0 45.4,20.34 45.4,45.41 0,25.07 -20.34,45.41 -45.4,45.41 -25.09,0 -45.42,-20.34 -45.42,-45.41z"/>
  <path class="fil0" d="M5632.5 21117.42c0,-25.07 20.35,-45.41 45.41,-45.41 25.08,0 45.41,20.34 45.41,45.41 0,25.07 -20.33,45.41 -45.41,45.41 -25.06,0 -45.41,-20.34 -45.41,-45.41z"/>
  <path class="fil0" d="M5481.29 21117.42c0,-25.07 20.32,-45.41 45.4,-45.41 25.07,0 45.4,20.34 45.4,45.41 0,25.07 -20.33,45.41 -45.4,45.41 -25.08,0 -45.4,-20.34 -45.4,-45.41z"/>
  <path class="fil0" d="M5330.05 21117.42c0,-25.07 20.33,-45.41 45.41,-45.41 25.08,0 45.41,20.34 45.41,45.41 0,25.07 -20.33,45.41 -45.41,45.41 -25.08,0 -45.41,-20.34 -45.41,-45.41z"/>
  <path class="fil0" d="M5178.83 21117.42c0,-25.07 20.34,-45.41 45.4,-45.41 25.07,0 45.41,20.34 45.41,45.41 0,25.07 -20.34,45.41 -45.41,45.41 -25.06,0 -45.4,-20.34 -45.4,-45.41z"/>
  <path class="fil0" d="M5027.6 21117.42c0,-25.07 20.33,-45.41 45.41,-45.41 25.08,0 45.41,20.34 45.41,45.41 0,25.07 -20.33,45.41 -45.41,45.41 -25.08,0 -45.41,-20.34 -45.41,-45.41z"/>
  <path class="fil0" d="M4876.37 21117.42c0,-25.07 20.34,-45.41 45.41,-45.41 25.08,0 45.4,20.34 45.4,45.41 0,25.07 -20.32,45.41 -45.4,45.41 -25.07,0 -45.41,-20.34 -45.41,-45.41z"/>
  <path class="fil0" d="M4725.15 21117.42c0,-25.07 20.33,-45.41 45.41,-45.41 25.06,0 45.39,20.34 45.39,45.41 0,25.07 -20.33,45.41 -45.39,45.41 -25.08,0 -45.41,-20.34 -45.41,-45.41z"/>
  <path class="fil0" d="M4573.92 21117.42c0,-25.07 20.33,-45.41 45.4,-45.41 25.08,0 45.42,20.34 45.42,45.41 0,25.07 -20.34,45.41 -45.42,45.41 -25.07,0 -45.4,-20.34 -45.4,-45.41z"/>
  <path class="fil0" d="M4422.7 21117.42c0,-25.07 20.33,-45.41 45.39,-45.41 25.08,0 45.41,20.34 45.41,45.41 0,25.07 -20.33,45.41 -45.41,45.41 -25.06,0 -45.39,-20.34 -45.39,-45.41z"/>
  <path class="fil0" d="M4271.46 21117.42c0,-25.07 20.33,-45.41 45.42,-45.41 25.06,0 45.4,20.34 45.4,45.41 0,25.07 -20.34,45.41 -45.4,45.41 -25.09,0 -45.42,-20.34 -45.42,-45.41z"/>
  <path class="fil0" d="M4120.23 21117.42c0,-25.07 20.35,-45.41 45.41,-45.41 25.08,0 45.41,20.34 45.41,45.41 0,25.07 -20.33,45.41 -45.41,45.41 -25.06,0 -45.41,-20.34 -45.41,-45.41z"/>
  <path class="fil0" d="M3969.02 21117.42c0,-25.07 20.32,-45.41 45.4,-45.41 25.07,0 45.4,20.34 45.4,45.41 0,25.07 -20.33,45.41 -45.4,45.41 -25.08,0 -45.4,-20.34 -45.4,-45.41z"/>
  <path class="fil0" d="M3817.78 21117.42c0,-25.07 20.33,-45.41 45.41,-45.41 25.08,0 45.41,20.34 45.41,45.41 0,25.07 -20.33,45.41 -45.41,45.41 -25.08,0 -45.41,-20.34 -45.41,-45.41z"/>
  <path class="fil0" d="M3666.56 21117.42c0,-25.07 20.33,-45.41 45.4,-45.41 25.08,0 45.4,20.34 45.4,45.41 0,25.07 -20.32,45.41 -45.4,45.41 -25.07,0 -45.4,-20.34 -45.4,-45.41z"/>
  <path class="fil0" d="M3515.33 21117.42c0,-25.07 20.33,-45.41 45.41,-45.41 25.06,0 45.41,20.34 45.41,45.41 0,25.07 -20.35,45.41 -45.41,45.41 -25.08,0 -45.41,-20.34 -45.41,-45.41z"/>
  <path class="fil0" d="M3364.1 21117.42c0,-25.07 20.34,-45.41 45.4,-45.41 25.09,0 45.41,20.34 45.41,45.41 0,25.07 -20.32,45.41 -45.41,45.41 -25.06,0 -45.4,-20.34 -45.4,-45.41z"/>
  <path class="fil0" d="M3212.88 21117.42c0,-25.07 20.33,-45.41 45.41,-45.41 25.06,0 45.39,20.34 45.39,45.41 0,25.07 -20.33,45.41 -45.39,45.41 -25.08,0 -45.41,-20.34 -45.41,-45.41z"/>
  <path class="fil0" d="M3061.64 21117.42c0,-25.07 20.34,-45.41 45.42,-45.41 25.07,0 45.41,20.34 45.41,45.41 0,25.07 -20.34,45.41 -45.41,45.41 -25.08,0 -45.42,-20.34 -45.42,-45.41z"/>
  <path class="fil0" d="M2910.43 21117.42c0,-25.07 20.33,-45.41 45.39,-45.41 25.08,0 45.41,20.34 45.41,45.41 0,25.07 -20.33,45.41 -45.41,45.41 -25.06,0 -45.39,-20.34 -45.39,-45.41z"/>
  <path class="fil0" d="M2759.2 21117.42c0,-25.07 20.32,-45.41 45.41,-45.41 25.06,0 45.4,20.34 45.4,45.41 0,25.07 -20.34,45.41 -45.4,45.41 -25.09,0 -45.41,-20.34 -45.41,-45.41z"/>
  <path class="fil0" d="M1700.61 21117.42c0,-25.07 20.33,-45.41 45.41,-45.41 25.06,0 45.39,20.34 45.39,45.41 0,25.07 -20.33,45.41 -45.39,45.41 -25.08,0 -45.41,-20.34 -45.41,-45.41z"/>
  <path class="fil0" d="M1851.83 21117.42c0,-25.07 20.34,-45.41 45.4,-45.41 25.09,0 45.42,20.34 45.42,45.41 0,25.07 -20.33,45.41 -45.42,45.41 -25.06,0 -45.4,-20.34 -45.4,-45.41z"/>
  <path class="fil0" d="M2003.06 21117.42c0,-25.07 20.33,-45.41 45.41,-45.41 25.06,0 45.41,20.34 45.41,45.41 0,25.07 -20.35,45.41 -45.41,45.41 -25.08,0 -45.41,-20.34 -45.41,-45.41z"/>
  <path class="fil0" d="M2154.29 21117.42c0,-25.07 20.33,-45.41 45.4,-45.41 25.08,0 45.4,20.34 45.4,45.41 0,25.07 -20.32,45.41 -45.4,45.41 -25.07,0 -45.4,-20.34 -45.4,-45.41z"/>
  <path class="fil0" d="M2305.51 21117.42c0,-25.07 20.33,-45.41 45.41,-45.41 25.08,0 45.41,20.34 45.41,45.41 0,25.07 -20.33,45.41 -45.41,45.41 -25.08,0 -45.41,-20.34 -45.41,-45.41z"/>
  <path class="fil0" d="M2456.75 21117.42c0,-25.07 20.32,-45.41 45.4,-45.41 25.06,0 45.4,20.34 45.4,45.41 0,25.07 -20.34,45.41 -45.4,45.41 -25.08,0 -45.4,-20.34 -45.4,-45.41z"/>
  <path class="fil0" d="M2607.96 21117.42c0,-25.07 20.35,-45.41 45.41,-45.41 25.08,0 45.41,20.34 45.41,45.41 0,25.07 -20.33,45.41 -45.41,45.41 -25.06,0 -45.41,-20.34 -45.41,-45.41z"/>
  <path class="fil0" d="M1549.37 21117.42c0,-25.07 20.34,-45.41 45.42,-45.41 25.06,0 45.4,20.34 45.4,45.41 0,25.07 -20.34,45.41 -45.4,45.41 -25.08,0 -45.42,-20.34 -45.42,-45.41z"/>
  <path class="fil0" d="M1398.16 21117.42c0,-25.07 20.33,-45.41 45.39,-45.41 25.08,0 45.41,20.34 45.41,45.41 0,25.07 -20.33,45.41 -45.41,45.41 -25.06,0 -45.39,-20.34 -45.39,-45.41z"/>
  <path class="fil0" d="M1246.93 21117.42c0,-25.07 20.32,-45.41 45.4,-45.41 25.07,0 45.41,20.34 45.41,45.41 0,25.07 -20.34,45.41 -45.41,45.41 -25.08,0 -45.4,-20.34 -45.4,-45.41z"/>
  <path class="fil0" d="M1095.69 21117.42c0,-25.07 20.33,-45.41 45.41,-45.41 25.08,0 45.41,20.34 45.41,45.41 0,25.07 -20.33,45.41 -45.41,45.41 -25.08,0 -45.41,-20.34 -45.41,-45.41z"/>
  <path class="fil0" d="M944.47 21117.42c0,-25.07 20.34,-45.41 45.41,-45.41 25.06,0 45.4,20.34 45.4,45.41 0,25.07 -20.34,45.41 -45.4,45.41 -25.07,0 -45.41,-20.34 -45.41,-45.41z"/>
  <path class="fil0" d="M793.24 21117.42c0,-25.07 20.33,-45.41 45.41,-45.41 25.08,0 45.41,20.34 45.41,45.41 0,25.07 -20.33,45.41 -45.41,45.41 -25.08,0 -45.41,-20.34 -45.41,-45.41z"/>
  <path class="fil0" d="M642.01 21117.42c0,-25.07 20.34,-45.41 45.41,-45.41 25.08,0 45.4,20.34 45.4,45.41 0,25.07 -20.32,45.41 -45.4,45.41 -25.07,0 -45.41,-20.34 -45.41,-45.41z"/>
  <path class="fil0" d="M490.79 21117.42c0,-25.07 20.33,-45.41 45.41,-45.41 25.06,0 45.39,20.34 45.39,45.41 0,25.07 -20.33,45.41 -45.39,45.41 -25.08,0 -45.41,-20.34 -45.41,-45.41z"/>
  <path class="fil0" d="M8959.5 21117.42c0,-25.07 20.33,-45.41 45.41,-45.41 25.06,0 45.39,20.34 45.39,45.41 0,25.07 -20.33,45.41 -45.39,45.41 -25.08,0 -45.41,-20.34 -45.41,-45.41z"/>
  <path class="fil0" d="M9110.72 21117.42c0,-25.07 20.34,-45.41 45.4,-45.41 25.09,0 45.41,20.34 45.41,45.41 0,25.07 -20.32,45.41 -45.41,45.41 -25.06,0 -45.4,-20.34 -45.4,-45.41z"/>
  <path class="fil0" d="M9261.95 21117.42c0,-25.07 20.33,-45.41 45.41,-45.41 25.08,0 45.41,20.34 45.41,45.41 0,25.07 -20.33,45.41 -45.41,45.41 -25.08,0 -45.41,-20.34 -45.41,-45.41z"/>
  <path class="fil0" d="M9413.18 21117.42c0,-25.07 20.34,-45.41 45.4,-45.41 25.07,0 45.4,20.34 45.4,45.41 0,25.07 -20.33,45.41 -45.4,45.41 -25.06,0 -45.4,-20.34 -45.4,-45.41z"/>
  <path class="fil0" d="M9564.4 21117.42c0,-25.07 20.33,-45.41 45.41,-45.41 25.08,0 45.41,20.34 45.41,45.41 0,25.07 -20.33,45.41 -45.41,45.41 -25.08,0 -45.41,-20.34 -45.41,-45.41z"/>
  <path class="fil0" d="M9715.64 21117.42c0,-25.07 20.32,-45.41 45.4,-45.41 25.07,0 45.4,20.34 45.4,45.41 0,25.07 -20.33,45.41 -45.4,45.41 -25.08,0 -45.4,-20.34 -45.4,-45.41z"/>
  <path class="fil0" d="M9866.85 21117.42c0,-25.07 20.35,-45.41 45.41,-45.41 25.08,0 45.41,20.34 45.41,45.41 0,25.07 -20.33,45.41 -45.41,45.41 -25.06,0 -45.41,-20.34 -45.41,-45.41z"/>
  <path class="fil0" d="M10018.08 21117.42c0,-25.07 20.33,-45.41 45.42,-45.41 25.06,0 45.4,20.34 45.4,45.41 0,25.07 -20.34,45.41 -45.4,45.41 -25.09,0 -45.42,-20.34 -45.42,-45.41z"/>
  <path class="fil0" d="M10169.32 21117.42c0,-25.07 20.33,-45.41 45.39,-45.41 25.08,0 45.41,20.34 45.41,45.41 0,25.07 -20.33,45.41 -45.41,45.41 -25.06,0 -45.39,-20.34 -45.39,-45.41z"/>
  <path class="fil0" d="M10320.54 21117.42c0,-25.07 20.34,-45.41 45.4,-45.41 25.08,0 45.42,20.34 45.42,45.41 0,25.07 -20.34,45.41 -45.42,45.41 -25.06,0 -45.4,-20.34 -45.4,-45.41z"/>
  <path class="fil0" d="M10471.77 21117.42c0,-25.07 20.33,-45.41 45.41,-45.41 25.06,0 45.39,20.34 45.39,45.41 0,25.07 -20.33,45.41 -45.39,45.41 -25.08,0 -45.41,-20.34 -45.41,-45.41z"/>
  <path class="fil0" d="M10622.99 21117.42c0,-25.07 20.34,-45.41 45.41,-45.41 25.08,0 45.4,20.34 45.4,45.41 0,25.07 -20.32,45.41 -45.4,45.41 -25.07,0 -45.41,-20.34 -45.41,-45.41z"/>
  <path class="fil0" d="M10774.22 21117.42c0,-25.07 20.33,-45.41 45.41,-45.41 25.08,0 45.41,20.34 45.41,45.41 0,25.07 -20.33,45.41 -45.41,45.41 -25.08,0 -45.41,-20.34 -45.41,-45.41z"/>
  <path class="fil0" d="M10925.45 21117.42c0,-25.07 20.34,-45.41 45.41,-45.41 25.06,0 45.4,20.34 45.4,45.41 0,25.07 -20.34,45.41 -45.4,45.41 -25.07,0 -45.41,-20.34 -45.41,-45.41z"/>
  <path class="fil0" d="M11076.67 21117.42c0,-25.07 20.33,-45.41 45.41,-45.41 25.08,0 45.41,20.34 45.41,45.41 0,25.07 -20.33,45.41 -45.41,45.41 -25.08,0 -45.41,-20.34 -45.41,-45.41z"/>
  <path class="fil0" d="M11227.91 21117.42c0,-25.07 20.32,-45.41 45.4,-45.41 25.07,0 45.41,20.34 45.41,45.41 0,25.07 -20.34,45.41 -45.41,45.41 -25.08,0 -45.4,-20.34 -45.4,-45.41z"/>
  <path class="fil0" d="M11379.14 21117.42c0,-25.07 20.33,-45.41 45.39,-45.41 25.08,0 45.41,20.34 45.41,45.41 0,25.07 -20.33,45.41 -45.41,45.41 -25.06,0 -45.39,-20.34 -45.39,-45.41z"/>
  <path class="fil0" d="M11530.35 21117.42c0,-25.07 20.33,-45.41 45.42,-45.41 25.06,0 45.4,20.34 45.4,45.41 0,25.07 -20.34,45.41 -45.4,45.41 -25.09,0 -45.42,-20.34 -45.42,-45.41z"/>
  <path class="fil0" d="M11681.59 21117.42c0,-25.07 20.33,-45.41 45.41,-45.41 25.06,0 45.39,20.34 45.39,45.41 0,25.07 -20.33,45.41 -45.39,45.41 -25.08,0 -45.41,-20.34 -45.41,-45.41z"/>
  <path class="fil0" d="M11832.81 21117.42c0,-25.07 20.34,-45.41 45.4,-45.41 25.09,0 45.42,20.34 45.42,45.41 0,25.07 -20.33,45.41 -45.42,45.41 -25.06,0 -45.4,-20.34 -45.4,-45.41z"/>
  <path class="fil0" d="M11984.04 21117.42c0,-25.07 20.33,-45.41 45.41,-45.41 25.06,0 45.41,20.34 45.41,45.41 0,25.07 -20.35,45.41 -45.41,45.41 -25.08,0 -45.41,-20.34 -45.41,-45.41z"/>
  <path class="fil0" d="M12135.27 21117.42c0,-25.07 20.33,-45.41 45.4,-45.41 25.08,0 45.4,20.34 45.4,45.41 0,25.07 -20.32,45.41 -45.4,45.41 -25.07,0 -45.4,-20.34 -45.4,-45.41z"/>
  <path class="fil0" d="M12286.49 21117.42c0,-25.07 20.33,-45.41 45.41,-45.41 25.08,0 45.41,20.34 45.41,45.41 0,25.07 -20.33,45.41 -45.41,45.41 -25.08,0 -45.41,-20.34 -45.41,-45.41z"/>
  <path class="fil0" d="M12437.73 21117.42c0,-25.07 20.33,-45.41 45.4,-45.41 25.06,0 45.4,20.34 45.4,45.41 0,25.07 -20.34,45.41 -45.4,45.41 -25.07,0 -45.4,-20.34 -45.4,-45.41z"/>
  <path class="fil0" d="M12588.94 21117.42c0,-25.07 20.33,-45.41 45.41,-45.41 25.08,0 45.41,20.34 45.41,45.41 0,25.07 -20.33,45.41 -45.41,45.41 -25.08,0 -45.41,-20.34 -45.41,-45.41z"/>
  <path class="fil0" d="M12740.18 21117.42c0,-25.07 20.32,-45.41 45.41,-45.41 25.06,0 45.4,20.34 45.4,45.41 0,25.07 -20.34,45.41 -45.4,45.41 -25.09,0 -45.41,-20.34 -45.41,-45.41z"/>
  <path class="fil0" d="M12891.41 21117.42c0,-25.07 20.33,-45.41 45.39,-45.41 25.08,0 45.41,20.34 45.41,45.41 0,25.07 -20.33,45.41 -45.41,45.41 -25.06,0 -45.39,-20.34 -45.39,-45.41z"/>
  <path class="fil0" d="M13042.62 21117.42c0,-25.07 20.34,-45.41 45.42,-45.41 25.07,0 45.41,20.34 45.41,45.41 0,25.07 -20.34,45.41 -45.41,45.41 -25.08,0 -45.42,-20.34 -45.42,-45.41z"/>
  <path class="fil0" d="M13193.86 21117.42c0,-25.07 20.33,-45.41 45.41,-45.41 25.06,0 45.39,20.34 45.39,45.41 0,25.07 -20.33,45.41 -45.39,45.41 -25.08,0 -45.41,-20.34 -45.41,-45.41z"/>
  <path class="fil0" d="M13345.08 21117.42c0,-25.07 20.34,-45.41 45.4,-45.41 25.09,0 45.41,20.34 45.41,45.41 0,25.07 -20.32,45.41 -45.41,45.41 -25.06,0 -45.4,-20.34 -45.4,-45.41z"/>
  <path class="fil0" d="M13496.31 21117.42c0,-25.07 20.33,-45.41 45.41,-45.41 25.06,0 45.41,20.34 45.41,45.41 0,25.07 -20.35,45.41 -45.41,45.41 -25.08,0 -45.41,-20.34 -45.41,-45.41z"/>
  <path class="fil0" d="M13647.54 21117.42c0,-25.07 20.33,-45.41 45.4,-45.41 25.08,0 45.4,20.34 45.4,45.41 0,25.07 -20.32,45.41 -45.4,45.41 -25.07,0 -45.4,-20.34 -45.4,-45.41z"/>
  <path class="fil0" d="M13798.76 21117.42c0,-25.07 20.33,-45.41 45.41,-45.41 25.08,0 45.41,20.34 45.41,45.41 0,25.07 -20.33,45.41 -45.41,45.41 -25.08,0 -45.41,-20.34 -45.41,-45.41z"/>
  <path class="fil0" d="M13950 21117.42c0,-25.07 20.32,-45.41 45.4,-45.41 25.07,0 45.4,20.34 45.4,45.41 0,25.07 -20.33,45.41 -45.4,45.41 -25.08,0 -45.4,-20.34 -45.4,-45.41z"/>
  <path class="fil0" d="M14101.21 21117.42c0,-25.07 20.35,-45.41 45.41,-45.41 25.08,0 45.41,20.34 45.41,45.41 0,25.07 -20.33,45.41 -45.41,45.41 -25.06,0 -45.41,-20.34 -45.41,-45.41z"/>
  <path class="fil0" d="M14252.44 21117.42c0,-25.07 20.33,-45.41 45.42,-45.41 25.06,0 45.4,20.34 45.4,45.41 0,25.07 -20.34,45.41 -45.4,45.41 -25.09,0 -45.42,-20.34 -45.42,-45.41z"/>
  <path class="fil0" d="M14403.68 21117.42c0,-25.07 20.33,-45.41 45.39,-45.41 25.08,0 45.41,20.34 45.41,45.41 0,25.07 -20.33,45.41 -45.41,45.41 -25.06,0 -45.39,-20.34 -45.39,-45.41z"/>
  <path class="fil0" d="M14554.89 21117.42c0,-25.07 20.34,-45.41 45.41,-45.41 25.08,0 45.42,20.34 45.42,45.41 0,25.07 -20.34,45.41 -45.42,45.41 -25.07,0 -45.41,-20.34 -45.41,-45.41z"/>
  <path class="fil0" d="M14706.13 21117.42c0,-25.07 20.33,-45.41 45.41,-45.41 25.06,0 45.39,20.34 45.39,45.41 0,25.07 -20.33,45.41 -45.39,45.41 -25.08,0 -45.41,-20.34 -45.41,-45.41z"/>
  <path class="fil0" d="M14857.35 21117.42c0,-25.07 20.34,-45.41 45.4,-45.41 25.09,0 45.41,20.34 45.41,45.41 0,25.07 -20.32,45.41 -45.41,45.41 -25.06,0 -45.4,-20.34 -45.4,-45.41z"/>
  <path class="fil0" d="M15008.58 21117.42c0,-25.07 20.33,-45.41 45.41,-45.41 25.08,0 45.41,20.34 45.41,45.41 0,25.07 -20.33,45.41 -45.41,45.41 -25.08,0 -45.41,-20.34 -45.41,-45.41z"/>
  <path class="fil0" d="M15159.81 21117.42c0,-25.07 20.34,-45.41 45.4,-45.41 25.07,0 45.41,20.34 45.41,45.41 0,25.07 -20.34,45.41 -45.41,45.41 -25.06,0 -45.4,-20.34 -45.4,-45.41z"/>
  <path class="fil0" d="M15311.03 21117.42c0,-25.07 20.33,-45.41 45.41,-45.41 25.08,0 45.41,20.34 45.41,45.41 0,25.07 -20.33,45.41 -45.41,45.41 -25.08,0 -45.41,-20.34 -45.41,-45.41z"/>
  <path class="fil0" d="M15462.27 21117.42c0,-25.07 20.32,-45.41 45.4,-45.41 25.07,0 45.4,20.34 45.4,45.41 0,25.07 -20.33,45.41 -45.4,45.41 -25.08,0 -45.4,-20.34 -45.4,-45.41z"/>
  <path class="fil0" d="M15613.48 21117.42c0,-25.07 20.35,-45.41 45.41,-45.41 25.08,0 45.41,20.34 45.41,45.41 0,25.07 -20.33,45.41 -45.41,45.41 -25.06,0 -45.41,-20.34 -45.41,-45.41z"/>
  <path class="fil0" d="M15764.71 21117.42c0,-25.07 20.33,-45.41 45.42,-45.41 25.06,0 45.4,20.34 45.4,45.41 0,25.07 -20.34,45.41 -45.4,45.41 -25.09,0 -45.42,-20.34 -45.42,-45.41z"/>
  <path class="fil0" d="M15915.95 21117.42c0,-25.07 20.33,-45.41 45.39,-45.41 25.08,0 45.41,20.34 45.41,45.41 0,25.07 -20.33,45.41 -45.41,45.41 -25.06,0 -45.39,-20.34 -45.39,-45.41z"/>
  <path class="fil0" d="M16067.17 21117.42c0,-25.07 20.34,-45.41 45.4,-45.41 25.09,0 45.42,20.34 45.42,45.41 0,25.07 -20.33,45.41 -45.42,45.41 -25.06,0 -45.4,-20.34 -45.4,-45.41z"/>
  <path class="fil0" d="M16218.4 21117.42c0,-25.07 20.33,-45.41 45.41,-45.41 25.06,0 45.39,20.34 45.39,45.41 0,25.07 -20.33,45.41 -45.39,45.41 -25.08,0 -45.41,-20.34 -45.41,-45.41z"/>
  <path class="fil1" d="M16369.66 21117.42c0,-41.75 33.86,-75.61 75.61,-75.61 41.77,0 75.62,33.86 75.62,75.61 0,41.76 -33.85,75.62 -75.62,75.62 -41.75,0 -75.61,-33.86 -75.61,-75.62z"/>
  <path class="fil1" d="M279.11 21117.42c0,-41.75 33.86,-75.61 75.61,-75.61 41.75,0 75.61,33.86 75.61,75.61 0,41.76 -33.86,75.62 -75.61,75.62 -41.75,0 -75.61,-33.86 -75.61,-75.62z"/>
  <path class="fil0" d="M8399.99 21616.51c25.08,0 45.41,-20.33 45.41,-45.41 0,-25.07 -20.33,-45.4 -45.41,-45.4 -25.06,0 -45.39,20.33 -45.39,45.4 0,25.08 20.33,45.41 45.39,45.41z"/>
  <path class="fil1" d="M8399.99 21828.19c41.76,0 75.61,-33.86 75.61,-75.61 0,-41.76 -33.85,-75.62 -75.61,-75.62 -41.75,0 -75.61,33.86 -75.61,75.62 0,41.75 33.86,75.61 75.61,75.61z"/>
 </g>
</svg>
